<svg xmlns="http://www.w3.org/2000/svg" xmlns:xlink="http://www.w3.org/1999/xlink" viewBox="0 0 736 480"><defs><style>.a{fill:#f44336;}.b{fill:#fff;}.c{fill:#fafafa;}.d,.e,.f,.g{fill:none;stroke-miterlimit:10;stroke-width:2px;}.d{stroke:url(#a);}.e{stroke:url(#b);}.f{stroke:url(#c);}.g{stroke:url(#d);}.h{fill:#ffd600;}.i{fill:#f5f5f5;}</style><linearGradient id="a" x1="187.76" y1="173.28" x2="343.81" y2="173.28" gradientUnits="userSpaceOnUse"><stop offset="0" stop-color="#eee" stop-opacity="0"/><stop offset="0.5" stop-color="#eee"/><stop offset="1" stop-color="#eee" stop-opacity="0"/></linearGradient><linearGradient id="b" x1="188.89" y1="318.7" x2="462.39" y2="318.7" xlink:href="#a"/><linearGradient id="c" x1="392.34" y1="258.53" x2="548.87" y2="258.53" xlink:href="#a"/><linearGradient id="d" x1="273.76" y1="113.88" x2="548.03" y2="113.88" xlink:href="#a"/></defs><title>Dinner</title><rect class="a" x="-72" y="-72" width="880" height="624"/><path class="b" d="M547.37,395.54c-12.68-3.22-33.4-8.1-59.39-12.38-114-18.77-206.14-5.62-239.21,0-25.78,4.38-46.41,9.41-59.39,12.84l-0.92-.63C191.73,382.69,196.69,362,201,336c19-114,5.7-206.14,0-239.21-4.45-25.78-9.55-46.41-13-59.39l0.63-.91c12.68,3.3,33.4,8.3,59.39,12.68,114,19.22,206.14,5.75,239.21,0C513,44.66,533.65,39.51,546.62,36l0.92,0.63C544.29,49.31,539.37,70,535.05,96c-18.92,114-5.67,206.14,0,239.21,4.42,25.78,9.49,46.41,12.95,59.39"/><rect class="c" x="299.4" y="147.58" width="137.36" height="137.36" transform="translate(-58.82 213.01) rotate(-30)"/><line class="d" x1="188.63" y1="36.47" x2="342.94" y2="310.08"/><line class="e" x1="189.38" y1="396" x2="461.89" y2="241.4"/><line class="f" x1="548" y1="394.62" x2="393.21" y2="122.45"/><line class="g" x1="547.54" y1="36.63" x2="274.26" y2="191.13"/><rect class="b" x="615.98" y="139.95" width="28.79" height="414.96"/><rect class="h" x="615.98" y="176.69" width="28.79" height="9.6"/><rect class="h" x="615.98" y="193" width="28.79" height="9.6"/><rect class="b" x="657.4" y="139.95" width="28.79" height="414.96"/><rect class="h" x="657.4" y="176.69" width="28.79" height="9.6"/><rect class="h" x="657.4" y="193" width="28.79" height="9.6"/><circle class="i" cx="11.38" cy="386.36" r="110.84"/><path class="b" d="M-30.18,432.44c-16.32-14.56-13.53-38.74-13-42.78,2.49-19.69,15-32.23,22.67-39.65C-4,333.94,9.13,332.22,31.76,321.4c33.81-16.17,56.37-37,70.39-50.26,34.21-32.33,47.25-59.48,61.8-55.2a14.9,14.9,0,0,1,9.59,9.82c4.34,15-22.23,28.52-54.25,62.86C103,306.15,85,326.18,72.35,356.56,61.42,382.71,63.64,394.78,48,414.45c-7.09,8.93-19.72,24.39-40.61,27.48C3.63,442.5-15.71,445.35-30.18,432.44Z"/></svg>