<svg xmlns="http://www.w3.org/2000/svg" viewBox="0 0 736 480"><defs><style>.a{fill:#ffeb3b;}.b{fill:#fbc02d;}.c{fill:#fdd835;}.d{fill:#212121;}.e{fill:#424242;}.e,.f{stroke:#000;stroke-width:2px;}.e,.f,.g{stroke-miterlimit:10;}.f,.g{fill:none;}.g{stroke:#d50000;stroke-width:4px;}</style></defs><title>Experience</title><rect class="a" x="-72" y="-72" width="880" height="624"/><rect class="b" x="181.33" y="-72" width="373.33" height="624"/><rect class="c" x="298" y="-72" width="140" height="624"/><circle class="d" cx="368" cy="384" r="210"/><circle class="e" cx="368" cy="384" r="70"/><path class="f" d="M438,384c0,103.18-31.31,186.67-70,186.67"/><path class="f" d="M298,383.67C298,280.49,329.31,197,368,197"/><path class="f" d="M368.17,313.83c103.18,0,186.67,31.31,186.67,70"/><path class="f" d="M367.83,453.83c-103.18,0-186.67-31.31-186.67-70"/><path class="f" d="M417.62,334.45c73,73,109.85,154.13,82.5,181.49"/><path class="f" d="M318.38,433.21c-73-73-109.85-154.13-82.5-181.49"/><path class="f" d="M318.62,334.22c73-73,154.13-109.85,181.49-82.5"/><path class="f" d="M417.38,433.45c-73,73-154.13,109.85-181.49,82.5"/><circle class="g" cx="368" cy="384" r="186.67"/></svg>