<svg xmlns="http://www.w3.org/2000/svg" xmlns:xlink="http://www.w3.org/1999/xlink" viewBox="0 0 736 480"><defs><style>.a,.g{fill:#1a237e;}.b{fill:url(#a);}.c{fill:url(#b);}.d{fill:url(#c);}.e,.h{fill:#fff;}.e{opacity:0.2;}.f{fill:url(#d);}.g{opacity:0.6;}.i{fill:#ffff8d;}</style><linearGradient id="a" x1="334.07" y1="644" x2="334.07" y2="76.33" gradientUnits="userSpaceOnUse"><stop offset="0" stop-color="#43a047"/><stop offset="0.28" stop-color="#409f49"/><stop offset="0.51" stop-color="#369b51"/><stop offset="0.72" stop-color="#25965e"/><stop offset="0.91" stop-color="#0d8e71"/><stop offset="1" stop-color="#00897b"/></linearGradient><linearGradient id="b" x1="312.61" y1="169.26" x2="312.61" y2="239.26" gradientUnits="userSpaceOnUse"><stop offset="0" stop-color="#eee"/><stop offset="0.65" stop-color="#eceff0"/><stop offset="0.88" stop-color="#e7f2f7"/><stop offset="1" stop-color="#e1f5fe"/></linearGradient><linearGradient id="c" x1="41.45" y1="84.73" x2="41.45" y2="294.41" xlink:href="#b"/><linearGradient id="d" x1="518.01" y1="76.33" x2="518.01" y2="227.31" xlink:href="#b"/></defs><title>Night</title><rect class="a" x="-72" y="-72" width="880" height="624"/><polygon class="b" points="864.55 644 -196.41 644 38.09 84.73 203.25 322 307.69 169.26 424.7 228.79 529.84 76.33 864.55 644"/><polygon class="c" points="307.69 169.26 259.82 239.26 272.77 233.57 283.76 239.26 303.03 234.77 314.88 239.1 327.23 227 338.71 227 344.53 213 360.31 213 365.39 198.64 307.69 169.26"/><polygon class="d" points="38.09 84.73 -49.83 294.41 -18.3 265.8 1.68 272.9 20.04 254.26 49.48 269.17 67.29 249.26 96.06 273.24 109.07 250 124 250 132.73 220.74 38.09 84.73"/><polygon class="e" points="203.25 321.78 179.55 356.41 38.09 84.73 203.25 321.78"/><polygon class="e" points="307.69 169.26 361.53 329.26 424.7 228.79 307.69 169.26"/><polygon class="f" points="529.84 76.33 441.62 204.26 473.45 196.25 500.16 227.31 520.71 200.37 543.32 214.48 566.8 194.5 584.41 200.37 594.39 185.8 529.84 76.33"/><polygon class="e" points="529.84 76.33 707.36 644 864.55 644 529.84 76.33"/><rect class="g" x="-196.41" y="76.33" width="1060.96" height="567.67"/><rect class="h" x="117.44" y="155.38" width="2.18" height="2.18" transform="translate(-75.92 129.64) rotate(-45)"/><rect class="h" x="198.81" y="182.94" width="2.9" height="2.9" transform="translate(-71.73 195.61) rotate(-45)"/><rect class="h" x="512.66" y="51.04" width="2.18" height="2.18" transform="translate(113.61 378.54) rotate(-45)"/><rect class="h" x="405.5" y="52.22" width="2.9" height="2.9" transform="translate(81.24 303.48) rotate(-45)"/><rect class="h" x="697.12" y="215.19" width="2.18" height="2.18" transform="translate(51.57 557.05) rotate(-45)"/><rect class="h" x="679.3" y="301.55" width="2.9" height="2.9" transform="translate(-14.87 570.11) rotate(-45)"/><rect class="h" x="93.68" y="66.13" width="2.9" height="2.9" transform="translate(-19.92 87.06) rotate(-45)"/><rect class="h" x="415.1" y="165.76" width="2.9" height="2.9" transform="translate(3.77 343.52) rotate(-45)"/><rect class="h" x="178.03" y="94.06" width="2.9" height="2.9" transform="translate(-14.97 154.89) rotate(-45)"/><path class="i" d="M671.74,114a34.65,34.65,0,0,0,9-15.61,34.81,34.81,0,0,1-42.64-42.64A34.82,34.82,0,1,0,671.74,114Z"/></svg>