<svg xmlns="http://www.w3.org/2000/svg" viewBox="0 0 736 480"><defs><style>.a{fill:#e0f2f1;}.b{fill:#009688;}.c{fill:#4db6ac;}.d{fill:#80cbc4;}.e{fill:#26a69a;}</style></defs><title>Presentation</title><rect class="a" x="-72" y="-72" width="880" height="624"/><polygon class="b" points="576 -72 -72 -72 -72 160 476 160 516 200 516 160 576 160 576 -72"/><polygon class="c" points="160 552 808 552 808 320 260 320 220 280 220 320 160 320 160 552"/><polygon class="d" points="160 160 100 160 60 120 60 160 -72 160 -72 552 160 552 160 160"/><polygon class="e" points="576 320 636 320 676 360 676 320 808 320 808 -72 576 -72 576 320"/></svg>