<svg xmlns="http://www.w3.org/2000/svg" viewBox="0 0 40 40"><title>1DX2</title><path d="M8.55,13.31c0.2-.12.4-0.21,0.57-0.33a3.35,3.35,0,0,0,.41-0.36,0.78,0.78,0,0,1,.76-0.18,2.56,2.56,0,0,1,.34.12,1.23,1.23,0,0,0,.72,0,0.58,0.58,0,0,0,.21-0.15,0.22,0.22,0,0,0,0-.08c0.2-.51.36-0.57,0.76-0.19a1.18,1.18,0,0,0,1.19.19,0.3,0.3,0,0,0,.14-0.11,0.72,0.72,0,0,0,.09-0.16,0.49,0.49,0,0,1,.85-0.24L14.84,12a0.59,0.59,0,0,0,.53.07c0.29-.1.57-0.21,0.85-0.33a4.23,4.23,0,0,1,.41-0.2,3.53,3.53,0,0,0,1.22-.79,1,1,0,0,0,.22-0.28,10.77,10.77,0,0,0,.61-0.9A1,1,0,0,1,19,9.24c0.14-.12.31-0.2,0.44-0.33a1.67,1.67,0,0,1,.63-0.36,2.93,2.93,0,0,0,1-.54,0.79,0.79,0,0,1,.32-0.16,7.7,7.7,0,0,1,.89-0.19,1.58,1.58,0,0,1,1.06.21l1.57,0.94a2.16,2.16,0,0,1,.55.48,9.62,9.62,0,0,1,.86,1.18,5.24,5.24,0,0,0,1.18,1.26,1.89,1.89,0,0,0,.39.23c0.25,0.12.49,0.25,0.75,0.35a7.8,7.8,0,0,1,1.57.93,1.42,1.42,0,0,1,.47.55c0.16,0.33.33,0.65,0.48,1a6.14,6.14,0,0,1,.44,1.39,12.05,12.05,0,0,1,.24,3.63,2,2,0,0,0,0,.27c0,1.07.05,2.13,0.09,3.2,0,0.3.06,0.6,0.09,0.92,0,0.06-.08.15-0.14,0.22a0.83,0.83,0,0,0-.16.51c0,0.43,0,.85,0,1.28a1.14,1.14,0,0,1-.2.78A4.35,4.35,0,0,0,31,28.13a13,13,0,0,1-1,2,6.73,6.73,0,0,1-.85,1.07,2,2,0,0,1-.59.42,6,6,0,0,1-2.19.61,4.16,4.16,0,0,1-1.45.05,0.77,0.77,0,0,0-.27,0,1.89,1.89,0,0,1-.45.05,8.53,8.53,0,0,0-1.54,0,4.94,4.94,0,0,1-1,0A25.6,25.6,0,0,0,19,32.17l-0.73,0a1.13,1.13,0,0,0-.27,0A14.42,14.42,0,0,1,15.56,32,2.08,2.08,0,0,1,15,31.93a5.72,5.72,0,0,0-1.18-.13c-0.27,0-.54-0.06-0.82-0.09l-0.45,0a1.72,1.72,0,0,1-.53.08c-0.17-.06-0.34-0.13-0.52-0.18s-0.42-.09-0.62-0.16a4.37,4.37,0,0,1-1.38-.69,2.1,2.1,0,0,1-.78-1.2c-0.05-.24-0.14-0.47-0.21-0.7a4.63,4.63,0,0,1-.2-1.44,4.39,4.39,0,0,0,0-.82,2.22,2.22,0,0,1,0-.63,1.34,1.34,0,0,0,0-.45,1.3,1.3,0,0,1,0-.63,0.53,0.53,0,0,0,0-.27,3.86,3.86,0,0,1,0-1.17,3,3,0,0,0-.08-1.26,1.33,1.33,0,0,1,0-.45A4.63,4.63,0,0,0,8,20.61,2.9,2.9,0,0,1,8,19.88c0-1.25,0-2.5,0-3.75a2.4,2.4,0,0,1,.13-1C8.16,14.5,8.44,13.92,8.55,13.31Zm12.21-2.89a0.61,0.61,0,0,0,.4.33,0.21,0.21,0,0,0,.23-0.1,0.28,0.28,0,0,0,0-.17A0.3,0.3,0,0,0,21,10.3a1.64,1.64,0,0,0-.22.15,0.56,0.56,0,0,1,0-.09,0.53,0.53,0,0,1,.87-0.29,1.31,1.31,0,0,1,.32.31c0.14,0.15.2,0.13,0.28-.11a0.42,0.42,0,0,1,.46-0.34,1.39,1.39,0,0,1,.35.08,0.5,0.5,0,0,0,.44,0l0.16-.09a0.59,0.59,0,0,1,.61,0,1.69,1.69,0,0,0,1,.07,0.18,0.18,0,0,0,.09-0.14,0.43,0.43,0,0,0-.08-0.25,2.3,2.3,0,0,0-.79-0.6,3.45,3.45,0,0,0-1.59-.38c-0.3,0-.61,0-0.91,0a6.36,6.36,0,0,0-1.54.18,1.69,1.69,0,0,0-.84.51,1.75,1.75,0,0,0-.7,1.43,6.9,6.9,0,0,0-.15.9,0.59,0.59,0,0,0,.3.53,4.7,4.7,0,0,0,.94.34,3.28,3.28,0,0,0,1.25.2l2.83,0a5.21,5.21,0,0,0,1.52-.29,0.42,0.42,0,0,0,.31-0.49,0.77,0.77,0,0,0-.25-0.65,4.46,4.46,0,0,1-.41-0.48,0.18,0.18,0,0,0-.16,0,0.36,0.36,0,0,0-.13.12,0.37,0.37,0,0,1-.46.2,0.54,0.54,0,0,0-.36,0l-0.35.1A0.65,0.65,0,0,1,23,10.8a1.49,1.49,0,0,0-.17-0.22,0.16,0.16,0,0,0-.23,0l-0.13.24a0.39,0.39,0,0,1-.36.23H22A8.54,8.54,0,0,0,21.1,11c-0.3,0-.6.07-0.9,0.1a0.69,0.69,0,0,1-.57-0.23,0.54,0.54,0,0,1-.09-0.15,0.64,0.64,0,0,1,0-.37A1.15,1.15,0,0,1,20,9.5c0.29-.21.83-0.43,0.86-0.16a3.14,3.14,0,0,1-.66.44,0.85,0.85,0,0,0-.3.82c0.13,0.25.49,0.23,0.8-.14A0.24,0.24,0,0,1,20.76,10.42ZM16.62,23a5.17,5.17,0,0,0-.34-1.83A3.19,3.19,0,0,1,16,19.93,2.38,2.38,0,0,0,16,19.39a0.22,0.22,0,0,0-.11-0.14c-0.11,0-.23-0.07-0.35-0.11a0.74,0.74,0,0,1-.61-0.8c0-.64.1-1.27,0.08-1.91a0.55,0.55,0,0,1,.15-0.32,1.15,1.15,0,0,1,.64-0.32,0.6,0.6,0,0,1,.41.16,0.7,0.7,0,0,0,.17.06,0.11,0.11,0,0,0,.15-0.08,4.9,4.9,0,0,1,.4-1.11,4.33,4.33,0,0,0,.36-1,10.07,10.07,0,0,1,.33-1.33,1.59,1.59,0,0,0,.05-0.72,0.23,0.23,0,0,0-.28-0.16l-0.25.1a8.47,8.47,0,0,1-2.58.89l-0.45.07a0.63,0.63,0,0,0-.53.45,3.31,3.31,0,0,0-.2,1.43,4.22,4.22,0,0,1-.06,1.72,1.79,1.79,0,0,0,0,1,3.14,3.14,0,0,1,.08.9,8.7,8.7,0,0,0,0,1.81,1.44,1.44,0,0,1-.05.54,1.48,1.48,0,0,0,0,.54,4.52,4.52,0,0,1,0,1.55,10.14,10.14,0,0,0-.12,2,1.5,1.5,0,0,0,.22.87,0.88,0.88,0,0,1,.15.52,0.58,0.58,0,0,0,.25.47,2.07,2.07,0,0,1,.36.28,2.55,2.55,0,0,0,1.15.7,2.5,2.5,0,0,0,.89.17l1.19,0,3.47,0c1,0,2,0,3,0,0.49,0,1,0,1.46.07a2.18,2.18,0,0,0,.54,0,5.45,5.45,0,0,1,1.18-.08,10.13,10.13,0,0,0,2.24-.4c0.37-.08.65-0.34,1-0.44a1.63,1.63,0,0,0,1-1.59,5.55,5.55,0,0,1,0-.64,8.2,8.2,0,0,1,.12-1.64,3.11,3.11,0,0,0,.05-0.64c0-.61,0-1.22,0-1.83a3,3,0,0,1,0-.54,8.68,8.68,0,0,0,0-2.1c0-.3-0.07-0.6-0.1-0.91a3.85,3.85,0,0,0-.29-1.14A0.19,0.19,0,0,0,31,15.71a0.15,0.15,0,0,0-.11.1c0,0.18,0,.36-0.05.55s0,0.18-.06.27a0.16,0.16,0,0,1-.22.09,2.26,2.26,0,0,0-1.82-.32c-0.74.18-.85,0.12-0.79,1,0,0.36,0,.73,0,1.09a0.34,0.34,0,0,0,.26.34c0.09,0,.18,0,0.26.07a0.45,0.45,0,0,1,.32.41q0,0.73,0,1.46a0.44,0.44,0,0,1-.32.41,1.76,1.76,0,0,0-.7.31c-0.16.54-.29,1-0.46,1.52A6.3,6.3,0,0,0,27,24.42a0.55,0.55,0,0,1-.09.17l-0.24.09a0.58,0.58,0,0,0-.28.22,0.81,0.81,0,0,1-.46.28,3.68,3.68,0,0,1-1.62.17,1.63,1.63,0,0,0-.9.08c-0.49.19-1,.14-1.52,0.29a0.46,0.46,0,0,1-.27,0,4.71,4.71,0,0,0-2-.06,2.19,2.19,0,0,1-1.85-.21l-0.25-.12a1.24,1.24,0,0,0-.26-0.07c-0.48-.06-1-0.13-1.45-0.18a1.25,1.25,0,0,1-.72-0.37,0.71,0.71,0,0,1-.14-0.51,3.36,3.36,0,0,0-.06-0.36,0.39,0.39,0,0,1,.29-0.49,3.18,3.18,0,0,1,.63-0.12A2.87,2.87,0,0,0,16.62,23Zm4.91-8.94a4,4,0,0,0-2.56.44l-0.25.12a1,1,0,0,0-.23.14,8.86,8.86,0,0,0-1,1,5.32,5.32,0,0,0-.92,1.87,3.6,3.6,0,0,0-.17,1.26,23.23,23.23,0,0,0,.45,2.7,2.28,2.28,0,0,0,.32.75,6.12,6.12,0,0,0,2.88,2.29,0.69,0.69,0,0,0,.17.05,8,8,0,0,0,1.81.2,8.75,8.75,0,0,1,1-.06A4.35,4.35,0,0,0,25,24.35a2.28,2.28,0,0,0,1.17-1.08c0.2-.41.45-0.79,0.66-1.2a3.84,3.84,0,0,0,.26-0.68c0.08-.26.12-0.53,0.18-0.8a4.6,4.6,0,0,0,0-1.73c-0.1-.57-0.29-1.12-0.43-1.68a2.53,2.53,0,0,0-.39-0.82A5,5,0,0,0,24,14.44a3.51,3.51,0,0,0-2.13-.36A1.28,1.28,0,0,1,21.53,14.07ZM23.27,32c0.4,0,.79,0,1.18,0a14,14,0,0,1,1.63-.11,6.09,6.09,0,0,0,2.29-.55A1.58,1.58,0,0,0,29,30.81l0.23-.29c0.29-.39.51-0.82,0.81-1.21a2.62,2.62,0,0,0,.44-1,0.56,0.56,0,0,0,0-.26A0.31,0.31,0,0,0,30.15,28a2.28,2.28,0,0,0-.34.14,1.73,1.73,0,0,1-1,.21,5.56,5.56,0,0,0-1.18,0c-0.69.12-1.39,0.14-2.09,0.19-0.18,0-.37,0-0.55,0a4.62,4.62,0,0,1-1.54,0,2.21,2.21,0,0,0-.9,0,3.22,3.22,0,0,1-.63.06l-2.46,0c-0.64,0-1.28,0-1.92,0a7.88,7.88,0,0,1-1.62-.22c-0.59-.17-1.2-0.2-1.79-0.35a0.32,0.32,0,0,0-.35.23,2.11,2.11,0,0,0-.08.35,1.53,1.53,0,0,1,0,.36c-0.24.56-.26,1.18-0.55,1.73-0.17.31,0,.52,0.32,0.59a3.64,3.64,0,0,0,.45.07c0.88,0.06,1.75.24,2.63,0.24a2.14,2.14,0,0,1,.36,0,9.4,9.4,0,0,0,1.91.1,5.75,5.75,0,0,1,1.45.09,1.78,1.78,0,0,0,.72,0,2,2,0,0,1,.72,0A9.14,9.14,0,0,0,23.27,32ZM12.52,22.46h0c0-.3,0-0.61,0-0.91s-0.1-.41-0.13-0.62a4.86,4.86,0,0,1-.07-0.81c0-.43.07-0.85,0.1-1.27a2.64,2.64,0,0,0,0-1.09,1,1,0,0,1,0-.36c0-.42.08-0.85,0.1-1.27a1.42,1.42,0,0,0-.05-0.36,0.1,0.1,0,0,0-.14-0.08c-0.2.08-.4,0.15-0.59,0.24s-0.54.28-.81,0.42a2.22,2.22,0,0,1-1.23.27l-0.64,0H8.71a0.4,0.4,0,0,0-.4.41c0,0.82,0,1.64,0,2.47a7,7,0,0,0,.12,1.27c0.09,0.48.09,1,.21,1.44a1,1,0,0,1,0,.36,9.94,9.94,0,0,0-.11,1c0,0.33.08,0.66,0.11,1s0,0.43,0,.64,0,0.43,0,.64a0.55,0.55,0,0,0,.28.45l0.56,0.3a4.44,4.44,0,0,0,.63.37,6.74,6.74,0,0,0,2.31.48l0.18,0a0.31,0.31,0,0,0,.25-0.23,1.46,1.46,0,0,0,0-.45,4.88,4.88,0,0,1-.18-1.26A2.77,2.77,0,0,0,12.61,25a5.51,5.51,0,0,1-.1-1.81A5.24,5.24,0,0,0,12.52,22.46ZM26.9,15.89a0.22,0.22,0,0,0,0-.09,2.84,2.84,0,0,1-.28-1.23,0.66,0.66,0,0,0-.07-0.26L26.05,13a0.32,0.32,0,0,0-.27-0.21,4.26,4.26,0,0,0-1.27,0,5.59,5.59,0,0,1-1.63,0,2.52,2.52,0,0,0-.63,0,5.43,5.43,0,0,1-2.86-.32A4.3,4.3,0,0,0,19,12.45a0.32,0.32,0,0,0-.31.14,0.57,0.57,0,0,0,0,.08,4,4,0,0,1-1,1.91,0.42,0.42,0,0,0-.07.16,0.1,0.1,0,0,0,0,.08,0.26,0.26,0,0,0,.15.08,0.9,0.9,0,0,0,.46-0.28,2,2,0,0,1,.58-0.43,7.22,7.22,0,0,1,1.11-.41,6,6,0,0,1,1.45-.15,8.61,8.61,0,0,1,2.68.45,5.37,5.37,0,0,1,2.37,1.47,3.63,3.63,0,0,0,.4.37,0.11,0.11,0,0,0,.09,0A0.18,0.18,0,0,0,26.9,15.89ZM13.09,28.8c0-.1,0-0.13,0-0.16,0-.6-0.08-0.64-0.59-0.69-0.27,0-.54-0.09-0.81-0.13a7.69,7.69,0,0,1-2.28-.64,1.35,1.35,0,0,0-.25-0.1,0.33,0.33,0,0,0-.46.29,2.15,2.15,0,0,0,.07.81c0.15,0.49.3,1,.44,1.49a1,1,0,0,0,.41.59c0.35,0.24.71,0.47,1.07,0.7a0.79,0.79,0,0,0,.25.1c0.3,0.06.6,0.13,0.9,0.17a0.49,0.49,0,0,0,.49-0.2A3.76,3.76,0,0,0,13.09,28.8ZM9.47,16.14a2.81,2.81,0,0,0,1.67-.38l0.17-.08a1.83,1.83,0,0,0,1.12-1.13,7,7,0,0,0,.28-0.77,1.48,1.48,0,0,0,0-.45A0.4,0.4,0,0,0,12.38,13l-0.82,0a1.68,1.68,0,0,0-1,.26,0.55,0.55,0,0,1-.53,0l-0.26-.08a0.53,0.53,0,0,0-.51.13,1,1,0,0,0-.32.44c-0.12.38-.23,0.76-0.35,1.14a1.8,1.8,0,0,0,0,.81,0.46,0.46,0,0,0,.41.42Zm21.26-1.29a0.17,0.17,0,0,0,0-.08c-0.06-.14-0.13-0.27-0.18-0.41a2.23,2.23,0,0,0-.85-1,3.85,3.85,0,0,0-.86-0.5,6.75,6.75,0,0,1-1.91-1l-0.08,0a0.13,0.13,0,0,0-.09,0,0.24,0.24,0,0,0-.07.15c0.1,0.22.23,0.43,0.32,0.65a0.56,0.56,0,0,1,0,.35,1,1,0,0,0,.08.79,5.72,5.72,0,0,1,.23.59,0.33,0.33,0,0,0,.34.24,1.91,1.91,0,0,1,1,.09,1.1,1.1,0,0,0,.45,0,1.9,1.9,0,0,1,.71.11,5.08,5.08,0,0,0,.71.15A0.35,0.35,0,0,0,30.73,14.85ZM16,23.58a0.8,0.8,0,0,0-.51.14,0.43,0.43,0,0,0,0,.69,3.28,3.28,0,0,0,.5.21,0.29,0.29,0,0,0,.36-0.2A2.51,2.51,0,0,0,16.36,24,0.37,0.37,0,0,0,16,23.58Zm12.5-3.71c0-.13-0.06-0.24-0.09-0.36a0.22,0.22,0,0,0-.23-0.11,0.22,0.22,0,0,0-.15.09c-0.09.35-.18,0.7-0.24,1.06a0.34,0.34,0,0,0,.12.23,0.28,0.28,0,0,0,.33-0.06,1,1,0,0,0,.13-0.24C28.39,20.29,28.42,20.08,28.47,19.87ZM18,24.21a0.42,0.42,0,0,0-.23-0.36,1.74,1.74,0,0,0-.43-0.1,0.32,0.32,0,0,0-.34.51,1.2,1.2,0,0,0,.21.29,0.47,0.47,0,0,0,.5.08A0.48,0.48,0,0,0,18,24.21Zm-2.17-6.14a0.29,0.29,0,0,0-.33-0.3,0.3,0.3,0,0,0-.24.23,0.59,0.59,0,0,0,.1.43,0.21,0.21,0,0,0,.23.1,0.22,0.22,0,0,0,.14-0.1A3.49,3.49,0,0,0,15.84,18.07ZM16,17.18a0.69,0.69,0,0,0-.19-0.61,0.17,0.17,0,0,0-.16,0,0.52,0.52,0,0,0-.23.37,0.3,0.3,0,0,0,.08.33,0.31,0.31,0,0,0,.33.06A0.73,0.73,0,0,0,16,17.18Zm8-6.86a0.12,0.12,0,0,0-.05,0c-0.08,0-.08,0,0,0.07A0.13,0.13,0,0,0,23.94,10.32Z"/><path d="M28.42,24.73a14.61,14.61,0,0,0,1.81,0,0.34,0.34,0,0,1,.4.45,2.34,2.34,0,0,0,0,.72,0.29,0.29,0,0,1-.24.23A1.49,1.49,0,0,1,29.74,26a2.54,2.54,0,0,0-1.25,0,5.58,5.58,0,0,1-.9.07c-0.59,0-.52-0.1-0.66-0.54a0.2,0.2,0,0,1,.22-0.22l0.16,0.07c0.15,0.06.22,0,.22,0a0.48,0.48,0,0,0,0-.25,2.25,2.25,0,0,0-.24-0.26,0.17,0.17,0,0,1,.1-0.22,0.91,0.91,0,0,1,.18,0Zm1.5,0.82,0.06,0a0.14,0.14,0,0,0,0,0c-0.07,0-.09,0-0.07.06A0.13,0.13,0,0,0,29.92,25.56Z"/><path d="M29.86,18.29a1.19,1.19,0,0,1-.24-0.08,0.41,0.41,0,0,0-.5.07,0.62,0.62,0,0,1-.24.11,0.26,0.26,0,0,1-.15-0.08,0.1,0.1,0,0,1,0-.08,0.61,0.61,0,0,1,0-.17A2,2,0,0,0,29,17.56,2.19,2.19,0,0,0,28.87,17a0.09,0.09,0,0,1,.1-0.1,0.16,0.16,0,0,1,.08,0,0.35,0.35,0,0,0,.49,0,0.56,0.56,0,0,1,.16-0.08,0.11,0.11,0,0,1,.08,0,0.11,0.11,0,0,1,0,.16l-0.19.31a0.2,0.2,0,0,0,0,.25c0.15,0.15.32,0.28,0.47,0.42a0.23,0.23,0,0,1,0,.16,0.1,0.1,0,0,1-.07.05Z"/><path d="M24.8,22.5a0.82,0.82,0,0,1,.14-0.43c0.17-.29.35-0.57,0.51-0.87a3.45,3.45,0,0,0,.4-1.21A3.53,3.53,0,0,0,25,17.13a0.34,0.34,0,0,0-.16-0.07,0.11,0.11,0,0,0-.08,0,0.12,0.12,0,0,0-.06.07c0.13,0.5.26,1,.4,1.49a0.85,0.85,0,0,1,0,.54c0,0.09,0,.18-0.07.27s0.07,0.47-.18.57a0.84,0.84,0,0,1-.59-0.17,0.18,0.18,0,0,1-.07-0.24c0-.08.1-0.15,0.15-0.23l0.18-.2a0.22,0.22,0,0,0,0-.32,0.7,0.7,0,0,1-.38-0.58,1.65,1.65,0,0,0-.27-0.86c-0.15-.19-0.33-0.36-0.49-0.54a0.09,0.09,0,0,1,0-.15,0.11,0.11,0,0,1,.08,0,1.23,1.23,0,0,1,.23.14l0.4,0.37a0.09,0.09,0,0,0,.09,0,0.31,0.31,0,0,0,.09-0.14,0.35,0.35,0,0,0-.14-0.32,2.51,2.51,0,0,0-.31-0.19c-0.18-.11-0.17-0.17,0-0.31s0.16-.21.07-0.29a2.47,2.47,0,0,0-.5-0.39,8.28,8.28,0,0,0-1.26-.54c-0.47-.12-0.93-0.27-1.4-0.38a0.1,0.1,0,0,1,0-.08,0.09,0.09,0,0,1,0-.07,0.71,0.71,0,0,1,.26,0,9,9,0,0,1,2.11.56,3,3,0,0,1,1.06.7l0.52,0.52a4.89,4.89,0,0,1,1.42,2.1,1.38,1.38,0,0,1,.13.43c0,0.42,0,.85,0,1.28a2.53,2.53,0,0,1-.42,1.38,9.43,9.43,0,0,1-.57.82,0.52,0.52,0,0,1-.48.2Z"/><path d="M24.78,22.47a0.51,0.51,0,0,1-.13.51c-0.18.16-.37,0.32-0.54,0.49a2.78,2.78,0,0,1-2.25.81A3.76,3.76,0,0,1,21,24.09a5,5,0,0,1-1.62-.82,9.76,9.76,0,0,1-1.79-1.94,2.19,2.19,0,0,1-.45-1.27,2,2,0,0,0-.06-0.54,3.36,3.36,0,0,1,.22-2.22,5.47,5.47,0,0,1,.22-0.5A3.88,3.88,0,0,1,20,14.7a0.19,0.19,0,0,1,.07.06,1.84,1.84,0,0,1-.65.74,0.9,0.9,0,0,1-.32.16,1.48,1.48,0,0,0-1,.82,3.39,3.39,0,0,1-.48.77,0.49,0.49,0,0,0-.09.25c-0.06.3-.11,0.6-0.16,0.9a0.84,0.84,0,0,0,0,.27,14.9,14.9,0,0,0,.33,2.07,0.9,0.9,0,0,0,.17.32c0.42,0.48.84,1,1.29,1.41a5,5,0,0,0,2,1.18,3.48,3.48,0,0,0,1.53.14,1.8,1.8,0,0,0,1.13-.55l0.51-.52a0.72,0.72,0,0,1,.49-0.22Z"/><path d="M23.43,19.15a3.5,3.5,0,0,1-.52,1.56,0.55,0.55,0,0,1-.44.28,6.44,6.44,0,0,1-.91,0A1.88,1.88,0,0,1,20,19.85a0.76,0.76,0,0,1-.06-0.26c0-.24,0-0.48,0-0.73A0.58,0.58,0,0,1,20,18.45a1.47,1.47,0,0,1,1.56-.73,3.06,3.06,0,0,1,.54,0,0.51,0.51,0,0,1,.25.1A2.93,2.93,0,0,1,23.43,19.15Zm-0.29.29a1.75,1.75,0,0,0-.48-1,2.37,2.37,0,0,0-1.15-.51,0.93,0.93,0,0,0-.83.28,2.49,2.49,0,0,0-.55.83,0.7,0.7,0,0,0,0,.53,2.3,2.3,0,0,0,1.94,1.3,0.84,0.84,0,0,0,.7-0.36A3,3,0,0,0,23.14,19.43Z"/><path d="M10.74,21.55a0.36,0.36,0,0,1-.31-0.16,0.32,0.32,0,0,1,0-.4A0.59,0.59,0,0,1,11,20.86a0.22,0.22,0,0,1,.19.32,1.19,1.19,0,0,1-.12.23A0.33,0.33,0,0,1,10.74,21.55Z"/><path d="M11.35,28.54a2.18,2.18,0,0,1,.29,0,0.42,0.42,0,0,1,.26.24,0.82,0.82,0,0,1,.07.44,1.26,1.26,0,0,1-.24.58,0.57,0.57,0,0,1-.8.14,1,1,0,0,1-.39-1,0.51,0.51,0,0,1,.38-0.35A3.8,3.8,0,0,1,11.35,28.54Zm-0.05.36a0.65,0.65,0,0,0-.2.11,0.52,0.52,0,0,0,0,.65,0.25,0.25,0,0,0,.31.09,0.68,0.68,0,0,0,.33-0.39A0.38,0.38,0,0,0,11.3,28.9Z"/><path d="M10.87,14.46a1.43,1.43,0,0,1-.3.88,0.36,0.36,0,0,1-.41.07,1,1,0,0,1-.47-0.72,0.46,0.46,0,0,1,0-.26A1.06,1.06,0,0,1,10.17,14a0.46,0.46,0,0,1,.68.34Zm-0.31.24c0-.09-0.05-0.18-0.08-0.26a0.07,0.07,0,0,0-.07,0,0.43,0.43,0,0,0-.22.45,0.19,0.19,0,0,0,.23.06A1.9,1.9,0,0,0,10.56,14.7Z"/></svg>