<svg xmlns="http://www.w3.org/2000/svg" viewBox="0 0 40 40"><title>80D</title><path d="M7.89,17.14A3.61,3.61,0,0,0,9.16,15.7c0.32-.09.66-0.14,1-0.25a1,1,0,0,1,1,0,1.22,1.22,0,0,0,.5.12,1.18,1.18,0,0,0,.21,0h0.43l0.47-.4a0.39,0.39,0,0,1,.4-0.05,1.89,1.89,0,0,1,.37.19,0.51,0.51,0,0,0,.46.19,1.11,1.11,0,0,0,.28-0.29,0.41,0.41,0,0,1,.16-0.13,0.56,0.56,0,0,1,.3,0,0.76,0.76,0,0,1,.25.18c0.31,0.29.31,0.29,0.66,0a1.13,1.13,0,0,1,.25-0.18,0.35,0.35,0,0,1,.2,0,0.39,0.39,0,0,1,.19.08,0.8,0.8,0,0,0,1.13,0,4.76,4.76,0,0,0,1.16-1.19c0.15-.23.3-0.47,0.47-0.69a7.09,7.09,0,0,1,1.67-1.55,0.21,0.21,0,0,1,.28,0,0.75,0.75,0,0,0,.64.27q0.84,0,1.67.06a2.32,2.32,0,0,1,1.67.75,4.56,4.56,0,0,0,.46.43,0.47,0.47,0,0,0,.27.15,1.43,1.43,0,0,1,.91.45,0.23,0.23,0,0,0,.27-0.08c0.07-.12.14-0.24,0.2-0.37a0.5,0.5,0,0,1,.7-0.25A8.18,8.18,0,0,0,30,14l0.2,0.07a0.35,0.35,0,0,1,.2.33,1.3,1.3,0,0,0,.4,1.59,0.77,0.77,0,0,1,.27.44,0.64,0.64,0,0,0,.64.57l0.52,0.07a0.17,0.17,0,0,1,.17.21,0.28,0.28,0,0,1-.24.17l-0.73,0a0.37,0.37,0,0,0-.27.4c0,0.2.12,0.4,0.15,0.6a12.42,12.42,0,0,1,.14,1.76,9.48,9.48,0,0,0,0,1.25,2.2,2.2,0,0,1-.05.72A6,6,0,0,0,31.26,24a2.49,2.49,0,0,1-.15,1A5.29,5.29,0,0,1,30,26.8a1.5,1.5,0,0,1-.69.45c-0.46.15-.93,0.31-1.4,0.43a3.91,3.91,0,0,1-.83.1,10.35,10.35,0,0,0-1,.1c-0.41.06-.83,0.06-1.25,0.08a9.81,9.81,0,0,0-2,.15,1.55,1.55,0,0,1-.42,0,19.55,19.55,0,0,0-2.81.16h-0.1a10,10,0,0,0-1.46,0,3.29,3.29,0,0,1-1.35,0,0.77,0.77,0,0,0-.31,0,6.24,6.24,0,0,1-1.56,0c-0.85,0-2.14-.11-3-0.22a16.32,16.32,0,0,1-2-.3,2.83,2.83,0,0,1-1.44-.8A1.55,1.55,0,0,1,8,26a7.5,7.5,0,0,0-.19-0.92,1.81,1.81,0,0,1,0-.72,1.86,1.86,0,0,0,0-.62,9.92,9.92,0,0,1,0-3.22,2.41,2.41,0,0,0,0-.93,2.42,2.42,0,0,1,0-1.13,4.37,4.37,0,0,0,0-.73C7.85,17.58,7.87,17.4,7.89,17.14ZM14.61,16v0l-1.67.08a0.26,0.26,0,0,0-.2.2,8.4,8.4,0,0,0,.07.93,1.57,1.57,0,0,1-.25,1.38,0.41,0.41,0,0,0-.07.19,2.51,2.51,0,0,0,.14,1.63,1.87,1.87,0,0,1,.24.79,6.55,6.55,0,0,1,.06.93,8.57,8.57,0,0,0,.11,1c0,0.83,0,1.67.07,2.5A3.1,3.1,0,0,1,12.89,27a1.1,1.1,0,0,0-.11.4,0.36,0.36,0,0,0,.16.24,0.62,0.62,0,0,0,.3.08,23.52,23.52,0,0,0,2.51.07c0.52,0,1,0,1.57,0a24,24,0,0,0,4.48-.18h0.1c0.73,0,1.46-.07,2.19-0.09A2.6,2.6,0,0,0,25,27.38a1.48,1.48,0,0,1,.72-0.06,5.58,5.58,0,0,0,2.37-.24c0.26-.09.54-0.14,0.81-0.22a0.48,0.48,0,0,0,.19-0.08,0.25,0.25,0,0,0,.09-0.17,0.18,0.18,0,0,0-.13-0.12l-1.36,0a5,5,0,0,1-2.46-.35,0.68,0.68,0,0,0-.51,0,1.58,1.58,0,0,1-.72,0c-0.23,0-.49.09-0.72,0a3.11,3.11,0,0,0-1.14,0,9.38,9.38,0,0,1-2.29,0,1.25,1.25,0,0,1-.83-0.37c-0.32-.32-0.41-0.3-0.81-0.05a0.71,0.71,0,0,1-.18.1,0.26,0.26,0,0,1-.19,0q-0.47-.4-0.93-0.83a0.2,0.2,0,0,1,0-.18c0.2-.13.42-0.24,0.63-0.36a0.37,0.37,0,0,0,.15-0.36c-0.1-.4-0.21-0.81-0.32-1.21a1.22,1.22,0,0,1-.08-0.61,1.62,1.62,0,0,0-.07-1,1.22,1.22,0,0,1,0-.41,10.12,10.12,0,0,1,.13-2.5,1,1,0,0,0,0-.62,1.2,1.2,0,0,1,0-.82c0.06-.2.06-0.42,0.13-0.61,0.27-.78,0-0.73-0.51-0.55A3.42,3.42,0,0,1,16,16ZM8.39,19.49a0.54,0.54,0,0,0-.18.4c0,0.45,0,.91-0.08,1.35a7.39,7.39,0,0,0,0,2.08,9.73,9.73,0,0,1,.1,1.25,5.89,5.89,0,0,0,.19,1.34,1.53,1.53,0,0,0,.74,1,3.53,3.53,0,0,0,.75.35,6,6,0,0,0,1.85.3,0.62,0.62,0,0,0,.51-0.31,0.69,0.69,0,0,0,.1-0.18,3.23,3.23,0,0,0,.24-1.32,7.6,7.6,0,0,0,0-1.35,4.73,4.73,0,0,1-.11-1.14c0-.56,0-1.11-0.05-1.67a1.78,1.78,0,0,0-.22-0.79,2,2,0,0,1-.21-1.6,0.39,0.39,0,0,0,0-.1,0.18,0.18,0,0,0-.21-0.16,5.28,5.28,0,0,1-2.2.59C9.19,19.52,8.77,19.49,8.39,19.49Zm18.5,0.61h0c0-.52,0-1-0.06-1.56a0.75,0.75,0,0,0-.08-0.3,2.31,2.31,0,0,0-.63-0.81,5.88,5.88,0,0,0-1.79-.83,1.57,1.57,0,0,0-.82-0.08,2.45,2.45,0,0,1-1,0,1.49,1.49,0,0,0-.42,0,10.63,10.63,0,0,0-2.74.61,0.85,0.85,0,0,0-.27.16,4.45,4.45,0,0,0-1,1.69,0.45,0.45,0,0,0,0,.21,2.72,2.72,0,0,0,.05.62,1.55,1.55,0,0,1,0,.82,2.89,2.89,0,0,0,.12,1.54,3.49,3.49,0,0,1,.24,1.11,1,1,0,0,0,.17.48,2,2,0,0,0,1.05.82c0.69,0.23,1.4.43,2.1,0.61a1.84,1.84,0,0,0,1.42-.13,1.75,1.75,0,0,1,1.1-.23,1.1,1.1,0,0,0,.78-0.24c0.22-.17.45-0.33,0.66-0.51A1.15,1.15,0,0,0,26,23.78c0.23-.43.45-0.86,0.67-1.3a1.8,1.8,0,0,0,.18-0.81C26.9,21.15,26.89,20.63,26.89,20.1ZM26.2,26a9.13,9.13,0,0,0,1.37,0,15.66,15.66,0,0,1,1.66,0c0.68,0.05.69,0,1.06-.62a3.39,3.39,0,0,0,.46-1.37,3.21,3.21,0,0,0,0-.82,2.72,2.72,0,0,1,0-.52c0-.63.06-1.25,0.07-1.88a3,3,0,0,0,0-.93c-0.12-.4-0.2-0.8-0.31-1.2a0.29,0.29,0,0,0-.25-0.15,2.41,2.41,0,0,1-.61.09,1,1,0,0,0-.68.15,0.49,0.49,0,0,1-.3,0l-0.82-.13a0.21,0.21,0,0,0-.16.11,1,1,0,0,0-.12.39,9.28,9.28,0,0,1-.06,1.35,0.29,0.29,0,0,0,.26.28l0.41,0.06a0.41,0.41,0,0,1,.34.35q0,0.67.09,1.35a0.28,0.28,0,0,1-.28.25L28,22.78a1.13,1.13,0,0,0-1.35,1,4.81,4.81,0,0,1-.18.81A10.74,10.74,0,0,0,26.2,26ZM25.12,14.84c-0.27.11-.49,0.21-0.72,0.29a0.71,0.71,0,0,1-.41,0,2,2,0,0,1-1.27-.61c-0.06-.09-0.19,0-0.24.07a1.33,1.33,0,0,1-.12.29,0.35,0.35,0,0,1-.25.15,1.79,1.79,0,0,0-.93.06,0.9,0.9,0,0,1-.41.05,1.7,1.7,0,0,0-1,0,0.41,0.41,0,0,1-.29-0.07c-0.18-.1-0.34-0.23-0.52-0.35a0.27,0.27,0,0,0-.34.13c-0.14.39-.29,0.78-0.4,1.19a4.87,4.87,0,0,0-.08.82,0.22,0.22,0,0,0,.22.17,1.16,1.16,0,0,0,.19-0.07A3.15,3.15,0,0,1,20,16.39a1.54,1.54,0,0,0,.4-0.12A4.66,4.66,0,0,1,21.82,16c0.56,0,1.12,0,1.67,0a4.2,4.2,0,0,1,2.49.65,1.4,1.4,0,0,0,.64.33,0.23,0.23,0,0,0,.16-0.1,0.29,0.29,0,0,0,0-.19,12.41,12.41,0,0,0-.46-1.82,1.46,1.46,0,0,0-.27-0.44,0.55,0.55,0,0,0-.27-0.14,0.18,0.18,0,0,0-.14.1c0,0.17.06,0.34,0.09,0.51a0.16,0.16,0,0,1-.22.14ZM9.21,19c0.38,0,.55,0,0.73,0a2.55,2.55,0,0,0,1.83-.88,1.84,1.84,0,0,0,.48-1.44A0.73,0.73,0,0,0,11.63,16a4.85,4.85,0,0,0-1.66.11,1.46,1.46,0,0,0-.78.49,2.27,2.27,0,0,0-.25.33c-0.22.4-.43,0.8-0.63,1.2a1.08,1.08,0,0,0-.06.2,0.42,0.42,0,0,0,.33.55ZM21.75,14.4a0.58,0.58,0,0,0,.09-0.17,0.45,0.45,0,0,1,.4-0.41,1.52,1.52,0,0,1,.92.08,0.6,0.6,0,0,0,.5,0,0.7,0.7,0,0,1,.6,0,2.9,2.9,0,0,0,.49.16,0.46,0.46,0,0,0,.2,0,0.22,0.22,0,0,0,.12-0.33l-0.36-.37a2.19,2.19,0,0,0-1.38-.65,7.11,7.11,0,0,1-1.13-.12,2.49,2.49,0,0,0-1.33.12,4,4,0,0,0-.94.41,0.12,0.12,0,0,0,0,.09,0.19,0.19,0,0,0,0,.09,0.37,0.37,0,0,1,.18.35,0.42,0.42,0,0,1-.35.18l-0.1,0a0.48,0.48,0,0,0-.07.84c0.22,0.15.4,0.11,0.47-.12s0.07-.27.12-0.4a0.44,0.44,0,0,1,.41-0.28,1,1,0,0,1,1,.39A1,1,0,0,0,21.75,14.4Zm7.86,2.68,0.62-.13a0.34,0.34,0,0,0,.19-0.34,0.86,0.86,0,0,0-.65-0.73,0.69,0.69,0,0,1-.6-0.33,0.65,0.65,0,0,0-.51-0.33,4.78,4.78,0,0,1-1.29-.4,0.34,0.34,0,0,0-.39.06,0.36,0.36,0,0,0,0,.47,0.86,0.86,0,0,0,.13.17,1.17,1.17,0,0,1,.4.82,2.42,2.42,0,0,0,.06.31,0.36,0.36,0,0,0,.31.24H28a2.34,2.34,0,0,1,1.32.16A1,1,0,0,0,29.61,17.08Zm-6.27,8.8a17.5,17.5,0,0,0,2-.39,0.75,0.75,0,0,0,.53-0.68,0.12,0.12,0,0,0,0-.08,0.12,0.12,0,0,0-.09,0,1,1,0,0,0-.28.12,2.94,2.94,0,0,1-1.84.6,1.68,1.68,0,0,0-.41.06,0.29,0.29,0,0,0-.17.11,0.18,0.18,0,0,0,0,.17A1.41,1.41,0,0,0,23.34,25.88Zm6.09-11.44a0.81,0.81,0,0,0-.16-0.13,7.61,7.61,0,0,1-1-.48,1.17,1.17,0,0,0-.69-0.18,0.13,0.13,0,0,0-.07.07,0.16,0.16,0,0,0,0,.1,0.12,0.12,0,0,0,0,.08,6.36,6.36,0,0,0,1.73.67,0.38,0.38,0,0,0,.19-0.06A0.16,0.16,0,0,0,29.43,14.44Zm-1.31,7.13a1.08,1.08,0,0,0-.2-0.23,0.26,0.26,0,0,0-.29.05,0.19,0.19,0,0,0-.07.07c-0.09.23-.17,0.45-0.25,0.68a0.22,0.22,0,0,0,.26.23,0.43,0.43,0,0,0,.34-0.2C28,22,28,21.78,28.12,21.57Zm-7.8,3.95a0.45,0.45,0,0,0-.07-0.19,3.77,3.77,0,0,0-1-.46,0.2,0.2,0,0,0-.18.05,0.18,0.18,0,0,0,0,.17,1.24,1.24,0,0,0,.92.57,0.38,0.38,0,0,0,.2,0A0.56,0.56,0,0,0,20.31,25.52ZM21,14.42a0.27,0.27,0,0,0-.28-0.23,0.22,0.22,0,0,0-.21.27,0.31,0.31,0,0,0,.28.24A0.24,0.24,0,0,0,21,14.42Zm0.63,11.42a0.53,0.53,0,0,0,.15,0l0.15-.09a0.59,0.59,0,0,0-.14-0.13,0.38,0.38,0,0,0-.38,0,0.11,0.11,0,0,0,0,.08,0.11,0.11,0,0,0,0,.09Zm9-8.32a0.16,0.16,0,0,0-.2-0.15,0.12,0.12,0,0,0-.07.07,0.15,0.15,0,0,0,.16.19A0.33,0.33,0,0,0,30.57,17.52ZM28.32,18a0.16,0.16,0,0,0-.16.2,0.12,0.12,0,0,0,.06.08,0.17,0.17,0,0,0,.21-0.15A0.31,0.31,0,0,0,28.32,18Zm-4.18-3.44a0.16,0.16,0,0,0-.09,0,0.1,0.1,0,0,0,.11.15C24.23,14.63,24.21,14.58,24.15,14.53Z"/><path d="M14.77,18.52a0.53,0.53,0,0,1,.49-0.57h0.21a0.77,0.77,0,0,1,.65.46,0.72,0.72,0,0,1-.2.76,0.61,0.61,0,0,1-1-.16A2.88,2.88,0,0,1,14.77,18.52Zm0.68-.15a0.27,0.27,0,0,0-.24.28,0.27,0.27,0,0,0,.54.06A0.3,0.3,0,0,0,15.45,18.37Z"/><path d="M10.08,21.84l-0.09,0a0.6,0.6,0,0,1-.28-0.61,0.42,0.42,0,0,1,.26-0.4,0.52,0.52,0,0,1,.29,0,0.6,0.6,0,0,1,.39.31,0.32,0.32,0,0,1,0,.38,2.39,2.39,0,0,1-.36.35A0.45,0.45,0,0,1,10.08,21.84Z"/><path d="M22.74,24.17a2.84,2.84,0,0,1-1.78-.5l-0.09-.06a3.4,3.4,0,0,1-1.55-1.77A4.15,4.15,0,0,1,19,20.12a4,4,0,0,1,.35-1.72A0.71,0.71,0,0,1,19.86,18a6.91,6.91,0,0,0,1.89-.57,3.12,3.12,0,0,1,1.84-.26c0.34,0.07.67,0.2,1,.28a2.71,2.71,0,0,1,1.51,1.22,1,1,0,0,1,.12.29c0.09,0.3.17,0.6,0.27,0.9a1.94,1.94,0,0,1-.4,1.95,4.36,4.36,0,0,0-.48.68,4.35,4.35,0,0,1-1.57,1.5,1.48,1.48,0,0,1-.79.23H22.74Zm0.15-.58h0.25a1.53,1.53,0,0,0,1.14-.43L24.51,23a6.59,6.59,0,0,0,1.28-1.63,1.57,1.57,0,0,0,.15-1.5c-0.09-.22-0.15-0.46-0.25-0.69a3.68,3.68,0,0,0-.3-0.54,2.17,2.17,0,0,0-1.16-.84,3,3,0,0,0-2.15,0c-0.42.16-.84,0.32-1.26,0.51a2.05,2.05,0,0,0-1.11,1.19,2.33,2.33,0,0,0-.15,1.12,3.6,3.6,0,0,0,.76,1.8A2.85,2.85,0,0,0,22.88,23.59Z"/><path d="M29.75,20.36a1.67,1.67,0,0,0-1.14.06,0.4,0.4,0,0,1-.29-0.07,0.83,0.83,0,0,1-.31-1,0.23,0.23,0,0,1,.16-0.12,9.21,9.21,0,0,1,1.66-.05,0.62,0.62,0,0,1,.56.39,0.68,0.68,0,0,1-.27.64A1.53,1.53,0,0,1,29.75,20.36Z"/><path d="M11,17.72A1.38,1.38,0,0,1,11,18a0.61,0.61,0,0,1-.16.25,0.73,0.73,0,0,1-1.22-.35,0.24,0.24,0,0,1,0-.1,1,1,0,0,1,.84-0.88,0.55,0.55,0,0,1,.57.47C11,17.51,11,17.61,11,17.72Zm-0.81.15a0.19,0.19,0,0,0,.21.17,0.35,0.35,0,0,0,.21-0.41,0.2,0.2,0,0,0-.16-0.1A0.27,0.27,0,0,0,10.19,17.88Z"/><path d="M23.92,20.11a1.83,1.83,0,0,1-.51,1.37,1.23,1.23,0,0,1-.53.32,0.94,0.94,0,0,1-1-.3,2.89,2.89,0,0,1-.28-0.44,0.86,0.86,0,0,1,.12-1.14c0.14-.16.29-0.3,0.44-0.45a1.13,1.13,0,0,1,1.26-.24,0.73,0.73,0,0,1,.48.51A2.07,2.07,0,0,1,23.92,20.11Zm-1.85.63a0.68,0.68,0,0,0,.35.62,0.41,0.41,0,0,0,.48,0,1.58,1.58,0,0,0,.54-0.73,0.94,0.94,0,0,0-.17-1,0.37,0.37,0,0,0-.36-0.14,0.75,0.75,0,0,0-.52.29A1.66,1.66,0,0,0,22.08,20.73Z"/><path d="M25.57,20.17a1,1,0,0,1-.12.19,0.23,0.23,0,0,1-.27-0.09,10.16,10.16,0,0,0-1-1.61,0.19,0.19,0,0,1,.05-0.17,0.22,0.22,0,0,1,.18,0,0.35,0.35,0,0,1,.16.13c0.29,0.43.59,0.86,0.87,1.3A0.91,0.91,0,0,1,25.57,20.17Z"/><path d="M25.32,21.06a0.19,0.19,0,0,1-.22.15A0.23,0.23,0,0,1,24.9,21a0.18,0.18,0,0,1,.22-0.13A0.18,0.18,0,0,1,25.32,21.06Z"/></svg>