<svg xmlns="http://www.w3.org/2000/svg" viewBox="0 0 40 40"><title>A6300</title><path d="M9.19,17.55L8,17.42a0.47,0.47,0,0,1-.33-0.35c0-.2,0-0.41,0-0.61A0.53,0.53,0,0,1,8.3,15.8a4.85,4.85,0,0,0,.81-0.08,0.52,0.52,0,0,0,.39-0.43c0-.24,0-0.47,0-0.71a0.74,0.74,0,0,1,.18-0.46,1.58,1.58,0,0,1,1-.6,12.81,12.81,0,0,1,3.34-.05,9.82,9.82,0,0,0,1.32.1c1.36,0,2.72,0,4.08,0,0.78,0,1.56,0,2.41.07a4.85,4.85,0,0,1,.69-0.48,0.28,0.28,0,0,1,.32.17s0,0.07,0,.1c0.06,0.28.07,0.3,0.28,0.31a11.93,11.93,0,0,1,1.82.17c0.22,0,.33-0.07.36-0.36,0,0,0-.07,0-0.1a0.56,0.56,0,0,1,0-.1,0.3,0.3,0,0,1,.31-0.2,0.68,0.68,0,0,1,.46.2c0.12,0.12.19,0.28,0.3,0.41a0.47,0.47,0,0,0,.25.16C27,14,27.24,14,27.51,14c0.47,0.05.95,0.1,1.42,0.17a3.77,3.77,0,0,1,.59.17,0.86,0.86,0,0,1,.47.37c0.13,0.2.23,0.41,0.35,0.62a0.29,0.29,0,0,0,.43.12c0.19-.08.37-0.17,0.56-0.24a0.62,0.62,0,0,1,.83.37c0,0.1,0,.2.09,0.29a0.63,0.63,0,0,1-.45,1,1.82,1.82,0,0,0-.36.19,0.56,0.56,0,0,0-.28.51c0,1.29,0,2.58,0,3.87A6.78,6.78,0,0,1,31,22.89a1.84,1.84,0,0,0,0,.81,9.74,9.74,0,0,1,0,1,1,1,0,0,1-.12.49,1.25,1.25,0,0,1-.24.32,0.86,0.86,0,0,1-.17.11c-1.31.87-1.07,0.76-2.65,0.81-0.41,0-.81,0-1.22.09a2.51,2.51,0,0,1-.81,0,1.7,1.7,0,0,0-.71,0,6.45,6.45,0,0,1-1.32.11,7.47,7.47,0,0,0-1.72.14,3.27,3.27,0,0,1-.91.06c-1-.05-2,0-3.06,0a5.45,5.45,0,0,1-1-.07,7.25,7.25,0,0,0-2.23,0,2,2,0,0,1-.6,0c-0.43-.08-0.87-0.15-1.31-0.2a3.31,3.31,0,0,0-.91,0,7.34,7.34,0,0,1-2-.12,0.84,0.84,0,0,1-.19-0.06,0.41,0.41,0,0,1-.3-0.37c0-.41-0.06-0.82-0.05-1.22a15.06,15.06,0,0,0-.14-2.43,16.19,16.19,0,0,1-.06-2c0-.61,0-1.22,0-1.84A1.57,1.57,0,0,0,9.19,17.55ZM29,23.68l0.2,0.24c0.13,0.16.16,0.17,0.33,0.09l0.18-.1a0.12,0.12,0,0,1,.09,0,0.31,0.31,0,0,1,0,.18c0,0.09-.11.17-0.15,0.26a0.19,0.19,0,0,0,0,.17,0.21,0.21,0,0,0,.18,0,0.49,0.49,0,0,0,.22-0.19,4,4,0,0,0,.36-1.48c0-.51.05-1,0.06-1.53a10,10,0,0,1,.12-1.62,3.85,3.85,0,0,0,0-1.32A6.72,6.72,0,0,0,30,16.09c-0.08-.15-0.12-0.32-0.19-0.47a2.29,2.29,0,0,0-.19-0.36,1,1,0,0,0-.74-0.48c-0.34,0-.67-0.11-1-0.14a7.34,7.34,0,0,0-1.22-.06,3.16,3.16,0,0,1-.91-0.06,9.54,9.54,0,0,0-1.42-.16c-0.41,0-.81-0.08-1.22-0.11l-0.41,0-2.14-.06a8.77,8.77,0,0,1-.92-0.06,2.84,2.84,0,0,0-.91,0,5.08,5.08,0,0,1-.81,0H16.52c-0.66,0-.87-0.08-0.85.75,0,0.23-.11.47-0.1,0.7a0.72,0.72,0,0,1-.17.56,1.94,1.94,0,0,0-.47,1A1.53,1.53,0,0,0,15,18.22a3.07,3.07,0,0,1,.25,1.19c0,0.51.09,1,.12,1.52a5.42,5.42,0,0,1,0,.81,8.94,8.94,0,0,0,.08,1.53,4.65,4.65,0,0,1,.07.91,5.62,5.62,0,0,1-.05,1,0.46,0.46,0,0,0,0,.1,0.39,0.39,0,0,0,.21.32,1.59,1.59,0,0,0,.8.11,9.06,9.06,0,0,1,1.83-.09,20.73,20.73,0,0,0,2.75-.17,5.28,5.28,0,0,1,.81,0c1.77,0,3.54-.08,5.3,0a2.05,2.05,0,0,0,.49-0.09,0.18,0.18,0,0,0,.09-0.25,0.48,0.48,0,0,0-.2-0.21c-0.19-.06-0.4-0.08-0.59-0.13a0.34,0.34,0,0,1-.19-0.42,5.4,5.4,0,0,1,.45-0.79,0.56,0.56,0,0,1,.94.06c0.07,0.12.1,0.25,0.16,0.37a0.3,0.3,0,0,0,.51,0A2.71,2.71,0,0,0,29,23.68ZM9.76,19.06c-0.1.54,0.07,1.08,0,1.62a6.61,6.61,0,0,0,.16,1.61,3.1,3.1,0,0,0,.2,1,1.86,1.86,0,0,1,0,.5,1.59,1.59,0,0,0,.09.49,1.74,1.74,0,0,0,1.28,1.05c0.37,0.07.73,0.17,1.1,0.22a10.06,10.06,0,0,0,2,.17A0.4,0.4,0,0,0,15,25.39a7.42,7.42,0,0,0,0-2.13,4.83,4.83,0,0,1-.11-0.8c0-.71,0-1.43,0-2.14a4.92,4.92,0,0,0-.27-1.8,2.58,2.58,0,0,1-.14-1.19c0-.2,0-0.4.06-0.61s-0.1-.36-0.37-0.3a2.87,2.87,0,0,0-1,.31,0.34,0.34,0,0,1-.38,0,1.07,1.07,0,0,0-.48-0.15,15.37,15.37,0,0,1-2-.21,0.7,0.7,0,0,0-.2,0,0.42,0.42,0,0,0-.29.25,6.81,6.81,0,0,0-.05,1A8.88,8.88,0,0,1,9.76,19.06Zm2.71-5.17v0c-0.34,0-.68,0-1,0a5.1,5.1,0,0,0-.71.08,0.54,0.54,0,0,0-.44.37L10,15.43a0.28,0.28,0,0,0,.12.26,0.93,0.93,0,0,0,.18.1,7.41,7.41,0,0,0,2.42.21,0.54,0.54,0,0,0,.18-0.08,0.2,0.2,0,0,0,0-.26l-0.25-.16a2.18,2.18,0,0,1-.35-0.21A0.75,0.75,0,0,1,12,14.57a0.55,0.55,0,0,1,.57-0.35,1,1,0,0,1,.5,0,9.15,9.15,0,0,1,1,.51,0.42,0.42,0,0,1,0,.63c-0.15.13-.33,0.24-0.49,0.36a0.23,0.23,0,0,0,0,.16,0.1,0.1,0,0,0,.09,0,3.76,3.76,0,0,0,.78-0.21,1.26,1.26,0,0,0,.73-1.14A0.39,0.39,0,0,0,15,14.27,4.69,4.69,0,0,1,13.9,14a0.55,0.55,0,0,0-.2,0ZM8.66,17a2.09,2.09,0,0,0,.42-0.07,0.31,0.31,0,0,0,.16-0.22,0.3,0.3,0,0,0-.09-0.25,5.44,5.44,0,0,0-.65-0.22H8.4a0.37,0.37,0,0,0-.29.24,0.38,0.38,0,0,0,.38.53H8.66Zm22.5-.25a1.09,1.09,0,0,0,.23-0.14,0.69,0.69,0,0,0,.18-0.55,0.3,0.3,0,0,0-.17-0.22,0.57,0.57,0,0,0-.59.29,0.54,0.54,0,0,0,.14.55A0.67,0.67,0,0,0,31.15,16.76Zm-2.26,8.18c0-.07,0-0.1,0-0.14a0.24,0.24,0,0,0-.31-0.18,0.21,0.21,0,0,0-.17.3,1.49,1.49,0,0,0,.13.27,0.17,0.17,0,0,0,.26,0A1.65,1.65,0,0,0,28.89,24.94ZM13.29,15a0.38,0.38,0,0,0-.1-0.15,0.48,0.48,0,0,0-.38,0c-0.08,0-.11.09-0.06,0.16a0.32,0.32,0,0,0,.42.14A0.42,0.42,0,0,0,13.29,15Zm14.46,9.29a0.47,0.47,0,0,0-.07-0.16,0.08,0.08,0,0,0-.14,0,0.18,0.18,0,0,0,.05.15A0.31,0.31,0,0,0,27.75,24.26Z"/><path d="M20.16,16.43l-0.2,0A0.66,0.66,0,0,1,19.33,16a1,1,0,0,0-.11-0.17c-0.34.87-.17,0.74-1.15,0.77a0.22,0.22,0,0,1-.1,0,1.35,1.35,0,0,0-1.26.11A0.72,0.72,0,0,1,16,16.53,0.2,0.2,0,0,1,16,16.36a0.19,0.19,0,0,1,.12-0.14c0.17,0,.34,0,0.5-0.05a0.15,0.15,0,0,0,.1-0.22l-0.2-.22a1.61,1.61,0,0,1-.18-0.24,0.29,0.29,0,0,1,0-.19,0.85,0.85,0,0,1,.58-0.64,0.11,0.11,0,0,1,.08,0,0.1,0.1,0,0,1,0,.08c-0.05.12-.11,0.25-0.17,0.37a0.21,0.21,0,0,0,.05.27,0.3,0.3,0,0,0,.37,0c0.14-.1.27-0.21,0.41-0.29a0.79,0.79,0,0,1,1,0,0.92,0.92,0,0,0,.18.08,0.57,0.57,0,0,0,.16-0.1,0.33,0.33,0,0,1,.45-0.09c0.15,0.08.29,0.17,0.44,0.25,0.11-.2.2-0.38,0.3-0.55a0.3,0.3,0,0,1,.45-0.06L21,15.12a0.2,0.2,0,0,0,.27,0c0.11-.13.21-0.26,0.33-0.38a0.19,0.19,0,0,1,.18,0,0.21,0.21,0,0,1,.09.16c-0.08.18-.18,0.36-0.27,0.54a0.3,0.3,0,0,0,.23.38,12.16,12.16,0,0,0,2-.1,2.94,2.94,0,0,1,1.51.1,5,5,0,0,1,.8.43,2.79,2.79,0,0,1,1.09,1.18,1.32,1.32,0,0,1,.16.37c0.09,0.46.2,0.93,0.25,1.4a3.25,3.25,0,0,1-.2,1.5,11.1,11.1,0,0,1-.7,1.69A4.22,4.22,0,0,1,25,24a3,3,0,0,1-1.18.31c-0.41,0-.81,0-1.22.05a2.13,2.13,0,0,1-.51,0L20.73,24a6,6,0,0,1-1.28-.54,0.6,0.6,0,0,0-.32.3l-0.34.5a0.35,0.35,0,0,1-.37.09,2.11,2.11,0,0,1-.91-1.06,0.21,0.21,0,0,1,0-.19c0.26-.26.54-0.52,0.81-0.77a0.42,0.42,0,0,0,.12-0.46,18.63,18.63,0,0,1-.34-1.9,4.06,4.06,0,0,1,.29-1.59,3.67,3.67,0,0,1,1.08-1.46l0.63-.51a0.37,0.37,0,0,0,.4-0.36c0-.13,0-0.27,0-0.4a0.11,0.11,0,0,0-.06-0.08,0.1,0.1,0,0,0-.09,0A0.9,0.9,0,0,0,20.16,16.43ZM26,18l0,0,0.13-.28A0.38,0.38,0,0,0,26,17.18a4.47,4.47,0,0,1-.91-0.44,0.82,0.82,0,0,0-.28-0.11,4.92,4.92,0,0,0-1.91-.21,0.56,0.56,0,0,0-.29.09c-0.36.28-.82,0.33-1.19,0.58a0.79,0.79,0,0,1-.57.14,0.61,0.61,0,0,0-.39.09,2.53,2.53,0,0,0-1,1.35,3.53,3.53,0,0,0-.08,2.4,2.14,2.14,0,0,0,.52,1.09,0.32,0.32,0,0,0,.45.07c0.12-.07.23-0.14,0.35-0.2a0.33,0.33,0,0,1,.36.12,0.24,0.24,0,0,1-.13.33l-0.38.15a0.18,0.18,0,0,0,0,.27,0.72,0.72,0,0,0,.56.4,2,2,0,0,1,.87.24,1.56,1.56,0,0,0,1,.16c0.33-.06.66-0.15,1-0.22,0.16,0,.19-0.16.09-0.38a0.22,0.22,0,0,1,.2-0.34,0.85,0.85,0,0,1,.55.22A0.27,0.27,0,0,0,25,22.81a0.19,0.19,0,0,0,0-.27,0.51,0.51,0,0,1-.11-0.16A0.17,0.17,0,0,1,25,22.16l0.4,0A0.64,0.64,0,0,0,26,21.9a4,4,0,0,0,.8-1.63,1.33,1.33,0,0,0,0-.6,3.36,3.36,0,0,1-.2-1.3,0.3,0.3,0,0,0-.25-0.29Zm-7.2,4.88a0.36,0.36,0,0,0-.16-0.09,0.61,0.61,0,0,0-.5.42,0.23,0.23,0,0,0,.1.25,0.39,0.39,0,0,0,.28,0A0.67,0.67,0,0,0,18.82,22.9Zm-0.74-7.49a0.21,0.21,0,0,0-.25.15A0.68,0.68,0,0,0,18,16a0.17,0.17,0,0,0,.16,0,0.35,0.35,0,0,0,.12-0.43A0.57,0.57,0,0,0,18.08,15.41Z"/><path d="M27.27,16.17c0-.14.07-0.33,0.11-0.53a0.28,0.28,0,0,1,.25-0.13,1.85,1.85,0,0,1,.37.14,0.5,0.5,0,0,0,.77-0.17,0.36,0.36,0,0,1,.15-0.13,0.22,0.22,0,0,1,.18,0,0.2,0.2,0,0,1,.08.17,3.57,3.57,0,0,1-.18.36,0.48,0.48,0,0,0,.05.56c0.13,0.15.26,0.31,0.38,0.47a0.28,0.28,0,0,1,0,.19,0.25,0.25,0,0,1-.27.09A2.73,2.73,0,0,1,28.83,17a0.57,0.57,0,0,0-.66,0L28,17.07a0.46,0.46,0,0,1-.7-0.43C27.28,16.5,27.28,16.37,27.27,16.17Zm0.54,0.48a0.22,0.22,0,0,0,.25-0.16,0.2,0.2,0,0,0-.15-0.21,0.15,0.15,0,0,0-.19.16A0.71,0.71,0,0,0,27.81,16.65Z"/><path d="M16,17.22a0.29,0.29,0,0,1,.18.55,0.71,0.71,0,0,1-.49.05,0.24,0.24,0,0,1-.14-0.32A0.44,0.44,0,0,1,16,17.22Z"/><path d="M11.1,14.56a0.38,0.38,0,0,1,.35.15,0.21,0.21,0,0,1,0,.18A0.34,0.34,0,0,1,11,15a0.38,0.38,0,0,1-.13-0.24A0.23,0.23,0,0,1,11,14.59Z"/><path d="M26,18A1.53,1.53,0,0,1,26,19.27a4.39,4.39,0,0,0-.29,1.28,0.67,0.67,0,0,0,.21.45,0.3,0.3,0,0,1,0,.37,1.42,1.42,0,0,1-.22.21,0.31,0.31,0,0,1-.37.07,2.48,2.48,0,0,0-1.46-.35c-1,0-1.9-.1-2.84-0.16a1,1,0,0,1-.29-0.07,0.42,0.42,0,0,1-.27-0.29,1.07,1.07,0,0,1,0-.3,11.85,11.85,0,0,1,.1-1.93,1.49,1.49,0,0,0-.07-0.49,0.24,0.24,0,0,1,.17-0.21c0.51,0,1,0,1.52,0,0.75,0,1.49,0,2.23.12a15.48,15.48,0,0,0,1.72.12Zm-5.27,1.26c0,0.3,0,.61,0,0.91a0.46,0.46,0,0,0,.5.51c0.24,0,.48,0,0.71,0a7.31,7.31,0,0,1,1.91.17c0.37,0,.74,0,1.11,0a0.35,0.35,0,0,0,.21-0.19,0.74,0.74,0,0,0,.05-0.3c0-.33-0.09-0.56-0.46-0.34a2,2,0,0,1-.36.19A0.6,0.6,0,0,1,23.73,20c-0.07-.11-0.12-0.24-0.18-0.36a0.24,0.24,0,0,0-.26-0.09,2.14,2.14,0,0,0-.36.18c-0.22.16-.42,0.34-0.64,0.5a0.28,0.28,0,0,1-.17-0.05,0.1,0.1,0,0,1,0-.09,5.36,5.36,0,0,1,1-1.1,0.63,0.63,0,0,1,.18-0.08,0.49,0.49,0,0,1,.6.24c0.07,0.15.12,0.32,0.18,0.47a0.29,0.29,0,0,0,.35.11,1.73,1.73,0,0,0,.9-0.78,0.22,0.22,0,0,0-.08-0.26,3.82,3.82,0,0,0-1.19-.22c-0.41,0-.81-0.06-1.21-0.1s-0.74-.08-1.11-0.11C20.7,18.17,20.72,18.22,20.75,19.28Z"/><path d="M23.36,22.87a0.23,0.23,0,0,1,0,.09,0.39,0.39,0,0,1-.14.12,0.36,0.36,0,0,1-.47-0.22,0.32,0.32,0,0,1,.22-0.28,0.33,0.33,0,0,1,.39.2A0.51,0.51,0,0,1,23.36,22.87Z"/><path d="M22.06,23a0.48,0.48,0,0,1-.1.15,0.44,0.44,0,0,1-.19,0A0.3,0.3,0,0,1,21.44,23a0.15,0.15,0,0,1,0-.1,0.3,0.3,0,0,1,.34-0.14,1.06,1.06,0,0,1,.26.14A0.18,0.18,0,0,1,22.06,23Z"/></svg>