<svg xmlns="http://www.w3.org/2000/svg" viewBox="0 0 40 40"><title>A7R2</title><path d="M22.23,11.13c0.55,0,1.1,0,1.64,0a0.52,0.52,0,0,0,.51-0.28,1,1,0,0,1,.12-0.16,0.27,0.27,0,0,1,.28,0,2.29,2.29,0,0,0,.64.49c0.27,0,.54.06,0.81,0.1l0.35,0.06a8.34,8.34,0,0,1,.75.78,0.8,0.8,0,0,1,.27.74,12.31,12.31,0,0,0,.6,2.06,0.63,0.63,0,0,0,.6.47c0.24,0,.47.08,0.71,0.11a2.49,2.49,0,0,1,.78.23,0.66,0.66,0,0,0,1-.13l0.09-.05a0.36,0.36,0,0,1,.46.1,1.55,1.55,0,0,1,.18.25c0.11,0.21.21,0.43,0.31,0.65a0.31,0.31,0,0,1-.08.37,6.75,6.75,0,0,0-.77,1,1.38,1.38,0,0,0-.29.85c0,0.72,0,1.44-.06,2.15s-0.07,1.36-.11,2a1.19,1.19,0,0,1-.07.4,2.62,2.62,0,0,0-.14,1.11c0,1,0,1.92,0,2.87a6,6,0,0,1-.27,1.41,1.44,1.44,0,0,1-.25.44,0.78,0.78,0,0,1-.6.35,2,2,0,0,1-.41,0,15.51,15.51,0,0,0-1.84,0,2.49,2.49,0,0,1-.61,0,7,7,0,0,0-1-.11,4.45,4.45,0,0,1-.71-0.09,3.64,3.64,0,0,0-1-.12,20.9,20.9,0,0,0-2.15.1c-0.64.07-1.3,0.07-1.95,0.11l-1.33.1a10,10,0,0,1-2,0c-0.51-.06-1-0.07-1.53-0.11l-1-.07a1.21,1.21,0,0,0-.3,0,4.43,4.43,0,0,1-1.73,0,1.41,1.41,0,0,0-.41,0,5.59,5.59,0,0,1-1.91-.3,0.45,0.45,0,0,1-.23-0.19,1.68,1.68,0,0,1-.24-0.45A3.51,3.51,0,0,1,9,26.45a2.61,2.61,0,0,0,0-.92,19.74,19.74,0,0,1-.14-3.48A4,4,0,0,1,9,21.34a3.47,3.47,0,0,0,0-1.12,0.45,0.45,0,0,0-.35-0.33c-0.2,0-.41,0-0.61,0a0.41,0.41,0,0,1-.38-0.41,7.5,7.5,0,0,1,.09-0.81,0.56,0.56,0,0,1,.62-0.55A2.29,2.29,0,0,0,8.75,18,0.35,0.35,0,0,0,9,17.74c0-.2,0-0.41,0-0.61a2.71,2.71,0,0,1,.5-1.22,0.62,0.62,0,0,1,.24-0.19c0.15-.08.31-0.15,0.46-0.23a0.37,0.37,0,0,0,.23-0.32,0.46,0.46,0,0,1,.45-0.47l1.52-.2a0.42,0.42,0,0,1,.43.23A1.73,1.73,0,0,1,13,15a0.36,0.36,0,0,0,.3.25,4.29,4.29,0,0,0,1.33,0,0.37,0.37,0,0,0,.32-0.35c0-.34,0-0.68.06-1a0.46,0.46,0,0,1,.41-0.51A3,3,0,0,1,16,13.24a4.62,4.62,0,0,1,1.73,0,1.1,1.1,0,0,0,.31,0,1.52,1.52,0,0,1,1,.29,0.19,0.19,0,0,0,.25-0.1l0.4-1.16c0-.13.07-0.26,0.12-0.39a1,1,0,0,1,.72-0.68,1.61,1.61,0,0,0,.8-0.42,0.9,0.9,0,0,1,.77-0.19c0.2,0,.27.12,0.21,0.35C22.25,11,22.24,11,22.23,11.13Zm-1.28,6.19A1.59,1.59,0,0,0,22,17a0.79,0.79,0,0,0-1,.16,0.61,0.61,0,0,0-.09.18,0.22,0.22,0,0,0-.23.09,0.17,0.17,0,0,0,.08,0A1.43,1.43,0,0,0,20.95,17.32Zm5.57,5.37a1.18,1.18,0,0,0-.59.11,0.6,0.6,0,0,1-.76-0.49c0-.61-0.28-1.19-0.24-1.81a0.21,0.21,0,0,0-.12-0.14,0.1,0.1,0,0,0-.15.1,2,2,0,0,0,0,.4,2.28,2.28,0,0,1-.18.9,1.42,1.42,0,0,1-1.56.88,1.39,1.39,0,0,1-1.28-1.25,1,1,0,0,1,.07-0.6c0.06-.12.1-0.26,0.17-0.37a1.88,1.88,0,0,1,1.64-1.06,4.33,4.33,0,0,0,1.5-.26c0.22-.08.46-0.13,0.69-0.2a0.44,0.44,0,0,0-.08-0.15,2.4,2.4,0,0,0-.83-0.39c-0.72-.22-1.46-0.32-2.18-0.57a2,2,0,0,0-1.11,0,1.15,1.15,0,0,0-.7.4A4.5,4.5,0,0,1,20,19a0.76,0.76,0,0,0-.27.54,6.86,6.86,0,0,0,.11,2,3.23,3.23,0,0,0,.36,1.06,4.91,4.91,0,0,0,.84,1,2.75,2.75,0,0,0,1.62.81,8.51,8.51,0,0,0,2.25,0,0.84,0.84,0,0,0,.38-0.14,2.73,2.73,0,0,0,1.21-1.7,0.42,0.42,0,0,0,.3-0.25c0.12-.28.22-0.57,0.31-0.86a2.67,2.67,0,0,0,0-1.41,0.91,0.91,0,0,0-.18-0.36,1.42,1.42,0,0,0-.65-0.48,0.1,0.1,0,0,0-.16.08,1.14,1.14,0,0,0,0,.4A7.05,7.05,0,0,0,26.45,21a0.43,0.43,0,0,1-.17.54L26,21.72a2.86,2.86,0,0,1,.28.4A5.35,5.35,0,0,1,26.52,22.7Zm-8.26,2.23c-0.06-.19-0.13-0.38-0.19-0.57a7.09,7.09,0,0,1-.16-0.7c-0.07-.4-0.13-0.81-0.18-1.22a5.56,5.56,0,0,1-.06-1c0-.44,0-0.89,0-1.33a3.69,3.69,0,0,1,.07-0.92,8.77,8.77,0,0,1,.59-2,2.86,2.86,0,0,0,.23-1,0.47,0.47,0,0,0-.43-0.49l-0.82,0a14.34,14.34,0,0,0-2.65.2,0.47,0.47,0,0,0-.22.2,0.44,0.44,0,0,0-.06.19,19.34,19.34,0,0,1-.6,3.11,1.4,1.4,0,0,0,0,.3c-0.06.58-.12,1.15-0.16,1.73-0.13,1.88,0,3.76,0,5.64a4.73,4.73,0,0,0,.29,1.29,0.37,0.37,0,0,0,.23.18,1.6,1.6,0,0,0,.4.06,7.76,7.76,0,0,1,1.13.06,13.45,13.45,0,0,0,2.45.12,2.4,2.4,0,0,0,.61,0,7.58,7.58,0,0,1,1.63-.12,13.37,13.37,0,0,0,1.74-.07A14.25,14.25,0,0,1,24,28.47l1.74,0a3.53,3.53,0,0,0,.81-0.09,1.38,1.38,0,0,1,.9,0,4.26,4.26,0,0,0,2,.2,0.76,0.76,0,0,0,.68-0.66,17.34,17.34,0,0,0,.23-2.86c0-.48,0-1,0-1.44a7.09,7.09,0,0,1,.19-2.24,1.69,1.69,0,0,0,0-.51q0-1.18,0-2.36a0.4,0.4,0,0,0-.36-0.42,4,4,0,0,0-.5-0.12,0.79,0.79,0,0,0-.49.1,0.23,0.23,0,0,0-.15.24c0.15,0.43,0,.9.14,1.32a9.43,9.43,0,0,1,.15,2.24,2.28,2.28,0,0,1,0,.51,6.54,6.54,0,0,1-1,2.55A4.09,4.09,0,0,1,25.7,26.8l-0.2,0a16.55,16.55,0,0,1-2.23.32,2,2,0,0,1-.61,0C22.43,27.07,22.2,27,22,27a7.57,7.57,0,0,1-1.86-.56,1.33,1.33,0,0,0-.39-0.13,0.42,0.42,0,0,0-.28.07,1.68,1.68,0,0,0-.27.3c-0.15.19-.29,0.38-0.45,0.56a0.4,0.4,0,0,1-.55,0,0.43,0.43,0,0,1-.08-0.06c-0.25-.32-0.51-0.64-0.75-1a0.22,0.22,0,0,1,0-.19,2,2,0,0,1,.24-0.33A4.44,4.44,0,0,0,18.25,24.93ZM12.31,28.6l0.47-.05a0.39,0.39,0,0,0,.31-0.36,15.54,15.54,0,0,0,0-2,21.1,21.1,0,0,1-.1-2.87,4.06,4.06,0,0,1,.12-1.22,1,1,0,0,0,0-.51,4,4,0,0,1,.06-1.22,5.67,5.67,0,0,1,.12-0.6A0.26,0.26,0,0,0,13,19.46l-1.09.3a2.17,2.17,0,0,1-1.4-.18A0.93,0.93,0,0,1,10.14,19l-0.06-.08a0.32,0.32,0,0,0-.45,0,0.53,0.53,0,0,0-.17.36c0,0.48,0,1,0,1.44q0,1.49,0,3a3.83,3.83,0,0,0,.12,1.12,1.14,1.14,0,0,1,0,.61,3.17,3.17,0,0,0,.06,1c0,0.34,0,.68.07,1a0.45,0.45,0,0,0,0,.1,1,1,0,0,0,.65.73A5.36,5.36,0,0,0,12.31,28.6Zm12-15.13a1,1,0,0,0,.16-0.15,0.49,0.49,0,0,1,.7-0.21l0.09,0a0.44,0.44,0,0,0,.53-0.2,0.4,0.4,0,0,0,0-.48,3.85,3.85,0,0,0-.21-0.35A0.72,0.72,0,0,0,25,11.77H23.79c-0.65,0-1.3,0-1.95,0a1.21,1.21,0,0,0-1.25,1,4.07,4.07,0,0,1-.33,1,1.88,1.88,0,0,0-.1,1,0.4,0.4,0,0,0,.28.27l0.3,0,2.46,0c0.51,0,1,0,1.54,0a0.62,0.62,0,0,0,.59-0.69,0.31,0.31,0,0,0-.27-0.26l-0.49.14a0.57,0.57,0,0,1-.49-0.07A0.47,0.47,0,0,0,23.73,14l-0.12.16a0.53,0.53,0,0,1-.71.21c-0.15-.07-0.3-0.16-0.45-0.24l-0.67.3A0.89,0.89,0,0,1,21,14.36a0.21,0.21,0,0,1-.12-0.25,0.39,0.39,0,0,1,.21-0.2,1.48,1.48,0,0,1,.4.05,0.1,0.1,0,0,0,.1-0.18l-0.27-.14c-0.09,0-.19-0.06-0.29-0.11A0.32,0.32,0,0,1,20.89,13a2.06,2.06,0,0,1,.21-0.22,0.14,0.14,0,0,1,.09,0,0.1,0.1,0,0,1,.09.14,0.35,0.35,0,0,0,.16.43A0.45,0.45,0,0,0,22,13.25a1,1,0,0,1,1-.37,2.25,2.25,0,0,0,.71,0,0.37,0.37,0,0,1,.35.18C24.16,13.17,24.23,13.32,24.32,13.47ZM12.24,15.89l-0.57,0a1.42,1.42,0,0,0-1.27.88,4,4,0,0,0-.22.68,0.48,0.48,0,0,0,0,.3c0.17,0.37.35,0.74,0.54,1.1a0.52,0.52,0,0,0,.42.26,1.3,1.3,0,0,0,.41,0c0.4-.08.8-0.18,1.19-0.29a0.5,0.5,0,0,0,.34-0.46,2.64,2.64,0,0,0,0-.41C13,17.42,13,16.84,12.91,16.27a0.43,0.43,0,0,0-.43-0.36H12.24Zm11.83,4.93A5.79,5.79,0,0,0,24,20.2a0.46,0.46,0,0,0-.33-0.36,1,1,0,0,0-1.07.39,2.58,2.58,0,0,0-.43,1.24,0.61,0.61,0,0,0,.25.53,1.15,1.15,0,0,0,1.06.2,0.48,0.48,0,0,0,.18-0.1A0.93,0.93,0,0,0,24,21.51C24,21.31,24,21.11,24.06,20.82Zm-0.71-5.15H22a1.93,1.93,0,0,0-.4,0,0.17,0.17,0,0,0-.1.13,0.25,0.25,0,0,0,.1.16,0.94,0.94,0,0,0,.58.14,8.17,8.17,0,0,1,1.42.06,5.68,5.68,0,0,0,.71.05,4.64,4.64,0,0,1,1.21.15,0.74,0.74,0,0,0,.58-0.11A0.47,0.47,0,0,0,26.41,16,0.41,0.41,0,0,0,26,15.81a1,1,0,0,1-.5,0,1.89,1.89,0,0,0-.8-0.12H23.35Zm7.16,2.1a0.84,0.84,0,0,0,.09-0.7,1.1,1.1,0,0,0-.78-1L29.45,16a2,2,0,0,0-1-.05,0.28,0.28,0,0,0-.21.38l0.06,0.19a0.44,0.44,0,0,0,.56.42,1.32,1.32,0,0,0,.87-0.22,0.1,0.1,0,0,1,.17,0,0.12,0.12,0,0,1,0,.1,0.48,0.48,0,0,0,.2.69Zm-4-3.48a0.53,0.53,0,0,0,0-.1,2.81,2.81,0,0,0-.31-0.85,0.21,0.21,0,0,0-.27,0,0.34,0.34,0,0,0-.19.33c0,0.3.12,0.59,0.19,0.89a0.29,0.29,0,0,0,.26.12A0.41,0.41,0,0,0,26.49,14.29ZM18.59,25.47a0.61,0.61,0,0,0-.24.08,2,2,0,0,0-.33.38,0.44,0.44,0,0,0,.23.59,0.33,0.33,0,0,0,.36-0.11c0.09-.18.18-0.36,0.26-0.55A0.34,0.34,0,0,0,18.59,25.47Zm9.73-2.93c0,0.17,0,.33,0,0.5a0.09,0.09,0,0,0,.06.07,0.11,0.11,0,0,0,.09,0,3.06,3.06,0,0,0,.24-1.68,0.28,0.28,0,0,0,0-.09,0.32,0.32,0,0,0-.13.07A2.33,2.33,0,0,0,28.32,22.54Zm-1.05-6.09a0.57,0.57,0,0,0-.42.38A0.28,0.28,0,0,0,27,17l0.88,0.48a0.11,0.11,0,0,0,.09,0,0.09,0.09,0,0,0,0-.16,1.45,1.45,0,0,1-.49-0.74A0.43,0.43,0,0,0,27.27,16.45Zm-7-.19a0.74,0.74,0,0,0-.5-0.46,0.25,0.25,0,0,0-.18.09,2.13,2.13,0,0,0-.2.35,0.41,0.41,0,0,0,0,.38,0.37,0.37,0,0,0,.47,0,2,2,0,0,0,.35-0.2A0.45,0.45,0,0,0,20.3,16.26Zm4.64,0.68a0.35,0.35,0,0,0-.09.06,0.08,0.08,0,0,0,0,.07c0.35,0.19.71,0.39,1.07,0.56a0.5,0.5,0,0,0,.29,0,0.2,0.2,0,0,0,.13-0.13,0.18,0.18,0,0,0-.07-0.16c-0.34-.14-0.69-0.27-1-0.4A1.06,1.06,0,0,0,24.94,16.94Zm-6.51,5.47a0.19,0.19,0,0,0-.06.08c0,0.34.09,0.67,0.15,1a1.54,1.54,0,0,0,.17.37,0.24,0.24,0,0,0,.08.06,0.36,0.36,0,0,0,.08-0.16c-0.08-.43-0.17-0.86-0.27-1.29a0.11,0.11,0,0,0-.07-0.06A0.23,0.23,0,0,0,18.43,22.41Zm3.74,3.71A0.67,0.67,0,0,0,22,25.9a0.57,0.57,0,0,0-.56-0.09,0.5,0.5,0,0,0-.21.18c-0.05.07,0,.16,0.15,0.19a5.1,5.1,0,0,0,.58.09A0.46,0.46,0,0,0,22.17,26.12ZM16.35,13.85a0.33,0.33,0,0,0-.13-0.11,1.73,1.73,0,0,0-.37.11,0.1,0.1,0,0,0-.06.15,0.14,0.14,0,0,0,.06.07,1,1,0,0,0,.27.07A0.26,0.26,0,0,0,16.35,13.85Zm11.32,4.94a0.19,0.19,0,0,0,0-.1l-0.34-.36a0.09,0.09,0,0,0-.08,0,0.1,0.1,0,0,0,0,.08,0.66,0.66,0,0,0,.32.48,0.11,0.11,0,0,0,.09,0A0.31,0.31,0,0,0,27.67,18.79Zm3.92-2.25-0.18-.15a0.09,0.09,0,0,0-.08,0,0.39,0.39,0,0,0,0,.52,0.17,0.17,0,0,0,.16,0A0.38,0.38,0,0,0,31.59,16.54ZM18.2,13.94a2,2,0,0,0-1-.2A1.07,1.07,0,0,0,18.2,13.94Zm-9.3,5a1,1,0,0,0-.24-0.1,0.23,0.23,0,0,0-.17.08,0.18,0.18,0,0,0,.06.25A0.28,0.28,0,0,0,8.9,19,0.37,0.37,0,0,0,8.9,18.91Zm3-3.64a0.17,0.17,0,0,0,0-.08,0.14,0.14,0,0,0-.08,0,0.38,0.38,0,0,0-.36.11,0.13,0.13,0,0,0,0,.09,0.1,0.1,0,0,0,.06.06A0.36,0.36,0,0,0,11.94,15.26Zm16.18,5.1a0.1,0.1,0,0,0-.15.07,0.85,0.85,0,0,0,0,.29,0.31,0.31,0,0,0,.09.16,0.25,0.25,0,0,0,.24-0.13A0.27,0.27,0,0,0,28.12,20.36Zm-4.95-6.72c0-.08-0.09-0.16-0.14-0.24a0.1,0.1,0,0,0-.09,0,0.21,0.21,0,0,0-.09.32,0.21,0.21,0,0,0,.16.09A0.44,0.44,0,0,0,23.17,13.64Zm2.64,12.31a0.36,0.36,0,0,0-.12-0.12,1,1,0,0,0-.26.12,0.1,0.1,0,0,0,0,.08,0.24,0.24,0,0,0,.12.11A0.22,0.22,0,0,0,25.81,25.95Zm-5.73-2.33a0.3,0.3,0,0,0-.09.1,0.42,0.42,0,0,0,.22.3,0.12,0.12,0,0,0,.09,0c0.09,0,.1-0.08,0-0.15Zm2.23,1.61a0.19,0.19,0,0,0,0-.09,0.09,0.09,0,0,0-.15,0c-0.06,0-.08.11,0,0.14A0.32,0.32,0,0,0,22.31,25.22Zm6.09-5.79a0.15,0.15,0,0,0,.07,0,0.1,0.1,0,0,0-.1-0.12,0.2,0.2,0,0,0-.08,0Zm-7.8,6.09,0.18-.05a0.56,0.56,0,0,0-.16-0.08c-0.09,0-.13,0-0.09.09A0.1,0.1,0,0,0,20.61,25.53ZM19,20.66a0.23,0.23,0,0,0,.07-0.07A0.19,0.19,0,0,0,19,20.34a0.08,0.08,0,0,0-.07,0,0.2,0.2,0,0,0,0,.26A0.16,0.16,0,0,0,19,20.66Zm4.89,5.61a0.24,0.24,0,0,0-.07-0.06,0.22,0.22,0,0,0-.25.07,0.09,0.09,0,0,0,0,.06h0.26A0.15,0.15,0,0,0,23.9,26.26ZM13.63,17.39l0.06,0a0.26,0.26,0,0,0,0-.08l-0.06,0A0.25,0.25,0,0,0,13.63,17.39ZM27.2,23.34a0.14,0.14,0,0,0,.06,0,0.09,0.09,0,0,0,0-.08s-0.09,0-.1.05A0.16,0.16,0,0,0,27.2,23.34Zm-5.71,1.51,0.09,0a0.17,0.17,0,0,0,0-.06l-0.09,0A0.17,0.17,0,0,0,21.49,24.85Zm-1.69.42a0.12,0.12,0,0,0,0-.06,0.1,0.1,0,0,0-.08,0c-0.07,0-.06.08,0,0.1A0.17,0.17,0,0,0,19.8,25.27Zm3.81-7.86v0.06l0.09,0Zm-7.79-2.28-0.07,0a0.15,0.15,0,0,0,0,.05l0.07,0ZM25.55,20c0,0.07,0,.1,0,0.1a0.11,0.11,0,0,0,0-.07Zm-6.73-1.38,0-.07,0,0.07h0.05Z"/><path d="M16.35,16.75a1,1,0,0,1-.4.66l-0.09,0a0.66,0.66,0,0,1-.65-0.21,0.57,0.57,0,0,1-.1-0.66,1.12,1.12,0,0,1,.18-0.25,0.57,0.57,0,0,1,.89,0A0.53,0.53,0,0,1,16.35,16.75Z"/><path d="M10.7,21.92c0-.24,0-0.47,0-0.71A0.49,0.49,0,0,1,11,20.76a2,2,0,0,1,.39-0.11,0.42,0.42,0,0,1,.46.31A3.77,3.77,0,0,1,12,22.16c0,0.2,0,.4-0.07.6a0.59,0.59,0,0,1-.8.39,0.55,0.55,0,0,1-.4-0.52c0-.24,0-0.47,0-0.71h0Z"/><path d="M12.53,17.37a1.59,1.59,0,0,1-.7,1.3,0.47,0.47,0,0,1-.57,0A0.71,0.71,0,0,1,11,17.72a2.9,2.9,0,0,1,.18-0.37,0.89,0.89,0,0,1,1-.42A0.48,0.48,0,0,1,12.53,17.37Z"/></svg>