<svg xmlns="http://www.w3.org/2000/svg" viewBox="0 0 40 40"><title>GM</title><path d="M23.81,12.62A2.93,2.93,0,0,0,23.56,14c0,0.45,0,.9,0,1.35a4.38,4.38,0,0,0,.06.63c0,0.27.09,0.53,0.16,0.79a1.72,1.72,0,0,1,0,.62,5.82,5.82,0,0,0,0,1.88,0.94,0.94,0,0,1,0,.35,1.94,1.94,0,0,0,.05.89c0.14,0.49.26,1,.39,1.48a0.86,0.86,0,0,1,0,.78,0.29,0.29,0,0,0,.08.33,0.44,0.44,0,0,1,0,.58c-0.1.15-.19,0.3-0.3,0.45a4.75,4.75,0,0,0-.8,1.49A8.24,8.24,0,0,1,22.64,27a0.77,0.77,0,0,0-.06.61,6.54,6.54,0,0,1,.16.88,0.33,0.33,0,0,1-.23.25,0.64,0.64,0,0,1-.18,0,3.84,3.84,0,0,0-1.08-.06,5,5,0,0,1-.9,0,0.83,0.83,0,0,0-.18,0,2.7,2.7,0,0,1-.79.12c-0.23-.06-0.45-0.17-0.67-0.24a0.6,0.6,0,0,0-.52.06,0.67,0.67,0,0,1-.25.09,0.22,0.22,0,0,1-.16-0.06,0.77,0.77,0,0,1-.21-0.48c0-.15,0-0.3,0-0.45A0.93,0.93,0,0,0,17.31,27a0.69,0.69,0,0,1-.22-0.38,7.32,7.32,0,0,0-.53-1.43c-0.11-.24-0.2-0.5-0.29-0.76a1.94,1.94,0,0,1-.12-0.71c0-.33,0-0.66,0-1A4,4,0,0,0,16,21.24a0.51,0.51,0,0,1,0-.18,22.55,22.55,0,0,0-.28-2.41c0-.21,0-0.42,0-0.63s0-.54,0-0.81a4.23,4.23,0,0,1,0-1.52,3.34,3.34,0,0,0,0-.72c0-.27,0-0.54,0-0.81a5.53,5.53,0,0,0-.12-1.52,1.49,1.49,0,0,1,0-.45A0.28,0.28,0,0,1,15.68,12a1.65,1.65,0,0,0,.88-0.11,10.37,10.37,0,0,1,2.36-.55,3.14,3.14,0,0,0,.44-0.09,2.88,2.88,0,0,1,.8-0.1h2.52l0.45,0a0.46,0.46,0,0,1,.37.34,1,1,0,0,1,0,.18A1,1,0,0,0,23.81,12.62Zm-3.7,3.25a0.51,0.51,0,0,0-.34.38,0.39,0.39,0,0,0,0,.16A0.36,0.36,0,0,0,20,16.35a0.72,0.72,0,0,0,.13-0.5,1.12,1.12,0,0,0,.35-0.93,0.68,0.68,0,0,0,.31-0.41,1,1,0,0,1,.54-0.55,0.29,0.29,0,0,0,.13-0.11,0.33,0.33,0,0,0,0-.16,0.19,0.19,0,0,0-.19-0.14,0.5,0.5,0,0,0-.44.24,2.13,2.13,0,0,0-.36,1.17,0.57,0.57,0,0,0-.12.11A1.61,1.61,0,0,0,20.12,15.86ZM17.55,16a0.78,0.78,0,0,0,.19-0.16,1.09,1.09,0,0,0,.17-0.74,0.85,0.85,0,0,0,.36-0.9l0.17,0.05a0.17,0.17,0,0,1,.14.19,11.32,11.32,0,0,0-.29,1.22l-0.11.14a0.14,0.14,0,0,0,0,.07,0.22,0.22,0,0,0,.06-0.22,0.22,0.22,0,0,0,.08,0,8.37,8.37,0,0,0,.79-1.51A0.21,0.21,0,0,0,19,13.87a3.2,3.2,0,0,0-.44,0,0.33,0.33,0,0,0-.27.32,1,1,0,0,0-.36.9,1,1,0,0,0-.36.9l-0.11.13a0.14,0.14,0,0,0,0,.07A0.22,0.22,0,0,0,17.55,16Zm4.37-.67a1.13,1.13,0,0,0-.42.73,0.08,0.08,0,0,0,0,.06,0.21,0.21,0,0,0,.15,0,0.72,0.72,0,0,0,.18-0.28,3.17,3.17,0,0,0,0-.51A0.67,0.67,0,0,0,22,15.19c0-.06,0-0.11,0-0.1a0.11,0.11,0,0,0,0,.07C21.93,15.22,21.93,15.27,21.93,15.32ZM22.43,14l0.18,0c0.11,0,.18,0,0.15.14a9,9,0,0,1-.41,1.46,0.24,0.24,0,0,0,.07.14l0.08,0a0.66,0.66,0,0,0,.28-0.44,1.23,1.23,0,0,1,.31-0.82,0.37,0.37,0,0,0,.07-0.25c0-.27,0-0.54,0-0.81a0.2,0.2,0,0,0-.16-0.19,0.21,0.21,0,0,0-.23.09,1.69,1.69,0,0,0-.27.75,1.15,1.15,0,0,0-.28.45,0.09,0.09,0,0,0,.05.14,0.2,0.2,0,0,0,.13-0.09A0.8,0.8,0,0,0,22.43,14Zm0.83,3.25a2.31,2.31,0,0,0-.15-1.06,0.08,0.08,0,0,0-.07,0,0.13,0.13,0,0,0-.08,0,3.83,3.83,0,0,0-.24.76,0.64,0.64,0,0,1-.26.35,0.27,0.27,0,0,1-.17,0,0.2,0.2,0,0,1-.14-0.2l0.23-.48a0.1,0.1,0,0,0,0-.08c0-.07-0.09-0.07-0.15,0a0.67,0.67,0,0,1-.47.23,0.7,0.7,0,0,0-.34.08,5.06,5.06,0,0,1-.67.26,1.42,1.42,0,0,1-.69.15,7.49,7.49,0,0,0-.9.05,0.7,0.7,0,0,0-.48.21,0.43,0.43,0,0,1-.48.15,1,1,0,0,0-.71,0,2.49,2.49,0,0,1-.71.12l-0.45,0a0.3,0.3,0,0,0-.19.28,0.28,0.28,0,0,0,.15.3,1.23,1.23,0,0,0,.52.06,9.26,9.26,0,0,0,1.12-.34,7.28,7.28,0,0,1,1.89-.57c0.53-.08,1.06-0.19,1.59-0.29a0.42,0.42,0,0,1,.48.32,3.92,3.92,0,0,0,.18,1,0.32,0.32,0,0,1-.25.32,7.19,7.19,0,0,1-1.07.14c-0.61,0-1.19.19-1.78,0.24a0.55,0.55,0,0,0-.4.19,1.2,1.2,0,0,1-.87.43,5.92,5.92,0,0,0-1.19.38,0.22,0.22,0,0,0-.14.22,0.29,0.29,0,0,0,.18.28l0.18,0a0.79,0.79,0,0,0,.6-0.15,0.66,0.66,0,0,1,.76-0.09,0.53,0.53,0,0,0,.44.05,2.56,2.56,0,0,1,1.07-.13A1.54,1.54,0,0,0,20,20.47l1.31-.35a9.65,9.65,0,0,0,1.74-.73A0.41,0.41,0,0,0,23.32,19a5.87,5.87,0,0,0,0-1.53A0.82,0.82,0,0,1,23.25,17.25ZM17.7,24.9H17.1a0.22,0.22,0,0,0-.15.28,3.76,3.76,0,0,0,.61,1,0.66,0.66,0,0,0,.23.13,1.33,1.33,0,0,1,.3.18,0.51,0.51,0,0,0,.49.15c0.71-.15,1.43-0.19,2.13-0.38,0.26-.07.53-0.09,0.8-0.14a5,5,0,0,0,.78-0.21,0.81,0.81,0,0,0,.49-0.5c0.12-.37.24-0.74,0.35-1.12A0.25,0.25,0,0,0,23,24a4.87,4.87,0,0,0-2,.1,4.55,4.55,0,0,1-1.42.22l-0.18,0a0.25,0.25,0,0,0-.25.3,0.19,0.19,0,0,1-.16.19A5.78,5.78,0,0,1,17.7,24.9Zm3.81-13.34V11.51c-0.42,0-.84,0-1.25.07a7.07,7.07,0,0,0-1.22.29,4.91,4.91,0,0,1-1.06.19,5.36,5.36,0,0,0-.71.11,9.28,9.28,0,0,1-1.12.31,0.2,0.2,0,0,0-.15.2c0,0.24,0,.48,0,0.71a0.18,0.18,0,0,0,.12.12c0.23,0,.47.06,0.7,0.08a1.93,1.93,0,0,0,.36,0c0.71-.09,1.42-0.19,2.14-0.25a5.55,5.55,0,0,0,1.5-.23,8.33,8.33,0,0,0,1.67-.35,1,1,0,0,0,.25-0.09,0.35,0.35,0,0,0,.2-0.28,1.86,1.86,0,0,0,0-.44,0.47,0.47,0,0,0-.36-0.36l-0.18,0H21.51Zm0.25,16.66a0.9,0.9,0,0,1,.09-0.63,0.76,0.76,0,0,0,.2-0.49,1.05,1.05,0,0,1,.25-0.56,0.16,0.16,0,0,0,0-.15,0.18,0.18,0,0,0-.15-0.06,32.85,32.85,0,0,1-3.86.75l-0.09,0a0.28,0.28,0,0,0-.17.28,4,4,0,0,0,.12.43,0.37,0.37,0,0,0,.33.26,5.81,5.81,0,0,1,1.41.19,1,1,0,0,0,.27,0h1.25A1.9,1.9,0,0,0,21.76,28.23Zm-3.9-9.07,0.42-.11A9.11,9.11,0,0,1,20,18.7c0.39,0,.77-0.12,1.15-0.19a0.76,0.76,0,0,0,.17-0.07,0.47,0.47,0,0,0,.16-0.31,0.31,0.31,0,0,0-.24-0.23,1.44,1.44,0,0,0-.27,0,7.11,7.11,0,0,0-1.59.26,13.85,13.85,0,0,0-1.33.55,1,1,0,0,0-.28.21,0.18,0.18,0,0,0,0,.16A0.44,0.44,0,0,0,17.86,19.16Zm4.5,3.76a0.38,0.38,0,0,0,0-.17,8.71,8.71,0,0,1-.69-1.26,3.86,3.86,0,0,0-.37-0.61,0.36,0.36,0,0,0-.4-0.14,0.14,0.14,0,0,0-.07,0,0.07,0.07,0,0,0,0,.07,1.87,1.87,0,0,1,.41.33,2.9,2.9,0,0,1,.23.58c0.11,0.28.2,0.56,0.33,0.83a1.41,1.41,0,0,0,.28.34,0.22,0.22,0,0,0,.16.06A0.41,0.41,0,0,0,22.36,22.92Zm0.9-.68c-0.16-.51-0.32-1-0.48-1.53a0.5,0.5,0,0,0-.24-0.36c-0.07,0-.09.24,0,0.5s0.27,0.78.42,1.17a1.76,1.76,0,0,0,.17.31,0.09,0.09,0,0,0,.08,0A0.09,0.09,0,0,0,23.26,22.24Zm-4-7.55c-0.27.56-.53,1.1-0.78,1.64a1.61,1.61,0,0,0-.1.34,0.08,0.08,0,0,0,.08.11,0.11,0.11,0,0,0,.08,0,8.19,8.19,0,0,0,.81-1.88A0.45,0.45,0,0,0,19.25,14.69Zm1.21,7.85a0.48,0.48,0,0,0,.14.48,0.47,0.47,0,0,1,.19.45c0,0.06.08,0.08,0.14,0a0.28,0.28,0,0,0,.13-0.44l-0.32-.52,0-.07c-0.07-.11-0.16-0.16-0.18-0.1S20.48,22.49,20.47,22.54Zm-3.27-8a0.63,0.63,0,0,0,0,.19,0.19,0.19,0,0,0,.09.12,0.33,0.33,0,0,0,.17,0,0.14,0.14,0,0,0,.07,0,1.4,1.4,0,0,0,.29-0.63,0.15,0.15,0,0,0-.17-0.15,0.3,0.3,0,0,0-.38.27C17.22,14.42,17.21,14.5,17.19,14.57Zm1.61,7.77a0.19,0.19,0,0,0-.08,0,1.32,1.32,0,0,0-.14.84,0.39,0.39,0,0,0,.07.16,0.78,0.78,0,0,0,.1.14,0.13,0.13,0,0,0,.08,0A0.11,0.11,0,0,0,19,23.46a1.31,1.31,0,0,0,0-.26,1.76,1.76,0,0,0,0-.26l-0.07-.34Zm1.13-8.27,0.17,0a0.23,0.23,0,0,0,.23-0.22,0.1,0.1,0,0,0-.06-0.14,0.51,0.51,0,0,0-.61.2,0.12,0.12,0,0,0,0,.08,0.09,0.09,0,0,0,.12.09Zm-0.22,8.8c0-.1-0.08-0.23-0.13-0.36a0.12,0.12,0,0,0-.07,0,0.09,0.09,0,0,0-.12.08,0.84,0.84,0,0,0,.06.51,0.11,0.11,0,0,0,.14.07,0.11,0.11,0,0,0,.06-0.06C19.67,23,19.68,23,19.71,22.88Zm-2.79-4a0.2,0.2,0,0,0,0,.08,1,1,0,0,0,0,.26,0.34,0.34,0,0,0,.11.11,0.32,0.32,0,0,0,.09-0.12A0.36,0.36,0,0,0,17,18.92,0.16,0.16,0,0,0,16.92,18.91Zm-0.42-1.6a0.17,0.17,0,0,0,0-.08,0.09,0.09,0,0,0-.06,0H16.29a0.09,0.09,0,0,0-.07.13,0.18,0.18,0,0,0,.14.07A0.4,0.4,0,0,0,16.5,17.31Zm0.26,4.13a0.09,0.09,0,0,0-.12-0.08,0.1,0.1,0,0,0-.07.05,0.09,0.09,0,0,0,.07.13A0.1,0.1,0,0,0,16.76,21.43Zm0.31,2.87a0.6,0.6,0,0,0,.14-0.05s-0.06-.1-0.17-0.1H17l-0.13.08L17,24.3h0.09Zm-0.81-5,0-.08a0.27,0.27,0,0,0-.05.07,0.17,0.17,0,0,0,0,.09,0.36,0.36,0,0,0,0,.08Zm6.92,0.73-0.07,0a1,1,0,0,0,.07.12,0.07,0.07,0,0,0,.07,0,0.08,0.08,0,0,0,0-.06ZM23,23.49v0.05l0.08,0ZM22,13.52l0-.08,0,0.08H22Zm1.6,8.06,0,0.06h0V21.58Z"/><path d="M26.9,18.79c0-.35.06-0.62,0.09-0.88a0.31,0.31,0,0,1,.3-0.29,10.56,10.56,0,0,1,2.15-.18,0.8,0.8,0,0,1,.34.09,0.4,0.4,0,0,1,.14.22,0.23,0.23,0,0,1,0,.17,0.88,0.88,0,0,0,0,.86,0.92,0.92,0,0,0,.28.34,1.87,1.87,0,0,0,.4.21,0.91,0.91,0,0,1,.58.64,0.48,0.48,0,0,0,.3.31,4.07,4.07,0,0,1,.41.19,0.78,0.78,0,0,1,.19.19,0.32,0.32,0,0,1,0,.41l-0.31.33a0.62,0.62,0,0,0-.16.66,0.59,0.59,0,0,1,0,.44,0.91,0.91,0,0,0,0,.79,0.49,0.49,0,0,1,0,.51,0.91,0.91,0,0,0-.08.53,2.18,2.18,0,0,0,.15,1.06,3.69,3.69,0,0,0,.42.89,1,1,0,0,1,.21.85,1.47,1.47,0,0,0,0,.71,0.61,0.61,0,0,1-.2.65,0.92,0.92,0,0,1-.9.31,3.91,3.91,0,0,0-1.61,0,6.06,6.06,0,0,1-1,.06H26.29a4.63,4.63,0,0,1-.54-0.06,0.38,0.38,0,0,1-.25-0.24c0-.06,0-0.12,0-0.18a3.73,3.73,0,0,0-.36-1.48,0.36,0.36,0,0,1,0-.35c0.14-.26.31-0.52,0.43-0.79a1.3,1.3,0,0,0,.12-0.52,3.34,3.34,0,0,0-.24-1.5A1.77,1.77,0,0,1,25.31,23a10.62,10.62,0,0,0-.09-1.89,0.69,0.69,0,0,1,0-.27c0-.21.1-0.41,0.16-0.61a0.42,0.42,0,0,1,.29-0.32,1,1,0,0,0,.58-0.4A2.1,2.1,0,0,1,26.9,18.79Zm1.17,6.05a0.25,0.25,0,0,0,.06.22,0.14,0.14,0,0,0,0-.07L28,24.87A0.2,0.2,0,0,0,28,24.68a0.13,0.13,0,0,0,0,.07Zm-0.65,1.7H26.16a0.81,0.81,0,0,0-.26,0,0.17,0.17,0,0,0-.1.13c0,0.21,0,.41.08,0.62a0.45,0.45,0,0,0,.38.43,5.61,5.61,0,0,0,1.25.16,7.14,7.14,0,0,1,1.61.13A0.82,0.82,0,0,0,29.73,28a1.07,1.07,0,0,1,.78-0.08,1.87,1.87,0,0,0,1.13-.19,0.42,0.42,0,0,0,.14-0.21,0.39,0.39,0,0,0,0-.18,0.77,0.77,0,0,0-.8-0.8,5,5,0,0,0-.8.07,2.54,2.54,0,0,1-.89,0A8.62,8.62,0,0,0,27.42,26.55Zm3.54-4c0-.16,0-0.4,0-0.64a0.31,0.31,0,0,0-.24-0.23l-0.18,0c-0.45,0-.9,0-1.35,0a8,8,0,0,0-1.34-.05,1.36,1.36,0,0,1-.35,0l-1-.1a1.63,1.63,0,0,0-.27,0,0.38,0.38,0,0,0-.3.29c0,0.39-.06.77-0.08,1.16a0.28,0.28,0,0,0,.24.32,12.5,12.5,0,0,0,2.05.23,7.23,7.23,0,0,1,1.07.09,9.53,9.53,0,0,0,1.26,0,0.76,0.76,0,0,0,.26-0.06,0.33,0.33,0,0,0,.22-0.26C30.95,23,30.95,22.83,31,22.54ZM27.49,18.8a0.78,0.78,0,0,0,0,.19c0.05,0.3,0,.42-0.26.47a1.67,1.67,0,0,0-.77.6,0.39,0.39,0,0,0-.07.24,0.24,0.24,0,0,0,.15.07,11.24,11.24,0,0,1,1.17.05,8.23,8.23,0,0,0,2.86-.09c0.1,0,.11-0.11,0-0.22a2.13,2.13,0,0,0-.6-0.54c-0.15-.11-0.31-0.18-0.46-0.28a0.51,0.51,0,0,1-.25-0.45c0-.15,0-0.3,0-0.45A0.37,0.37,0,0,0,28.89,18l-0.54,0c-0.13,0-.16.06-0.1,0.25s0,0.42-.24.46S27.66,18.78,27.49,18.8Zm3.41,5.9a2.52,2.52,0,0,0,0-.54,0.16,0.16,0,0,0-.13-0.09,0.16,0.16,0,0,0-.12.09A0.44,0.44,0,0,0,30.9,24.7Zm-1.19-.27a0.28,0.28,0,0,0-.13.07,0.35,0.35,0,0,0,.15.37,0.07,0.07,0,0,0,.07,0A0.33,0.33,0,0,0,29.71,24.43ZM26.4,25.9l0.07,0a1.25,1.25,0,0,0-.09-0.13,0.07,0.07,0,0,0-.07,0,0.1,0.1,0,0,0,0,.07A0.1,0.1,0,0,0,26.4,25.9Z"/><path d="M11.6,28.84l-0.9,0a0.94,0.94,0,0,1-.35-0.05,0.32,0.32,0,0,1-.17-0.19,1.91,1.91,0,0,1,0-.44,0.44,0.44,0,0,0-.24-0.44,2.07,2.07,0,0,1-.65-0.48,1.27,1.27,0,0,0-.5-0.38,0.67,0.67,0,0,1-.43-0.72c0-.6,0-1.2,0-1.8a5.49,5.49,0,0,0,0-.72C8.18,22.87,8,22.11,7.95,21.33c0-.48-0.12-1-0.14-1.43,0-.21-0.09-0.41-0.12-0.62s0-.42-0.05-0.63a0.33,0.33,0,0,1,.23-0.25,1.19,1.19,0,0,1,.27,0,4.81,4.81,0,0,0,1.52-.1,1.57,1.57,0,0,1,.54,0,9.37,9.37,0,0,0,2.06-.1,2.43,2.43,0,0,0,1-.26,2.79,2.79,0,0,1,.51-0.19,0.66,0.66,0,0,1,.65.2,0.42,0.42,0,0,1,.11.24,3.92,3.92,0,0,1,0,.54,7.36,7.36,0,0,0,.16,1.7,4.18,4.18,0,0,1,.15.7,3.66,3.66,0,0,1-.12.61,3.13,3.13,0,0,0,0,.45q0,1.13,0,2.25a1.84,1.84,0,0,1,0,.27,6.89,6.89,0,0,0-.11.71c0,0.24,0,.48.06,0.71a0.53,0.53,0,0,1-.17.4l-0.78.75c-0.11.11-.2,0.22-0.31,0.32a0.76,0.76,0,0,0-.27.8,0.84,0.84,0,0,1,0,.18,0.39,0.39,0,0,1-.28.32H12.5l-0.9,0v0Zm-0.18-4a0.66,0.66,0,0,1,.45.24l0.35,0.4a0.08,0.08,0,0,0,.08,0,0.22,0.22,0,0,0,.09-0.12,4.23,4.23,0,0,0-.09-0.52,0.19,0.19,0,0,0-.11-0.12,0.73,0.73,0,0,0-.74.14,0.47,0.47,0,0,0-.42.06c-0.15.13,0,.27,0,0.4a2.26,2.26,0,0,0,.17.31,0.21,0.21,0,0,0,.24.05,0.24,0.24,0,0,0,.07-0.15C11.5,25.32,11.46,25.09,11.42,24.86Zm-0.7-.53A14.14,14.14,0,0,0,13,24.06,1,1,0,0,0,13.21,24l0.67-.26a0.43,0.43,0,0,0,.28-0.42c0-.27,0-0.54,0-0.81,0-.56,0-0.82-0.72-0.57a5,5,0,0,1-.53.1,0.77,0.77,0,0,0-.56.82c0,0.27.09,0.53,0.13,0.8a0.3,0.3,0,0,1-.25.22l-0.54-.17-0.49.15a0.67,0.67,0,0,0-.45.52c-0.11,0-.23-0.07-0.34-0.11a0.41,0.41,0,0,1-.26-0.34,3.35,3.35,0,0,1-.06-1.07,0.89,0.89,0,0,0,0-.25,0.61,0.61,0,0,0-.18-0.07,3.88,3.88,0,0,1-1.06-.13,0.24,0.24,0,0,0-.25.21,1.33,1.33,0,0,0,0,.27c0.07,0.38.14,0.76,0.23,1.14a0.41,0.41,0,0,0,.15.22,1.16,1.16,0,0,0,.57.25,3.13,3.13,0,0,0,1,0A1,1,0,0,0,10.72,24.33ZM9.38,26.57a0.87,0.87,0,0,0,.09.23,2.77,2.77,0,0,0,1,.73,0.73,0.73,0,0,0,.64.25c0.39,0,.78,0,1.16-0.07a0.72,0.72,0,0,0,.4-0.18c0.16-.13.34-0.24,0.49-0.39s0.52-.5.77-0.76a0.64,0.64,0,0,0,.12-0.59,0.19,0.19,0,0,0-.12-0.09,1.16,1.16,0,0,1-.76.22,3.19,3.19,0,0,0-.79.15,10.92,10.92,0,0,1-2.83.44A0.8,0.8,0,0,0,9.38,26.57Zm0-7.12a5.08,5.08,0,0,0,.78,0c0.68-.15,1.37-0.18,2-0.3a8,8,0,0,0,1.12-.32,0.82,0.82,0,0,0,.42-0.32,0.11,0.11,0,0,0,0-.09,0.1,0.1,0,0,0-.06-0.06,1.14,1.14,0,0,0-.26,0,10,10,0,0,1-2.48.39c-0.84,0-1.67.2-2.51,0.25a0.17,0.17,0,0,0-.11.12,0.18,0.18,0,0,0,.07.15,0.58,0.58,0,0,0,.24.12ZM13,21c-0.05-.3-0.14-0.76-0.23-1.23a0.34,0.34,0,0,0-.35-0.23,0.24,0.24,0,0,0-.23.23,3.2,3.2,0,0,1,.1.88c0,0.21,0,.41.06,0.62a0.32,0.32,0,0,0,.07.16,0.25,0.25,0,0,0,.14.09A0.45,0.45,0,0,0,13,21Zm-2.17.59L10.69,20a0.28,0.28,0,0,0-.2-0.15,0.26,0.26,0,0,0-.23.1,0.33,0.33,0,0,0-.08.16c0,0.39,0,.78,0,1.16a1,1,0,0,0,.21.58,0.3,0.3,0,0,0,.24.08,0.38,0.38,0,0,0,.2-0.15A0.51,0.51,0,0,0,10.87,21.58Zm-1.07,0c0-.2,0-0.36,0-0.5s-0.1-.59-0.17-0.88A0.24,0.24,0,0,0,9.41,20a0.24,0.24,0,0,0-.31.23c0,0.36,0,.72,0,1.08a0.78,0.78,0,0,0,.3.54l0.08,0a0.21,0.21,0,0,0,.29-0.11Zm1.47-1.12h0c0,0.18,0,.36,0,0.54a1.17,1.17,0,0,0,.25.66,0.24,0.24,0,0,0,.24.08,0.21,0.21,0,0,0,.2-0.15,0.35,0.35,0,0,0,0-.25,1.34,1.34,0,0,1-.29-0.91,3.19,3.19,0,0,0,0-.45,0.23,0.23,0,0,0-.14-0.2c-0.08,0-.19.09-0.2,0.24S11.26,20.3,11.26,20.45Zm2.52,0.27c0-.22,0-0.37,0-0.51a1.88,1.88,0,0,0-.27-0.83,0.1,0.1,0,0,0-.08,0,0.12,0.12,0,0,0-.07,0,0.38,0.38,0,0,0-.07.34c0.07,0.41.15,0.81,0.23,1.22a0.35,0.35,0,0,0,.1.14,0.11,0.11,0,0,0,.08,0,0.08,0.08,0,0,0,.06,0C13.75,20.94,13.77,20.8,13.78,20.72ZM8.44,20a0.15,0.15,0,0,0,0,.05,6.35,6.35,0,0,0,0,1.5,0.49,0.49,0,0,0,0,.08,0.1,0.1,0,0,0,.14.08,0.43,0.43,0,0,0,.13-0.09,0.11,0.11,0,0,0,0-.08c0-.38,0-0.77-0.1-1.15A0.51,0.51,0,0,0,8.44,20Zm5.69,4.55c0-.21-0.11-0.31-0.22-0.28l-0.51.15a0.08,0.08,0,0,0,0,.07,4,4,0,0,0,.53.42,0.1,0.1,0,0,0,.08,0C14.06,24.75,14.11,24.62,14.13,24.56ZM11.47,23a0.21,0.21,0,0,0-.07,0,1.49,1.49,0,0,0-.91.24,0.22,0.22,0,0,0,0,.15,0.08,0.08,0,0,0,.06,0A1.63,1.63,0,0,0,11.44,23,0.18,0.18,0,0,0,11.47,23Zm-1,2.91a0.12,0.12,0,0,0,.15-0.08,0.38,0.38,0,0,0-.12-0.47,0.18,0.18,0,0,0-.16,0,0.19,0.19,0,0,0-.09.14A0.43,0.43,0,0,0,10.48,25.87Zm2.6-.89c0-.06,0-0.11,0-0.17a0.62,0.62,0,0,0,0-.08,0.23,0.23,0,0,0-.27-0.16,0.17,0.17,0,0,0-.12.09,1.06,1.06,0,0,0,.22.55,0.09,0.09,0,0,0,.07,0,0.24,0.24,0,0,0,.1-0.1A0.63,0.63,0,0,0,13.08,25Zm-4.27-.14a0.16,0.16,0,0,0-.07.06,1.67,1.67,0,0,0,0,.27,0.18,0.18,0,0,0,.05.07,0.19,0.19,0,0,0,.07-0.06C8.91,25,8.88,24.86,8.81,24.84Zm2.08-2.41-0.14,0a0.1,0.1,0,0,0,0,0l0.14,0A0.1,0.1,0,0,0,10.89,22.43Z"/><path d="M28.73,23.09a4,4,0,0,1-.49,0,0.61,0.61,0,0,1-.42-0.31,0.32,0.32,0,0,1-.06-0.16,0.91,0.91,0,0,1,.4-0.75,0.42,0.42,0,0,1,.49.05,2.24,2.24,0,0,0,.51.48,0.39,0.39,0,0,1,.14.4,0.37,0.37,0,0,1-.27.31h-0.3Z"/></svg>