<svg xmlns="http://www.w3.org/2000/svg" viewBox="0 0 40 40"><title>K1</title><path d="M32.36,16.34c0,0.31-.09.59-0.11,0.87a1.13,1.13,0,0,1-.29.66,1.09,1.09,0,0,0-.25.79c0,0.61,0,1.23,0,1.84,0.14,1.26.21,2.52,0.33,3.78,0.08,0.81.16,1.62,0.2,2.44a8.89,8.89,0,0,1-.1,1.22,2.93,2.93,0,0,0-.06.6,2.89,2.89,0,0,1-.6,1.81,1.22,1.22,0,0,1-.57.45,12.55,12.55,0,0,1-1.56.71,16.13,16.13,0,0,1-1.79.39c-0.2,0-.41,0-0.61.09a1.6,1.6,0,0,1-1,0,0.52,0.52,0,0,0-.36,0,0.87,0.87,0,0,1-1-.11,0.8,0.8,0,0,0-.58-0.15l-0.85,0a1.65,1.65,0,0,1-.49,0,6.58,6.58,0,0,0-1.7-.12,11.35,11.35,0,0,1-1.35-.08,23.74,23.74,0,0,0-3.05-.19,20.91,20.91,0,0,1-2.43-.3c-0.69-.07-1.37-0.2-2.06-0.3A4.4,4.4,0,0,1,10,30a1.16,1.16,0,0,0-.32-0.18,1.43,1.43,0,0,1-.94-1.18C8.55,27.79,8.35,27,8.18,26.12a4.8,4.8,0,0,1,0-.73,8.33,8.33,0,0,0-.36-2.16,0.75,0.75,0,0,1,0-.47,4.13,4.13,0,0,0,0-2.41,1.22,1.22,0,0,1-.06-0.71,2.36,2.36,0,0,0,0-1.09A11.94,11.94,0,0,1,7.7,15.6c0-.32.11-0.64,0.11-1a1.1,1.1,0,0,1,.48-0.94,0.84,0.84,0,0,0,.27-0.24A2,2,0,0,1,10,12.58c0.16,0,.32,0,0.48-0.07a1.74,1.74,0,0,1,1.5.35,1.82,1.82,0,0,0,1,.39c1,0.11,2,.27,3,0.38a5.21,5.21,0,0,0,.85,0,0.43,0.43,0,0,0,.35-0.3A14.06,14.06,0,0,1,18,10.38,0.65,0.65,0,0,1,18.37,10a12.06,12.06,0,0,1,1.13-.46A10,10,0,0,0,21,8.84c0.57-.32,1.15-0.6,1.74-0.89a0.54,0.54,0,0,1,.47,0c1.05,0.54,2.06,1.16,3.07,1.78a0.87,0.87,0,0,1,.48.8,0.84,0.84,0,0,0,0,.12,10.41,10.41,0,0,0,.57,1.74,2,2,0,0,0,.45.86,0.13,0.13,0,0,0,.1,0,0.4,0.4,0,0,0,.18-0.14,1.09,1.09,0,0,0,.07-0.35c0-.12,0-0.24,0-0.36a0.33,0.33,0,0,1,.14-0.19,0.4,0.4,0,0,1,.23-0.07,1.23,1.23,0,0,0,1.25-.57,0.36,0.36,0,0,1,.61.09,0.62,0.62,0,0,0,.64.45,0.91,0.91,0,0,1,.24,0,0.52,0.52,0,0,1,.38.55,8.33,8.33,0,0,1-.33,1.9,1.25,1.25,0,0,0,0,.6,0.48,0.48,0,0,0,.22.41l0.71,0.46A1,1,0,0,1,32.36,16.34Zm-22,5.73a4.28,4.28,0,0,0,2-.5,0.43,0.43,0,0,0,.18-0.16,0.35,0.35,0,0,0,0-.2,0.13,0.13,0,0,0-.1,0,2.12,2.12,0,0,0-.47.11c-0.52.23-1,.47-1.53,0.72a0.25,0.25,0,0,0-.06.1,1.19,1.19,0,0,0-.79.19,0.12,0.12,0,0,0,0,.1,0.12,0.12,0,0,0,.09.07A1.08,1.08,0,0,0,10.36,22.06Zm-0.53-4a1.21,1.21,0,0,0,.31-0.17,1.47,1.47,0,0,0,.28-0.39,3.54,3.54,0,0,1,.82-1.19,0.19,0.19,0,0,0,0-.11,0.16,0.16,0,0,0,0-.11,0.31,0.31,0,0,0-.19-0.1,1.2,1.2,0,0,0-.4.25,2.78,2.78,0,0,0-.81,1.85,1.05,1.05,0,0,0-.38.59c0,0.09,0,.18.07,0.19a0.27,0.27,0,0,0,.18-0.13A0.81,0.81,0,0,0,9.83,18.11Zm13.77-3.87a1.79,1.79,0,0,0-1.35-1c-0.1.12-.17,0.22-0.25,0.3a1.12,1.12,0,0,1-1.43,0,0.41,0.41,0,0,1-.08-0.22A0.23,0.23,0,0,1,20.7,13L21.06,13a0.24,0.24,0,0,0,.08-0.08A0.36,0.36,0,0,0,21,12.78a5.3,5.3,0,0,0-.73,0,0.6,0.6,0,0,0-.53.44c-0.06.19-.12,0.39-0.17,0.57a0.68,0.68,0,0,0,.21.15c0.24,0,.49,0,0.73.07a3.53,3.53,0,0,0,1.45.1c0.51-.13,1,0.22,1.44.11l0.24,0a0.62,0.62,0,0,0,.54.22,24.46,24.46,0,0,1,3.14.13,0.26,0.26,0,0,0,.21-0.24A1.87,1.87,0,0,0,27,13.12,0.59,0.59,0,0,0,26.76,13a0.56,0.56,0,0,0,0-.12A4.14,4.14,0,0,0,26.11,11a0.49,0.49,0,0,0-.43-0.19,3.25,3.25,0,0,0-1.41.36,2,2,0,0,0,.54.78,1.14,1.14,0,0,0,.24,0c0.55-.18.67-0.16,1,0.18a3.86,3.86,0,0,0,.79.92,1.14,1.14,0,0,1,0,.23,0.36,0.36,0,0,1-.59.14c-0.19-.2-0.35-0.43-0.52-0.65a0.22,0.22,0,0,0-.31,0,0.26,0.26,0,0,0-.07.32c0.08,0.14.17,0.27,0.24,0.42a0.36,0.36,0,0,1-.29.44A2.93,2.93,0,0,0,23.61,14.23ZM10.84,25.76a2.32,2.32,0,0,1,.2-1.07A6.74,6.74,0,0,0,11.29,24a0.37,0.37,0,0,0-.18-0.41c-0.07,0-.16,0-0.23-0.08a0.57,0.57,0,0,1-.16-0.15,0.27,0.27,0,0,1,.19-0.28l0.55-.26,0.41-.24a0.11,0.11,0,0,0,0-.1,0.12,0.12,0,0,0-.09-0.07,21.37,21.37,0,0,0-2.8.82,0.51,0.51,0,0,0-.37.56,3.64,3.64,0,0,0,0,.37c0.07,0.61.17,1.21,0.22,1.82A5.72,5.72,0,0,0,9.11,27a5.21,5.21,0,0,1,.39,1.4,0.12,0.12,0,0,0,.09,0,0.15,0.15,0,0,0,.1,0A1.52,1.52,0,0,0,9.92,27c-0.1-.27-0.26-0.5-0.38-0.77,0-.19.08-0.39,0.1-0.59s0-.41,0-0.61a0.58,0.58,0,0,1,.13-0.52,3.33,3.33,0,0,1,0,1,0.86,0.86,0,0,0,.38.6,0.24,0.24,0,0,0,.22,0c0.16-.13.29-0.28,0.43-0.42a0.77,0.77,0,0,0,.23.53,0.79,0.79,0,0,1,.21.54l0,0a0.74,0.74,0,0,0-.33.33c-0.2.26-.42,0.5-0.63,0.74a1.17,1.17,0,0,0-.25,1,0.47,0.47,0,0,0,.28.37,2.58,2.58,0,0,0,1.68.12,1.34,1.34,0,0,1,0-.34c0.08-.31.18-0.62,0.29-0.93s-0.1-.64,0-1a0.28,0.28,0,0,1,.13-0.18,0.73,0.73,0,0,0,.57-0.7,6.87,6.87,0,0,1,.37-1,0.31,0.31,0,0,1,.2,0,0.12,0.12,0,0,1,.07.09,1,1,0,0,1,0,.36c-0.33.92-.49,1.89-0.85,2.8-0.1.25,0,.43,0.35,0.5h0.12c-0.06.3-.44,0.34-0.53,0.68a4.09,4.09,0,0,0,1.18,0,0.41,0.41,0,0,0,.3-0.34c0-.32,0-0.64,0-1a0.13,0.13,0,0,0-.06-0.1,0.28,0.28,0,0,0-.19,0c-0.12.16-.21,0.35-0.33,0.51a0.55,0.55,0,0,1-.43.19,1.48,1.48,0,0,1,.09-0.35,11.59,11.59,0,0,0,.78-2.18,3,3,0,0,0,.13-1.08,19.82,19.82,0,0,1,0-2.56,2.12,2.12,0,0,0-.05-0.48,0.34,0.34,0,0,0-.39-0.2,4,4,0,0,0-.43.22c-0.38.24-.74,0.5-1.13,0.72a1,1,0,0,0-.49.52c-0.24.64-.56,1.26-0.75,1.93A0.87,0.87,0,0,1,10.84,25.76ZM27,19.12l0,0a1.31,1.31,0,0,0-.27-0.67,8.17,8.17,0,0,0-3.36-2.56,2.78,2.78,0,0,0-2.37,0,1.48,1.48,0,0,1-.7.17,1.71,1.71,0,0,0-.93.25L18.11,17a1.54,1.54,0,0,0-.41.25,4.9,4.9,0,0,0-1,1.35A6.62,6.62,0,0,0,16,21a26.22,26.22,0,0,0,0,2.69,4.43,4.43,0,0,0,1.15,2.77,2.25,2.25,0,0,0,.56.47A6.46,6.46,0,0,0,20.46,28a6.6,6.6,0,0,0,3.5-.09,4.24,4.24,0,0,0,2.28-1.55,5.76,5.76,0,0,0,1.13-2,3.32,3.32,0,0,0,.42-1.88,8.61,8.61,0,0,0-.28-2.54A1.29,1.29,0,0,0,27,19.12Zm-1.48-3.94c-0.37,0-.73,0-1.1,0a0.22,0.22,0,0,0-.16.14,0.42,0.42,0,0,0,.08.22,0.18,0.18,0,0,0,.09.08A4,4,0,0,1,26,16.76a1.59,1.59,0,0,0,.28.23,5.66,5.66,0,0,1,1.34,1.4,4.21,4.21,0,0,1,.48.84,6.83,6.83,0,0,1,.58,3.21c0,0.32-.07.65-0.11,1a0.3,0.3,0,0,0,.25.35c0.15,0.06.31,0.09,0.46,0.16a0.62,0.62,0,0,1,.44.66,5,5,0,0,0,.17,1.94,2.42,2.42,0,0,1,0,.61,1,1,0,0,1-.06.24,0.44,0.44,0,0,1-.37.27l-0.84-.12a0.35,0.35,0,0,0-.36.27,2.55,2.55,0,0,0,0,.36,1.39,1.39,0,0,1-.56,1.17,2,2,0,0,0-.28.24,0.24,0.24,0,0,0,0,.21,0.29,0.29,0,0,0,.2.11,1.66,1.66,0,0,0,.48,0,10.82,10.82,0,0,0,1.93-.77,0.69,0.69,0,0,0,.27-0.24,3,3,0,0,0,.57-1.21,8.08,8.08,0,0,0,.31-1.92A2.28,2.28,0,0,1,31.29,25a5.51,5.51,0,0,0,0-2.42,6.06,6.06,0,0,1-.1-1.09A23.22,23.22,0,0,0,31,18.92a8.16,8.16,0,0,0-.52-2,0.73,0.73,0,0,0-.61-0.53A0.69,0.69,0,0,1,29.29,16a0.73,0.73,0,0,0-.49-0.33A10.94,10.94,0,0,0,25.55,15.17Zm-8.21-.35a8.22,8.22,0,0,0-.81-0.26,0.62,0.62,0,0,0-.67.18A0.69,0.69,0,0,1,15,15a0.48,0.48,0,0,0-.58.33,0.22,0.22,0,0,0,.06.2c0.19,0,.4.06,0.6,0.09a1,1,0,0,1,.71.44,0.53,0.53,0,0,1,.12.33,1.14,1.14,0,0,1-.68.95,0.57,0.57,0,0,1-.58-0.06c-0.19-.15-0.35-0.33-0.53-0.5a0.21,0.21,0,0,0-.3.08A4.27,4.27,0,0,0,14,20.31a0.67,0.67,0,0,0,.18.16l0.56-.21a0.13,0.13,0,0,1,.17.12,4.25,4.25,0,0,1-.1.47,1.17,1.17,0,0,0,.09.72,2.15,2.15,0,0,0,.24.32,2.72,2.72,0,0,0,.07-0.39A10.57,10.57,0,0,1,15.67,19a4.42,4.42,0,0,1,1.89-2.61c0.17-.11.35-0.21,0.51-0.34a6,6,0,0,1,2-1.11,0.24,0.24,0,0,0,.06-0.1,1.11,1.11,0,0,0-.57-0.1,7.57,7.57,0,0,1-1.09-.14A1.26,1.26,0,0,0,17.35,14.82Zm5.07,15.06a13.75,13.75,0,0,0,2.07-.16,1.15,1.15,0,0,0,.86-0.39,1.32,1.32,0,0,1,1-.43l0.37,0a0.89,0.89,0,0,0,.8-0.8c0-.53,0-1.06-0.05-1.58a0.14,0.14,0,0,0-.06-0.09,0.16,0.16,0,0,0-.22,0c-0.18.22-.36,0.45-0.56,0.65a6.36,6.36,0,0,1-1.11,1,6.07,6.07,0,0,1-2.9.87A7.46,7.46,0,0,1,18.09,28a3.34,3.34,0,0,0-.56-0.22,0.19,0.19,0,0,0-.22.22,0.56,0.56,0,0,0,.16.31,3.56,3.56,0,0,0,.78.34,15.68,15.68,0,0,1,2.61,1,1.73,1.73,0,0,0,.82.19h0.73Zm-7.31-6.74a5.46,5.46,0,0,0-.08.66c0,0.82.08,1.63,0.11,2.45a8.88,8.88,0,0,1,0,2.07,2.21,2.21,0,0,0,0,.49c0,0.24,0,.48,0,0.68a1,1,0,0,0,.62.15l2.93,0.13a0.12,0.12,0,0,0,.09-0.07,0.17,0.17,0,0,0-.09-0.21,2,2,0,0,0-.92-0.32,1.34,1.34,0,0,1-1.29-1.1c-0.06-.24-0.14-0.47-0.22-0.7s-0.2-.62-0.31-0.93a8.46,8.46,0,0,1-.73-3A2.59,2.59,0,0,0,15.11,23.15Zm7.62-11.52c0.28-.11.58-0.23,0.88-0.36a0.45,0.45,0,0,0,.15-0.18,0.26,0.26,0,0,0-.25-0.22c-0.45,0-.89-0.1-1.34-0.11-1.06,0-2.12,0-3.18,0a1.19,1.19,0,0,0-.24,0,0.57,0.57,0,0,0-.37.29,1.4,1.4,0,0,0-.2.7,4.39,4.39,0,0,1-.28,1.43l0,0.12a0.33,0.33,0,0,0,.19.4l0.71,0.16A0.18,0.18,0,0,0,19,13.7a6.74,6.74,0,0,1,.2-1.93,0.89,0.89,0,0,1,.74-0.71c0.49,0,1,0,1.46,0a0.33,0.33,0,0,1,.22.09A1.84,1.84,0,0,0,22.72,11.63ZM23.2,10a6.58,6.58,0,0,1,1.61,0,0.62,0.62,0,0,0,.34-0.08,0.43,0.43,0,0,0-.28-0.35C24.58,9.43,24.29,9.28,24,9.16A1.63,1.63,0,0,0,22.38,9a6.91,6.91,0,0,0-.81.26,7.86,7.86,0,0,0-.85.45,0.23,0.23,0,0,0-.09.2,0.23,0.23,0,0,0,.19.1H23.2ZM11.75,14a8,8,0,0,0-1.88.09,0.86,0.86,0,0,0-.38.27,0.31,0.31,0,0,0,0,.21,0.16,0.16,0,0,0,.09.07,0.22,0.22,0,0,0,.12,0,1.93,1.93,0,0,1,1.53.07,0.77,0.77,0,0,0,.47,0c0.51-.1,1-0.22,1.53-0.34a0.65,0.65,0,0,0,.21-0.11,0.15,0.15,0,0,0,0-.1A0.09,0.09,0,0,0,13.47,14,4.36,4.36,0,0,0,12.76,14,2.72,2.72,0,0,1,11.75,14ZM29,25.57a7.27,7.27,0,0,0-.09-0.77,0.49,0.49,0,0,0-.27-0.21,0.31,0.31,0,0,0-.28.18,3.73,3.73,0,0,0,.1,1.93A0.3,0.3,0,0,0,29,26.62C29,26.34,29,26.05,29,25.57ZM12.87,20a0.44,0.44,0,0,0,0-.12q-0.06-.72-0.13-1.44c0-.1-0.07-0.16-0.15-0.13a0.36,0.36,0,0,0-.19.12,5.35,5.35,0,0,0-.52,1.72,0.16,0.16,0,0,0,0,.12,0.36,0.36,0,0,0,.17.15,1,1,0,0,0,.67-0.23A0.58,0.58,0,0,0,12.87,20ZM8.39,18c0,0.06,0,.26.09,0.45a0.36,0.36,0,0,0,.2,0,0.15,0.15,0,0,0,.1-0.06l1-1.66a0.14,0.14,0,0,0,0-.11,0.16,0.16,0,0,0-.09-0.08c-0.34.13-.68,0.27-1,0.42a0.53,0.53,0,0,0-.29.5C8.39,17.59,8.39,17.71,8.39,18ZM10,15.3a5.48,5.48,0,0,0-.55-0.07,0.8,0.8,0,0,1-.63-0.31,0.28,0.28,0,0,0-.39.13,1.22,1.22,0,0,0-.09.83,0.23,0.23,0,0,0,.17.12A12,12,0,0,0,10,15.3Zm2.57,1.53a0.48,0.48,0,0,0,.21-0.09,3.56,3.56,0,0,0,.58-1.31,0.22,0.22,0,0,0-.15-0.14,0.28,0.28,0,0,0-.22.06,2.8,2.8,0,0,0-.65,1.14,0.45,0.45,0,0,0,0,.23A0.15,0.15,0,0,0,12.61,16.83ZM11,20.45a0.47,0.47,0,0,0,.19-0.12q0.3-.73.57-1.48a0.46,0.46,0,0,0-.06-0.22,0.27,0.27,0,0,0-.09.06,5.06,5.06,0,0,0-.69,1.67A0.23,0.23,0,0,0,11,20.45Zm10.7-8.67a0.25,0.25,0,0,0-.09-0.08,1.47,1.47,0,0,0-.81.16,0.1,0.1,0,0,0,0,.09,0.32,0.32,0,0,0,.14.16,1.48,1.48,0,0,0,.8-0.22A0.25,0.25,0,0,0,21.71,11.78ZM24.12,13a0.36,0.36,0,0,0,0,.12,1.51,1.51,0,0,0,.1.17,1.08,1.08,0,0,0,.15-0.17,0.32,0.32,0,0,0,0-.33,0.21,0.21,0,0,0-.08-0.08,0.11,0.11,0,0,0-.18.07A2.09,2.09,0,0,0,24.12,13Zm6.52-.06a0.25,0.25,0,0,0-.26.25,0.28,0.28,0,0,0,.22.26,0.26,0.26,0,0,0,.22-0.26A1,1,0,0,0,30.64,12.91ZM12.23,15.63a0.15,0.15,0,0,0-.28.12,0.12,0.12,0,0,0,.19.07A0.48,0.48,0,0,0,12.23,15.63ZM9,21.26a0.2,0.2,0,0,0-.06-0.07,0.71,0.71,0,0,0-.19.07,0.14,0.14,0,0,0,0,.1,0.11,0.11,0,0,0,.08,0A1.46,1.46,0,0,0,9,21.26Zm0-1.45a0.34,0.34,0,0,0,0,.09l0.06,0a0.34,0.34,0,0,0,0-.09Zm10.81-8a0.18,0.18,0,0,0,.07-0.05,0.11,0.11,0,0,0,0-.1c-0.06-.06-0.1,0-0.11.06A0.2,0.2,0,0,0,19.81,11.85Z"/><path d="M27,19.12a0.67,0.67,0,0,1-.16.67,1,1,0,0,0-.36.62,5.37,5.37,0,0,0-.16,1.45A9.05,9.05,0,0,1,26,24.15a1.63,1.63,0,0,1-.19.45,0.88,0.88,0,0,1-.69.45,2,2,0,0,1-.37,0L23.18,25H22.93c-0.61-.07-1.21-0.16-1.82-0.22s-1.14-.08-1.71-0.11l-0.61,0c-0.32,0-.65,0-1-0.09a0.58,0.58,0,0,1-.44-0.39,0.9,0.9,0,0,1-.08-0.71,3.79,3.79,0,0,0,.18-1.32,17.21,17.21,0,0,1,.14-2.32A3.23,3.23,0,0,0,17.57,19,0.55,0.55,0,0,1,18,18.42a1.9,1.9,0,0,1,.36,0,10.55,10.55,0,0,1,2.31.16,12.5,12.5,0,0,1,2.19.14c0.85,0.11,1.7.17,2.55,0.2a4.08,4.08,0,0,1,1.66.28Zm-1.26,2a0.8,0.8,0,0,0-.24.1c-0.17.17-.33,0.37-0.51,0.53a0.79,0.79,0,0,1-.68.2,2.89,2.89,0,0,1-1-.36c-1.22-.72-1.36-0.62-1.45.69a0.55,0.55,0,0,1-.84.4,2.42,2.42,0,0,1-.78-0.58c-0.32-.37-0.62-0.76-0.92-1.14a0.2,0.2,0,0,1,0-.11,0.15,0.15,0,0,1,0-.1,0.41,0.41,0,0,1,.2-0.11,0.57,0.57,0,0,1,.42.22l0.73,0.82a0.27,0.27,0,0,0,.48-0.08c0.1-.35.18-0.71,0.29-1.06A0.51,0.51,0,0,1,22,20.2a8.07,8.07,0,0,1,1.72.92,0.58,0.58,0,0,0,.88,0,2.24,2.24,0,0,1,.94-0.54A0.43,0.43,0,0,0,25.82,20a0.42,0.42,0,0,0-.3-0.35,1.86,1.86,0,0,0-.36-0.06,17.6,17.6,0,0,1-3-.35,26.65,26.65,0,0,0-3.42-.16,0.47,0.47,0,0,0-.45.49c0,0.77-.06,1.55-0.07,2.32a6,6,0,0,1-.12,1.46,0.93,0.93,0,0,0,0,.12,0.33,0.33,0,0,0,.21.27c0.45,0,.9,0,1.34.09,0.73,0.12,1.46.14,2.19,0.19a4.17,4.17,0,0,1,.61.06,11.33,11.33,0,0,0,2.56.1,0.58,0.58,0,0,0,.52-0.45c0.06-.36.09-0.73,0.18-1.09A6.42,6.42,0,0,0,25.77,21.1Z"/><path d="M11.82,26.25a0.8,0.8,0,0,1,0,.12c-0.09.68-.3,1.34-0.44,2a1,1,0,0,1-.25.4,0.28,0.28,0,0,1-.21.05,0.26,0.26,0,0,1-.17-0.28c0.15-.37.3-0.75,0.47-1.12a1.64,1.64,0,0,0,.13-0.71l0,0c0.1-.1.19-0.21,0.29-0.31a2.73,2.73,0,0,1,.25-0.19Z"/><path d="M11.86,26.28a2.13,2.13,0,0,1,.15-1.2,2,2,0,0,1,.35-0.89,0.27,0.27,0,0,1,.22-0.05,0.24,0.24,0,0,1,.15.16,0.74,0.74,0,0,1,0,.36c-0.16.38-.33,0.75-0.5,1.11a1,1,0,0,1-.36.48Z"/><path d="M12.76,26.19a0.11,0.11,0,0,1,0,.09c-0.06,0-.12,0-0.11-0.12A0.49,0.49,0,0,1,12.7,26,1.25,1.25,0,0,1,12.76,26.19Z"/><path d="M10,23.71a0.15,0.15,0,0,1,.08,0,0.14,0.14,0,0,1,0,.1,0.27,0.27,0,0,1-.07.08,0.27,0.27,0,0,1-.06-0.09A0.25,0.25,0,0,1,10,23.71Z"/><polygon points="9.49 27.07 9.46 26.95 9.55 26.97 9.49 27.07"/></svg>