<svg xmlns="http://www.w3.org/2000/svg" viewBox="0 0 40 40"><title>RX1R2</title><path d="M31.84,12.42a2,2,0,0,0-.41.9c0,0.47-.11.93-0.17,1.4a0.37,0.37,0,0,0,.26.39,0.83,0.83,0,0,1,.7.79,4.78,4.78,0,0,0,.11.5l0,0.12a0.52,0.52,0,0,1-.56.54l-0.13,0a0.3,0.3,0,0,0-.38.23c0,0.34,0,.68-0.06,1a22.54,22.54,0,0,1-.22,2.8,2.41,2.41,0,0,0,.14,1.63,0.72,0.72,0,0,1,.06.49A7.34,7.34,0,0,0,31,25.63a4.58,4.58,0,0,1-.71,2.42,0.87,0.87,0,0,1-.59.46,9.24,9.24,0,0,1-1.13.21,18.63,18.63,0,0,1-2,.09c-0.59,0-1.19-.13-1.78-0.2-0.17,0-.34-0.07-0.51-0.08a1.79,1.79,0,0,0-.63,0,3.56,3.56,0,0,1-1.13.17,6.07,6.07,0,0,0-.89.09,6.52,6.52,0,0,1-2.54,0,1.24,1.24,0,0,0-.63,0C18.2,28.91,18,29,17.79,29a1.48,1.48,0,0,1-1.47,0A0.5,0.5,0,0,0,16.08,29a9,9,0,0,0-2.17.06,13.55,13.55,0,0,1-1.37.32c-0.42,0-.84-0.1-1.27-0.05a6,6,0,0,1-1-.06l-0.77,0c-1,0-1.24.08-1.35-1.18s-0.24-2.29-.36-3.43a0.94,0.94,0,0,1,0-.25,10.61,10.61,0,0,0-.09-3.18,12.72,12.72,0,0,1,0-1.53c0-.3,0-0.6,0-0.89a3.45,3.45,0,0,1,.11-1,3,3,0,0,0,0-1.89,0.37,0.37,0,0,1,.4-0.5c0.34,0,.68,0,1,0a1.22,1.22,0,0,0,.72-0.22,0.67,0.67,0,0,0,.33-0.52c0-.21,0-0.43,0-0.64a0.39,0.39,0,0,1,.45-0.36,2.49,2.49,0,0,0,1.13.07,0.62,0.62,0,0,1,.87.49l0.1,0.24a0.55,0.55,0,0,0,.49.35c0.47,0,.94,0,1.41,0A0.4,0.4,0,0,0,15,14.31c0-.3,0-0.59,0-0.89a0.28,0.28,0,0,1,.17-0.16,0.44,0.44,0,0,1,.25,0,8,8,0,0,0,2.3.09c0.42,0,.85,0,1.28-0.05a0.69,0.69,0,0,1,.71.45,1,1,0,0,0,.1.23,0.4,0.4,0,0,0,.2.14,0.87,0.87,0,0,0,1-.46c0.07-.16.11-0.32,0.18-0.48a0.53,0.53,0,0,1,.54-0.27A7.53,7.53,0,0,0,24,13a2.71,2.71,0,0,1,1.35.31,1,1,0,0,1,.56.8c0,0.17.05,0.33,0.09,0.5a0.34,0.34,0,0,0,.32.15,0.29,0.29,0,0,0,.29-0.2,20,20,0,0,0,.25-3.18c0-.13,0-0.26,0-0.38a0.42,0.42,0,0,1,.43-0.38c0.42,0.07.85,0.12,1.26,0.22A3.76,3.76,0,0,0,30,11a2.1,2.1,0,0,1,1.22.3,0.57,0.57,0,0,1,.25.27C31.62,11.83,31.72,12.11,31.84,12.42ZM23,16.4a0.7,0.7,0,0,0,.55.24,4.08,4.08,0,0,0,1.26,1.24,2.1,2.1,0,0,1,.85,1.22c0.09,0.32.17,0.64,0.29,1.07a1.65,1.65,0,0,0,.12-0.45c0-.42-0.11-0.84-0.19-1.26a1.5,1.5,0,0,0-.49-0.87c-0.22-.2-0.44-0.41-0.67-0.58a1.57,1.57,0,0,0-1.2-.32A0.58,0.58,0,0,0,23,16.43a0.31,0.31,0,0,0-.06-0.11,2.53,2.53,0,0,0-1.15-.42,1,1,0,0,0-.34.1A2.29,2.29,0,0,0,23,16.4ZM8.49,19.79a1.42,1.42,0,0,0,1.14,0,1.32,1.32,0,0,1,.61-0.17,9.54,9.54,0,0,1,1.25.22,0.23,0.23,0,0,1,.13.19,1.24,1.24,0,0,0,.16,1.08,1.62,1.62,0,0,1,.22.86,7.91,7.91,0,0,0,.29,1.76,7.37,7.37,0,0,1,.21,2.89,0.52,0.52,0,0,0,.45.53h2.17A1.59,1.59,0,0,0,15.48,27a0.23,0.23,0,0,0,.15-0.3c-0.24-.3-0.46-0.61-0.71-0.9a1.41,1.41,0,0,1-.38-0.93,4.56,4.56,0,0,0-.24-1.25,5.61,5.61,0,0,1-.09-3c0.1-.41.17-0.83,0.25-1.25a0.58,0.58,0,0,0-.21-0.57,1,1,0,0,0-1.18-.19,0.64,0.64,0,0,1-.61.07,1,1,0,0,0-1,0,0.28,0.28,0,0,1-.34-0.11,2.77,2.77,0,0,1-.46-1.69,0.45,0.45,0,0,1,.08-0.24,1,1,0,0,1,1.09-.46,2.35,2.35,0,0,1,1,.57,0.2,0.2,0,0,0,.33,0c0.11-.13.2-0.28,0.32-0.39a0.32,0.32,0,0,1,.35-0.1c0.2,0.08.4,0.16,0.59,0.25a0.49,0.49,0,0,1,.28.4c0,0.42,0,.85,0,1.28a0.32,0.32,0,0,0,.15.16,0.12,0.12,0,0,0,.11,0,1.58,1.58,0,0,0,.32-0.39,4.67,4.67,0,0,1,1.31-1.86A0.66,0.66,0,0,0,16.68,16a0.22,0.22,0,0,0-.1-0.31c-0.59-.1-1.19-0.07-1.78-0.12a3.75,3.75,0,0,0-1.52.1,4.88,4.88,0,0,1-1.51.23A3.63,3.63,0,0,0,10,16.4a4.5,4.5,0,0,0-.5.38c-0.14.51-.7,0.76-0.82,1.27s-0.17.92-.23,1.39A1.05,1.05,0,0,0,8.49,19.79ZM29.76,25a0.75,0.75,0,0,0,.17-0.18A4.1,4.1,0,0,0,30.18,23a12.94,12.94,0,0,1,.21-3.3,3.51,3.51,0,0,0,0-1.4A0.42,0.42,0,0,0,30,18L28.1,18a0.43,0.43,0,0,0-.24.08,0.29,0.29,0,0,0-.13.19,7.63,7.63,0,0,1,.34,1.34,7,7,0,0,1,0,2c-0.14.58-.24,1.17-0.43,1.74a6,6,0,0,1-1.17,2.24c-0.51.57-.89,1.25-1.44,1.79a0.21,0.21,0,0,0,.08.31,2.52,2.52,0,0,0,.61.17c0.76,0,1.53,0,2.29,0a0.17,0.17,0,0,0,.11-0.05,0.11,0.11,0,0,0,0-.1l-0.52-.35a1.46,1.46,0,0,1-.66-0.75,1.17,1.17,0,0,1,.14-0.74c0.1-.33.17-0.66,0.28-1A0.84,0.84,0,0,1,28,24.4a1.1,1.1,0,0,1,.75,0ZM18.61,20.87h0c0,0.21,0,.43,0,0.64a3.27,3.27,0,0,0,.59,1.93,0.74,0.74,0,0,0,.27.27,1.61,1.61,0,0,0,1.1.22c0.51-.1,1-0.34,1.45-0.48a3.1,3.1,0,0,0,1.45-1,1.91,1.91,0,0,0,.34-2.25,9.07,9.07,0,0,0-.79-1.31,1.19,1.19,0,0,0-.51-0.36A5,5,0,0,0,20,18.25a1.4,1.4,0,0,0-1.12.75,2.09,2.09,0,0,0-.3,1.1C18.62,20.36,18.61,20.62,18.61,20.87Zm-3.83.75c0.11,0.89.21,1.78,0.32,2.66a1.36,1.36,0,0,0,.11.37,4.78,4.78,0,0,0,1.53,2c0.28,0.2.56,0.39,0.84,0.58a4.86,4.86,0,0,0,3.53.83L22,28a4,4,0,0,0,2.75-1.46c0.3-.36.6-0.72,0.89-1.09a0.8,0.8,0,0,0,.11-0.23,0.15,0.15,0,0,0-.1-0.21,0.16,0.16,0,0,0-.11,0,1.55,1.55,0,0,0-.41.29,6.7,6.7,0,0,1-.83,1,3.38,3.38,0,0,1-1.67.9,4.43,4.43,0,0,1-2.39.08,2.47,2.47,0,0,0-.51,0A1.28,1.28,0,0,1,19.26,27a3.78,3.78,0,0,0-1.32-.44,2.13,2.13,0,0,1-1.34-.92,8.38,8.38,0,0,1-.48-0.76,1.72,1.72,0,0,1-.23-0.59,17.17,17.17,0,0,1-.33-3.18,4.22,4.22,0,0,1,.23-1.38,9.5,9.5,0,0,0,.41-1.61c0-.23,0-0.35-0.06-0.31a0.54,0.54,0,0,0-.21.14,9,9,0,0,0-.9,2.11A3.85,3.85,0,0,0,14.78,21.63Zm15.71-6.19a0.3,0.3,0,0,0,.1-0.08,5.32,5.32,0,0,0,.29-1.87,0.32,0.32,0,0,0-.34-0.3c-0.21,0-.41.1-0.62,0.12a0.46,0.46,0,0,1-.47-0.49,1,1,0,0,1,.17-0.6,1.41,1.41,0,0,0,.14-0.32,4.47,4.47,0,0,0-1.22-.42,2.12,2.12,0,0,0-.37-0.09,0.73,0.73,0,0,0-.83.61c0,0.38-.05.76-0.11,1.14a2.93,2.93,0,0,0,.18,1.38,0.43,0.43,0,0,0,.37.3A14.18,14.18,0,0,1,30.49,15.44Zm-9.42-.32a3.15,3.15,0,0,1,1.85.31,7.11,7.11,0,0,0,1.31.49,3.51,3.51,0,0,1,1.54.85,1.37,1.37,0,0,0,.32.2,0.11,0.11,0,0,0,.1,0,0.13,0.13,0,0,0,0-.11,1.87,1.87,0,0,0-1.13-1.12c-0.64-.23-1.27-0.49-1.91-0.7a2.25,2.25,0,0,0-.75-0.1,3.2,3.2,0,0,1-1.37-.18,1,1,0,0,0-.74.09,0.32,0.32,0,0,0-.15.18,0.22,0.22,0,0,0,.14.13C20.57,15.13,20.82,15.12,21.08,15.12ZM27.49,17c0-.12.08-0.24,0.13-0.35a0.33,0.33,0,0,1,.4-0.21,3,3,0,0,0,1.86.12,0.11,0.11,0,0,0,.06-0.08,0.16,0.16,0,0,0,0-.12,0.85,0.85,0,0,0-.29-0.24,8.25,8.25,0,0,0-2.46-.51l-0.25,0a0.24,0.24,0,0,0-.2.26c0.18,0.33.36,0.67,0.55,1A0.54,0.54,0,0,0,27.49,17ZM27.36,20.6c0-.23,0-0.36,0-0.48a0.58,0.58,0,0,0-.07-0.24,0.31,0.31,0,0,0-.19-0.13,0.2,0.2,0,0,0-.14.14,16.49,16.49,0,0,1-.75,4.5,0.12,0.12,0,0,0,.07.09,0.17,0.17,0,0,0,.11-0.06,3.07,3.07,0,0,0,.4-0.93A9.3,9.3,0,0,0,27.36,20.6Zm-8.87-2.44a0.21,0.21,0,0,0-.1,0c-0.2.27-.41,0.54-0.59,0.83a0.83,0.83,0,0,0-.12.36,9.6,9.6,0,0,0,0,2.55,2.52,2.52,0,0,0,.24.59,0.14,0.14,0,0,0,.11.05,0.11,0.11,0,0,0,.07-0.08A3,3,0,0,0,18,21.09a2.32,2.32,0,0,1,0-1.25c0.11-.55.37-1,0.51-1.58A0.23,0.23,0,0,0,18.49,18.16Zm2.29,6.69h0l0.63,0a0.74,0.74,0,0,0,.25,0,0.3,0.3,0,0,0,.25-0.25,0.76,0.76,0,0,0,0-.24,0.27,0.27,0,0,0-.32-0.13l-0.24.09a3.12,3.12,0,0,1-1.33.32,0.24,0.24,0,0,0-.09.09,0.27,0.27,0,0,0,.1.08Zm-4.19-7.5,1.34-.92A0.27,0.27,0,0,0,18,16a0.25,0.25,0,0,0-.33,0A3.29,3.29,0,0,0,16.59,17.35Zm-5.93,9.23a4.87,4.87,0,0,0-.36-1.27,0.14,0.14,0,0,0-.12,0,0.13,0.13,0,0,0-.09.06,2.06,2.06,0,0,0,.24,1.29,0.19,0.19,0,0,0,.1.06,0.16,0.16,0,0,0,.11,0A0.55,0.55,0,0,0,10.66,26.58Zm3.51-8.65a1.39,1.39,0,0,0,0-.86,0.6,0.6,0,0,0-.11-0.22,0.14,0.14,0,0,0-.21,0,0.5,0.5,0,0,0-.17.55A0.92,0.92,0,0,0,14.17,17.93Zm5.73-1-0.24-.06a0.11,0.11,0,0,0-.09.05,0.31,0.31,0,0,0,0,.21,1.19,1.19,0,0,0,1,.32,0.15,0.15,0,0,0,.1-0.08,0.12,0.12,0,0,0,0-.1A1.41,1.41,0,0,0,19.9,16.89Zm-2.74,5.61c0-.14-0.1-0.34-0.17-0.52a0.32,0.32,0,0,0-.21,0,0.15,0.15,0,0,0-.08.09,0.87,0.87,0,0,0,0,.73,0.42,0.42,0,0,0,.19.14,0.13,0.13,0,0,0,.19-0.1A2.57,2.57,0,0,0,17.16,22.49Zm3.42,4a1.82,1.82,0,0,0,.36-0.07A0.23,0.23,0,0,0,21,26a0.55,0.55,0,0,0-.83.15,0.12,0.12,0,0,0,.07.2ZM9.86,20.94a1.18,1.18,0,0,0-.28-0.16,0.45,0.45,0,0,0-.21.07,0.53,0.53,0,0,0,.1.18,0.32,0.32,0,0,0,.21.07A0.54,0.54,0,0,0,9.86,20.94Zm9,4.9a0.18,0.18,0,0,0-.09,0,0.11,0.11,0,0,0,.08.17A0.27,0.27,0,0,0,19,26Zm0.39-8.36a1.62,1.62,0,0,0-.19-0.12,0.17,0.17,0,0,0-.08.09,0.12,0.12,0,0,0,.12.17A0.12,0.12,0,0,0,19.26,17.48Zm-6.85.05a0.14,0.14,0,0,0,.19.1,0.14,0.14,0,0,0,.08-0.09c0-.1,0-0.18-0.11-0.16A0.45,0.45,0,0,0,12.41,17.53ZM25,23.23a0.19,0.19,0,0,0-.06.08c0,0.12.06,0.13,0.1,0A0.19,0.19,0,0,0,25,23.23Zm0.52,0.14c0-.11,0-0.14-0.1-0.07a0.21,0.21,0,0,0,0,.1ZM25,20.93a0.14,0.14,0,0,0-.07,0,0.13,0.13,0,0,0,0,.1c0,0.09.09,0.08,0.12,0A0.23,0.23,0,0,0,25,20.93Zm-1.21,3.78v0.07l0.1,0Z"/><path d="M22.48,20.74a1,1,0,0,1-.37,1,1.83,1.83,0,0,1-1.26.53c-0.21,0-.43,0-0.64,0a1.55,1.55,0,0,1-.37-0.08,0.93,0.93,0,0,1-.7-1.07,1,1,0,0,1,.56-0.93c0,0.33,0,.66,0,1a0.28,0.28,0,0,0,.15.13,0.12,0.12,0,0,0,.1,0,2.88,2.88,0,0,0,.2-0.58c0.05-.34-0.23-0.38-0.47-0.45a2.42,2.42,0,0,1,.16-0.47,0.48,0.48,0,0,1,.29-0.22A4.94,4.94,0,0,1,21,19.51a1,1,0,0,1,.78.36,0.88,0.88,0,0,0,.48.39l0,0a0.7,0.7,0,0,0,.29.57ZM21,21.5a0.57,0.57,0,0,0,.54-0.23,0.28,0.28,0,0,0,0-.34,0.25,0.25,0,0,0-.33-0.08,3.33,3.33,0,0,0-.31.38A0.18,0.18,0,0,0,21,21.5Z"/><path d="M22.25,20.26a4.52,4.52,0,0,1,0-.51,0.27,0.27,0,0,1,.14-0.19,0.25,0.25,0,0,1,.23.05,7.39,7.39,0,0,1,.8,1.43,0.36,0.36,0,0,1-.21.41,0.3,0.3,0,0,1-.34-0.09l-0.4-.63,0,0a0.72,0.72,0,0,0-.29-0.57Z"/></svg>