<svg xmlns="http://www.w3.org/2000/svg" viewBox="0 0 1980.6 560"><defs><style>.a{fill:#064357;}.b{fill:#199ec0;}</style></defs><title>Connext</title><path class="a" d="M318,385.42L345.29,416c-1.91,1.75-3.67,3.42-5.49,5a226.2,226.2,0,0,1-49.86,33.47C260.78,468.82,230,476.58,197.4,476c-41.6-.78-79.77-12.58-114-36.44a195.64,195.64,0,0,1-74-220.85,187.4,187.4,0,0,1,33.51-60.82C70.27,124.64,105,102.79,146.36,91.33a208.19,208.19,0,0,1,51-7.28c36-.83,69.83,7.51,101.66,24.11a204.11,204.11,0,0,1,44.73,31.58,11.59,11.59,0,0,0,1,.73l-26.77,34.06c-2.23-2.08-4.37-4.12-6.56-6.11-23.11-21-50-34.56-80.67-40.13-36.11-6.55-70.7-1.16-103.24,15.75-30.07,15.62-52.79,38.74-67.71,69.26A146.06,146.06,0,0,0,45,274.89c-0.8,35.53,9.57,67.5,31.21,95.61,21,27.24,48.29,45.46,81.28,55.09a158.25,158.25,0,0,0,67,5,166.4,166.4,0,0,0,73.84-29.28c6.33-4.47,12.13-9.69,18.18-14.57Z"/><path class="a" d="M1578.69,344.38H1340.11c0.59,3.35,1,6.51,1.71,9.62,3.39,15.67,9.34,30.25,19,43.13,15.34,20.48,35.81,33.12,60.78,38,29.79,5.79,58.47,1.93,85.6-12a108.57,108.57,0,0,0,27.38-20.21c0.54-.55,1.09-1.09,1.65-1.62a2.59,2.59,0,0,1,.58-0.26l23.84,25.52c-3.79,3.79-7.27,7.61-11.1,11-20.68,18.41-44.91,29.59-72,34.65-26.07,4.87-52.1,4.69-77.8-2.32-36.1-9.85-64-30.61-82.78-63.24-10.78-18.76-16.61-39.1-18.73-60.56-2.14-21.74-.82-43.23,5.14-64.29,10.2-36,30.82-64.12,63.52-82.88,20.18-11.58,42.08-17.34,65.22-18.62,17.86-1,35.53.13,52.91,4.66q54.53,14.24,78.3,65.33c8.81,18.9,13.37,39,14.81,59.66,0.76,11,.52,22,0.73,33A12,12,0,0,1,1578.69,344.38Zm-39-35.71a4.45,4.45,0,0,0,.14-0.76c0-.77,0-1.54-0.07-2.31a110.49,110.49,0,0,0-7.27-32.27c-9.83-24.28-27.07-40.93-51.71-49.69-20.28-7.21-41.1-8.15-62.14-3.95-18.78,3.75-35.25,12.13-48.91,25.66-14.94,14.8-23.69,32.91-27.87,53.35-0.67,3.26-1.12,6.57-1.68,10h199.53Z"/><path class="a" d="M637.91,327.46c0.1,25.13-4.66,49.24-16.11,71.74-15,29.53-38,50.74-68.39,63.83a156.39,156.39,0,0,1-55.75,12.24c-21.89.92-43.28-1.78-64-9.3-24.59-8.94-45.26-23.37-61.44-44-14.66-18.71-23.65-39.94-27.9-63.25A172.54,172.54,0,0,1,344,298c5.37-31.26,18.88-58.33,42.25-80.08,16.69-15.54,36.29-25.91,58.21-32A168.42,168.42,0,0,1,494.66,180c30.81,0.89,59.46,8.88,84.94,26.73a131.35,131.35,0,0,1,41,46.51c11.08,20.79,16.43,43.1,17.32,66.55C638,322.38,637.91,324.92,637.91,327.46Zm-146.08,109c2.3-.16,6.76-0.41,11.21-0.78,2.07-.17,4.13-0.49,6.17-0.86,37-6.74,63.29-27.22,77.22-62.26,10.75-27,11.13-54.83,2.51-82.55-7.53-24.21-22.15-43.21-44.11-56.17-17.53-10.35-36.66-14.62-56.95-14.3a107.91,107.91,0,0,0-42.59,8.94c-25.92,11.5-43.57,30.84-53.21,57.35-8.77,24.12-9.43,48.81-3.22,73.59,5.9,23.54,18.28,43,38,57.45C445.57,430.55,466.76,436.32,491.83,436.5Z"/><path class="a" d="M1268.77,473.65h-43.47c0-.9,0-1.8,0-2.69q0-83.49,0-167c0-14.1-2.39-27.73-8.54-40.5a66.67,66.67,0,0,0-34.36-33c-15.14-6.62-31.09-8.42-47.43-7.3-17.32,1.19-33.6,5.83-48.17,15.52-18.58,12.35-30.33,29.76-37,50.82a123.83,123.83,0,0,0-5.5,38c0.17,47.72.07,95.44,0.07,143.16v2.93h-43.22V181.28h43.11v63.2l0.34,0.09c1.67-3.06,3.28-6.15,5-9.17,15.27-26.56,38.12-43.15,67.56-50.82a156.27,156.27,0,0,1,65.25-3.16c21.56,3.53,40.79,12.07,56.35,27.76,13.57,13.69,21.73,30.38,26.13,49a147.89,147.89,0,0,1,3.83,34.1q0,89.51,0,179v2.35Z"/><path class="a" d="M943.09,473.67H899.78v-2.91q0-83.15,0-166.31c0-14.63-2.43-28.84-9.13-42-9.73-19.14-25.47-30.88-46-36.18a108.13,108.13,0,0,0-62.57,2.31c-22.87,7.69-39.75,22.54-50.87,44-7.15,13.78-10.79,28.55-12.3,43.91-0.08.76,0,1.54,0,2.31q0,75.87,0,151.73v3.13H675.7V181.25h43.05v62.87l0.47,0.18c1.19-2.23,2.35-4.46,3.56-6.68,12-21.95,29.38-37.85,52.46-47.53a139.61,139.61,0,0,1,40.64-9.79,152.31,152.31,0,0,1,43.24,1.53c22.9,4.3,42.86,14.08,58.3,32,10.71,12.4,17.48,26.83,21.44,42.65a147.06,147.06,0,0,1,4.23,35.89q0,89.17,0,178.33C943.09,471.58,943.09,472.5,943.09,473.67Z"/><path class="b" d="M1691.81,292c7.92-11.16,15.62-22,23.33-32.87l41.22-58c4.41-6.21,8.78-12.46,13.25-18.63a3.48,3.48,0,0,1,2.35-1.38c15-.08,30.07-0.05,45.1,0a8.46,8.46,0,0,1,1.09.2c-0.51.86-.9,1.63-1.38,2.34q-18.49,26.94-37,53.86-17.67,25.68-35.36,51.35-11.13,16.16-22.3,32.3c-1,1.42-1.2,2.35-.07,4q27.11,38.67,54.05,77.46,24,34.38,48,68.75c0.43,0.62.82,1.28,1.38,2.16a16.86,16.86,0,0,1-1.87.23c-15.57,0-31.15,0-46.72,0a3.2,3.2,0,0,1-3-1.63q-29-41.7-58.14-83.33-11.1-15.91-22.16-31.84c-0.52-.75-1.1-1.47-1.81-2.4-3.48,4.8-6.86,9.45-10.22,14.11l-33.75,46.84q-19.24,26.7-38.45,53.41c-3.41,4.76-3.34,4.82-9.22,4.82h-43.34l106.62-150.5-99.28-142c1.08-.07,1.8-0.15,2.52-0.15,15.11,0,30.22,0,45.33,0a3.8,3.8,0,0,1,3.54,1.9q20.21,29,40.52,57.9,15.23,21.76,30.44,43.54Z"/><path class="a" d="M1968.82,418.74c4,11.39,7.91,22.53,11.73,33.71a2.39,2.39,0,0,1-.77,2.11c-16.29,10.82-33.94,18.12-53.47,20.6-14.45,1.84-28.6.76-42.23-4.48-20.28-7.8-32.55-23-38.92-43.34a107.9,107.9,0,0,1-4.65-32.32q-0.05-139.35,0-278.7v-2.8h42.74v76.8h92.65v35.29h-92.62v2.73q0,78.29,0,156.58c0,9.71.83,19.35,4.62,28.51,5.28,12.78,15.21,18.82,28.53,20,16,1.43,30.72-3.05,44.72-10.41C1963.67,421.7,1966.11,420.26,1968.82,418.74Z"/></svg>