<svg xmlns="http://www.w3.org/2000/svg" viewBox="0 0 1921.94 560"><defs><style>.a,.b,.d{fill:none;stroke:#000;stroke-miterlimit:22.93;}.a,.d{stroke-width:14.17px;}.b{stroke-width:8.5px;}.c,.d{fill-rule:evenodd;}</style></defs><title>Horizon</title><path class="a" d="M18.83,190.11c64.45-134.67,367.26-195.58,478-130m-462-18.48,53.1,78.59L9.23,426.67,74,532.3"/><polyline class="b" points="95.26 51.02 127.05 94.89 104.58 191.95"/><path class="c" d="M218.68,150.68a68.42,68.42,0,0,0-57,30.67,39.41,39.41,0,0,1,0,75.46A68.38,68.38,0,1,0,218.68,150.68Z"/><path class="d" d="M340.28,202.86c4.94-57.89,25.24-72.91,65.08-63.32M287.13,135.9c30.47,4.48,76.2,50.44,40.49,131.52"/><path class="d" d="M424.91,145.57q63,18.74,23.85,132.88"/><polyline class="d" points="104.3 369.6 212.81 369.6 102.93 479.48 212.81 479.48"/><path class="d" d="M283.91,488a61.73,61.73,0,1,0-61.73-61.73A61.85,61.85,0,0,0,283.91,488Z"/><path class="d" d="M364.43,482C377.55,304.94,483,343.7,484.54,482"/><path d="M612.5,129.94V262.63H778.69V129.94h21.44V431.06H778.69V280.5H612.5V431.06H591.05V129.94H612.5Z"/><path d="M1055.68,321.6c0,80-55,114.37-102.75,114.37-55.4,0-98.29-43.34-98.29-110.35,0-73.27,48.25-113.92,101.41-113.92C1015.47,211.7,1055.68,256.37,1055.68,321.6Zm-179.6,2.68c0,53.61,34.4,93.82,78.18,93.82,44.68,0,80-40.21,80-95.16,0-39.31-21.89-93.37-78.63-93.37C900.65,229.57,876.08,278.26,876.08,324.28Z"/><path d="M1109.74,280.95c0-21.44-.45-43.34-1.79-64.33h19.66l0.89,43.34h1.34c9.38-26.81,31.72-48.25,60.76-48.25a55,55,0,0,1,8.94.89v20.55c-3.13-.89-6.25-0.89-10.28-0.89-29.49,0-50.48,25.47-56.29,59.87a100.62,100.62,0,0,0-1.79,20.55V431.06h-21.44V280.95Z"/><path d="M1272.8,155.41c0,9.83-6.7,18.32-17.87,18.32-9.83,0-16.53-8.49-16.53-18.32s7.59-18.76,17.42-18.76S1272.8,145.13,1272.8,155.41Zm-27.7,275.65V216.61h21.44V431.06H1245.1Z"/><path d="M1309.44,418.1l115.71-152.34c8-10.28,16.08-20.1,24.57-30.83V234h-130.9V216.61h156.81l-0.45,14.3L1359.47,383.25c-7.59,9.83-14.74,19.66-22.78,29.49v0.89h139.39v17.42H1309.44v-13Z"/><path d="M1698.12,321.6c0,80-55,114.37-102.75,114.37-55.4,0-98.29-43.34-98.29-110.35,0-73.27,48.25-113.92,101.41-113.92C1657.91,211.7,1698.12,256.37,1698.12,321.6Zm-179.6,2.68c0,53.61,34.4,93.82,78.18,93.82,44.68,0,80-40.21,80-95.16,0-39.31-21.89-93.37-78.63-93.37C1543.09,229.57,1518.52,278.26,1518.52,324.28Z"/><path d="M1752.62,268c0-19.66-.45-34.4-1.79-51.38h20.1l1.34,38.87h0.89c11.62-24.13,38.87-43.78,73.72-43.78,20.55,0,75.06,10.28,75.06,90.69V431.06H1900.5V304.18c0-38.87-15.19-74.16-59.42-74.16-29.93,0-55.85,21.44-64.33,49.14a83,83,0,0,0-2.68,19.21V431.06h-21.44V268Z"/></svg>