<svg xmlns="http://www.w3.org/2000/svg" viewBox="0 0 1348.89 560"><defs><style>.a{fill:#2196f3;}</style></defs><title>iRentals</title><path class="a" d="M273.57,136.56a12.67,12.67,0,0,0-.27,1.59c-0.05.92,0,1.85,0,2.78q0,56,0,112.08c0,1,0,2-.1,3a1.21,1.21,0,0,1-1.13,1.17,10.64,10.64,0,0,1-1.26.1c-0.93,0-1.86,0-2.78,0H112.14c-1,0-2,0-3,.06-1.23.09-1.57,0.48-1.68,1.77,0,0.42,0,.84,0,1.26,0,0.84,0,1.69,0,2.53q0,132.2,0,264.4c0,1.1,0,2.19-.08,3.29a1.23,1.23,0,0,1-1.28,1.29,19.54,19.54,0,0,1-2,.08H3.31C0,532,0,532,0,528.81c0-.59,0-1.18,0-1.77Q0,280,0,32.91c0-1.18,0-2.36.07-3.54a1.22,1.22,0,0,1,1.28-1.29A10.82,10.82,0,0,1,2.61,28H5.14q208.74,0,417.47,0a85.32,85.32,0,0,1,32.06,6.33A82.48,82.48,0,0,1,477.8,48.2a77.18,77.18,0,0,1,16.87,20,68.18,68.18,0,0,1,8.11,21.69,65.51,65.51,0,0,1,1.29,12.3c0,10,0,20.07,0,30.11,0,3.51,0,3.51-3.52,3.53H279.14c-1,0-2,0-3,0A3.8,3.8,0,0,0,273.57,136.56Z"/><path class="a" d="M504.05,407.23q0,60.09,0,120.17c0,1,0,2,0,3s-0.42,1.45-1.6,1.52c-0.92.06-1.85,0-2.78,0H259c-1.09,0-2.19,0-3.28-.1a1.16,1.16,0,0,1-1.14-1.15c-0.06-.67-0.09-1.34-0.1-2a210.27,210.27,0,0,1,1.46-25q1.32-11.83,3.74-23.46c1.5-7.27,3.38-14.45,5.56-21.54A250.19,250.19,0,0,1,370.15,321.28,250.32,250.32,0,0,1,412,299.91a244.86,244.86,0,0,1,43.13-12.7A199.49,199.49,0,0,1,476.87,284c4.36-.37,8.74-0.62,13.1-1.07a103.81,103.81,0,0,1,11.37-.37c2.53,0,2.67.19,2.71,2.77,0,0.84,0,1.69,0,2.53Q504.05,347.52,504.05,407.23Z"/><path class="a" d="M654,298.41a11.31,11.31,0,0,1-1.46.25,86.58,86.58,0,0,1-15.63-1,23.69,23.69,0,0,1-2.7-.65,4.2,4.2,0,0,1-2.9-2.61,14.47,14.47,0,0,1-.91-2.89c-0.34-2.08-.59-4.17-0.77-6.27-0.65-7.57-.38-15.17-0.38-22.75q0-43.39,0-86.78a81.76,81.76,0,0,1,.89-13.1,26.62,26.62,0,0,1,.87-3.42,4.9,4.9,0,0,1,3.71-3.45,11.91,11.91,0,0,1,1.48-.34,65.64,65.64,0,0,1,7.78-.9c15-.09,30-0.24,45,0a76,76,0,0,1,24.78,4.55,48.13,48.13,0,0,1,11.83,6.21,35.35,35.35,0,0,1,13.75,20.89,52.1,52.1,0,0,1,1.48,15.56A58.26,58.26,0,0,1,739,214,35.09,35.09,0,0,1,719,237.46a57.24,57.24,0,0,1-16,4.59,84.89,84.89,0,0,1-13.1,1,7.2,7.2,0,0,0-1.24.17,0.6,0.6,0,0,0-.18.2c-0.08.79,0.6,1.13,1.05,1.57,2.74,2.63,5.51,5.21,8.26,7.83q8.42,8,16.81,16.09,10.61,10.13,21.25,20.23c2.5,2.38,5,4.74,7.53,7.13a4,4,0,0,1,1.52,1.87,1,1,0,0,1-1.14.49c-6.07,0-12.14.2-18.2-.32-1.59-.14-3.21-0.07-4.8-0.19-1.85-.15-3.7-0.33-5.52-0.63a12.12,12.12,0,0,1-4.92-1.91,63.65,63.65,0,0,1-5.89-4.36,99.44,99.44,0,0,1-9.36-9.59c-4.37-5-8.82-10-13.22-15s-8.57-9.75-12.86-14.62c-3.23-3.67-6.45-7.35-9.72-11a12.12,12.12,0,0,1-3.11-6.51,11.41,11.41,0,0,1,.64-5.47,6.18,6.18,0,0,1,4.71-4.17,22.9,22.9,0,0,1,4.76-.55c6.41-.06,12.82,0,19.23,0a130.23,130.23,0,0,0,15.66-.62c2.5-.3,5-0.77,7.47-1.28a6.26,6.26,0,0,0,5-4.82,46,46,0,0,0,1.31-6.17,81.87,81.87,0,0,0,.61-14.13,25.17,25.17,0,0,0-1.25-6.69,19.46,19.46,0,0,0-8.68-10.8,29.67,29.67,0,0,0-8.87-3.6,60.5,60.5,0,0,0-13.54-1.54h-25c-0.84,0-1.69,0-2.53.08a1.22,1.22,0,0,0-1.26,1.31c-0.08,1-.08,2-0.08,3q0,57.43,0,114.87c0,0.93,0,1.86,0,2.78A12.84,12.84,0,0,1,654,298.41Z"/><path class="a" d="M238.11,531.82c-0.52.05-1.18,0.17-1.85,0.17q-6.45,0-12.9,0a12.23,12.23,0,0,1-1.51-.09,1.18,1.18,0,0,1-1.1-1.18c-0.05-.67-0.09-1.35-0.08-2,0-4.64.12-9.26,0.37-13.9,0.28-5.22.73-10.42,1.23-15.62q0.61-6.42,1.65-12.79c1.28-7.91,2.82-15.77,4.74-23.55a280.21,280.21,0,0,1,35.11-82.51,280.29,280.29,0,0,1,47.69-57.13,276.07,276.07,0,0,1,38-29.36,281.18,281.18,0,0,1,35.48-19.4,275.12,275.12,0,0,1,73.19-21.91c6.17-.94,12.37-1.6,18.57-2.3,2.59-.29,5.21-0.45,7.82-0.55,5.39-.21,10.78-0.36,16.17-0.51a16.57,16.57,0,0,1,2.27.11,1.1,1.1,0,0,1,1,1,10.22,10.22,0,0,1,.11,1.51q0,6.45,0,12.9a10.7,10.7,0,0,1-.1,1.51,1.09,1.09,0,0,1-1,1,18.24,18.24,0,0,1-2,.11c-2.45,0-4.9-.05-7.34.06q-6.44.31-12.87,0.82c-4,.32-8.06.68-12.08,1.15-7.29.84-14.51,2.12-21.7,3.62q-12.39,2.58-24.46,6.4a252.19,252.19,0,0,0-27.67,10.46c-3.77,1.69-7.49,3.5-11.19,5.33a258.54,258.54,0,0,0-48.11,31.14,252.56,252.56,0,0,0-23.8,21.92A269.62,269.62,0,0,0,285.5,380.3a265.6,265.6,0,0,0-23.05,40.37,249.74,249.74,0,0,0-10.3,26.11,235.53,235.53,0,0,0-7.81,29q-1.77,9.06-3.22,18.17c-0.57,3.58-.85,7.2-1.21,10.8a231.36,231.36,0,0,0-1.12,24.49A3,3,0,0,1,238.11,531.82Z"/><path class="a" d="M1162.47,226c0.69-4.85-1.29-12.5-5.61-16.28a22.26,22.26,0,0,0-7.67-4.29,43.08,43.08,0,0,0-8.89-1.87,89.72,89.72,0,0,0-10.6-.53c-9,0-18,0-27.07,0a40.12,40.12,0,0,1-7.52-.89,5.08,5.08,0,0,1-4.32-4.35c-0.07-.33-0.14-0.66-0.19-1a75.83,75.83,0,0,1-.85-11.08,5.55,5.55,0,0,1,0-.76,1.21,1.21,0,0,1,1.12-1.17,15,15,0,0,1,1.76-.1c14.76,0,29.52,0,44.27.1a76,76,0,0,1,22.41,3.53,39.45,39.45,0,0,1,14.37,7.74,31.81,31.81,0,0,1,8,10.65,49.56,49.56,0,0,1,4.07,14.56,116.65,116.65,0,0,1,1,15.13q0,29.6,0,59.2c0,0.93,0,1.86-.09,2.78a1.21,1.21,0,0,1-1.32,1.25c-0.92.07-1.85,0.07-2.78,0.05a51.38,51.38,0,0,1-9-1,4.85,4.85,0,0,1-4.13-4.19,37.08,37.08,0,0,1-.8-7.28,11.58,11.58,0,0,0-.31-3.68,3.07,3.07,0,0,0-.87.51c-4.24,5.67-10.08,9.11-16.45,11.79a65.23,65.23,0,0,1-17.6,4.44,91.37,91.37,0,0,1-15.66.35,53.91,53.91,0,0,1-19.36-4.52,36.84,36.84,0,0,1-10.85-7.31,27.93,27.93,0,0,1-7.72-13.14,40.29,40.29,0,0,1,1.22-24.38c2.81-7.71,8.09-13.32,15.15-17.33a48.84,48.84,0,0,1,17.23-5.58,100.61,100.61,0,0,1,15.12-1c10.29,0,20.58,0,30.87,0A7,7,0,0,0,1162.47,226ZM1132.6,281v0c2.61,0,5.23.11,7.84,0a70.58,70.58,0,0,0,12.29-1.46,27.93,27.93,0,0,0,3.85-1.21,5.66,5.66,0,0,0,3.32-3.29,24.86,24.86,0,0,0,1.09-3.36,71.28,71.28,0,0,0,1.61-15.82c0-1.18.1-2.36,0.14-3.54,0.06-1.43.17-2.86,0.16-4.29,0-2.18-.26-2.37-2.55-2.43-0.67,0-1.35,0-2,0q-13.41,0-26.82,0a152.72,152.72,0,0,0-17.43.6,45.86,45.86,0,0,0-5.7,1.08,4.35,4.35,0,0,0-3.17,3,25.64,25.64,0,0,0-.93,3.15,51.28,51.28,0,0,0-.91,10.06,29.24,29.24,0,0,0,.49,5,12,12,0,0,0,3.41,6.37,17.72,17.72,0,0,0,6.84,4.19,33.85,33.85,0,0,0,10.39,2C1127.2,281,1129.9,281,1132.6,281Z"/><path class="a" d="M812.84,250.55H779.45a25.18,25.18,0,0,0-2.52.12,1,1,0,0,0-1,1,12.39,12.39,0,0,0,0,2.27,28,28,0,0,0,5.4,14.5A25.83,25.83,0,0,0,793,277a37.46,37.46,0,0,0,12.36,2.38c4.47,0.13,8.94.07,13.41,0.08,5.31,0,10.63,0,15.94,0a69.38,69.38,0,0,1,9.58.58,23.55,23.55,0,0,1,3.92.94,3.63,3.63,0,0,1,2.52,2.63,24.91,24.91,0,0,1,.88,3.94q0.44,4.27.61,8.57c0.09,2.38-.22,2.64-2.54,2.69-1.1,0-2.19,0-3.29,0-13.49,0-27,0-40.48,0a70.45,70.45,0,0,1-17.78-2.16,48.81,48.81,0,0,1-17-7.61,42.92,42.92,0,0,1-14.21-17.77A66.72,66.72,0,0,1,752,252a110.55,110.55,0,0,1-.38-18.44,65.7,65.7,0,0,1,5.92-25.2,42.44,42.44,0,0,1,19-19.94,61.25,61.25,0,0,1,21.5-6.21,101.31,101.31,0,0,1,15.41-.46,53.59,53.59,0,0,1,23.6,5.88,42.5,42.5,0,0,1,20.41,23.21,54,54,0,0,1,3.34,17.56,67.66,67.66,0,0,1-.52,12.87,28.91,28.91,0,0,1-1.16,4.64,4.63,4.63,0,0,1-3.44,3.06,42.54,42.54,0,0,1-7.74,1.14C835.53,251,823,250.3,812.84,250.55Zm-7.06-19.23h26.55c0.76,0,1.52,0,2.27-.06a1.32,1.32,0,0,0,1.41-1.45,7.92,7.92,0,0,0,0-1,40.42,40.42,0,0,0-2-12.42,21.58,21.58,0,0,0-12.94-13.68,30.86,30.86,0,0,0-10.84-2.22,151.22,151.22,0,0,0-19.44.57,40.33,40.33,0,0,0-7.92,1.59,7,7,0,0,0-4.86,5,45.75,45.75,0,0,0-1.12,4.92A95.53,95.53,0,0,0,775.83,228c0,3.34,0,3.35,3.4,3.35h26.55Z"/><path class="a" d="M899.54,198.05a13.49,13.49,0,0,0,1-1.16c3.48-5.25,8.37-8.68,14.12-11a55.13,55.13,0,0,1,11.2-3.05,93.39,93.39,0,0,1,22.44-.91,46.56,46.56,0,0,1,18.95,5,30.39,30.39,0,0,1,14.34,15.41,57.86,57.86,0,0,1,3.73,13.11,114.73,114.73,0,0,1,1.58,19.38q0,30,0,59.95c0,0.93,0,1.85-.09,2.78a1.18,1.18,0,0,1-1.14,1.14,6.57,6.57,0,0,1-.75.07,78.87,78.87,0,0,1-14.86-1c-4.27-.74-5.37-1.83-6.21-6.14a51.75,51.75,0,0,1-.74-6c-0.13-1.68-.09-3.37-0.09-5.06,0-14.84.09-29.68,0-44.52-0.05-5.55-.17-11.13-1.43-16.59A40.81,40.81,0,0,0,960,214a16.84,16.84,0,0,0-9.32-9.48,28.34,28.34,0,0,0-9.51-2.46,88.17,88.17,0,0,0-10.1-.4c-5.13.18-10.29,0.24-15.34,1.34a40.5,40.5,0,0,0-4.38,1.2A5.68,5.68,0,0,0,907.5,208c-0.59,1.93-1.06,3.9-1.48,5.87a25.35,25.35,0,0,0-.48,3.76c-0.23,3.87-.56,7.74-0.57,11.61-0.05,21.67,0,43.34,0,65,0,0.93,0,1.86,0,2.78-0.08,1.18-.4,1.49-1.52,1.61l-0.51,0a78,78,0,0,1-14.36-.9c-0.25,0-.5-0.1-0.75-0.13-3.51-.42-5.41-2.44-5.93-5.88-0.2-1.33-.52-2.66-0.61-4-0.22-3.36-.47-6.73-0.48-10.1q-0.05-44.9,0-89.8c0-.59,0-1.18,0-1.77,0-2.6.19-2.76,2.69-2.79,1.26,0,2.53,0,3.79.06,1.93,0.13,3.87.28,5.79,0.55,4,0.57,5,1.6,5.67,5.58,0.35,2.24.43,4.53,0.65,6.79C899.34,196.78,899.43,197.24,899.54,198.05Z"/><path class="a" d="M1250.38,298.31a16.53,16.53,0,0,1-.21-2,67.57,67.57,0,0,1,.88-10.57,17.71,17.71,0,0,1,.65-2.44,3.53,3.53,0,0,1,2.42-2.39,18.75,18.75,0,0,1,3.43-.83c2.76-.28,5.54-0.55,8.32-0.58,9.45-.07,18.89,0,28.34,0,4.3,0,8.6,0,12.9-.08,3.2-.08,6.4-0.26,9.59-0.53,3.66-.31,4.62-1.26,5.37-4.87a32.71,32.71,0,0,0,.35-8.82,8.33,8.33,0,0,0-2.32-5,18.65,18.65,0,0,0-5.17-4,48.34,48.34,0,0,0-11.16-4c-11-2.86-22.05-5.66-33.05-8.59A32.57,32.57,0,0,1,1254,233.12a22.83,22.83,0,0,1-5.34-12.64,36.08,36.08,0,0,1,1.11-14,27,27,0,0,1,11.9-15.5,42.36,42.36,0,0,1,12.08-5.09,80.78,80.78,0,0,1,21-2.67h42a17.24,17.24,0,0,1,2.27.14,1.13,1.13,0,0,1,1,1,9,9,0,0,1,.1,1.26,56.48,56.48,0,0,1-.62,10.09c-0.67,4.11-1.65,5.06-5.75,5.88a47,47,0,0,1-9.07.57c-9.11,0-18.22,0-27.33,0-5.23,0-10.45.24-15.67,0.43-1.43.05-2.85,0.3-4.27,0.47a3.78,3.78,0,0,0-3.36,2.69,31.1,31.1,0,0,0-1.21,5.15,41.87,41.87,0,0,0-.25,5,7.38,7.38,0,0,0,2.06,5.29,15,15,0,0,0,3.83,2.87,38.23,38.23,0,0,0,9.67,3.67c5.65,1.38,11.32,2.7,17,4.13,5.23,1.32,10.45,2.72,15.65,4.15a42.49,42.49,0,0,1,11.18,4.64,30.23,30.23,0,0,1,11.18,11.1,24,24,0,0,1,3.1,10.84,38.39,38.39,0,0,1-.39,8.82,26.22,26.22,0,0,1-6.48,12.68,39.35,39.35,0,0,1-14.47,9.95,65.8,65.8,0,0,1-15.63,4.07,73.08,73.08,0,0,1-10.59.65q-22.39,0-44.79,0A6.61,6.61,0,0,1,1250.38,298.31Z"/><path class="a" d="M1014.63,203.71a4.87,4.87,0,0,0-3.07-.61c-3,0-6.07,0-9.11,0-0.91,0-1.83-.08-2.53-0.11a2.29,2.29,0,0,1-.72-2.07q0.16-4.42.32-8.84c0-.42,0-0.84,0-1.26,0.1-1.62.37-1.92,1.93-2,2.1-.16,4.21-0.24,6.3-0.43,1.25-.11,2.5-0.34,3.74-0.57A3,3,0,0,0,1014,185a52.4,52.4,0,0,0,.63-6.28c0.1-7,.07-14,0.09-21,0-.84,0-1.69.09-2.52A1.16,1.16,0,0,1,1016,154c0.59-.06,1.18-0.08,1.77-0.08q9.11,0,18.21,0c2.84,0,2.94.11,2.94,3,0,7.5,0,15,0,22.51,0,0.76,0,1.52.07,2.27a1.25,1.25,0,0,0,1.29,1.29,24.64,24.64,0,0,0,2.52.09h23.53a21.5,21.5,0,0,1,2.52.14,1.16,1.16,0,0,1,1,1,4,4,0,0,1,.1.75,51.44,51.44,0,0,1-.7,11.34c-0.79,3.87-1.86,4.93-5.81,5.57a46.15,46.15,0,0,1-5.52.57c-5.22.21-10.44,0.57-15.67,0.41a8.79,8.79,0,0,0-1.26,0,1.34,1.34,0,0,0-1.43,1.44c-0.06.67-.06,1.35-0.06,2q0,29.72,0,59.45a19.81,19.81,0,0,0,.8,6,9.35,9.35,0,0,0,9.1,7.08c2.94,0.16,5.89.23,8.83,0.46a52.94,52.94,0,0,1,5.5.78,4.68,4.68,0,0,1,4.15,4.15c0.33,2.16.76,4.32,0.92,6.5,0.17,2.35.12,4.72,0.1,7.08a1.4,1.4,0,0,1-1.49,1.65,9.6,9.6,0,0,1-1.26.07c-4.72,0-9.45.16-14.16,0a60.56,60.56,0,0,1-19.77-3.83,27.63,27.63,0,0,1-9-5.59,25.28,25.28,0,0,1-6.93-12.14,43.92,43.92,0,0,1-1.54-11.5q0-29.72,0-59.45C1014.76,206,1014.67,204.82,1014.63,203.71Z"/><path class="a" d="M1207,212.86q0-34.66,0-69.32c0-.93,0-1.86.05-2.78,0.08-1.09.46-1.42,1.6-1.56l0.25,0c3.71,0.1,7.42.13,11.12,0.33a52.65,52.65,0,0,1,5.25.77,5.15,5.15,0,0,1,4.57,4.42,41.71,41.71,0,0,1,.85,4.72c0.26,2.94.5,5.89,0.5,8.83q0,68.44,0,136.87c0,0.67,0,1.35,0,2a1.36,1.36,0,0,1-1.63,1.5c-2.61,0-5.23.06-7.84-.12s-5.19-.61-7.78-0.9c-3.42-.38-5.23-2.35-5.84-5.66a54.48,54.48,0,0,1-1-9.79q-0.06-17-.07-33.9Q1207,230.57,1207,212.86Z"/><path class="a" d="M1339.61,414.09a14.64,14.64,0,0,1-.21,5.08,61.38,61.38,0,0,1-6.81,19,102.46,102.46,0,0,1-15,20.56c-0.51.55-1,1.13-1.57,1.8a11.3,11.3,0,0,0,1.19,1.35,49.31,49.31,0,0,0,8.28,5.33,133.06,133.06,0,0,0,16.22,7.07c1.82,0.67,3.66,1.29,5.48,2,0.54,0.2,1.06.46,1.74,0.77a6.7,6.7,0,0,1-.64,1.37,9.37,9.37,0,0,1-5.11,3.07,19.52,19.52,0,0,1-10.49-.41,46.85,46.85,0,0,1-10-4.16,94,94,0,0,1-11.81-7.79c-0.8-.61-1.62-1.19-2.49-1.83a12.58,12.58,0,0,0-1.6.83,148.18,148.18,0,0,1-16.2,9.84c-3.11,1.69-6.26,3.31-9.39,5-0.52.27-1.06,0.53-1.59,0.79a10.35,10.35,0,0,1-11.22-1,26.77,26.77,0,0,1-3-2.68,5.43,5.43,0,0,1-.69-1.17c2.08-1.22,4.35-1.59,6.4-2.49s4.21-1.74,6.29-2.66,4.14-1.9,6.17-2.92,3.89-2,5.81-3.09,4-2.22,5.91-3.42,4-2.09,5.72-3.87c-0.48-.67-0.86-1.32-1.34-1.88a87.07,87.07,0,0,1-13.53-22.74c-1.62-3.79-2.88-7.74-4.3-11.62-0.12-.32-0.22-0.64-0.32-1a1.72,1.72,0,0,0-1.7-1.26c-0.76,0-1.52,0-2.27-.13a5.22,5.22,0,0,1-4.51-6.6,1.31,1.31,0,0,1,1.25-1.07c0.84-.06,1.68-0.09,2.53-0.09,8,0,16,0,24,0,1.07,0,2.21.24,3.29-.64a18.58,18.58,0,0,0,.18-1.88c0-4.47,0-8.94,0-13.41,0-.25,0-0.51,0-0.76-0.1-1.49-.38-1.79-1.79-1.88-0.76,0-1.52,0-2.28,0-6.58,0-13.16,0-19.73,0a8.07,8.07,0,0,1-6.23-2.84,6.77,6.77,0,0,1-1.77-4.37,1.5,1.5,0,0,1,1.61-1.8c0.75-.06,1.52-0.05,2.27-0.05h24.29c0.84,0,1.69,0,2.52-.12a1.06,1.06,0,0,0,1-1,21.44,21.44,0,0,0,.12-2.27q0-6.45,0-12.9c0-2.81.1-3.36,3.4-3a8,8,0,0,1,6,3.83,5,5,0,0,1,.62,2.92c0,3,0,6.07,0,9.11a19.35,19.35,0,0,0,.07,2,1.34,1.34,0,0,0,1.48,1.39c0.75,0.06,1.52.05,2.27,0.05,6.91,0,13.83,0,20.74,0a20.78,20.78,0,0,1,3.51.33,5.27,5.27,0,0,1,4.39,4,14.68,14.68,0,0,1,.45,3.23,1.17,1.17,0,0,1-1.21,1.34c-0.84.08-1.68,0.08-2.53,0.08h-25.55c-0.84,0-1.69,0-2.52.12a1.1,1.1,0,0,0-1,1,9.7,9.7,0,0,0-.12,1.51q0,6.7,0,13.41c0,0.25,0,.51,0,0.76,0.1,1.3.41,1.66,1.66,1.77,0.75,0.06,1.52,0,2.28,0h18.47C1337.58,414,1338.49,414,1339.61,414.09Zm-31.15,39.76a3.49,3.49,0,0,0,.82-0.27c0.51-.44,1-0.87,1.49-1.35a82.57,82.57,0,0,0,9-10.92,75.85,75.85,0,0,0,8.44-16.34,3.51,3.51,0,0,0,.44-2.44c-0.79-.68-1.75-0.46-2.65-0.46q-15.91,0-31.82,0a15.56,15.56,0,0,0-2,.11,1,1,0,0,0-.92,1.26,22.19,22.19,0,0,0,.67,2.43,75.84,75.84,0,0,0,14.67,26C1307.14,452.55,1307.81,453.18,1308.46,453.85Z"/><path class="a" d="M850,484.56a7.77,7.77,0,0,1-.33-1.35c-0.06-.84,0-1.69,0-2.53q0-20,0-40c0-.84,0-1.69-0.06-2.53a4.3,4.3,0,0,0-.43-1.06c-0.5.46-.89,0.76-1.2,1.12-2.33,2.67-4.74,5.27-6.94,8a8.21,8.21,0,0,1-7.72,3.33,25.59,25.59,0,0,1-6.64-1.48,6.52,6.52,0,0,1-1-.6,6.33,6.33,0,0,1,.75-1,125.65,125.65,0,0,0,20.37-23.08,131.37,131.37,0,0,0,11.39-20c2.12-4.68,4-9.47,5.92-14.24a10,10,0,0,0,1.07-3.82,3,3,0,0,0-2.45-.58c-3.79,0-7.59,0-11.38,0h-4.3c-4.56,0-7.39-3.54-7-8.06a1.33,1.33,0,0,1,1.4-1.46c0.67-.07,1.35-0.06,2-0.06q30,0,60,0a18.21,18.21,0,0,1,4,.43,5.72,5.72,0,0,1,2.43,1.25c2.25,2,2.77,4.65,2.7,7.52a6.68,6.68,0,0,1-3.17.39h-29.6l-2.28,0a1.85,1.85,0,0,0-1.88,1.4c-0.22.64-.45,1.27-0.66,1.91a135.67,135.67,0,0,1-7.93,19.14q-2.81,5.53-5.6,11.06c-0.29.58-.51,1.2-0.84,2a7.76,7.76,0,0,0,1.31.34c0.84,0,1.69,0,2.53,0q17.2,0,34.4,0a13.77,13.77,0,0,1,4.74.61,14.55,14.55,0,0,1,3,1.39A4.89,4.89,0,0,1,909,426.9c0,0.67,0,1.35,0,2q0,22.64,0,45.28a5.06,5.06,0,0,0,0,.51c0.33,3.31-1.24,5.68-3.8,7.49a34.92,34.92,0,0,1-3.72,2.14,5.25,5.25,0,0,1-1.29.29c-1-3,.22-6.15-0.78-8.91a4.24,4.24,0,0,0-2.61-.46H861.62c-2.1,0-2.65.08-2.8,2.49-0.27,4.46-4.86,7.19-8.21,7.06A2.18,2.18,0,0,1,850,484.56Zm49.05-18a3.48,3.48,0,0,0,.66-2.62c0-1.85,0-3.71,0-5.57q0-10.88,0-21.75a11.77,11.77,0,0,0-.55-4.24,4.94,4.94,0,0,0-4.72-3.56l-1.52,0H862.11c-3.19,0-3.22,0-3.22,3.27q0,14.17,0,28.33a16.24,16.24,0,0,0,.05,1.77c0.33,3,2,4.56,5,4.57q16.57,0,33.14,0C897.8,466.76,898.54,466.64,899.09,466.59Z"/><path class="a" d="M580,183.62a4.37,4.37,0,0,1,2.55-.43,80.86,80.86,0,0,1,12.87.63,32.91,32.91,0,0,1,3.46.72,4.4,4.4,0,0,1,3.18,3,21,21,0,0,1,1,3.91,65.76,65.76,0,0,1,.63,7.8q0.06,48.06,0,96.11c0,0.59,0,1.18,0,1.77a1.35,1.35,0,0,1-1.61,1.51c-2.27,0-4.56.11-6.83,0-2.85-.2-5.69-0.62-8.54-0.92-3.64-.39-5.54-2.53-6.07-6-0.18-1.17-.45-2.32-0.54-3.5-0.22-3-.5-6.05-0.51-9.08q-0.06-46,0-92.07C579.6,185.83,579.37,184.61,580,183.62Z"/><path class="a" d="M1035.06,412a3.69,3.69,0,0,0-2.51-.44q-4.55-.07-9.1-0.07a7.2,7.2,0,0,1-3.63-.91c-2.47-1.4-3.35-3.67-3.38-6.36a1.23,1.23,0,0,1,1.26-1.31c0.75-.07,1.51-0.07,2.27-0.08,4.38,0,8.77,0,13.15,0a14.85,14.85,0,0,0,2.26-.17,1.14,1.14,0,0,0,1-1,11.33,11.33,0,0,0,.11-1.51q0-6.2,0-12.39a2.9,2.9,0,0,0-.55-2.23,6.44,6.44,0,0,0-3.41-.12c-2,.22-4,0.51-6,0.82a6.62,6.62,0,0,1-6-1.89,13.41,13.41,0,0,1-3.78-6.31,9,9,0,0,1,1.25-.33c6-.64,12.07-1.23,18.09-1.9,6.2-.69,12.38-1.47,18.57-2.22,1.09-.13,2.17-0.3,3.26-0.44a5.65,5.65,0,0,1,5.21,2,12.31,12.31,0,0,1,3,5.61,1.56,1.56,0,0,1-1.52.94l-8.78,1.07c-2.76.34-5.52,0.66-8.28,1-1.59.21-1.8,0.47-1.85,2.13,0,1.52,0,3,0,4.55,0,3,0,6.07,0,9.11a5.2,5.2,0,0,0,.35,2.71,3.15,3.15,0,0,0,2.4.6c2.19,0,4.38,0,6.58,0,1.35,0,2.7,0,4,.09a5.39,5.39,0,0,1,4.43,2.55,7.67,7.67,0,0,1,1.37,4.78,1.13,1.13,0,0,1-1.06,1.2,21.94,21.94,0,0,1-2.27.1h-12.39c-3.43,0-3.44,0-3.45,3.56,0,2.28,0,4.55,0,6.83,0,0.67.07,1.33,0.11,1.92a0.84,0.84,0,0,0,1.21-.14l3.88-3.26a9.39,9.39,0,0,1,1.15.74c3.46,3.08,6.87,6.22,10.37,9.27,2.52,2.2,3.29,4.36,1,8a14.74,14.74,0,0,1-1.54,2,11.46,11.46,0,0,1-1.22,1.08,2.13,2.13,0,0,1-1.81-1c-1.93-2-3.83-4-5.76-6q-2.54-2.64-5.12-5.25c-0.52-.53-1.1-1-1.59-1.45a0.86,0.86,0,0,0-.68,1c0,0.76,0,1.52,0,2.28,0,14.58-.08,29.17,0,43.75a12.27,12.27,0,0,1-2.84,7.91,9,9,0,0,1-4.31,3,6.59,6.59,0,0,1-1.63.13,5,5,0,0,1-.4-2.86c0-5.06,0-10.12,0-15.17q0-15.81,0-31.61c0-.67,0-1.33,0-2-0.75-.21-0.84.29-1,0.62A206.56,206.56,0,0,1,1024,456.63a9.09,9.09,0,0,1-1.51,2,2.52,2.52,0,0,1-3.46.29,11.34,11.34,0,0,1-3.95-5.44,1.85,1.85,0,0,1,.16-1.19,4.83,4.83,0,0,1,.7-1A120.41,120.41,0,0,0,1029.55,427c1.82-4.17,3.41-8.44,5.08-12.67A3.75,3.75,0,0,0,1035.06,412Z"/><path class="a" d="M823.75,423.93c0.9-.22,1.63-0.35,2.33-0.59,2.16-.72,4.33-1.42,6.45-2.24a3.89,3.89,0,0,1,5.28,2.07,23.37,23.37,0,0,1,1.5,4c0.32,1.09,0,1.53-1,1.94-2.37.88-4.76,1.7-7.15,2.53-2,.69-4,1.38-6,2a2.21,2.21,0,0,0-1.79,2.39c0,0.76,0,1.52,0,2.28q0,16.31.1,32.62a17.71,17.71,0,0,1-.79,5.48,10.77,10.77,0,0,1-5.32,6.47,16.19,16.19,0,0,1-7.25,2c-2.19.07-4.38,0-6.57-.07a6,6,0,0,1-4.89-2.73,14.5,14.5,0,0,1-2.39-5.8c-0.26-1.37.22-1.91,1.6-1.84,2.52,0.13,5,.28,7.57.4,0.84,0,1.69,0,2.53,0a5.31,5.31,0,0,0,5.34-4.78,14.32,14.32,0,0,0,.13-2.27q0-13.15,0-26.3a8.77,8.77,0,0,0-.26-3.1,7.27,7.27,0,0,0-1.44,0A13.7,13.7,0,0,0,810,439c-1.83.64-3.67,1.25-5.49,1.93-3.37,1.26-4.9.4-6.64-2.27a27.47,27.47,0,0,1-2.08-4.31,1,1,0,0,1,.67-1.43c0.62-.26,1.27-0.45,1.91-0.66l11.81-3.75c0.48-.15,1-0.34,1.45-0.46a2.09,2.09,0,0,0,1.74-2.4c0-.67,0-1.35,0-2q0-9.74,0-19.47c0-4.42.27-4.2-4.33-4.2-2.19,0-4.38,0-6.58,0-3.11,0-4.62-1.24-5.37-4.25a12.33,12.33,0,0,1-.34-2c-0.11-1.4.3-1.87,1.64-2,0.59,0,1.18,0,1.77,0h9.1c0.51,0,1,0,1.52,0,2.35-.07,2.56-0.25,2.57-2.66,0-6,0-12,0-18a22.68,22.68,0,0,1,.08-2.27,1.17,1.17,0,0,1,1.34-1.2,9.19,9.19,0,0,1,7.78,4,5.61,5.61,0,0,1,.72,2.12,11,11,0,0,1,.06,2q0,6.2,0,12.39c0,0.67,0,1.35,0,2a1.33,1.33,0,0,0,1.37,1.49,18.08,18.08,0,0,0,2,.08c2.36,0,4.72.09,7.08,0a4,4,0,0,1,4.38,3,24.41,24.41,0,0,1,.82,3.93,1.06,1.06,0,0,1-1,1.21,17.4,17.4,0,0,1-2,.1h-8.35c-0.59,0-1.18,0-1.77,0-2.25.06-2.48,0.28-2.55,2.44,0,0.34,0,.67,0,1q0,8.73,0,17.45A6.68,6.68,0,0,0,823.75,423.93Z"/><path class="a" d="M1255.68,422.31a18.07,18.07,0,0,0,1.86-.38c1.77-.55,3.52-1.17,5.3-1.71a3.52,3.52,0,0,1,4.44,1.39,7.91,7.91,0,0,1,1.54,5.23,1.42,1.42,0,0,1-.95,1.37c-0.79.3-1.58,0.58-2.39,0.84l-7.47,2.38c-0.56.18-1.11,0.39-1.66,0.6a1.62,1.62,0,0,0-1.13,1.52c0,0.84-.06,1.69-0.06,2.53,0,11.64,0,23.27,0,34.91a17.14,17.14,0,0,1-1.93,8.28,8.6,8.6,0,0,1-5.51,4.5,15.65,15.65,0,0,1-3.47.62c-2.53.09-5.06,0-7.59,0a5.46,5.46,0,0,1-4.68-2.55,10.86,10.86,0,0,1-1.76-7.28,6.09,6.09,0,0,1,1.39-.28c1.26,0,2.52.17,3.78,0.24,1.77,0.09,3.54.25,5.3,0.2,3.13-.09,4.75-1.78,4.9-4.92,0-.51,0-1,0-1.52q0-14.54,0-29.09a6.17,6.17,0,0,0-.3-2.88,1.94,1.94,0,0,0-2,0c-2.33.75-4.64,1.55-7,2.3a5.23,5.23,0,0,1-6.43-2,8,8,0,0,1-1.6-5.63,16.47,16.47,0,0,1,1.76-.74c4.12-1.22,8.26-2.4,12.38-3.62,1-.28,1.89-0.66,2.94-1,0.09-.83.23-1.57,0.23-2.31q0-10.5,0-21c0-.74-0.12-1.48-0.18-2.08a4.59,4.59,0,0,0-3.1-.71c-2.28,0-4.55,0-6.83,0-1.67,0-3.21-.24-4.3-1.65a6.77,6.77,0,0,1-1.32-5.49,1.13,1.13,0,0,1,1-1,19.1,19.1,0,0,1,2.27-.14c3.2,0,6.41,0,9.61,0,2.66,0,2.84-.2,2.85-2.91,0-5.73,0-11.47,0-17.2,0-.76,0-1.52.08-2.27a1.15,1.15,0,0,1,1.36-1.15,8.23,8.23,0,0,1,8.09,8.37c0.06,4,0,7.93,0,11.89,0,3.14.14,3.26,3.28,3.29,1.77,0,3.54,0,5.31,0,2.92,0.06,4.34,1.09,5.15,3.89a12.27,12.27,0,0,1,.37,3,1.2,1.2,0,0,1-1.21,1.35,16.59,16.59,0,0,1-2,.1h-6.83c-0.59,0-1.18,0-1.77,0-1.9.1-2.19,0.39-2.28,2.24,0,0.42,0,.84,0,1.26,0,5.48,0,11,0,16.44C1255.16,420.39,1254.92,421.36,1255.68,422.31Z"/><path class="a" d="M1105.81,451.17c-0.72,0-1.39-.05-2,0q-9.44.88-18.88,1.79c-5.29.5-10.57,1-15.86,1.48a21.66,21.66,0,0,1-3.79.06,7.13,7.13,0,0,1-6.4-5.9c-0.23-1.48.11-2,1.55-2.34a11.43,11.43,0,0,1,1.5-.23c4.7-.39,9.41-0.75,14.11-1.17s9.23-.88,13.84-1.3c2.43-.23,4.87-0.42,7.31-0.63l7.06-.59a5.51,5.51,0,0,0,.75-0.11,1.38,1.38,0,0,0,1.27-1.36c0.08-.92.08-1.85,0.08-2.78q0-33.27,0-66.55c0-.93,0-1.86,0-2.78,0.08-1.4.46-1.72,1.91-1.74a6.81,6.81,0,0,1,7.29,6,22.78,22.78,0,0,1,.3,4q0,24.67,0,49.34,0,5.82,0,11.64c0,0.67,0,1.35.07,2a1,1,0,0,0,1.14,1.08c0.42,0,.84-0.06,1.26-0.1,3.44-.32,6.89-0.57,10.32-1,4.33-.53,7.15,3,6.94,7a1.26,1.26,0,0,1-1.21,1.37q-2.13.3-4.27,0.5c-3.94.37-7.89,0.71-11.84,1.07-2.21.2-2.38,0.37-2.41,2.64q-0.18,11.88-.33,23.77c0,1.26,0,2.53,0,3.8a5.5,5.5,0,0,1-3.41,5.18,9.54,9.54,0,0,1-4.15,1,1.38,1.38,0,0,1-1.64-1.48c0-.42,0-0.84,0-1.26q0-14.55,0-29.1A6.49,6.49,0,0,0,1105.81,451.17Z"/><path class="a" d="M663.56,372.88c-5,6.63-10.2,12.88-15.1,19.25a0.83,0.83,0,0,0,1,.74c1.77,0,3.54,0,5.31,0,5.31,0,10.62,0,15.93,0a36.15,36.15,0,0,1,4.27.4,6.27,6.27,0,0,1,3.19,1.43,11.78,11.78,0,0,1,4.19,7.81,1.65,1.65,0,0,1-.22.57,6.89,6.89,0,0,1-1.13.24c-0.84,0-1.68,0-2.53,0H580.87a8,8,0,0,1-8-5.48,18.32,18.32,0,0,1-.91-3.4,1.17,1.17,0,0,1,1.23-1.53c0.92-.08,1.85-0.07,2.78-0.07h56.38c3.46,0,3,.13,4.93-2.59,3.8-5.26,7.54-10.56,11.31-15.85,0.59-.82,1.18-1.64,1.8-2.44a5.3,5.3,0,0,1,2.7-1.79C656.18,369.25,660.62,370.32,663.56,372.88Z"/><path class="a" d="M568.26,467.14a8.79,8.79,0,0,1,1.38-.32c0.75-.06,1.52,0,2.27,0H676.58c0.76,0,1.52,0,2.27,0a6.92,6.92,0,0,1,5.82,3.48,9,9,0,0,1,1.5,6.33,14.11,14.11,0,0,1-1.48.25c-0.67,0-1.35,0-2,0H577c-1,0-2,0-3-.05a5.18,5.18,0,0,1-3.22-1.31A9.06,9.06,0,0,1,568.26,467.14Z"/><path class="a" d="M672.6,438.65a9.08,9.08,0,0,1-1.25.25c-0.76,0-1.52,0-2.27,0H589.2a6.38,6.38,0,0,1-4.72-2.1,13.55,13.55,0,0,1-3.63-7.09,2.06,2.06,0,0,1,.16-0.63,5,5,0,0,1,1.07-.29c0.84-.06,1.68,0,2.53,0h78.11c0.93,0,1.85,0,2.78,0a6.5,6.5,0,0,1,6,3.94A9.56,9.56,0,0,1,672.6,438.65Z"/><path class="a" d="M591.17,169.94l-6.76-.77a6.12,6.12,0,0,1-1-.22c-6.8-2-9.12-6-9.83-11.17a17.47,17.47,0,0,1,.84-8.22A11.42,11.42,0,0,1,580,143a18.77,18.77,0,0,1,7-2,31.82,31.82,0,0,1,10.56.37,19.44,19.44,0,0,1,3.59,1.17,11.68,11.68,0,0,1,7.15,10.23,29.37,29.37,0,0,1,0,5.3,11.43,11.43,0,0,1-6.56,9.82,17.32,17.32,0,0,1-6.8,1.79c-1.26.07-2.53,0-3.79,0Z"/><path class="a" d="M590.73,372.4a4.73,4.73,0,0,1,.7-0.84,13.46,13.46,0,0,1,5.25-2.36,5.69,5.69,0,0,1,5.75,1.7c0.56,0.63,1.16,1.22,1.72,1.84q4.27,4.81,8.51,9.63c0.77,0.87,1.46,1.81,2.26,2.8a7.29,7.29,0,0,1-1,1.25,13.29,13.29,0,0,1-5.39,2.65,5.69,5.69,0,0,1-6.29-2.06c-2.47-3.18-5.07-6.27-7.62-9.4-1-1.24-2-2.47-3-3.73A14.94,14.94,0,0,1,590.73,372.4Z"/><path class="a" d="M1096,398a9.27,9.27,0,0,1-4.15,4,4.8,4.8,0,0,1-5.86-.56q-1.55-1.3-3.06-2.65-6.32-5.64-12.62-11.29c-0.43-.39-0.81-0.83-1.33-1.37a6.9,6.9,0,0,1,.88-1.46,14.44,14.44,0,0,1,2.32-1.94c2.74-1.76,4.56-1.16,6.25.28,2.24,1.92,4.51,3.8,6.77,5.7,3,2.54,6.08,5.07,9.11,7.63C1094.88,396.87,1095.38,397.43,1096,398Z"/><path class="a" d="M1092.57,426.3a12.37,12.37,0,0,1-5.13,4.43,4.23,4.23,0,0,1-4.92-.73c-2.33-2.07-4.7-4.1-7-6.17q-4.25-3.78-8.47-7.6a10,10,0,0,1-.83-1,10,10,0,0,1,5.68-4.07,4.15,4.15,0,0,1,4,1c2.76,2.35,5.57,4.63,8.36,7q3.3,2.75,6.59,5.52C1091.37,425.09,1091.88,425.64,1092.57,426.3Z"/></svg>