<svg xmlns="http://www.w3.org/2000/svg" viewBox="0 0 1719.34 560"><defs><style>.a{fill:#9e9e9e;}</style></defs><title>KrSpace</title><path class="a" d="M486.49,279.56c0,45-.05,90,0.1,135,0,3.92-1.3,6-4.62,7.87q-74.78,42.94-149.43,86.12-43.22,24.95-86.38,50c-2.1,1.22-3.56,1-5.56-.12-16.77-9.77-33.6-19.42-50.42-29.11q-55-31.7-110-63.42C54.94,451.35,29.7,436.7,4.38,422.19,1.25,420.4,0,418.4,0,414.66q0.18-135.48,0-271c0-3.46,1-5.44,4.07-7.23Q84,90.56,163.78,44.41,201.69,22.52,239.53.49c3-1.75,5.14-1.51,8,.14q41.06,23.88,82.24,47.56l122.11,70.43c10.24,5.91,20.4,12,30.73,17.71,2.93,1.63,4,3.48,4,6.88Q486.39,211.38,486.49,279.56ZM405.42,178c-1.31-.92-2-1.47-2.74-1.9l-70.5-40.69q-42.07-24.3-84.09-48.69c-3.28-1.92-5.72-2.07-9.1-.1-28.47,16.63-57,33.07-85.6,49.55q-34.11,19.69-68.23,39.37c-1.18.68-2.29,1.49-3.78,2.46,1.37,0.88,2.19,1.45,3.05,2l34.88,20.12,78.86,45.5c14,8.09,28.09,16.12,42,24.34,2.36,1.39,4.17,1.39,6.39,0,3.08-2,6.3-3.68,9.46-5.5q71.29-41.1,142.58-82.2C400.78,181,402.82,179.64,405.42,178ZM236.74,470.17V282.89L75.16,189.68c-0.17,2.12-.36,3.37-0.36,4.63q0,89.23-.07,178.46c0,3,.92,4.73,3.58,6.23,12.08,6.81,24,13.87,36,20.8q58.21,33.6,116.43,67.16C232.5,468,234.3,468.86,236.74,470.17ZM412.08,189.69c-2.63,1.42-4.8,2.52-6.9,3.74Q340.53,230.72,275.89,268c-7.58,4.38-15.13,8.81-22.77,13.1-2,1.13-3.11,2.49-2.93,4.85,0.1,1.31,0,2.63,0,3.94q0,47.79,0,95.59,0,39.46,0,78.93c0,1.66.15,3.31,0.25,5.45,1.7-.83,2.75-1.26,3.73-1.83q22.36-12.93,44.71-25.89Q353.7,410.55,408.54,379c2.7-1.55,3.87-3.22,3.86-6.47q-0.16-89-.08-178C412.32,193.12,412.18,191.71,412.08,189.69Z"/><path class="a" d="M788.76,304.26c0.26-8.16.38-15.79-.09-23.9H681.94V264.17c4.21-.55,8.55-0.18,12.86-0.24,4.53-.06,9.06,0,13.59,0h80.13c0.16-1.9.38-3.45,0.4-5,0.06-4.68,0-9.36.07-14,0.08-3.13.49-3.5,3.64-3.56,4.51-.09,9,0,14,0,1.14,7.58,0,14.88.81,22.47H914.23c0.52,5.58.21,10.73,0.22,16.53-35.71,0-71,0-106.8,0-0.93,7.92-.39,15.56-0.37,23.72,4.78,0.4,9.27.15,13.73,0.2,4.68,0,9.35,0,14,0h54.59c1.19,4.45,1.15,67.48-.05,71.71H837.43c-0.18,1.72-.43,3-0.43,4.24,0,9.5-.08,19,0,28.5,0.06,7.66,3.65,11.84,11.3,13.16a52.23,52.23,0,0,0,8.24.76c8,0.1,16.08.12,24.12,0a50.36,50.36,0,0,0,9.54-.94c6.23-1.31,10.32-5.22,12.18-11.32,2.43-8,4.7-16,4.77-24.4a28.58,28.58,0,0,1,.59-4.33,4.2,4.2,0,0,1,.76-1,101.38,101.38,0,0,1,16.61,5.62c1.07,5,.45,9.82-0.57,14.46a145.67,145.67,0,0,1-5.41,18.91c-4.58,12.47-14.21,18.86-27.11,19.32-16.06.57-32.18,0.73-48.22,0-16.35-.77-24.87-10.36-25.33-27.06-0.27-10.08-.05-20.17-0.05-30.25,0-1.6,0-3.19,0-4.69-3.2-1.13-34.84-1.46-41.59-.46a51.48,51.48,0,0,0-.84,5.35c-1,17.63-9.13,31.37-22.94,42-10.45,8-22.32,13.29-34.86,16.86-9.78,2.78-19.82,4.67-29.75,6.92a3.24,3.24,0,0,1-1.27-.1L678,429.68c2.34-.52,4.79-1.12,7.27-1.59,14.35-2.74,28.46-6.33,41.8-12.41,9.52-4.34,18.31-9.76,24.56-18.48a30.81,30.81,0,0,0,6.08-21.11c-5.88-.34-11.66-0.12-17.44-0.16-6,0-12,0-18,0H704.68v-71.6c9.31-.14,18.45,0,27.6-0.06q14,0,28.06,0h28.42Zm82.92,17.42H724.19c0,13-.1,25.78.09,38.58H871.68V321.68Z"/><path class="a" d="M1324.32,296.84a86,86,0,0,1-.14,17.45H1213.74c-0.19,1.89-.47,3.42-0.47,4.95q0,44.51,0,89c0,1.42.2,2.84,0.34,4.69H1361a82.14,82.14,0,0,1,0,19.56H1044.68a95.74,95.74,0,0,1-.13-19.35h147.2V314.5c-7.4-.28-14.79-0.1-22.18-0.13s-14.91,0-22.36,0h-66.84c-1.32-3.81-1.5-12.49-.51-17.27C1082.92,296.21,1317.8,295.9,1324.32,296.84Z"/><path class="a" d="M1491.47,204.81c1.84-.13,3.4-0.34,5-0.34q65.76,0,131.51,0c0.88,0,1.75,0,2.63,0,1.82,0,2.66,1,2.73,2.69,0,1.31.08,2.63,0.08,3.94q0,80,0,160c0,2-.21,4-0.33,6.28H1491.47V204.81Zm121.16,95.82c-8.19-.8-97.13-0.45-100.54.4v58.17h100.68C1613.75,354.62,1613.63,304.38,1612.62,300.63Zm0.09-75.86c-4.07-.89-97.19-0.79-100.49.11-0.8,5.43-.56,54,0.31,57.21h100.09C1613.71,278.08,1613.72,228.56,1612.71,224.76Z"/><path class="a" d="M1621.11,447.85l-2.89-21.76a14.39,14.39,0,0,1,3-.52c5.53,0.21,11.05.61,16.58,0.77q16,0.45,31.94.69a36.78,36.78,0,0,0,14.52-2.72,20.54,20.54,0,0,0,12.35-13.93,36.88,36.88,0,0,0,1.52-9.9q0.12-121.47.06-242.94c0-1.29-.12-2.59-0.21-4.39-9.89-.34-19.63-0.11-29.37-0.15s-19.59,0-29.38,0H1521a94.57,94.57,0,0,1-.21-19c3.46-.89,192.88-1.11,198.24-0.23,0.11,2.06.32,4.21,0.32,6.36q0,72.58,0,145.15,0,57.45,0,114.89c0,8.38-1.23,16.57-4.89,24.26-5.05,10.63-13.64,16.84-24.78,19.82-7.65,2.05-15.51,2.36-23.37,2.59-13.42.39-26.84,0.7-40.25,1C1624.43,447.88,1622.85,447.85,1621.11,447.85Z"/><path class="a" d="M997.52,364c6.51,0.17,11.81,3.31,17.59,4,1.65,3.38.48,6.62,0.08,9.69-1.83,13.89-3.45,27.82-7.13,41.39-1.61,5.94-3.38,11.78-7,16.86-4.2,5.83-9.88,8.68-17,9.24-13.88,1.1-22.17-6.51-28-17.75a129.77,129.77,0,0,1-13.66-43.2c-1.7-13.16-2.74-26.41-3.69-39.64-2.47-34.13-1.68-68.33-1.79-102.5,0-1.89,0-3.78,0-5.34-0.4-.42-0.49-0.54-0.6-0.63a1.62,1.62,0,0,0-.35-0.26,1.49,1.49,0,0,0-.42-0.12l-0.87-.11c-0.14,0-.29,0-0.44,0h-1.32l-220.14,0c-0.29,0-.58,0-0.87-0.06a2,2,0,0,1-.43-0.08c-0.14,0-.27-0.12-0.91-0.41a58.52,58.52,0,0,1,0-16.23H954.93c0.16,2.21.43,4.2,0.43,6.19,0,26.75-.19,53.5.08,80.25a578,578,0,0,0,4.74,72A145.46,145.46,0,0,0,969.75,414a28.33,28.33,0,0,0,5.63,8.72c4.5,4.6,10.07,3.34,12.6-2.57a35.3,35.3,0,0,0,1.9-6.71C993.24,397.33,996.19,381.13,997.52,364Z"/><path class="a" d="M1046.19,159.84H1201.4c-5.31-14.39-11.16-27.81-16.53-42l19.42-7.49c7,14.12,13,28.3,18.8,42.9-3.59,2.74-8,3.48-12.68,6.18,2.43,0.11,3.9.23,5.38,0.23q68.63,0,137.26,0c6.41,0,6.7-.87,6.69,6.74,0,17.69,0,35.37,0,53.06,0,1.86-.24,3.72-0.39,5.89h-20.67v-46.9c-3.61-1-263.61-1.34-271.39-.44-0.15,1.54-.45,3.21-0.46,4.87,0,12.28,0,24.56,0,36.84,0,1.85-.29,3.69-0.46,5.7h-19.86C1045.42,222.07,1045.17,165.67,1046.19,159.84Z"/><path class="a" d="M672.57,211.75c2.81-2.62,6-5.6,9.19-8.56a279.3,279.3,0,0,0,57.49-74.55c2.61-4.89,5-9.9,7.44-14.86,1.48-3,1.63-3.17,5-2.48,4.56,0.93,9.1,2,13.64,3a12.36,12.36,0,0,1,2.26,1.12c-3.09,8.47-7.82,16-11.72,24.79H995.72V155.3c-2.29.11-4.42,0.3-6.56,0.3q-118.39,0-236.77-.09c-4.48,0-6.92,1.35-9.28,5.19a274.32,274.32,0,0,1-34.61,45.06c-5.42,5.73-11,11.32-16.53,16.93-1.53,1.54-3.24,2.9-4.56,4.06Z"/><path class="a" d="M1409.91,181.13h20V447.56h-20.09C1408.74,443.41,1408.77,185.4,1409.91,181.13Z"/><path class="a" d="M741.69,194.83c-1.21-3.65-1.34-9.9-.37-14.42,3.09-.84,217-1.14,223.29-0.25a53.32,53.32,0,0,1,0,14.67H741.69Z"/><path class="a" d="M1049,301.88l-13.53-18c21.68-12.15,42.61-24.6,62.65-38.43s39.66-27.78,59.2-41.5L1172,218.71C1133.1,248.73,1092.37,276.8,1049,301.88Z"/><path class="a" d="M1370,282.64l-13.3,17.46-120.91-82.34,11.76-14.66C1289.73,227.69,1330.12,254.26,1370,282.64Z"/><path class="a" d="M1491.87,159.73c-5,4.17-10.11,8.46-15.22,12.78-1.43,1.21-2.61.89-3.79-.36q-12.32-13-24.65-26.05c-5.4-5.73-10.73-11.52-16.1-17.28-1-1.06-2-2.11-3.43-3.65l15.76-12.92Z"/></svg>