<svg xmlns="http://www.w3.org/2000/svg" viewBox="0 0 102.96 16.44"><title>event0716</title><path d="M46.17,85.4H39.71v7.08h7.22v1H38.56V77.26h8v1H39.71v6.22h6.46v1Z" transform="translate(-38.56 -77.26)"/><path d="M49.29,81.92L52,89.07c0.46,1.13.82,2.11,1.13,3.07h0c0.31-1,.74-2,1.18-3.07l2.74-7.15h1.2L53.58,93.44h-1L48.06,81.92h1.22Z" transform="translate(-38.56 -77.26)"/><path d="M60.49,87.56c0,3.67,2,5.14,4.39,5.14A6.7,6.7,0,0,0,68.08,92l0.29,0.89a7.6,7.6,0,0,1-3.62.74c-3.31,0-5.38-2.4-5.38-5.78,0-3.84,2.21-6.24,5.18-6.24,3.77,0,4.49,3.55,4.49,5.21a3,3,0,0,1,0,.7h-8.5Zm7.34-.91c0-1.61-.65-4-3.43-4-2.54,0-3.65,2.26-3.86,4h7.3Z" transform="translate(-38.56 -77.26)"/><path d="M72,84.68c0-1.06,0-1.85-.1-2.76H73L73,84h0a4.35,4.35,0,0,1,4-2.35c1.1,0,4,.55,4,4.87v6.91H79.91V86.62c0-2.09-.82-4-3.19-4a3.7,3.7,0,0,0-3.46,2.64,4.47,4.47,0,0,0-.14,1v7.13H72V84.68Z" transform="translate(-38.56 -77.26)"/><path d="M86.41,79.38v2.54H89.7v0.94H86.41v7.49c0,1.46.46,2.38,1.68,2.38a4.28,4.28,0,0,0,1.32-.17l0.14,0.86a4,4,0,0,1-1.61.29,2.39,2.39,0,0,1-2-.82,4.21,4.21,0,0,1-.72-2.76V82.86H83.32V81.92h1.94V79.81Z" transform="translate(-38.56 -77.26)"/><path d="M106.34,85.42c0,5.59-2,8.28-5.11,8.28-2.45,0-4.68-2.4-4.75-8s2.47-8.14,5.11-8.14S106.34,80,106.34,85.42Zm-8.69.31c0,4.34,1.49,7,3.72,7,2.62,0,3.79-3,3.79-7.2,0-4.08-1.1-7-3.77-7C99.25,78.54,97.65,81.13,97.65,85.74Z" transform="translate(-38.56 -77.26)"/><path d="M117.88,77.84v0.84l-7,14.76h-1.13l7-14.57v0h-7.92v-1h9.12Z" transform="translate(-38.56 -77.26)"/><path d="M124.65,79h0l-2.54,1.49-0.29-.91,3-1.75h1.06v15.6h-1.13V79Z" transform="translate(-38.56 -77.26)"/><path d="M140.08,78.63a7.81,7.81,0,0,0-1.7.17,7.24,7.24,0,0,0-5.59,6.65h0a4.74,4.74,0,0,1,4.06-2.18c2.86,0,4.63,2.11,4.63,5,0,2.71-1.68,5.42-4.85,5.42-2.81,0-5.09-2.28-5.09-6.55a10.05,10.05,0,0,1,2.57-7.08,8,8,0,0,1,4.37-2.3,6.7,6.7,0,0,1,1.56-.19v1.06Zm0.26,9.74c0-2.74-1.61-4.13-3.74-4.13A4.16,4.16,0,0,0,133,86.5a1.93,1.93,0,0,0-.26.91c0,3.14,1.42,5.33,4,5.33C138.86,92.74,140.34,91,140.34,88.38Z" transform="translate(-38.56 -77.26)"/></svg>