<svg xmlns="http://www.w3.org/2000/svg" viewBox="0 0 39.77 7.35"><title>hangzhou</title><path d="M38.32,74.66L37.85,77h2.81l0.46-2.37h0.36l-1,5.39H40.08l0.51-2.7H37.8L37.29,80H36.93l1-5.39h0.37Z" transform="translate(-36.93 -74.37)"/><path d="M44.31,80a7.33,7.33,0,0,1,.1-1.14h0a1.81,1.81,0,0,1-1.61,1.23,1.1,1.1,0,0,1-1.07-1.22,2.74,2.74,0,0,1,2.6-2.79,3.63,3.63,0,0,1,.89.11l-0.38,2A7.74,7.74,0,0,0,44.65,80H44.31ZM44.8,76.5a1.79,1.79,0,0,0-.55-0.06,2.34,2.34,0,0,0-2.15,2.42,0.81,0.81,0,0,0,.78,1c0.69,0,1.47-.92,1.67-2Z" transform="translate(-36.93 -74.37)"/><path d="M45.77,80l0.54-2.81c0.07-.38.12-0.73,0.16-1H46.8L46.69,77h0a1.75,1.75,0,0,1,1.47-.91,0.94,0.94,0,0,1,1,1.07,3.56,3.56,0,0,1-.07.61L48.64,80H48.28l0.43-2.28a3.68,3.68,0,0,0,.06-0.53,0.68,0.68,0,0,0-.74-0.8,1.91,1.91,0,0,0-1.54,1.64l-0.37,2H45.77Z" transform="translate(-36.93 -74.37)"/><path d="M49.79,81.13a1.76,1.76,0,0,0,1,.28c0.7,0,1.26-.38,1.54-1.58l0.16-.74h0a1.69,1.69,0,0,1-1.48,1,1.18,1.18,0,0,1-1.14-1.3,2.54,2.54,0,0,1,2.36-2.64,2.77,2.77,0,0,1,1.11.27l-0.59,3.17A2.93,2.93,0,0,1,52,81.3a1.82,1.82,0,0,1-1.25.42,2,2,0,0,1-1.09-.29Zm3.15-4.53a1.85,1.85,0,0,0-.78-0.17,2.15,2.15,0,0,0-1.91,2.25,0.9,0.9,0,0,0,.87,1.07A2,2,0,0,0,52.66,78Z" transform="translate(-36.93 -74.37)"/><path d="M53.53,79.82l2.25-2.53c0.33-.37.52-0.54,0.71-0.74v0H54.32l0.06-.3H57l-0.06.26L54.7,79c-0.34.38-.52,0.56-0.7,0.74v0h2.33l-0.06.3H53.49Z" transform="translate(-36.93 -74.37)"/><path d="M57.09,80l1.08-5.68h0.37L58,77h0a1.71,1.71,0,0,1,1.47-.88,0.93,0.93,0,0,1,.94,1,3.74,3.74,0,0,1-.06.62L60,80H59.6L60,77.75a2.4,2.4,0,0,0,.06-0.56,0.67,0.67,0,0,0-.73-0.75A1.88,1.88,0,0,0,57.82,78l-0.38,2H57.09Z" transform="translate(-36.93 -74.37)"/><path d="M64.67,77.73a2.32,2.32,0,0,1-2,2.41,1.44,1.44,0,0,1-1.42-1.57,2.31,2.31,0,0,1,2-2.45A1.43,1.43,0,0,1,64.67,77.73Zm-3.08.81a1.15,1.15,0,0,0,1.1,1.29,2,2,0,0,0,1.61-2.1,1.15,1.15,0,0,0-1.08-1.29A2,2,0,0,0,61.59,78.54Z" transform="translate(-36.93 -74.37)"/><path d="M68.7,76.21L68.17,79A10,10,0,0,0,68,80H67.67l0.12-.79h0a1.73,1.73,0,0,1-1.37.88,1,1,0,0,1-1-1.14,3.21,3.21,0,0,1,.07-0.61l0.42-2.18h0.36L65.8,78.4a2.93,2.93,0,0,0-.07.6,0.69,0.69,0,0,0,.76.81,1.81,1.81,0,0,0,1.46-1.51l0.4-2.09H68.7Z" transform="translate(-36.93 -74.37)"/><path d="M71.46,80l0.21-1.65H71V78.09h0.7l0.17-1.32h-0.7v-0.3h0.74l0.21-1.62h0.33l-0.21,1.62h0.9l0.21-1.62h0.32l-0.2,1.62h0.66v0.3h-0.7l-0.17,1.32H74v0.3H73.23L73,80H72.69l0.21-1.66H72L71.8,80H71.46Zm1.48-2,0.16-1.32h-0.9L72,78.09h0.9Z" transform="translate(-36.93 -74.37)"/><path d="M76.32,75.24h0l-0.85.5-0.1-.3,1-.58h0.35V80H76.32V75.24Z" transform="translate(-36.93 -74.37)"/></svg>