<svg xmlns="http://www.w3.org/2000/svg" viewBox="0 0 4000 1008"><defs><style>.a{fill:#cfcfcf;}.b{fill:#fff;}.c{fill:#bbb;}.d{fill:#a6a6a6;}</style></defs><title>main</title><path class="a" d="M602.49,46.31c22.63,10.76,41.85,26.67,62,41.17,19.6,14.09,35.64,32,52.24,49.23a63.92,63.92,0,0,1,8.21,10.68c12,19.37,25,38.21,35.17,58.51,9.17,18.34,19.2,36.49,24.27,56.87,2.86,11.52,9.06,22.17,13.07,33.45,13.5,37.92,21.45,76.74,18.94,117.33-1.45,23.34-1,46.86-3.48,70.07-2.23,20.77-5.18,41.67-12.23,61.61a33,33,0,0,0-1.87,6c-2.82,19.09-12,35.66-20.51,52.52-7,13.92-13.51,28.13-21.45,41.49-13.17,22.17-27.16,44-46.67,61.24a400.24,400.24,0,0,1-41.32,31.62c-11.24,7.56-15.86,16-15.55,30.22,0.72,32.95-1.12,65.95-1.78,98.93-0.33,16.49-.83,33-0.32,49.48,0.32,10.48-3.3,15.54-16.32,16.56-8,.63-16.15.57-24.23,0.69-11.38.16-22.76,0.29-34.14,0.28-16.08,0-21.21-5.45-21.15-21.94,0.07-19.2.36-38.42-.08-57.61a39.21,39.21,0,0,0-3.93-16.37c-5.43-10.7-15.09-15.91-26.87-17.06-7.78-.76-16.92,5.28-19.11,13.44a91.77,91.77,0,0,0-3.5,21.19c-0.52,19.48-.26,39-0.34,58.49,0,3.3.07,6.62-.24,9.9-0.55,5.79-3.07,9.39-8.67,9.81a347.36,347.36,0,0,1-37.6,1.16c-8.11-.28-12.14-5.06-13.34-13.33a156.06,156.06,0,0,1-1.69-19.7c-0.28-16.5-.18-33-0.23-49.5,0-.6,0-1.2.07-1.8,1.87-24.53-17.18-30.07-33.78-28.83-8.4.63-12.21,6.94-14,14.41a116.41,116.41,0,0,0-2.76,15.95c-1.57,16.41-2.72,32.87-4.34,49.27a150.61,150.61,0,0,1-3.21,18.54c-2,8.68-8,13.69-16,16.8a41.43,41.43,0,0,1-21.17,2.42c-10.38-1.46-16.14-7.2-16.82-17.78-0.9-14-1.11-28.14-1.93-42.19-0.63-10.76-1.14-21.6-2.89-32.21-0.94-5.73-3.78-11.42-6.9-16.41-1.65-2.64-5.54-4.56-8.77-5.37-8.61-2.14-17.25-.93-25.7,1.56-4.36,1.29-6.68,4.53-8.78,8.4-7.57,14-8.86,29-8.73,44.5,0.13,15.28-.51,30.58-1.31,45.84-0.19,3.61-2.39,7.12-3.67,10.68-1.5,0-3,0-4.49.07-8.85.26-9.85-.58-10.11-9.37-0.65-22.17-1.53-44.35-1.73-66.53q-0.44-50.86,0-101.73c0.06-8.25-3-13.8-9.19-19.25C217,725.07,200.68,710,185,694.41a381,381,0,0,1-48.46-58.86A293.6,293.6,0,0,1,113,593.28c-8.22-18.27-15.17-37.19-21.54-56.21C86,520.9,82.19,504.2,77.74,487.71a28.62,28.62,0,0,1-.39-5.38c-0.52-7.47-1-14.95-1.6-22.41S74,445,73.81,437.53c-1.11-37,1.34-73.77,9.31-110,3-13.41,4.1-27.18,9.46-40.17,9.84-23.82,18.59-48.09,28.2-72,2.19-5.45,5.73-10.47,9.23-15.27a156.9,156.9,0,0,1,13.23-15.87c10.13-10.6,20.56-20.91,30.9-31.31q10.76-10.82,21.61-21.54c6.8-6.72,13.47-13.6,20.59-20,5.34-4.78,11.25-8.94,17-13.27,12.41-9.36,24.42-19.34,37.42-27.79,16.56-10.76,34-20.2,50.95-30.32a34.29,34.29,0,0,0,7.78-6c6.61-7.23,14.86-12,23.29-16.63,4.73-2.59,9.74-4.84,14-8.09,8.33-6.39,17.57-8.69,27.8-7.93,19.68,1.45,39.41,2.47,59,4.53,15.45,1.62,30.85,4,46.1,7,16.14,3.18,32.2,7,48,11.41,11.75,3.29,23.2,7.78,34.58,12.25C589.22,39.36,595.77,43.06,602.49,46.31ZM217.18,309.48c-1.63.75-4.85,1.66-7.4,3.51-9.21,6.69-18.4,13.44-27.16,20.69-4.56,3.78-8.43,8.47-12.21,13.09-4.12,5-3.84,10.54-.17,15.81,1.54,2.21,3.38,4.2,5,6.32,10,12.73,20.13,25.34,29.87,38.25,5.33,7.06,5.21,7.74-.8,13.64q-17,16.7-34.42,32.92c-7,6.54-7.56,11-1.26,18.41,0.78,0.91,1.63,1.76,2.47,2.62q16.53,17.1,33.06,34.2c4.15,4.28,7.81,5,12.78,1.54a222.61,222.61,0,0,0,18.36-14.42c7.91-6.88,15.42-14.22,23.18-21.26,5.28-4.8,6.56-4.58,11.61,1.05,2.4,2.68,4.92,5.24,7.39,7.85q10.17,10.73,20.33,21.46c3.69,3.92,7.07,8.19,11,11.82,6.13,5.63,9.38,5.41,15.43-.21,5-4.69,9.91-9.59,15.16-14,7.07-6,14.67-11.37,21.62-17.49,9-7.91,9.22-12.9,1.3-22.11-10-11.59-20.21-22.92-30.3-34.4-2.18-2.47-4.18-5.1-6.3-7.62-2.52-3-2.6-5.92,0-8.88,3-3.38,5.86-6.82,8.89-10.13,8.29-9.07,16.74-18,24.93-27.15,5.9-6.6,6.47-12.17,1.9-18.71a182.45,182.45,0,0,0-35.73-37.72c-4.93-4-8.73-3.74-13.81.3a69,69,0,0,0-7.18,6.79c-9.25,9.81-18.29,19.82-27.69,29.48-4.62,4.74-6.55,4.47-11.3-.05-1.3-1.24-2.44-2.64-3.61-4-9.61-11.07-19.05-22.3-28.9-33.16C229.45,313.7,225,309.88,217.18,309.48ZM611.07,512.55c1.74-1.07,5.5-2.52,8.09-5.14,10.72-10.88,21.19-22,31.52-33.26,4.17-4.55,3.85-7.8-.32-12.68-1.55-1.82-3.41-3.37-5.05-5.12-11.73-12.41-23.59-24.69-35.1-37.3-7.25-7.95-6.92-10.42.4-18.12q16.4-17.26,32.73-34.59c6.37-6.76,6.83-11.55.08-17.69a385.31,385.31,0,0,0-30.49-25.09c-8.39-6.17-13.49-5.78-21,1-10.16,9.25-20,18.89-29.42,28.91-8.05,8.58-9.48,8.64-17.13-.16q-14.14-16.26-29.25-31.68c-8.51-8.67-13.49-8.39-22.08-.23-2.82,2.68-5.47,5.76-8.77,7.67-10.45,6.05-17.09,15.84-24.7,24.62-5.19,6-5.07,11.49-.41,18a91.57,91.57,0,0,0,8.66,10.31c7.27,7.56,14.82,14.85,22.1,22.41,9.66,10,9.45,11.21,0,21-9.79,10.11-19.35,20.45-28.86,30.82-5.58,6.09-6.54,10.74-3.26,16.2a101.8,101.8,0,0,0,34.55,34.7c4,2.48,8,2.34,11.64-.71,2.06-1.72,4-3.66,5.87-5.56,10.62-10.57,21.12-21.28,31.87-31.71,5.59-5.42,7.84-5.34,14-.76a91.32,91.32,0,0,1,7.76,6.12q16.44,15.25,32.71,30.68C600.66,508.51,603.54,512.63,611.07,512.55Z"/><path class="b" d="M2556.86,745.81q0,65.69,0,131.37c0,43.44.06,86.87,0,130.82h-62c-1.94-7.58-2.06-627.42-.08-636.31h61.42c1.68,21.16,0,42.39,1,64.56,1.71-1.13,2.83-1.52,3.43-2.3,29.84-39.09,70.15-61.15,117.35-71,54.32-11.38,107.48-7,157.84,17.3C2903.8,413,2944,467.94,2958,541.62c9.38,49.33,6,98.26-13.93,144.91-31.43,73.56-87.57,117.16-165.3,132.5-45.22,8.92-90.11,5.81-133.53-10.57-33.14-12.5-61.82-31.52-83.55-60.11-0.85-1.12-1.89-2.09-2.83-3.14Zm-5.81-153.32c0.53,47.62,18.66,90.87,55.83,125.14,44.39,40.93,97.49,55.7,156.34,45,60.61-11,103.11-46.23,124.43-104.71,15.61-42.81,15.63-86.49,1.86-129.9-12.49-39.39-36.7-69.7-72.48-90.48-36-20.88-74.83-26.05-115.39-20.25C2615.91,429.55,2551.8,503.05,2551.06,592.49Z"/><path class="b" d="M1520.51,663.83l54.6,42.84c-2.48,3.35-4.51,6.22-6.65,9-47.83,61.88-110.8,97.94-187.73,109.28-78.2,11.52-153.52,1.84-224.46-34.37C1080,751.66,1029.21,690,999.5,610.39c-19.81-53.12-25.88-108.23-22.32-164.66,3.18-50.37,15.12-98.36,38-143.37,47.84-94,124.17-151.53,226.2-174.54,63-14.21,126-12.37,188.14,6.9,49.27,15.28,89.64,43.53,122.34,83.19,1.51,1.83,2.81,3.82,4.64,6.33l-54.87,47c-1.54-1.82-2.58-2.86-3.4-4.06-29.17-42.58-70.24-67.34-119.69-78.25-118.28-26.1-271.24,24.81-319.42,187.9-23.31,78.92-20,157.66,14.39,233.07,39.28,86.18,107.4,136.11,200.27,152,39.43,6.74,78.83,6,117.39-5.8,50.73-15.55,93.17-43.28,124.26-87.11,0.87-1.22,1.76-2.43,2.73-3.57A14.28,14.28,0,0,1,1520.51,663.83Z"/><path class="b" d="M1863.79,356.13c33.37,1.24,65.65,6.56,96.42,19.7,53.69,22.92,93.28,60.69,116,114.57,28,66.51,28.46,134.14-.28,200.34-31.11,71.66-87.47,113.42-163.38,128.29-43.28,8.48-86.54,6.22-128.62-7.73-66.43-22-112.69-66.16-137-131.73-22.88-61.77-22.41-124.38,2.86-185.43,30.47-73.63,86.64-116.78,164.13-132.2C1830.29,358.69,1847.15,358,1863.79,356.13ZM1693.53,590.38c1.65,13.66,2.38,27.51,5.1,41,11.35,56.14,42.45,97.07,95.09,120.5,32.44,14.44,66.65,17.23,101.18,11.27,53.08-9.16,94-37,118.21-85.77,25.47-51.23,26.58-104.56,7.12-158.06-14-38.6-40.31-66.8-76.63-85.75-30.74-16-63.65-20.89-97.6-17.52-58.61,5.81-103.31,34-131.29,86.57C1700.21,529.85,1694.49,559.46,1693.53,590.38Z"/><path class="c" d="M394.54,1.41c-10.22-.75-19.46,1.54-27.8,7.93-4.24,3.25-9.26,5.5-14,8.09-8.43,4.61-16.67,9.4-23.29,16.63a34.29,34.29,0,0,1-7.78,6c-17,10.13-34.38,19.57-50.95,30.32-13,8.44-25,18.43-37.42,27.79-5.74,4.33-11.65,8.49-17,13.27-7.11,6.37-13.78,13.25-20.59,20q-10.86,10.72-21.61,21.54c-10.34,10.4-20.77,20.71-30.9,31.31A156.9,156.9,0,0,0,130,200.12c-3.5,4.79-7,9.81-9.23,15.27-9.61,23.92-18.36,48.18-28.2,72-5.37,13-6.51,26.75-9.46,40.17-8,36.2-10.42,73-9.31,110,0.22,7.48,1.34,14.93,1.95,22.4s1.07,14.94,1.6,22.41a28.62,28.62,0,0,0,.39,5.38C82.19,504.2,86,520.9,91.45,537.07c6.37,19,13.32,37.94,21.54,56.21a293.6,293.6,0,0,0,23.52,42.27A381,381,0,0,0,185,694.41c15.71,15.6,32,30.66,48.62,45.28,6.19,5.44,9.25,11,9.19,19.25q-0.38,50.87,0,101.73c0.19,22.18,1.08,44.35,1.73,66.53,0.26,8.8,1.26,9.64,10.11,9.37,1.5,0,3,0,4.49-.07-3.61,1.08-7.16,2.79-10.84,3.14-15.33,1.45-30.49-.45-45.58-3.07-5-.87-10.05-1.69-15-2.8-7.33-1.63-10-4.76-11.05-12.24a25,25,0,0,1-.21-3.59c0.14-14.09-.18-28.21.57-42.27a539.78,539.78,0,0,0-6.11-116.63c-1.09-6.66-3.51-11.9-9.08-15.78-3.93-2.73-7.32-6.35-11.44-8.7-22.61-12.89-38.83-32.68-55.93-51.52-4.83-5.32-9.36-10.94-13.9-16.52-14.67-18-25.15-38.54-35.71-59.1a350.86,350.86,0,0,1-27-69.45c-4.59-17.08-8.65-34.32-12.3-51.63a156.29,156.29,0,0,1-3.24-26.75C1.49,438.67-1.55,417.82,1,396.71c2-16.35,2-32.93,3.25-49.37,0.49-6.23,2-12.41,3.3-18.55,6.93-33,18.42-64.59,28.79-96.5,3.36-10.33,9.92-19.83,16.07-29,11.86-17.68,23.81-35.36,36.93-52.1,17-21.75,36.86-41.07,57.64-59.2,15.33-13.36,31.55-25.74,47.89-37.87,6.66-4.94,14.42-8.68,22.13-11.85,23.53-9.68,47-19.48,71-28A260.61,260.61,0,0,1,345.66.83C353.07,0,360.62.48,368.08,0Z"/><path class="b" d="M3348,444.05L3292,473.94c-1.47-1.8-2.84-3.26-4-4.9-2.53-3.72-4.81-7.61-7.41-11.27-18.74-26.46-44.37-40.18-76.64-42.22-23-1.45-44.72,2.17-65.19,12.9a77.58,77.58,0,0,0-23.77,18.9c-14.06,16.77-16,35.62-9.31,55.8,2.93,8.87,8.86,15.51,16.48,20.76a129.28,129.28,0,0,0,43.11,19.65c24.42,5.87,49,10.94,73.62,16.13a253.37,253.37,0,0,1,51.29,16.13c2.73,1.22,5.48,2.43,8.11,3.85,35.55,19.07,58.14,46.79,61.79,88.66,5.38,61.72-19.84,109.46-73.51,136a165,165,0,0,1-36.2,13.05c-55,12.46-108.3,6.5-159.28-17.78-26.58-12.66-47.65-31.91-63.75-56.6-1.62-2.48-3-5.1-5.17-8.71,18.14-12.92,36.46-25,54.79-37.72,1.41,1.94,2.38,3,3.09,4.3,19.37,33.68,49.61,52,86.3,60.85,30.07,7.22,59.45,5.4,87.37-9.1a89.06,89.06,0,0,0,31.33-26.44c13.31-18.13,15.11-38.07,8.94-59.06-2.79-9.5-8.92-16.84-16.89-22.69a128.59,128.59,0,0,0-44.3-21.26c-23.18-5.93-46.55-11.11-69.92-16.26-20.54-4.52-40.54-10.55-59.52-19.73a145.15,145.15,0,0,1-37.27-26.34c-15.94-15.28-24-34.23-26.29-55.76-1.74-16.16-1.67-32.38,2.08-48.35,6.67-28.43,22.69-50.63,45.75-67.93,23.91-17.93,51.35-27,80.66-30.15,31.26-3.39,62.18-.89,92.34,8.57,37.13,11.64,65.47,34.2,84.41,68.4,1,1.83,2,3.71,2.82,5.62C3348.14,441.67,3348,442.34,3348,444.05Z"/><path class="b" d="M2252,831.05h-62.71c-2.32-150.43,3.63-300.41-5.58-449.92,7.49-2.27,53.06-3.25,63.59-1.41l1.94,60.3,2.06,0.59c1.66-2.28,3.36-4.54,5-6.85a196.3,196.3,0,0,1,40.82-42.8c22-17,47.09-25.64,74.68-27.71,13.24-1,26.32-.58,39.29,2.27,2.58,0.57,5.11,1.37,8.9,2.4l-8.35,59.68c-11.47-.39-21.88-1.39-32.25-1C2316.71,429,2272,466,2257.51,527a214,214,0,0,0-5.58,50q0.13,120.68,0,241.36v12.67Z"/><path class="d" d="M217.18,309.48c7.84,0.4,12.28,4.22,16.06,8.4,9.85,10.86,19.29,22.08,28.9,33.16,1.18,1.36,2.32,2.77,3.61,4,4.75,4.52,6.69,4.79,11.3.05,9.41-9.65,18.44-19.67,27.69-29.48a69,69,0,0,1,7.18-6.79c5.08-4,8.88-4.25,13.81-.3a182.45,182.45,0,0,1,35.73,37.72c4.57,6.53,4,12.11-1.9,18.71-8.19,9.16-16.64,18.08-24.93,27.15-3,3.31-5.93,6.75-8.89,10.13-2.59,3-2.51,5.9,0,8.88,2.13,2.52,4.13,5.14,6.3,7.62,10.09,11.48,20.34,22.81,30.3,34.4,7.92,9.21,7.68,14.2-1.3,22.11-7,6.12-14.55,11.5-21.62,17.49-5.25,4.45-10.11,9.35-15.16,14-6,5.61-9.3,5.83-15.43.21-4-3.63-7.33-7.89-11-11.82q-10.13-10.76-20.33-21.46c-2.47-2.61-5-5.17-7.39-7.85-5-5.64-6.32-5.85-11.61-1.05-7.76,7-15.28,14.38-23.18,21.26A222.61,222.61,0,0,1,217,510.48c-5,3.48-8.63,2.74-12.78-1.54q-16.56-17.07-33.06-34.2c-0.83-.86-1.69-1.71-2.47-2.62-6.3-7.42-5.77-11.87,1.26-18.41q17.45-16.21,34.42-32.92c6-5.9,6.12-6.59.8-13.64-9.74-12.91-19.89-25.52-29.87-38.25-1.66-2.12-3.5-4.11-5-6.32-3.67-5.27-4-10.77.17-15.81,3.78-4.62,7.65-9.31,12.21-13.09,8.76-7.26,18-14,27.16-20.69C212.33,311.14,215.55,310.23,217.18,309.48Z"/><path class="d" d="M611.07,512.55c-7.53.08-10.41-4-13.87-7.3q-16.31-15.39-32.71-30.68a91.32,91.32,0,0,0-7.76-6.12c-6.16-4.58-8.41-4.66-14,.76-10.76,10.43-21.25,21.13-31.87,31.71-1.91,1.9-3.8,3.84-5.87,5.56-3.65,3.05-7.6,3.19-11.64.71a101.8,101.8,0,0,1-34.55-34.7c-3.28-5.46-2.32-10.12,3.26-16.2,9.51-10.38,19.08-20.71,28.86-30.82,9.47-9.78,9.67-11,0-21-7.27-7.56-14.82-14.85-22.1-22.41a91.57,91.57,0,0,1-8.66-10.31c-4.66-6.55-4.78-12,.41-18,7.61-8.78,14.25-18.57,24.7-24.62,3.3-1.91,5.95-5,8.77-7.67,8.59-8.17,13.57-8.44,22.08.23q15.1,15.38,29.25,31.68c7.66,8.81,9.08,8.74,17.13.16,9.4-10,19.26-19.65,29.42-28.91,7.49-6.82,12.6-7.2,21-1a385.31,385.31,0,0,1,30.49,25.09c6.76,6.13,6.29,10.92-.08,17.69Q627,383.67,610.6,400.93c-7.32,7.7-7.65,10.17-.4,18.12,11.5,12.61,23.37,24.89,35.1,37.3,1.65,1.74,3.5,3.3,5.05,5.12,4.18,4.89,4.49,8.13.32,12.68-10.32,11.26-20.8,22.38-31.52,33.26C616.57,510,612.81,511.48,611.07,512.55Z"/><polygon class="b" points="3407.78 121.83 3636.51 458.76 3396.23 815.58 3509.47 815.58 3696.3 537.29 3877.12 815.58 4000 815.58 3756.88 458.76 3984.91 121.83 3869.52 121.83 3696.37 383.26 3530.07 121.83 3407.78 121.83"/></svg>