<svg xmlns="http://www.w3.org/2000/svg" xmlns:xlink="http://www.w3.org/1999/xlink" viewBox="0 0 736 736"><defs><style>.a{fill:url(#a);}.b{mask:url(#b);}.c{fill:#f9fbe7;}.d,.f,.g,.h,.i{fill:none;stroke-miterlimit:10;}.d,.h{stroke:#b2dfdb;}.d{stroke-width:16px;}.e{fill:#c8e6c9;}.f,.g{stroke:#fff;}.f{stroke-width:8px;}.g{stroke-width:6px;}.h{stroke-width:12px;}.i{stroke:#ffecb3;stroke-width:10px;}.j{fill:#ffd600;opacity:0.8;}</style><radialGradient id="a" cx="368" cy="368" r="368" gradientUnits="userSpaceOnUse"><stop offset="0" stop-color="#fff" stop-opacity="0.8"/><stop offset="0.39" stop-color="#fff" stop-opacity="0.79"/><stop offset="0.53" stop-color="#fff" stop-opacity="0.77"/><stop offset="0.63" stop-color="#fff" stop-opacity="0.72"/><stop offset="0.71" stop-color="#fff" stop-opacity="0.65"/><stop offset="0.78" stop-color="#fff" stop-opacity="0.57"/><stop offset="0.84" stop-color="#fff" stop-opacity="0.46"/><stop offset="0.9" stop-color="#fff" stop-opacity="0.33"/><stop offset="0.95" stop-color="#fff" stop-opacity="0.19"/><stop offset="0.99" stop-color="#fff" stop-opacity="0.02"/><stop offset="1" stop-color="#fff" stop-opacity="0"/></radialGradient><mask id="b" x="-38.2" y="-32.67" width="805.04" height="789.48" maskUnits="userSpaceOnUse"><circle class="a" cx="368" cy="368" r="368"/></mask></defs><title>map</title><g class="b"><rect class="c" width="736" height="736"/><polyline class="d" points="18 240.76 145 509 145 560.27 218.23 753.98"/><polygon class="e" points="100.24 222.66 313.87 128.91 330.39 158.48 455.61 99.35 484.3 114.15 499.09 120.22 527.88 119.35 561 105.26 605.72 193 568.8 235.87 521.82 254.13 554 364.56 236.42 470.06 186.3 384.54 120.61 277.85 100.24 222.66"/><polyline class="f" points="-28.09 569.28 230.28 479.72 752.37 302.6"/><line class="g" x1="272.96" y1="593.54" x2="648.7" y2="467.44"/><polyline class="g" points="631.78 751.17 510.83 384.54 510.83 384.54"/><line class="g" x1="614.85" y1="349.25" x2="648.7" y2="467.44"/><polyline class="g" points="172.08 499.89 206.6 654.28 244.53 746.75"/><polyline class="g" points="26.77 321.82 116.53 519.15 180.68 746.75"/><polyline class="g" points="100.24 483.33 34.67 506.04 40.81 524.89 34.23 534.54 -22.44 552.7"/><line class="g" x1="349.54" y1="439.26" x2="428.63" y2="673.32"/><line class="g" x1="153.96" y1="403.4" x2="307.47" y2="342.88"/><polygon class="g" points="561.04 58.82 554 75.41 561 105.26 605.72 193 622.39 195.95 729.4 162.18 736 152.53 736 122 700.46 36.74 689.93 32.35 588.17 50.77 561.04 58.82"/><polyline class="f" points="742.05 375.14 718.89 313.96 691.68 266.56 670.63 195.95 662.48 183.29"/><line class="g" x1="236.42" y1="586.81" x2="265.68" y2="574.12"/><line class="g" x1="265.68" y1="652.53" x2="292" y2="644.3"/><path d="M317.46,571.57a8.93,8.93,0,0,1,2.34.42l-0.1.36a8.59,8.59,0,0,0-2.36-.46Zm2.75,4.33a9.91,9.91,0,0,0-2.25-.45l0.1-.32a9.56,9.56,0,0,1,2.23.42Zm0.25,5.46a35.7,35.7,0,0,0,.25-4.27l0.33,0.1c0,1.35-.08,3.08-0.19,4.28Zm1-9.39a9.94,9.94,0,0,1-.61,2.52l-0.37-.07a10.31,10.31,0,0,0,.72-4.33l0.35,0a10.61,10.61,0,0,1-.05,1.54l5.6-2,0.12,0.33Zm6.48,2.43c0.29,1,.49,1.77.63,2.36l0.85-.3,0.12,0.33-0.9.32a2.68,2.68,0,0,1,.05,1.37,0.84,0.84,0,0,1-.58.52c-0.29.12-.89,0.3-1.46,0.45a1,1,0,0,0-.23-0.3c0.69-.18,1.31-0.39,1.52-0.46a0.52,0.52,0,0,0,.39-0.3,2.48,2.48,0,0,0,0-1.16L323,579.11c-0.1-.71-0.3-1.74-0.5-2.78l-1.1.39-0.12-.33,1.14-.4c-0.17-.89-0.38-1.8-0.55-2.54l5.27-1.86,0.08,0.24c0.26,0.85.47,1.59,0.66,2.23l1-.34L329,574Zm-5.7-.72c0.15,0.68.32,1.44,0.47,2.2l4.81-1.7q-0.27-.93-0.64-2.14Zm6,3.21c-0.12-.58-0.32-1.36-0.6-2.37l-4.83,1.71c0.17,0.89.34,1.75,0.46,2.42Zm-4.35-3.56a6.64,6.64,0,0,1,2,.93l-0.2.29a6.81,6.81,0,0,0-2-1Zm2.44,3.92a7.84,7.84,0,0,0-2-1.08l0.2-.25a7.57,7.57,0,0,1,2,1Z"/><path d="M328.94,568.64a15.26,15.26,0,0,1,3,2.61l-0.28.26a15.38,15.38,0,0,0-2.93-2.64Zm11.06,1.1,0.12,0.33-9.93,3.51-0.12-.33Zm-6.13,3.63a13.36,13.36,0,0,1-2,4.27,1.31,1.31,0,0,0-.33-0.17,11.71,11.71,0,0,0,2-4.1h0.37ZM332,566.61a15.83,15.83,0,0,1,2.55,2.93l-0.3.22a15.38,15.38,0,0,0-2.51-2.94Zm6-1.64a41.49,41.49,0,0,1-1.17,5.39l-0.34,0A34.82,34.82,0,0,0,337.6,565H338Zm-0.73,7.13a33.31,33.31,0,0,1,4.16,2l-0.16.27a31.14,31.14,0,0,0-4.18-2Z"/><path d="M346.33,570.37l0.15,0.32-3.77,2.5-0.2-.32,0.62-.38-1.4-4,0.33-.12,1.37,3.89,1.09-.73-1.73-4.91-1.62.57L340,564l3.44-1.21,1.13,3.2-1.49.53,0.69,1.95,1.59-.56,0.12,0.33-1.59.56,0.9,2.56Zm-5-3.59,2.78-1-0.9-2.54-2.78,1Zm7.59-5a9.65,9.65,0,0,1-.69,3.6,8.76,8.76,0,0,0,3.56,1.11,1.41,1.41,0,0,0-.12.35c-0.28,0-.55-0.07-0.82-0.13l1.35,3.82-0.33.12-0.15-.42-3.56,1.26,0.16,0.45L348,572l-1.39-3.92a10.77,10.77,0,0,1-.9,1,1.16,1.16,0,0,0-.33-0.2,9.61,9.61,0,0,0,2.42-3.38,10.81,10.81,0,0,1-2.15-1.67,8.35,8.35,0,0,1-.74,2.35,1.72,1.72,0,0,0-.36-0.13,9.42,9.42,0,0,0,.92-4.55l0.36,0c0,0.44,0,.89,0,1.32l2.8-1,0.07,0Zm-3.21,1.65A10.32,10.32,0,0,0,348,565.2a8.49,8.49,0,0,0,.62-3l-2.8,1Zm4.92,3.22a9.52,9.52,0,0,1-2.53-1,10.53,10.53,0,0,1-1.44,2.39Zm1,3.24-1-2.86-3.56,1.26,1,2.86Z"/><path d="M468.05,527.1c-0.3-1-.51-1.77-0.66-2.35l-0.84.31-0.12-.33,0.9-.33a2.66,2.66,0,0,1-.07-1.37,0.84,0.84,0,0,1,.57-0.53c0.29-.12.88-0.31,1.45-0.47a1,1,0,0,0,.24.3c-0.68.19-1.31,0.41-1.51,0.48a0.52,0.52,0,0,0-.38.31,2.49,2.49,0,0,0,0,1.16l5.31-2c0.11,0.71.32,1.74,0.54,2.77l1.09-.4,0.12,0.33-1.14.42c0.19,0.89.41,1.79,0.59,2.53l-5.24,1.94-0.09-.24c-0.27-.84-0.5-1.58-0.69-2.22l-1,.36-0.12-.33Zm-0.3-2.48c0.13,0.58.34,1.36,0.63,2.36l4.8-1.78c-0.19-.89-0.36-1.75-0.5-2.41Zm6,3.12c-0.16-.68-0.34-1.43-0.5-2.19l-4.78,1.77q0.29,0.93.67,2.13Zm0.81,1.7a10,10,0,0,1,.57-2.53l0.37,0.07a10.3,10.3,0,0,0-.66,4.34l-0.35.05a11,11,0,0,1,0-1.54L469,531.88l-0.12-.33Zm-4.92-5.2a7.8,7.8,0,0,0,2.06,1.05l-0.2.25a7.54,7.54,0,0,1-2.06-1Zm2.5,3.88a6.65,6.65,0,0,1-2-.91l0.2-.29a6.84,6.84,0,0,0,2,.93Zm3.3-8.09a35.73,35.73,0,0,0-.18,4.27l-0.33-.1c0-1.35,0-3.08.13-4.28Zm0.33,5.45a9.89,9.89,0,0,0,2.25.42l-0.1.32a9.62,9.62,0,0,1-2.24-.39Zm2.81,4.29a8.93,8.93,0,0,1-2.34-.39l0.1-.36a8.57,8.57,0,0,0,2.37.43Z"/><path d="M458.79,529.53a33.32,33.32,0,0,1-4.19-1.92l0.15-.28a31,31,0,0,0,4.21,1.95Zm-2.71,2.4L456,531.6l9.88-3.65,0.12,0.33Zm2.08,4.74a41.33,41.33,0,0,1,1.1-5.41l0.34,0a34.78,34.78,0,0,0-1.06,5.38h-0.38Zm5.94-1.72a15.82,15.82,0,0,1-2.59-2.89l0.3-.23a15.33,15.33,0,0,0,2.56,2.9Zm-1.94-6.74a13.31,13.31,0,0,1,1.94-4.3,1.28,1.28,0,0,0,.33.16,11.7,11.7,0,0,0-1.9,4.13h-0.37Zm5,4.66a15.25,15.25,0,0,1-3-2.56l0.27-.27a15.32,15.32,0,0,0,3,2.6Z"/><path d="M447.23,540a9.64,9.64,0,0,1,.63-3.61,8.76,8.76,0,0,0-3.58-1.06,1.47,1.47,0,0,0,.11-0.35c0.28,0,.55.07,0.82,0.12l-1.41-3.8,0.33-.12,0.15,0.42,3.54-1.31-0.17-.45,0.33-.12,1.44,3.9a10.84,10.84,0,0,1,.88-1,1.18,1.18,0,0,0,.33.2,9.62,9.62,0,0,0-2.37,3.42,10.78,10.78,0,0,1,2.18,1.64,8.34,8.34,0,0,1,.7-2.36,1.64,1.64,0,0,0,.36.12,9.42,9.42,0,0,0-.86,4.56l-0.36,0c0-.44,0-0.89,0-1.33l-2.79,1-0.07.05ZM444.42,532l1.05,2.85,3.54-1.31L448,530.64Zm1,3.23a9.53,9.53,0,0,1,2.54,1,10.55,10.55,0,0,1,1.41-2.41Zm5,3.15a10.25,10.25,0,0,0-2.24-1.74,8.5,8.5,0,0,0-.58,3l2.79-1Zm-0.67-6.94-0.15-.31,3.73-2.56,0.21,0.32-0.61.39,1.46,3.95-0.33.12-1.43-3.87-1.08.75,1.81,4.88,1.61-.59,1.18,3.18-3.42,1.26-1.18-3.18,1.48-.55-0.71-1.94-1.59.59-0.12-.33,1.59-.59-0.94-2.54Zm5,3.52-2.77,1,0.94,2.53,2.77-1Z"/><path d="M691.82,324c-0.28-1-.47-1.78-0.61-2.37l-0.85.29-0.11-.33,0.91-.31a2.67,2.67,0,0,1,0-1.37,0.84,0.84,0,0,1,.58-0.52c0.29-.11.89-0.29,1.46-0.44a1,1,0,0,0,.23.3c-0.69.17-1.32,0.37-1.52,0.44a0.52,0.52,0,0,0-.39.3,2.47,2.47,0,0,0,0,1.16l5.36-1.83c0.09,0.72.28,1.74,0.47,2.78l1.1-.38,0.11,0.33-1.15.39c0.17,0.89.36,1.8,0.53,2.54l-5.29,1.81-0.08-.24c-0.25-.85-0.46-1.59-0.64-2.24l-1,.33-0.11-.33Zm-0.24-2.49c0.11,0.58.3,1.37,0.57,2.38l4.85-1.66c-0.17-.89-0.32-1.75-0.44-2.42Zm5.93,3.27c-0.15-.69-0.3-1.44-0.45-2.2l-4.82,1.65q0.26,0.94.62,2.15Zm0.76,1.72a9.93,9.93,0,0,1,.64-2.51l0.37,0.08a10.31,10.31,0,0,0-.77,4.32l-0.35,0a11,11,0,0,1,.07-1.54l-5.62,1.92-0.11-.33Zm-4.79-5.32a7.84,7.84,0,0,0,2,1.1l-0.21.25a7.53,7.53,0,0,1-2-1.07Zm2.4,3.94a6.66,6.66,0,0,1-2-1l0.21-.29a6.86,6.86,0,0,0,2,1Zm3.5-8a35.77,35.77,0,0,0-.29,4.27l-0.33-.1c0-1.35.11-3.08,0.24-4.28Zm0.19,5.46a9.93,9.93,0,0,0,2.24.48l-0.11.32a9.58,9.58,0,0,1-2.23-.44Zm2.71,4.36a8.9,8.9,0,0,1-2.33-.44l0.11-.35a8.62,8.62,0,0,0,2.36.49Z"/><path d="M682.85,327.63c0.36-.53.74-1,1.15-1.51l-3.79,1.3-1.26-3.68,0.33-.11,0.16,0.46,3.78-1.29-0.17-.5,0.33-.11,1.14,3.34c0.42-.45.84-0.88,1.27-1.28a1.82,1.82,0,0,0,.39.17,17.64,17.64,0,0,0-1.53,1.49h0a17.22,17.22,0,0,0-1.24,1.54l3.17-1.08,0.11,0.33-2.54.87,0.4,1.17,2-.67,0.11,0.33-2,.67,0.29,0.86-0.33.11-0.29-.86-2.05.7-0.11-.33,2.05-.7-0.4-1.17-0.76.26a12.69,12.69,0,0,0-1.52,3l-0.36,0a13.44,13.44,0,0,1,1.38-2.83l-2.77.95-0.11-.33Zm-3.3-3.21,0.39,1.15,3.78-1.29-0.39-1.15Zm0.87,2.55,3.78-1.29-0.37-1.08-3.78,1.29Zm0.63,4.44,6.08-2.08,0.75,2.2-6.08,2.08Zm1,1.76,1.62-.56-0.53-1.54-1.62.56Zm2-.67,1.61-.55-0.53-1.54-1.61.55Zm1.94-.66,1.53-.52-0.53-1.54-1.53.52Zm0.24-8,2.17-.74-0.31-.91,0.33-.11,2.74,8-2.5.85Zm0.44,0.22,1.07,3.12,1.84-.63-1.07-3.12Zm4,5.81-1-3-1.84.63,1,3Z"/><path d="M670.68,336.44a9.65,9.65,0,0,1,.72-3.59,8.74,8.74,0,0,0-3.55-1.14,1.45,1.45,0,0,0,.12-0.35c0.28,0,.55.08,0.82,0.14l-1.31-3.83,0.33-.11L668,328l3.58-1.22-0.16-.45,0.33-.11,1.35,3.94a10.57,10.57,0,0,1,.91-0.94,1.17,1.17,0,0,0,.32.21,9.6,9.6,0,0,0-2.45,3.36,10.76,10.76,0,0,1,2.14,1.69,8.33,8.33,0,0,1,.76-2.34,1.65,1.65,0,0,0,.36.13,9.41,9.41,0,0,0-1,4.54l-0.36,0c0-.44,0-0.89.05-1.32l-2.81,1-0.07,0Zm-2.61-8.15,1,2.87,3.57-1.22-1-2.87Zm0.95,3.25a9.52,9.52,0,0,1,2.52,1,10.53,10.53,0,0,1,1.47-2.38Zm4.88,3.27a10.26,10.26,0,0,0-2.2-1.8,8.51,8.51,0,0,0-.65,3l2.81-1Zm-0.5-7-0.15-.32,3.79-2.46,0.2,0.32-0.62.38,1.36,4-0.33.11-1.34-3.9-1.1.72,1.68,4.92,1.62-.56,1.1,3.21-3.45,1.18-1.1-3.21,1.5-.51-0.67-2-1.6.55-0.11-.33,1.6-.55-0.88-2.56Zm4.92,3.64-2.79,1,0.87,2.55,2.79-1Z"/><path d="M291.9,458.3c-0.33-1-.55-1.75-0.71-2.33l-0.84.33-0.13-.32,0.89-.35a2.68,2.68,0,0,1-.1-1.37,0.84,0.84,0,0,1,.56-0.54c0.29-.12.88-0.33,1.44-0.5a1,1,0,0,0,.24.29c-0.68.2-1.3,0.43-1.5,0.51a0.52,0.52,0,0,0-.38.32,2.49,2.49,0,0,0,.07,1.16l5.27-2.08c0.13,0.71.36,1.73,0.6,2.75l1.08-.43,0.13,0.32-1.13.44c0.21,0.89.45,1.79,0.64,2.52l-5.2,2.05-0.09-.23c-0.29-.84-0.53-1.57-0.74-2.21l-1,.38-0.13-.32Zm-0.36-2.48c0.14,0.58.37,1.35,0.68,2.35L297,456.3c-0.21-.88-0.4-1.74-0.55-2.4Zm6.08,3c-0.18-.68-0.37-1.43-0.55-2.18l-4.74,1.87q0.31,0.92.72,2.12Zm0.84,1.68A9.93,9.93,0,0,1,299,458l0.37,0.06a10.33,10.33,0,0,0-.57,4.35l-0.35.06a10.74,10.74,0,0,1,0-1.54l-5.52,2.18-0.13-.32Zm-5-5.1a7.82,7.82,0,0,0,2.09,1l-0.19.26a7.51,7.51,0,0,1-2.08-1Zm2.58,3.83a6.64,6.64,0,0,1-2-.86l0.19-.3a6.84,6.84,0,0,0,2,.89Zm3.13-8.16a35.47,35.47,0,0,0-.09,4.28l-0.33-.09c-0.05-1.35,0-3.08,0-4.28Zm0.45,5.45a10,10,0,0,0,2.26.37l-0.09.32a9.58,9.58,0,0,1-2.25-.34Zm2.91,4.23a8.9,8.9,0,0,1-2.35-.34l0.09-.36a8.63,8.63,0,0,0,2.38.38Z"/><path d="M283.1,462.31c0.34-.55.69-1.06,1.07-1.56l-3.73,1.47L279,458.61l0.32-.13,0.18,0.46,3.72-1.47-0.19-.49,0.32-.13,1.29,3.28c0.4-.47.8-0.92,1.21-1.34a1.91,1.91,0,0,0,.4.15,17.57,17.57,0,0,0-1.46,1.56h0a17.26,17.26,0,0,0-1.16,1.59l3.11-1.23,0.13,0.32-2.5,1,0.45,1.15,1.93-.76,0.13,0.32-1.93.76,0.33,0.85-0.32.13-0.33-.85-2,.8-0.13-.32,2-.8-0.45-1.15-0.75.29a12.68,12.68,0,0,0-1.38,3.11l-0.36,0a13.46,13.46,0,0,1,1.25-2.89l-2.72,1.07-0.13-.32Zm-3.45-3.05,0.44,1.13,3.71-1.46-0.44-1.13Zm1,2.51,3.72-1.47-0.42-1.06-3.72,1.46Zm0.83,4.4,6-2.36,0.85,2.17-6,2.36Zm1.05,1.71,1.6-.63-0.6-1.52-1.6.63Zm1.92-.76,1.58-.62-0.6-1.52-1.58.63Zm1.91-.75,1.51-.59-0.6-1.52-1.51.59Zm-0.12-8,2.13-.84-0.35-.89,0.32-.13,3.1,7.87-2.45,1Zm0.45,0.2,1.21,3.07,1.81-.71-1.21-3.07Zm4.3,5.61-1.16-2.94L288,462l1.16,2.93Z"/><path d="M271.36,471.67a9.65,9.65,0,0,1,.56-3.62,8.76,8.76,0,0,0-3.6-1,1.47,1.47,0,0,0,.11-0.35c0.28,0,.55.05,0.83,0.1L267.76,463l0.32-.13,0.16,0.41,3.52-1.39-0.18-.45,0.32-.13,1.53,3.87a10.79,10.79,0,0,1,.86-1,1.13,1.13,0,0,0,.33.19,9.62,9.62,0,0,0-2.29,3.47,10.79,10.79,0,0,1,2.21,1.59,8.36,8.36,0,0,1,.65-2.37,1.64,1.64,0,0,0,.37.11,9.42,9.42,0,0,0-.76,4.58l-0.35,0c0-.44,0-0.89,0-1.32l-2.77,1.09-0.07.05Zm-3-8,1.11,2.82,3.51-1.39-1.11-2.82Zm1.1,3.2a9.48,9.48,0,0,1,2.56.9,10.61,10.61,0,0,1,1.36-2.44Zm5,3a10.24,10.24,0,0,0-2.28-1.69,8.48,8.48,0,0,0-.51,3.05l2.77-1.09ZM273.68,463l-0.16-.31L277.2,460l0.21,0.31-0.6.41,1.54,3.92-0.32.13L276.52,461l-1.06.77,1.91,4.84,1.6-.63,1.25,3.16-3.39,1.34-1.24-3.16,1.47-.58-0.76-1.92-1.57.62-0.13-.32,1.57-.62-1-2.52Zm5.08,3.41L276,467.48l1,2.51,2.75-1.08Z"/><path d="M48.45,539.15a8.89,8.89,0,0,1,2.32.49l-0.12.35a8.62,8.62,0,0,0-2.35-.53Zm2.62,4.41a10,10,0,0,0-2.23-.52l0.11-.31a9.6,9.6,0,0,1,2.22.49ZM51.15,549a35.7,35.7,0,0,0,.38-4.26l0.32,0.11c0,1.35-.17,3.08-0.32,4.27Zm1.3-9.36a10,10,0,0,1-.69,2.5l-0.37-.08a10.33,10.33,0,0,0,.85-4.3l0.35,0a10.94,10.94,0,0,1-.1,1.54l5.66-1.81,0.11,0.33Zm6.4,2.63c0.26,1,.43,1.79.56,2.38l0.86-.27,0.11,0.33-0.91.29a2.67,2.67,0,0,1,0,1.37,0.84,0.84,0,0,1-.59.5c-0.29.11-.89,0.27-1.47,0.41a1,1,0,0,0-.22-0.31c0.69-.16,1.32-0.35,1.53-0.41a0.52,0.52,0,0,0,.4-0.29,2.49,2.49,0,0,0,0-1.16l-5.39,1.72c-0.08-.72-0.24-1.75-0.41-2.79l-1.11.35-0.11-.33,1.15-.37c-0.15-.9-0.33-1.81-0.48-2.55l5.32-1.7,0.08,0.24c0.24,0.86.42,1.6,0.59,2.25l1-.31L59.86,542Zm-5.67-.89c0.13,0.69.27,1.45,0.41,2.21l4.86-1.55q-0.24-.94-0.58-2.16Zm5.87,3.39c-0.1-.59-0.28-1.37-0.52-2.39L53.65,544c0.15,0.9.28,1.76,0.39,2.43Zm-4.24-3.69a6.64,6.64,0,0,1,2,1l-0.21.28a6.85,6.85,0,0,0-2-1Zm2.32,4a7.78,7.78,0,0,0-2-1.14l0.21-.24a7.52,7.52,0,0,1,2,1.11Z"/><path d="M64.52,542.57l-2.18.7,0.29,0.91-0.33.11-2.57-8.05,2.51-.8Zm-4.36-6.11,1,3,1.85-.59-1-3Zm3.92,5.89-1-3.14-1.85.59,1,3.14Zm5.69-7.21-6.12,2-0.71-2.22,6.12-2Zm-4.85-.53-1.54.49,0.5,1.55,1.54-.49Zm3,4.27c-0.37.52-.76,1-1.17,1.48l3.82-1.22,1.18,3.7-0.33.11-0.15-.47-3.8,1.22,0.16,0.5-0.33.11L66.19,541c-0.43.44-.86,0.87-1.3,1.26a1.84,1.84,0,0,0-.38-0.18,17.81,17.81,0,0,0,1.56-1.46h0a17.17,17.17,0,0,0,1.27-1.51l-3.19,1-0.11-.33,2.56-.82-0.38-1.18-2,.63-0.11-.33,2-.63-0.28-.87,0.33-.11,0.28,0.87,2.07-.66L68.64,537l-2.07.66,0.38,1.18,0.77-.25a12.67,12.67,0,0,0,1.58-3l0.36,0a13.42,13.42,0,0,1-1.43,2.8l2.79-.89,0.11,0.33Zm-1-4.9-1.62.52,0.5,1.55,1.62-.52Zm3.44,5.6-3.8,1.21,0.35,1.09,3.8-1.21Zm0.82,2.57L70.77,541,67,542.22l0.37,1.15Zm-2.29-8.8-1.63.52,0.5,1.55,1.63-.52Z"/><path d="M77.35,538.84l0.14,0.32-3.85,2.39-0.19-.33,0.63-.36-1.28-4,0.33-.11,1.25,3.93,1.11-.69-1.58-5-1.63.52-1-3.23,3.47-1.11,1,3.23-1.51.48,0.63,2,1.61-.51,0.11,0.33L75,537.2l0.83,2.58ZM72.5,535.1l2.81-.9-0.82-2.57-2.81.9Zm7.74-4.78a9.68,9.68,0,0,1-.8,3.58A8.75,8.75,0,0,0,83,535.11a1.41,1.41,0,0,0-.13.34c-0.28,0-.54-0.09-0.82-0.15l1.23,3.86-0.33.11-0.14-.42L79.19,540l0.15,0.46-0.33.11-1.27-4a10.89,10.89,0,0,1-.93.92,1.12,1.12,0,0,0-.32-0.21A9.61,9.61,0,0,0,79,534a10.83,10.83,0,0,1-2.1-1.73,8.36,8.36,0,0,1-.81,2.32,1.68,1.68,0,0,0-.36-0.14,9.43,9.43,0,0,0,1.06-4.52l0.36,0c0,0.44,0,.89-0.08,1.32l2.83-.91,0.07,0ZM77,531.88a10.25,10.25,0,0,0,2.16,1.84,8.49,8.49,0,0,0,.71-3l-2.83.91Zm4.82,3.37a9.5,9.5,0,0,1-2.49-1.07,10.54,10.54,0,0,1-1.52,2.35Zm0.88,3.27-0.92-2.89-3.6,1.15,0.92,2.89Z"/><path d="M240.12,368.06l0.12,0.38-10.34,3.3-0.12-.38Z"/><path d="M244.43,366.77c0,0.62,0,1.33-.06,1.9l6-1.91s0,0.15,0,.21c0.33,2.19.32,3.12,0,3.62a1.15,1.15,0,0,1-.67.43c-0.33.11-1.1,0.34-1.93,0.53a0.81,0.81,0,0,0-.21-0.3c0.87-.18,1.7-0.43,2-0.52a0.87,0.87,0,0,0,.52-0.28c0.26-.4.3-1.28,0-3.23l-5.89,1.88h0l-0.21.07c0.08-.62.1-1.53,0.12-2.27l-2.57.82-0.11-.33,9.73-3.11,0.11,0.33Zm4.87-3.41-6.9,2.2-0.86-2.7,6.9-2.2Zm-1.09-2.26-6.24,2,0.65,2,6.24-2Z"/><path d="M257.94,366.1l0.14,0.32-3.85,2.39-0.19-.33,0.63-.36-1.28-4,0.33-.11,1.25,3.93,1.11-.69-1.58-5-1.63.52-1-3.23,3.47-1.11,1,3.23-1.51.48,0.63,2,1.61-.51,0.11,0.33-1.61.51,0.83,2.58Zm-4.85-3.74,2.81-.9-0.82-2.57-2.81.9Zm7.74-4.78a9.68,9.68,0,0,1-.8,3.58,8.75,8.75,0,0,0,3.52,1.22,1.41,1.41,0,0,0-.13.34c-0.28,0-.54-0.09-0.82-0.15l1.23,3.86-0.33.11-0.14-.42-3.6,1.15,0.15,0.46-0.33.11-1.27-4a10.89,10.89,0,0,1-.93.92,1.12,1.12,0,0,0-.32-0.21,9.61,9.61,0,0,0,2.52-3.31,10.83,10.83,0,0,1-2.1-1.73,8.36,8.36,0,0,1-.81,2.32,1.68,1.68,0,0,0-.36-0.14,9.43,9.43,0,0,0,1.06-4.52l0.36,0c0,0.44,0,.89-0.08,1.32l2.83-.91,0.07,0Zm-3.26,1.56a10.25,10.25,0,0,0,2.16,1.84,8.49,8.49,0,0,0,.71-3l-2.83.91Zm4.82,3.37a9.5,9.5,0,0,1-2.49-1.07,10.54,10.54,0,0,1-1.52,2.35Zm0.88,3.27-0.92-2.89-3.6,1.15,0.92,2.89Z"/><path d="M446.13,401.63a8.89,8.89,0,0,1,2.32.49l-0.12.35a8.58,8.58,0,0,0-2.35-.53Zm2.62,4.41a10,10,0,0,0-2.23-.52l0.11-.31a9.55,9.55,0,0,1,2.22.49Zm0.08,5.46a35.66,35.66,0,0,0,.38-4.26l0.32,0.11c0,1.35-.17,3.08-0.32,4.27Zm1.3-9.36a10,10,0,0,1-.69,2.5l-0.37-.08a10.34,10.34,0,0,0,.85-4.3l0.35,0a10.94,10.94,0,0,1-.1,1.54l5.66-1.81,0.11,0.33Zm6.4,2.63c0.26,1,.43,1.79.56,2.38l0.86-.27,0.11,0.33-0.91.29a2.67,2.67,0,0,1,0,1.37,0.84,0.84,0,0,1-.59.5c-0.29.11-.89,0.27-1.47,0.41a1,1,0,0,0-.22-0.31c0.69-.16,1.32-0.35,1.53-0.41a0.52,0.52,0,0,0,.4-0.29,2.49,2.49,0,0,0,0-1.16l-5.39,1.72c-0.08-.72-0.24-1.75-0.41-2.79l-1.11.35-0.11-.33,1.15-.37c-0.15-.9-0.33-1.81-0.48-2.55l5.32-1.7,0.08,0.24c0.24,0.86.42,1.6,0.59,2.25l1-.31,0.11,0.33Zm-5.67-.89c0.13,0.69.27,1.45,0.41,2.21l4.86-1.55q-0.24-.94-0.58-2.16Zm5.87,3.39c-0.1-.58-0.28-1.37-0.52-2.39l-4.88,1.56c0.15,0.9.28,1.76,0.39,2.43Zm-4.24-3.69a6.64,6.64,0,0,1,2,1l-0.21.28a6.87,6.87,0,0,0-2-1Zm2.32,4a7.8,7.8,0,0,0-2-1.14l0.21-.24a7.52,7.52,0,0,1,2,1.11Z"/><path d="M462.2,405l-2.18.7,0.29,0.91-0.33.11-2.57-8.05,2.51-.8Zm-4.36-6.11,1,3,1.85-.59-1-3Zm3.92,5.89-1-3.14-1.85.59,1,3.14Zm5.69-7.21-6.12,2-0.71-2.22,6.12-2Zm-4.85-.53-1.54.49,0.5,1.55,1.54-.49Zm3,4.27c-0.37.52-.76,1-1.17,1.48l3.82-1.22,1.18,3.7-0.33.11-0.15-.47-3.8,1.22,0.16,0.5-0.33.11-1.07-3.36c-0.43.44-.86,0.87-1.3,1.26a1.84,1.84,0,0,0-.38-0.18,17.81,17.81,0,0,0,1.56-1.46h0a17,17,0,0,0,1.27-1.51l-3.19,1-0.11-.33,2.56-.82-0.38-1.18-2,.63-0.11-.33,2-.63-0.28-.87,0.33-.11,0.28,0.87,2.07-.66,0.11,0.33-2.07.66,0.38,1.18,0.77-.25a12.69,12.69,0,0,0,1.58-3l0.36,0a13.41,13.41,0,0,1-1.43,2.8l2.79-.89,0.11,0.33Zm-1-4.9-1.62.52,0.5,1.55,1.62-.52Zm3.44,5.6-3.8,1.21,0.35,1.09,3.8-1.21Zm0.82,2.57-0.37-1.15-3.8,1.21,0.37,1.15Zm-2.29-8.8-1.63.52,0.5,1.55,1.63-.52Z"/><path d="M475,401.31l0.14,0.32L471.32,404l-0.19-.33,0.63-.36-1.28-4,0.33-.11,1.25,3.93,1.11-.7-1.58-5L470,398l-1-3.23,3.47-1.11,1,3.23-1.51.48,0.63,2,1.61-.51,0.11,0.33-1.61.51,0.83,2.58Zm-4.85-3.74,2.81-.9-0.82-2.57-2.81.9Zm7.74-4.78a9.68,9.68,0,0,1-.8,3.58,8.75,8.75,0,0,0,3.52,1.22,1.42,1.42,0,0,0-.13.34c-0.28,0-.54-0.09-0.82-0.15l1.23,3.86-0.33.11-0.14-.42-3.6,1.15,0.15,0.46-0.33.11-1.27-4a10.75,10.75,0,0,1-.93.92,1.1,1.1,0,0,0-.32-0.21,9.62,9.62,0,0,0,2.52-3.31,10.79,10.79,0,0,1-2.1-1.73,8.36,8.36,0,0,1-.81,2.32,1.73,1.73,0,0,0-.36-0.14,9.43,9.43,0,0,0,1.06-4.52l0.36,0c0,0.44,0,.89-0.08,1.32l2.83-.91,0.07,0Zm-3.26,1.56a10.25,10.25,0,0,0,2.16,1.84,8.48,8.48,0,0,0,.71-3l-2.83.91Zm4.82,3.37a9.54,9.54,0,0,1-2.49-1.07,10.54,10.54,0,0,1-1.52,2.35Zm0.88,3.27-0.92-2.89-3.6,1.15,0.92,2.89Z"/><path d="M558.1,535.74a35.42,35.42,0,0,0,4.26.42l-0.11.32c-1.35-.05-3.08-0.21-4.27-0.37Zm6.64,7.79c-1,.25-1.79.41-2.38,0.53l0.26,0.86-0.33.1L562,544.1a2.66,2.66,0,0,1-1.37,0,0.84,0.84,0,0,1-.5-0.6c-0.1-.29-0.26-0.9-0.39-1.47a1,1,0,0,0,.31-0.22c0.15,0.69.33,1.33,0.39,1.54a0.53,0.53,0,0,0,.29.4,2.5,2.5,0,0,0,1.16,0l-1.66-5.41c0.72-.07,1.75-0.22,2.79-0.38l-0.34-1.11,0.33-.1,0.36,1.16c0.9-.14,1.81-0.3,2.56-0.45l1.64,5.34-0.24.07c-0.86.23-1.61,0.4-2.26,0.57l0.3,1-0.33.1Zm-2.5.16c0.59-.09,1.38-0.26,2.39-0.5l-1.5-4.9-2.44.36ZM562,541.76a7.83,7.83,0,0,0,1.17-2l0.24,0.21a7.52,7.52,0,0,1-1.13,2Zm3.73-3.91-2.22.38,1.5,4.87,2.17-.55Zm-2.14-2.14a10,10,0,0,0,.55-2.23l0.31,0.12a9.54,9.54,0,0,1-.51,2.21Zm2.42,3.77a6.66,6.66,0,0,1-1,2l-0.28-.22a6.85,6.85,0,0,0,1-2Zm1.45-2.34a10,10,0,0,1-2.49-.72c0-.08.07-0.27,0.09-0.37a10.31,10.31,0,0,0,4.29.9l0,0.35a11,11,0,0,1-1.54-.12l1.74,5.68-0.33.1Zm0.57-4a8.92,8.92,0,0,1-.52,2.32l-0.35-.12a8.63,8.63,0,0,0,.56-2.34Z"/><path d="M563,551.56c0.18,0.58.48,0.59,2,.17a0.89,0.89,0,0,0-.05.39c-1.58.41-2,.41-2.29-0.46l-0.75-2.43c-0.27-.88-0.21-1.18.47-1.38l5.14-1.58,1.18,3.85-0.21.05c-2.12.5-2.86,0.6-3.2,0.43a0.77,0.77,0,0,1-.35-0.48c-0.06-.21-0.19-0.63-0.29-1.05a1,1,0,0,0,.3-0.21c0.1,0.49.23,0.95,0.28,1.11a0.39,0.39,0,0,0,.21.3c0.24,0.12,1,0,2.83-.39l-1-3.18-4.8,1.47c-0.39.12-.44,0.28-0.25,0.92Zm11.25,2-9.5,2.92a0.51,0.51,0,0,1-.7-0.23,10.29,10.29,0,0,1-.63-1.84,2.15,2.15,0,0,0,.27-0.26c0.25,0.89.47,1.59,0.55,1.78a0.27,0.27,0,0,0,.39.22l9.52-2.92Zm-8.14,0-0.1-.33,6.21-1.91,0.1,0.33Zm6.25-6.17c-0.2,0-.39-0.05-0.58-0.1a30.14,30.14,0,0,1-2.35,3.86l-0.27-.19a33,33,0,0,0,2.31-3.73,12.6,12.6,0,0,1-4.51-1.9A2.18,2.18,0,0,0,567,545a11.49,11.49,0,0,0,5.3,2Z"/><path d="M568,562l-0.32.13-2.34-3.87,0.33-.19,0.36,0.63,4-1.23,0.1,0.33-3.94,1.21,0.68,1.12,5-1.53-0.5-1.64,3.25-1,1.07,3.49-3.24,1L572,559l-2,.6,0.5,1.62-0.33.1-0.5-1.62-2.59.79Zm8.48,3a9.62,9.62,0,0,1-3.57-.84,8.77,8.77,0,0,0-1.26,3.51,1.43,1.43,0,0,0-.34-0.13c0-.28.1-0.54,0.16-0.82L567.59,568l-0.1-.33,0.42-.13-1.11-3.61-0.46.14-0.1-.33,4-1.22a11.09,11.09,0,0,1-.91-0.94,1.19,1.19,0,0,0,.22-0.32,9.6,9.6,0,0,0,3.28,2.56,10.79,10.79,0,0,1,1.76-2.08,8.33,8.33,0,0,1-2.31-.83,1.64,1.64,0,0,0,.14-0.36,9.42,9.42,0,0,0,4.51,1.12l0,0.36c-0.44,0-.89,0-1.32-0.1l0.87,2.84,0,0.07Zm-8.22,2.35,2.9-.89L570,562.88l-2.9.89Zm3.28-.84a9.49,9.49,0,0,1,1.1-2.48,10.52,10.52,0,0,1-2.33-1.54Zm0.26-9.3,0.87,2.82,2.58-.79-0.87-2.82Zm3.17,4.52a10.34,10.34,0,0,0-1.86,2.14,8.46,8.46,0,0,0,3,.75l-0.87-2.84Z"/><path d="M530.31,462.55a9.92,9.92,0,0,1,2.44.87c0,0.08-.08.27-0.11,0.36a10.31,10.31,0,0,0-4.23-1.17v-0.36a10.9,10.9,0,0,1,1.53.21l-1.38-5.77,0.34-.08Zm-0.82,4a8.92,8.92,0,0,1,.66-2.28l0.34,0.14a8.61,8.61,0,0,0-.71,2.3Zm3.91-10.15c1-.19,1.81-0.3,2.41-0.38l-0.21-.87,0.34-.08,0.22,0.93a2.66,2.66,0,0,1,1.37.09,0.84,0.84,0,0,1,.46.63c0.08,0.3.21,0.91,0.3,1.49a1,1,0,0,0-.32.2c-0.11-.7-0.25-1.35-0.3-1.56a0.52,0.52,0,0,0-.26-0.42,2.48,2.48,0,0,0-1.16-.09l1.32,5.5c-0.72,0-1.76.11-2.81,0.21l0.27,1.13-0.34.08-0.28-1.18c-0.91.08-1.83,0.19-2.58,0.29l-1.3-5.44,0.25-.06,2.29-.43-0.24-1,0.34-.08ZM532.09,462l2.24-.24-1.19-5-2.19.42Zm-0.18-1.65a6.62,6.62,0,0,1,1.14-1.89l0.27,0.23a6.85,6.85,0,0,0-1.16,1.88Zm2.18,3.92a9.94,9.94,0,0,0-.68,2.19l-0.3-.14a9.53,9.53,0,0,1,.65-2.18Zm1.81-7.87c-0.59.05-1.39,0.17-2.42,0.35l1.19,5,2.45-.21Zm0.16,1.94a7.82,7.82,0,0,0-1.29,1.93l-0.23-.23a7.54,7.54,0,0,1,1.25-1.93Zm3.49,6.26a36,36,0,0,0-4.22-.69l0.13-.32c1.34,0.14,3.06.4,4.24,0.64Z"/><path d="M524.51,445.73l9.67-2.32a0.52,0.52,0,0,1,.68.27,10.32,10.32,0,0,1,.51,1.88,2.2,2.2,0,0,0-.29.24c-0.19-.9-0.37-1.61-0.43-1.81a0.27,0.27,0,0,0-.38-0.24l-9.68,2.32ZM526,452c0.19,0,.39.08,0.58,0.13a30.27,30.27,0,0,1,2.59-3.7l0.26,0.21a32.76,32.76,0,0,0-2.53,3.58,12.66,12.66,0,0,1,4.38,2.18,2.19,2.19,0,0,0-.11.32,11.49,11.49,0,0,0-5.17-2.35V452Zm6.62-5.77,0.08,0.34-6.32,1.52-0.08-.34Zm3,2.2c-0.14-.59-0.45-0.62-2-0.3a0.91,0.91,0,0,0,.08-0.39c1.6-.31,2-0.28,2.26.61l0.59,2.47c0.21,0.9.14,1.19-.55,1.35l-5.22,1.25-0.94-3.92,0.21,0c2.14-.37,2.9-0.42,3.23-0.23a0.77,0.77,0,0,1,.32.5c0.05,0.21.15,0.64,0.22,1.07a1,1,0,0,0-.31.19c-0.07-.5-0.17-1-0.21-1.12a0.39,0.39,0,0,0-.19-0.31c-0.23-.13-1-0.1-2.85.21L531,453l4.89-1.17c0.4-.09.46-0.25,0.3-0.9Z"/><path d="M523,434.15a9.67,9.67,0,0,1,3.51,1.06,8.75,8.75,0,0,0,1.47-3.42,1.47,1.47,0,0,0,.33.16c-0.06.27-.13,0.54-0.21,0.8l3.94-.94,0.08,0.34-0.43.1,0.88,3.67,0.47-.11,0.08,0.34-4,1a10.83,10.83,0,0,1,.85,1,1.16,1.16,0,0,0-.24.3,9.62,9.62,0,0,0-3.12-2.76,10.76,10.76,0,0,1-1.88,2,8.37,8.37,0,0,1,2.26,1,1.7,1.7,0,0,0-.16.35,9.43,9.43,0,0,0-4.43-1.39v-0.36c0.44,0,.89.1,1.31,0.18L523,434.48l0-.08Zm1.31,3.36a10.28,10.28,0,0,0,2-2,8.5,8.5,0,0,0-2.95-.93l0.69,2.89Zm7,0.15,0.33-.12,2.1,4-0.34.17-0.32-.65-4.09,1-0.08-.34,4-1-0.61-1.16-5.06,1.21,0.4,1.67-3.3.79-0.85-3.54,3.3-.79,0.37,1.54,2-.48-0.39-1.64,0.34-.08,0.39,1.64,2.64-.63Zm-4.09,4.56-0.69-2.87-2.62.63,0.69,2.87Zm0.84-9.27a9.47,9.47,0,0,1-1.25,2.41,10.6,10.6,0,0,1,2.23,1.69Zm3.33-.64-3,.71,0.88,3.67,3-.71Z"/><path d="M637.33,418.54a0.54,0.54,0,0,1,.76.24,18.62,18.62,0,0,1,.67,2.09,2.59,2.59,0,0,0-.35.26c-0.25-1-.5-1.8-0.59-2.05s-0.17-.28-0.39-0.21l-7.3,2.13,2.44,8.37,8-2.33,0.1,0.33-8.34,2.43-0.92-3.14a18.88,18.88,0,0,0-2.35-.27V426c0.71,0.08,1.58.18,2.25,0.3l-1.61-5.53Zm0.21,7,0.85-.25,0.1,0.33L634,426.91l-1.31-4.5,3.67-1.07Zm-3.33,1,3-.87-1.12-3.83-3,.87Z"/><path d="M627.21,412.13a10.71,10.71,0,0,0-1.66,1.67l-0.23-.27a10.94,10.94,0,0,1,1.62-1.67Zm-0.76,4.54a10.85,10.85,0,0,1,3.37,1.84,1.22,1.22,0,0,0-.19.3,9.31,9.31,0,0,0-3.2-1.76v-0.38Zm7.3-10.29,0.33-.1,2.15,7.38-0.33.1-1-3.48-3.59,1,0.8,2.73-0.33.1-0.8-2.73-3.14.92,0.92,3.15-0.33.1-2-6.76,0.33-.1,1,3.26,3.14-.92L630,408.21l0.33-.1L631.2,411l3.59-1ZM629,415.77a11.7,11.7,0,0,1,1.76.54l6.18-1.8,0.1,0.33-5.74,1.68a12.9,12.9,0,0,1,2,1.1,2.27,2.27,0,0,0-.18.37,10.94,10.94,0,0,0-4.13-1.86v-0.35Z"/><path d="M621.85,397.51l0.85,2.9-0.33.1-0.85-2.9Zm2.54,5.34,0.51,1.76-0.33.1-0.51-1.76-1.65.48-0.1-.33,1.65-.48-0.52-1.77,0.33-.1,0.52,1.77,2-.58-0.59-2,0.33-.1,1.28,4.38-0.33.1-0.59-2Zm-1.2,2.8a10.17,10.17,0,0,1,3.22,1.52c-0.05.08-.13,0.23-0.18,0.32a8.52,8.52,0,0,0-3-1.45v-0.39Zm1.72-9.17,0.38,1.29,5.63-1.64a0.44,0.44,0,0,1,.62.19,9.56,9.56,0,0,1,.56,1.66,2.94,2.94,0,0,0-.31.25c-0.21-.81-0.39-1.42-0.46-1.6s-0.14-.22-0.3-0.17l-5.64,1.65,0.45,1.53-0.33.1-0.92-3.15Zm0.35,8.14a11.24,11.24,0,0,1,2.15.62l6.26-1.83,0.1,0.33-5.84,1.7a12,12,0,0,1,1.75,1,2,2,0,0,0-.17.35,10.74,10.74,0,0,0-4.27-1.78v-0.35Zm5.13-6.42c0.79,1.71,1.57,3.45,2.13,4.66l-0.33.16-1-2.17-2.22.65,0.57,1.95-0.33.1-0.57-1.95-1.69.49-0.1-.33,1.69-.49L628,399.32l0.33-.1,0.57,1.95,2.17-.63c-0.32-.72-0.65-1.47-1-2.23Z"/><path d="M585.29,482a9,9,0,0,1,2.34.42l-0.1.36a8.66,8.66,0,0,0-2.36-.46Zm2.75,4.33a9.91,9.91,0,0,0-2.25-.45l0.1-.32a9.56,9.56,0,0,1,2.23.42Zm0.25,5.46a35.7,35.7,0,0,0,.25-4.27l0.33,0.1c0,1.35-.08,3.08-0.19,4.28Zm1-9.39a9.93,9.93,0,0,1-.61,2.52l-0.37-.07a10.32,10.32,0,0,0,.72-4.33l0.35,0a10.61,10.61,0,0,1-.05,1.54l5.6-2,0.12,0.33Zm6.48,2.43c0.29,1,.49,1.77.63,2.36l0.85-.3,0.12,0.33-0.9.32a2.68,2.68,0,0,1,.05,1.37,0.84,0.84,0,0,1-.58.52c-0.29.12-.89,0.3-1.46,0.45a1,1,0,0,0-.23-0.3c0.69-.18,1.31-0.39,1.52-0.46a0.52,0.52,0,0,0,.39-0.3,2.48,2.48,0,0,0,0-1.16l-5.34,1.89c-0.1-.71-0.3-1.74-0.5-2.77l-1.1.39-0.12-.33,1.14-.4c-0.17-.89-0.38-1.8-0.55-2.54l5.27-1.86,0.08,0.24c0.26,0.85.47,1.59,0.66,2.23l1-.34,0.12,0.33Zm-5.7-.72c0.15,0.68.32,1.44,0.47,2.2l4.81-1.7q-0.27-.93-0.64-2.14Zm6,3.21c-0.12-.58-0.32-1.36-0.6-2.37l-4.83,1.71c0.17,0.89.34,1.75,0.46,2.42Zm-4.35-3.56a6.64,6.64,0,0,1,2,.93l-0.2.29a6.84,6.84,0,0,0-2-1Zm2.44,3.92a7.81,7.81,0,0,0-2-1.08l0.2-.25a7.6,7.6,0,0,1,2,1Z"/><path d="M596.76,479.08a15.22,15.22,0,0,1,3,2.61l-0.28.26a15.32,15.32,0,0,0-2.93-2.64Zm11.06,1.1,0.12,0.33L598,484l-0.12-.33Zm-6.13,3.63a13.36,13.36,0,0,1-2,4.27,1.31,1.31,0,0,0-.33-0.17,11.71,11.71,0,0,0,2-4.1h0.37ZM599.85,477A15.83,15.83,0,0,1,602.4,480l-0.3.22a15.35,15.35,0,0,0-2.51-2.94Zm6-1.64a41.49,41.49,0,0,1-1.17,5.39l-0.34,0a34.82,34.82,0,0,0,1.13-5.36h0.38Zm-0.73,7.13a33.31,33.31,0,0,1,4.16,2l-0.16.27a31.15,31.15,0,0,0-4.18-2Z"/><path d="M614.16,480.8l0.15,0.32-3.77,2.5-0.2-.32,0.62-.38-1.4-4,0.33-.12,1.37,3.89,1.09-.73-1.73-4.91-1.62.57-1.13-3.2,3.44-1.21,1.13,3.2-1.49.53,0.69,1.95,1.59-.56,0.12,0.33-1.59.56,0.9,2.55Zm-5-3.59,2.78-1-0.9-2.54-2.78,1Zm7.59-5a9.65,9.65,0,0,1-.69,3.6,8.76,8.76,0,0,0,3.56,1.11,1.42,1.42,0,0,0-.12.35c-0.28,0-.55-0.07-0.82-0.13l1.35,3.82-0.33.12-0.15-.42L616,481.91l0.16,0.45-0.33.12-1.39-3.92a10.89,10.89,0,0,1-.9,1,1.13,1.13,0,0,0-.33-0.2,9.63,9.63,0,0,0,2.42-3.38,10.85,10.85,0,0,1-2.15-1.67,8.34,8.34,0,0,1-.74,2.35,1.72,1.72,0,0,0-.36-0.12,9.43,9.43,0,0,0,.92-4.55l0.36,0c0,0.44,0,.89,0,1.32l2.8-1,0.07,0Zm-3.21,1.65a10.32,10.32,0,0,0,2.22,1.77,8.5,8.5,0,0,0,.62-3l-2.8,1Zm4.92,3.22a9.52,9.52,0,0,1-2.53-1,10.53,10.53,0,0,1-1.44,2.39Zm1,3.24-1-2.86-3.56,1.26,1,2.86Z"/><path d="M206.51,266.73c-0.46-.84-1.9-3.12-2.76-4.39v13.27H203V262a31.32,31.32,0,0,1-3.82,8.88,2.23,2.23,0,0,0-.5-0.55,31.32,31.32,0,0,0,4.13-10.1H199v-0.7h4V254h0.7v5.47h2.83v0.7h-2.83v1.18c0.65,0.82,2.78,4,3.24,4.75Zm12,8.06a1.65,1.65,0,0,0,.82-0.17,1.26,1.26,0,0,0,.36-0.86c0.07-.53.1-1.73,0.12-3.29a1.93,1.93,0,0,0,.65.36,27.9,27.9,0,0,1-.14,3.38,1.27,1.27,0,0,1-.58,1,2.41,2.41,0,0,1-1.15.24h-1.25a2.22,2.22,0,0,1-1.15-.29c-0.31-.19-0.41-0.48-0.41-2.06V263H210v3.79c0,2.9-.65,6.53-4.27,9.1a2.08,2.08,0,0,0-.46-0.55c3.48-2.45,4-5.81,4-8.54v-4.49h7.1v11.11a1.78,1.78,0,0,0,.24,1.3,1.36,1.36,0,0,0,.65.12h1.15Zm1.73-15.43h-13v-0.7h13v0.7Zm-7.1-1.3a28.3,28.3,0,0,0-2-3.82l0.55-.31a28.57,28.57,0,0,1,2,3.77Z"/><path d="M225.8,260.27a20,20,0,0,1-2.64,6.12l-0.6-.34a18.19,18.19,0,0,0,2.66-6Zm2.42-5.78v7.25c0,4.9-.43,9.86-4.44,13.9a2.52,2.52,0,0,0-.53-0.48c3.89-3.89,4.27-8.74,4.27-13.39v-7.27h0.7Zm2.28,5.93a26.78,26.78,0,0,1,1.92,5.81l-0.74.22a26.14,26.14,0,0,0-1.87-5.88Zm4.73-5.4v19h-0.7V255h0.7Zm2.11,5.11a25.31,25.31,0,0,1,3,5.83l-0.7.31a27.39,27.39,0,0,0-2.93-5.9Zm5.28-5.74v21h-0.7v-21h0.7Z"/><path d="M252.11,254.05h0.7v9.67c0,4.7-.43,8.78-3.89,12a1.69,1.69,0,0,0-.53-0.48c3.31-3.07,3.72-7.06,3.72-11.5v-9.67Zm-3,14.31h-0.67V256.79h0.67v11.57Zm12.5-12.19v3.77h5.33v11a0.73,0.73,0,0,1-.55.89,10.82,10.82,0,0,1-2.62.14,3.3,3.3,0,0,0-.31-0.67c1.2,0,2.11,0,2.4,0s0.38-.1.38-0.36V260.63h-4.63v15h-0.7v-15h-4.27V272.3h-0.7V259.93h5v-3.77h-6v-0.7h13.35v0.7h-6.6Z"/><path d="M277.76,257.2v2.71h-0.7V257.2h-5.86v-0.7h5.86v-2.42h0.7v2.42h7.56v-2.42H286v2.42h6v0.7h-6v2.71h-0.7V257.2h-7.56Zm-6.14,7.92a48,48,0,0,1,4.68,2l-0.36.6a45.4,45.4,0,0,0-4.7-2.11Zm0,9.86a74.5,74.5,0,0,0,5.66-6.14l0.38,0.48a79.29,79.29,0,0,1-5.57,6.26Zm5.5-11.45a46.16,46.16,0,0,0-4.49-2.69l0.41-.43a45.35,45.35,0,0,1,4.49,2.54Zm12.53,11c1.54,0,1.78-.62,1.94-3.62a3.07,3.07,0,0,0,.7.34c-0.17,3.12-.48,4-2.71,4h-7c-2.28,0-3-.34-3-2v-12h10.51v6.29a0.86,0.86,0,0,1-.74,1.06,27.1,27.1,0,0,1-4.18.14,2.33,2.33,0,0,0-.34-0.7c2.11,0,3.53,0,4,0s0.55-.14.55-0.48V261.9h-9.12v11.35c0,1,.38,1.32,2.16,1.32h7.18Z"/><path d="M306.42,262.1c1.73,5.93,5.16,10.85,9.91,12.94a4.26,4.26,0,0,0-.53.62c-4.85-2.33-8.33-7.37-10.1-13.56h-0.24c-1,5.11-3.5,10.7-10.13,13.58a3.87,3.87,0,0,0-.55-0.53c6.48-2.74,9-8.14,10-13.06h-9.53v-0.7h9.62a41.36,41.36,0,0,0,.53-7.3h0.7a48.62,48.62,0,0,1-.5,7.3h10.49v0.7h-9.65Z"/><path d="M340.16,268.34H329.91v6.14a0.93,0.93,0,0,1-.84,1.1,26.47,26.47,0,0,1-4.2.14,4.07,4.07,0,0,0-.38-0.7c2.18,0,3.65,0,4.13,0s0.6-.17.6-0.53v-6.17h-10v-0.7h10V265.7a23.15,23.15,0,0,0,5.64-2.9H322.93v-0.7h12.75l0.17,0,0.5,0.36a21.88,21.88,0,0,1-6.43,3.65v1.58h10.25v0.7Zm-19.61-5.83h-0.7v-4.25h14.52a28.86,28.86,0,0,0,2.86-4.06l0.65,0.38a34.52,34.52,0,0,1-2.71,3.67h4.42v4.25h-0.7V259H320.55v3.55Zm3.5-4.37a17.76,17.76,0,0,0-2.45-3.53l0.58-.29a16.25,16.25,0,0,1,2.42,3.43Zm6.1,0a16.39,16.39,0,0,0-2-4l0.6-.22a15.76,15.76,0,0,1,2,3.91Z"/><path d="M681.88,241.11a0.36,0.36,0,0,1-.48-0.12,6.36,6.36,0,0,1-.44-1.23,1,1,0,0,0,.25-0.21c0.15,0.54.3,1,.34,1.11s0.1,0.16.21,0.12l4-1.22-2.55-8.3-4.51,1.38-0.1-.33,4.84-1.48,2.75,9Zm0.2-2.47-1.34-4.37-0.68.21-0.1-.33,2.83-.87,1.44,4.7Zm0.48-4.93-1.49.46,1.24,4,1.49-.46Zm6.14,3.79-2.13.65L684.68,232l2.13-.65Zm-0.43-.23-1.68-5.47-1.47.45,1.68,5.47Zm2.2,1.73-0.33.1-3.06-10,0.33-.1,1.53,5c0.35-.22.81-0.52,1.16-0.79l0.12,0.24c-0.38.31-.86,0.64-1.19,0.86Z"/><path d="M686.72,247.79c-0.4-.88-0.8-1.79-1.18-2.63l-2.27.7a0.39,0.39,0,0,1-.54-0.15,7.19,7.19,0,0,1-.51-1.41,1.24,1.24,0,0,0,.29-0.24c0.19,0.69.35,1.17,0.41,1.33s0.11,0.18.24,0.14l2.22-.68-1.08-2.39,0.33-.16c0.28,0.64.66,1.5,1.09,2.45l1-.32h0a8.11,8.11,0,0,0,1.77,1.31L688,244a13,13,0,0,1-2.4-1.68,1.64,1.64,0,0,0,.18-0.37,11,11,0,0,0,2.07,1.56l-0.34-1.11,0.33-.1,0.45,1.48a13.65,13.65,0,0,0,1.41.64l-1-3.36,0.33-.1,0.69,2.25,1.5-.46L690.67,241l0.33-.1,0.53,1.73,1.38-.42,0.1,0.33-1.38.42,0.53,1.73-0.33.1L691.3,243l-1.5.46,0.32,1a13.59,13.59,0,0,0,3.44.7v0.37a14.63,14.63,0,0,1-3.31-.64l0.45,1.48-0.33.1-0.53-1.73a11.47,11.47,0,0,1-1.4-.6l0.53,1.73,0,0.06-0.09.29a7.92,7.92,0,0,1-2.19-1.5l-0.87.27,1.21,2.63Zm5.9,2.48a14.24,14.24,0,0,1-5.38-.08,6.27,6.27,0,0,0-1.91,3.25,1,1,0,0,0-.36-0.18,6.87,6.87,0,0,1,1.88-3.17,8,8,0,0,1-3.51-2.12,1.53,1.53,0,0,0,.21-0.33,7.57,7.57,0,0,0,3.59,2.17,17.39,17.39,0,0,1,3.79-2.58,11.54,11.54,0,0,1-2.33-.4,2.28,2.28,0,0,0,.11-0.38,13.5,13.5,0,0,0,5.6.34l0,0.36a20.33,20.33,0,0,1-2.28.12L693.2,251l-0.33.1Zm-0.92-3h-0.12a17.66,17.66,0,0,0-4,2.63,14.4,14.4,0,0,0,5,0Z"/><path d="M688.77,258.18l-0.32.14-2.34-3.87,0.33-.19,0.36,0.63,4-1.23,0.1,0.33L687,255.19l0.68,1.12,5-1.53-0.5-1.64,3.24-1,1.07,3.49-3.25,1-0.46-1.51-2,.6,0.5,1.62-0.33.1-0.5-1.62-2.59.79Zm8.48,3a9.65,9.65,0,0,1-3.57-.84,8.76,8.76,0,0,0-1.26,3.51,1.4,1.4,0,0,0-.34-0.13c0-.28.1-0.54,0.16-0.82l-3.87,1.19-0.1-.33,0.42-.13L687.59,260l-0.46.14-0.1-.33,4-1.22a10.68,10.68,0,0,1-.92-0.94,1.15,1.15,0,0,0,.22-0.32,9.62,9.62,0,0,0,3.28,2.56,10.78,10.78,0,0,1,1.76-2.08A8.36,8.36,0,0,1,693,257a1.66,1.66,0,0,0,.14-0.36,9.43,9.43,0,0,0,4.51,1.11l0,0.36c-0.44,0-.89,0-1.32-0.1l0.87,2.84,0,0.07ZM689,263.52l2.9-.89L690.82,259l-2.9.89Zm3.28-.84a9.53,9.53,0,0,1,1.1-2.48,10.49,10.49,0,0,1-2.33-1.54Zm0.26-9.3,0.87,2.82,2.58-.79-0.87-2.82Zm3.17,4.52a10.29,10.29,0,0,0-1.87,2.14,8.5,8.5,0,0,0,3,.75L696,257.94Z"/><line class="d" x1="-35" y1="263.93" x2="626.77" y2="-25.34"/><polyline class="d" points="98.48 -20.32 111 124.31 129.82 191.88"/><line class="h" x1="479" y1="39" x2="479" y2="-25"/><polyline class="g" points="-28.09 338 26.77 321.82 113.61 282.35 138.18 266.56"/><path d="M45.92,306.71c0,0.11,0,.22-0.08.32a12.79,12.79,0,0,0,6.43,1.33,1.43,1.43,0,0,0-.12.36,13.35,13.35,0,0,1-6.4-1.41,17.32,17.32,0,0,1-3.27,5.79,1.66,1.66,0,0,0-.34-0.13,16.05,16.05,0,0,0,3.45-6.29h0.33Zm2.24,5.55,4.38-1.9,0.14,0.32-4.38,1.9,1.51,3.5a0.45,0.45,0,0,1-.13.64,9.49,9.49,0,0,1-1.66.78,1.17,1.17,0,0,0-.28-0.25c0.81-.33,1.44-0.61,1.61-0.7s0.22-.16.14-0.34L48,312.72l-4.48,1.94-0.14-.32,4.48-1.94-0.78-1.81-2.79,1.2-0.14-.32,5.78-2.5,0.14,0.32-2.67,1.16Zm-1.52,2.34a12.14,12.14,0,0,1-1.49,3.59,1.92,1.92,0,0,0-.37-0.09,10.72,10.72,0,0,0,1.5-3.47Zm3.88-1.87A17.71,17.71,0,0,1,54,314l-0.15.34A17.17,17.17,0,0,0,50.36,313Z"/><path d="M57.63,308.48c-0.38-.29-1.49-1.05-2.14-1.47l2.63,6.09-0.32.14L55.1,307a15.65,15.65,0,0,1,0,4.83,1.14,1.14,0,0,0-.34-0.15,15.64,15.64,0,0,0-.11-5.45L52.9,307l-0.14-.32,1.85-.8-1.09-2.51,0.32-.14,1.09,2.51,1.3-.56,0.14,0.32-1.3.56,0.23,0.54c0.46,0.25,2.06,1.26,2.43,1.54Zm4.81-6.09-6,2.58-0.14-.32,6-2.59Zm-3.52.81a14.19,14.19,0,0,0-1.68-1.35l0.19-.25a14.23,14.23,0,0,1,1.68,1.32Zm5.79,6.61a0.84,0.84,0,0,0,.34-0.24,0.63,0.63,0,0,0,0-.47c-0.07-.26-0.3-0.81-0.6-1.53a1,1,0,0,0,.37,0,14,14,0,0,1,.61,1.58,0.63,0.63,0,0,1-.07.57,1.2,1.2,0,0,1-.48.34l-0.57.25a1.11,1.11,0,0,1-.59.1c-0.18,0-.28-0.14-0.6-0.87l-2-4.65-2.62,1.13,0.75,1.74a5.2,5.2,0,0,1-.15,5,1.05,1.05,0,0,0-.32-0.16,4.81,4.81,0,0,0,.15-4.72L58,305.88l3.26-1.41,2.2,5.1a0.89,0.89,0,0,0,.37.55,0.69,0.69,0,0,0,.32-0.07Z"/><path d="M68.93,305l-2.71,2.69L66,307.42c0.37-.34.84-0.8,1.36-1.29l-1.86-4.29-1.53.66-0.14-.32,1.53-.66-1.14-2.64,0.32-.14,1.14,2.64,1.45-.63,0.14,0.32-1.45.63,1.8,4.16,1.16-1.13Zm-1.54-5.7,1,2.41c0.74,1.71,1.6,4.16,1.14,6.39a1,1,0,0,0-.34-0.1c0.43-2.17-.4-4.48-1.12-6.15l-1.18-2.73,2.9-1.25a7.82,7.82,0,0,0-1.25-.92l0.2-.23a7.62,7.62,0,0,1,1.33,1l-0.07.11,3-1.29,0.14,0.32Zm4.83,3,0.46,1.06,2.06-.89L76,305.38l-0.32.14-0.19-.43-3.75,1.62,0.2,0.45-0.32.14-1.28-3,2-.86-0.46-1.06-2,.87L69.73,303l2-.87L71.27,301l-2.38,1-0.14-.32,2.38-1-0.46-1.06-2,.85-0.14-.32,2-.85-0.42-1,0.34-.15,0.41,1,2-.87,0.59,1.38,0.83-.36,0.14,0.32-0.83.36,0.61,1.41Zm2.33,0.62-3.75,1.62,0.8,1.86,3.75-1.62Zm-3.08-2.35,1.68-.73-0.46-1.06L71,299.5ZM72.08,302l1.68-.73-0.47-1.09-1.68.73Z"/><path d="M74.36,294.55c0.86,0.06,2,.18,2.63.27l-0.07.36c-0.62-.1-1.76-0.24-2.65-0.32Zm3.19,3.86a24.3,24.3,0,0,0-2.53-.34l0.1-.32c0.81,0.07,1.91.19,2.5,0.31Zm6.52-7-0.91.4,3.51,8.12a0.57,0.57,0,0,1-.19.83,18.7,18.7,0,0,1-2.24,1,2.18,2.18,0,0,0-.32-0.28c1.08-.44,2-0.85,2.25-1a0.31,0.31,0,0,0,.18-0.48L82.83,292l-5.94,2.57-0.14-.32,7.18-3.1Zm-6,12.66a35.06,35.06,0,0,0,.53-4.54l0.34,0.12c-0.08,1.41-.27,3.27-0.49,4.52Zm2.55-4.26,0.35,0.81-0.32.14-2-4.71,3.28-1.42,1.69,3.9ZM79,296.25l1.41,3.26,2.64-1.14-1.41-3.26Z"/><path d="M90.37,289.35c0.18,0.56.36,1.13,0.49,1.58L95,289.14l2.69,6.21a0.49,0.49,0,0,1-.11.7,12.23,12.23,0,0,1-1.77.84,2.1,2.1,0,0,0-.3-0.3c0.86-.33,1.53-0.64,1.72-0.73s0.22-.18.14-0.36l-2.55-5.9-7.43,3.21,2.8,6.47-0.32.14-2.94-6.79,3.63-1.57c-0.13-.44-0.3-1-0.5-1.58l-4.58,2-0.14-.32,4.61-2c-0.16-.49-0.34-1-0.48-1.36l0.35-.09c0.14,0.41.29,0.85,0.44,1.31l4.7-2,0.14,0.32ZM93,295.27l1,2.26-0.32.14-1-2.26-2.72,1.18-0.14-.32,2.72-1.18-0.66-1.52-2.49,1.08-0.14-.32,3.47-1.5a16.28,16.28,0,0,0,.12-2.05h0.35a17.69,17.69,0,0,1-.15,1.92l1.71-.74,0.14,0.32-2.69,1.16,0.66,1.52,2.84-1.23L95.82,294Zm-3.49-3a5.31,5.31,0,0,1,1.38,1.08l-0.22.24a5.56,5.56,0,0,0-1.37-1.09Z"/><path d="M103.14,291.32l0.17,0.3-3.59,2.76-0.22-.31,0.59-.42-1.67-3.86,0.32-.14,1.64,3.79,1-.8-2.07-4.78-1.57.68-1.35-3.12L99.76,284l1.35,3.12-1.45.63,0.82,1.89,1.55-.67,0.14,0.32-1.55.67,1.08,2.49Zm-5.19-3.24,2.71-1.17-1.07-2.48-2.71,1.17Zm7.23-5.52a9.66,9.66,0,0,1-.44,3.64,8.76,8.76,0,0,0,3.63.86,1.44,1.44,0,0,0-.1.35c-0.28,0-.55,0-0.83-0.07l1.61,3.72-0.32.14-0.18-.41-3.47,1.5,0.19,0.44-0.32.14-1.65-3.82a10.82,10.82,0,0,1-.83,1,1.15,1.15,0,0,0-.34-0.18,9.6,9.6,0,0,0,2.18-3.54,10.83,10.83,0,0,1-2.26-1.52,8.35,8.35,0,0,1-.57,2.39,1.65,1.65,0,0,0-.37-0.1,9.44,9.44,0,0,0,.61-4.6l0.35-.06c0,0.44.06,0.89,0,1.32l2.73-1.18,0.07-.06Zm-3.08,1.87a10.25,10.25,0,0,0,2.33,1.62,8.5,8.5,0,0,0,.41-3.07l-2.73,1.18v0.27Zm5.13,2.88a9.48,9.48,0,0,1-2.59-.81,10.54,10.54,0,0,1-1.28,2.49Zm1.2,3.17-1.21-2.79-3.47,1.5,1.21,2.79Z"/><polyline class="f" points="244.53 746.75 319.75 718.32 230.28 479.72 113.61 282.35 53.09 147.26 18 24.89 41.68 10.42 31.86 -12.91"/><path d="M88.53,230.61a23.81,23.81,0,0,1-3.35-2,9.61,9.61,0,0,0,.1,4.34,1.54,1.54,0,0,0-.39-0.07,9.19,9.19,0,0,1,1.48-7.6l-1-2-3.7,1.87,2.23,2.42a1.35,1.35,0,0,0-.28.19c-2.29-2.46-2.54-2.69-2.76-2.81A1.47,1.47,0,0,0,81,224.6a0.79,0.79,0,0,0,.83,0l7.63-3.86,1.69,3.34a7.33,7.33,0,0,0,.84-0.94l0.23,0.25a8.11,8.11,0,0,1-.91,1l1.55,3.06-4.33,2.18-2-4.06a7.72,7.72,0,0,0-1.27,2.7,23.88,23.88,0,0,0,3.33,1.93Zm-2.88-7.51,3.09,6.11,1.71-.87-3.09-6.11Zm3.7-1.87-1.68.85,3.09,6.11,1.68-.85Z"/><path d="M88.81,236.16L87.74,234l-1,.5-0.16-.31,8.07-4.08,1.23,2.44Zm2.28,7.54-0.31.16L87.29,237l0.31-.16,1.67,3.3,2-1L90,236.54l0.31-.16,1.28,2.54,1.48-.75,0.16,0.31-1.48.75,1.33,2.63-0.31.16-1.33-2.63-2,1Zm-2.12-8,2-1L90,232.87l-2,1Zm1.38-3,0.92,1.82,1.94-1-0.92-1.82ZM94,237.05a18.68,18.68,0,0,1-2.91-1.37,2.07,2.07,0,0,0,.09-0.38A13.85,13.85,0,0,0,94,236.7Zm0.47-6.44-1.91,1,0.92,1.82,1.91-1Zm2,10-3.15-6.24,0.31-.16,1.45,2.87,1.58-.8-1.24-2.45,0.31-.16L97,236.17l1.26-.64,0.16,0.31-1.26.64L98.47,239l-0.31.16-1.28-2.54-1.58.8,1.55,3.06Zm-2.45.93a27.92,27.92,0,0,0,.63-3L95,238.7a24.57,24.57,0,0,1-.59,3Z"/><path d="M94.88,248l-0.29.19-3-3.42,0.29-.24L92.38,245l3.76-1.9,0.16,0.31-3.68,1.86,0.86,1L98.12,244l-0.77-1.53,3-1.53,1.64,3.25-3,1.53-0.71-1.41-1.84.93,0.76,1.51-0.31.16-0.76-1.51-2.42,1.22Zm8.87,1.51a9.65,9.65,0,0,1-3.66-.22,8.75,8.75,0,0,0-.65,3.67,1.44,1.44,0,0,0-.36-0.07c0-.28,0-0.55,0-0.83l-3.62,1.83-0.16-.31,0.4-.2L94,250l-0.43.22-0.16-.31L97.16,248a10.54,10.54,0,0,1-1.06-.77,1.14,1.14,0,0,0,.16-0.35,9.62,9.62,0,0,0,3.67,2,10.82,10.82,0,0,1,1.38-2.35,8.38,8.38,0,0,1-2.42-.43,1.68,1.68,0,0,0,.08-0.38,9.42,9.42,0,0,0,4.63.34l0.08,0.35c-0.44.06-.88,0.11-1.32,0.13l1.34,2.66,0.06,0.06v0.26ZM96,253.18l2.71-1.37L97,248.44l-2.71,1.37Zm3.09-1.39a9.5,9.5,0,0,1,.66-2.63A10.55,10.55,0,0,1,97.23,248Zm-1.32-9.21,1.33,2.63,2.41-1.22-1.33-2.63Zm3.89,3.92a10.27,10.27,0,0,0-1.48,2.42,8.49,8.49,0,0,0,3.08.23L102,246.51H101.7Z"/><path d="M210.7,441.69a23.86,23.86,0,0,1,3.42,1.85,9.62,9.62,0,0,0-.26-4.34,1.55,1.55,0,0,0,.39.06,9.2,9.2,0,0,1-1.2,7.65l1.11,2,3.63-2-2.32-2.34a1.33,1.33,0,0,0,.27-0.21c2.38,2.37,2.64,2.6,2.86,2.71a1.48,1.48,0,0,0-.21.35,0.79,0.79,0,0,0-.83,0l-7.49,4.13-1.81-3.28a7.36,7.36,0,0,0-.81,1l-0.24-.24a8.18,8.18,0,0,1,.87-1.06l-1.66-3,4.24-2.34,2.2,4a7.72,7.72,0,0,0,1.17-2.74,23.73,23.73,0,0,0-3.4-1.81Zm-0.48,9.4,1.65-.91-3.31-6-1.65.91Zm3.63-2-3.31-6-1.68.93,3.31,6Z"/><path d="M202.33,431.94l3.38,6.12-0.3.17-1.55-2.81-1.55.86,1.33,2.4-0.3.17-1.33-2.4-1.24.68-0.17-.3,1.24-.68-1.37-2.49,0.3-.17,1.37,2.49,1.55-.86-1.66-3Zm7.87,4.22,1.15,2.09,1-.54,0.17,0.3-7.92,4.37L203.27,440Zm-5.48,5.75,1.87-1-1-1.79-1.87,1Zm0-11a28.11,28.11,0,0,0-.52,3l-0.29-.11a24.7,24.7,0,0,1,.48-3Zm0.21,4.53a18.7,18.7,0,0,1,3,1.26,2.05,2.05,0,0,0-.08.38A13.84,13.84,0,0,0,205,435.8Zm2.7-6.75,0.3-.17,3.74,6.77-0.3.17-1.79-3.23-2,1.09,1.37,2.49-0.3.17-1.37-2.49-1.45.8-0.17-.3,1.45-.8-1.43-2.58,0.3-.17,1.43,2.58,2-1.09Zm1.14,11-1-1.79-1.9,1,1,1.79Zm1.27-3-2,1.08,1,1.79,2-1.08Z"/><path d="M194.79,423.39a9.65,9.65,0,0,1,3.66.09,8.76,8.76,0,0,0,.51-3.69,1.4,1.4,0,0,0,.36.06c0,0.28,0,.55,0,0.83l3.55-2,0.17,0.3-0.39.21,1.83,3.31,0.42-.23,0.17,0.31-3.64,2a10.86,10.86,0,0,1,1.09.73,1.15,1.15,0,0,0-.15.36,9.63,9.63,0,0,0-3.74-1.83,10.76,10.76,0,0,1-1.29,2.4,8.39,8.39,0,0,1,2.44.34,1.66,1.66,0,0,0-.07.38,9.43,9.43,0,0,0-4.64-.17l-0.09-.34c0.44-.08.88-0.14,1.31-0.18l-1.44-2.6-0.06-.06v-0.26Zm2.16,2.89a10.27,10.27,0,0,0,1.39-2.48,8.51,8.51,0,0,0-3.09-.12l1.44,2.6H197Zm6.76-1.7,0.29-.2,3.09,3.31-0.28.25-0.48-.54-3.69,2-0.17-.3,3.61-2-0.9-1-4.56,2.51,0.83,1.5-3,1.64-1.76-3.19,3-1.64,0.77,1.38,1.81-1-0.82-1.48,0.3-.17,0.82,1.48,2.37-1.31ZM201,430.06l-1.42-2.58-2.36,1.3,1.43,2.58Zm-1.65-9.15a9.51,9.51,0,0,1-.56,2.65,10.53,10.53,0,0,1,2.6,1Zm3-1.5-2.66,1.47,1.83,3.31,2.66-1.47Z"/><path d="M277.14,609.13a23.81,23.81,0,0,1-2.93-2.56,9.63,9.63,0,0,0-.7,4.29,1.56,1.56,0,0,0-.37-0.14,9.2,9.2,0,0,1,2.85-7.2l-0.64-2.2-4,1.16,1.75,2.79a1.31,1.31,0,0,0-.31.14c-1.8-2.84-2-3.11-2.2-3.27a1.48,1.48,0,0,0,.28-0.29,0.79,0.79,0,0,0,.81.18l8.21-2.38,1,3.59a7.39,7.39,0,0,0,1-.77l0.18,0.28a8.09,8.09,0,0,1-1.08.84l1,3.29-4.65,1.35-1.27-4.37a7.71,7.71,0,0,0-1.75,2.42,23.72,23.72,0,0,0,2.92,2.51Zm-1.45-7.91,1.91,6.58,1.84-.54-1.91-6.58Zm4-1.16-1.81.53,1.91,6.58,1.81-.52Z"/><path d="M276.41,614.63l-0.67-2.29-1.07.31-0.1-.33,8.68-2.52,0.76,2.63Zm0.85,7.83-0.33.1-2.16-7.43,0.33-.1,1,3.55,2.17-.63-0.79-2.73,0.33-.1,0.79,2.73,1.59-.46,0.1,0.33-1.59.46,0.82,2.83-0.33.1-0.82-2.83-2.17.63Zm-0.61-8.26,2.14-.62-0.57-2-2.14.62Zm1.91-2.68,0.57,2,2.08-.61-0.57-2Zm2.82,5a18.67,18.67,0,0,1-2.61-1.88,2.09,2.09,0,0,0,.16-0.36,13.83,13.83,0,0,0,2.47,1.88Zm-0.79,4.46a27.86,27.86,0,0,0,1.17-2.84l0.26,0.17a24.37,24.37,0,0,1-1.13,2.83ZM283,610.22l-2,.6,0.57,2,2.05-.6Zm0.14,10.25-2-6.71,0.33-.1,0.9,3.09,1.7-.49-0.77-2.64,0.33-.1,0.77,2.64,1.36-.39,0.1,0.33-1.36.39,0.79,2.73-0.33.1-0.79-2.73-1.7.49,1,3.29Z"/><path d="M280.2,627.35l-0.32.13-2.28-3.91,0.33-.18,0.35,0.64,4-1.17,0.1,0.33-4,1.15,0.67,1.13,5-1.45-0.48-1.65,3.26-.95,1,3.5-3.26.95-0.44-1.52-2,.58,0.47,1.62-0.33.1L281.9,625l-2.6.76Zm8.44,3.12a9.65,9.65,0,0,1-3.56-.89,8.76,8.76,0,0,0-1.31,3.49,1.46,1.46,0,0,0-.34-0.14c0-.27.1-0.54,0.18-0.81l-3.89,1.13-0.1-.33,0.43-.12L279,629.16l-0.46.13-0.1-.33,4-1.16a10.87,10.87,0,0,1-.9-0.95,1.15,1.15,0,0,0,.22-0.31,9.62,9.62,0,0,0,3.24,2.61,10.79,10.79,0,0,1,1.79-2.06,8.35,8.35,0,0,1-2.3-.87,1.67,1.67,0,0,0,.15-0.35,9.41,9.41,0,0,0,4.49,1.18l0,0.36c-0.44,0-.89-0.05-1.32-0.12l0.83,2.86,0,0.07Zm-8.26,2.22,2.91-.85-1.05-3.63-2.91.85Zm3.29-.79a9.5,9.5,0,0,1,1.13-2.46,10.59,10.59,0,0,1-2.31-1.58Zm0.4-9.29,0.82,2.83,2.59-.75-0.82-2.83Zm3.1,4.57a10.27,10.27,0,0,0-1.9,2.11,8.49,8.49,0,0,0,3,.79l-0.83-2.86Z"/><polyline class="i" points="765.22 427.63 648.7 467.44 674.14 545.51 675.02 563.93 663.61 576.21 319.75 718.32 331.04 746.75"/><path d="M527,628.19a0.54,0.54,0,0,1,.14-0.78,18.6,18.6,0,0,1,2-.94,2.52,2.52,0,0,0,.31.31c-1,.38-1.72.73-2,0.85s-0.25.2-.16,0.41l3.07,7,8-3.52-3.36-7.61,0.32-.14,3.51,7.94-3,1.32a18.88,18.88,0,0,0,0,2.37l-0.39.06c0-.71,0-1.58,0-2.27l-5.27,2.33Zm6.87-1.12-0.36-.81,0.32-.14,1.91,4.31-4.29,1.89-1.55-3.5Zm1.4,3.17L534,627.4,530.32,629l1.25,2.84Z"/><path d="M515.37,633.33l-0.14-.32,7-3.11,0.14,0.32-3.31,1.46,1.51,3.42,2.6-1.15,0.14,0.32-2.6,1.15,1.32,3,3-1.33,0.14,0.32-6.44,2.85-0.14-.32,3.1-1.37-1.32-3-2.74,1.21-0.14-.32,2.74-1.21-1.51-3.42Zm6.56,5.73a10.63,10.63,0,0,0,1.88,1.43l-0.24.26a11,11,0,0,1-1.87-1.39Zm3.38-2.23a11.59,11.59,0,0,1,.3-1.81l-2.6-5.89,0.32-.14,2.42,5.47a12.8,12.8,0,0,1,.83-2.13,2.33,2.33,0,0,0,.38.13,11,11,0,0,0-1.3,4.34Zm1.22,2.38a10.81,10.81,0,0,1,1.38-3.58,1.24,1.24,0,0,0,.33.14,9.31,9.31,0,0,0-1.33,3.41Z"/><path d="M506.71,643.4l1.23-.54-2.37-5.36a0.44,0.44,0,0,1,.11-0.64,9.67,9.67,0,0,1,1.57-.77,3.23,3.23,0,0,0,.29.28c-0.78.32-1.36,0.57-1.53,0.66s-0.2.17-.13,0.32l2.38,5.38,1.46-.65,0.14,0.32-3,1.33Zm1-5.67L512,635l0.2,0.3-2,1.24,0.94,2.12,1.85-.82,0.14,0.32-1.85.82L512,640.6l-0.32.14L511,639.13l-1.85.82-0.14-.32,1.85-.82-0.91-2.06L507.84,638Zm0.44,8.56,2.76-1.22,0.14,0.32-2.76,1.22Zm5-3.22,1.68-.74,0.14,0.32-1.68.74,0.69,1.57-0.32.14-0.69-1.57-1.69.75-0.14-.32,1.69-.75-0.83-1.89-1.92.85-0.14-.32,4.17-1.84,0.14,0.32-1.93.85Zm1.64-1.1a11.17,11.17,0,0,1,.33-2.22l-2.64-6,0.32-.14,2.46,5.56a12,12,0,0,1,.71-1.86,2.07,2.07,0,0,0,.37.13,10.72,10.72,0,0,0-1.2,4.46ZM516,643.9a10.17,10.17,0,0,1,1.09-3.39l0.34,0.14a8.52,8.52,0,0,0-1,3.21Z"/><path d="M365.09,706.09a0.54,0.54,0,0,1-.15.78,18.54,18.54,0,0,1-2,.92,2.56,2.56,0,0,0-.3-0.31c1-.37,1.73-0.72,2-0.83s0.25-.2.16-0.41l-3-7-8,3.44,3.28,7.65-0.32.14-3.43-8,3-1.29a19.14,19.14,0,0,0,0-2.37l0.39-.05c0,0.72,0,1.59,0,2.27l5.29-2.27Zm-6.88,1,0.35,0.82-0.32.14-1.86-4.33,4.31-1.85,1.51,3.51ZM356.84,704l1.23,2.85,3.67-1.58-1.23-2.85Z"/><path d="M365.63,695.07a10.85,10.85,0,0,1-1.42,3.57,1.23,1.23,0,0,0-.32-0.15,9.33,9.33,0,0,0,1.36-3.39Zm1.2,2.4a11.73,11.73,0,0,1-.32,1.81l2.54,5.92-0.32.14-2.36-5.5a12.89,12.89,0,0,1-.85,2.13,2.22,2.22,0,0,0-.38-0.13,11,11,0,0,0,1.34-4.32Zm9.9,3.61,0.14,0.32-7.06,3-0.14-.32,3.33-1.43-1.48-3.44-2.61,1.12-0.14-.32,2.61-1.12-1.29-3-3,1.3-0.14-.32,6.47-2.78,0.14,0.32-3.12,1.34,1.29,3,2.75-1.18,0.14,0.32-2.75,1.18,1.48,3.44Zm-6.5-5.8a10.64,10.64,0,0,0-1.86-1.45l0.24-.26a10.9,10.9,0,0,1,1.86,1.41Z"/><path d="M376.18,690.5a10.18,10.18,0,0,1-1.12,3.38l-0.34-.14a8.53,8.53,0,0,0,1.07-3.2Zm1.27,1.93a11.22,11.22,0,0,1-.36,2.21l2.57,6-0.32.14-2.4-5.59a12.06,12.06,0,0,1-.73,1.85,2.06,2.06,0,0,0-.37-0.13,10.73,10.73,0,0,0,1.25-4.45Zm1.65-1.09-1.69.72-0.14-.32L379,691l-0.68-1.58,0.32-.14,0.68,1.58,1.7-.73,0.14,0.32-1.7.73,0.81,1.9,1.93-.83,0.14,0.32-4.19,1.8-0.14-.32,1.94-.83Zm5.35,5.4-4.37,2.67-0.2-.31,2-1.21L381,695.78l-1.86.8-0.14-.32,1.86-.8-0.7-1.62,0.32-.14,0.7,1.62,1.86-.8,0.14,0.32-1.86.8,0.89,2.07,2.09-1.27Zm-0.35-8.57-2.78,1.19-0.14-.32,2.78-1.19Zm1.39,2.91-1.23.53,2.31,5.39a0.45,0.45,0,0,1-.12.64,9.65,9.65,0,0,1-1.58.76,3.49,3.49,0,0,0-.29-0.28c0.78-.31,1.37-0.56,1.54-0.65s0.2-.17.14-0.32l-2.32-5.4-1.47.63-0.14-.32,3-1.3Z"/><path d="M693.57,456.94a0.54,0.54,0,0,1-.29.74,18.78,18.78,0,0,1-2.13.54,2.54,2.54,0,0,0-.24-0.36c1-.19,1.83-0.39,2.09-0.46s0.29-.15.24-0.37l-1.68-7.42-8.5,1.92,1.83,8.12-0.34.08-1.91-8.47,3.19-.72a18.83,18.83,0,0,0,.42-2.33l0.4,0c-0.12.71-.27,1.56-0.44,2.23l5.62-1.27Zm-7-.22,0.2,0.87-0.34.08-1-4.6,4.57-1,0.84,3.73Zm-0.76-3.38,0.68,3,3.9-.88-0.68-3Z"/><path d="M696.1,446.2a10.83,10.83,0,0,1-2,3.25,1.28,1.28,0,0,0-.29-0.2,9.32,9.32,0,0,0,2-3.09Zm0.74,2.57a11.53,11.53,0,0,1-.64,1.72l1.42,6.28-0.34.08L696,451a13,13,0,0,1-1.22,1.94,2.28,2.28,0,0,0-.35-0.2,10.94,10.94,0,0,0,2.11-4Zm9.08,5.35,0.08,0.34-7.5,1.69-0.08-.34L702,455l-0.82-3.65-2.77.63-0.08-.34,2.77-.63-0.72-3.19-3.21.72-0.08-.34,6.87-1.55L704,447l-3.31.75,0.72,3.19,2.92-.66,0.08,0.34-2.92.66,0.83,3.65Zm-5.33-6.89a10.62,10.62,0,0,0-1.57-1.76l0.28-.21a10.91,10.91,0,0,1,1.57,1.72Z"/><path d="M707.31,443.63a10.19,10.19,0,0,1-1.72,3.12l-0.3-.2a8.56,8.56,0,0,0,1.63-3Zm0.9,2.13a11.21,11.21,0,0,1-.75,2.11l1.44,6.36-0.34.08-1.34-5.93a11.83,11.83,0,0,1-1.06,1.69,2.09,2.09,0,0,0-.34-0.19,10.72,10.72,0,0,0,2-4.15ZM710,445l-1.79.4-0.08-.34,1.79-.4L709.57,443l0.34-.08,0.38,1.67,1.8-.41,0.08,0.34-1.8.41,0.45,2,2-.46,0.08,0.34-4.45,1-0.08-.34,2.06-.46Zm4.27,6.29-4.79,1.83-0.14-.34,2.22-.82-0.51-2.26-2,.45L709,449.8l2-.45-0.39-1.72,0.34-.08,0.39,1.72,2-.45,0.08,0.34-2,.45,0.5,2.2,2.29-.86Zm1.22-8.49-2.95.67-0.08-.34,2.95-.67Zm0.84,3.12-1.31.3,1.29,5.72a0.44,0.44,0,0,1-.23.61,9.63,9.63,0,0,1-1.69.46,3.24,3.24,0,0,0-.23-0.33c0.82-.16,1.44-0.3,1.63-0.35s0.23-.13.19-0.29l-1.29-5.73-1.56.35-0.08-.34,3.21-.72Z"/><path d="M657.77,510.21A0.54,0.54,0,0,1,657,510a18.59,18.59,0,0,1-.7-2.08,2.45,2.45,0,0,0,.34-0.27c0.27,1,.53,1.8.62,2s0.17,0.27.39,0.21l7.27-2.23-2.56-8.34-8,2.44-0.1-.33,8.3-2.55,1,3.13a19,19,0,0,0,2.36.24v0.4c-0.71-.07-1.58-0.15-2.25-0.27l1.69,5.5Zm-0.3-7-0.85.26-0.1-.33L661,501.8l1.38,4.48-3.66,1.12Zm3.31-1-3,.91L659,507l3-.91Z"/><path d="M666.16,512.86a11.64,11.64,0,0,1-1.76-.51l-6.16,1.89-0.1-.33,5.72-1.75a12.9,12.9,0,0,1-2-1.07,2.23,2.23,0,0,0,.18-0.37,11,11,0,0,0,4.15,1.8v0.35Zm-4.65,9.46-0.33.1-2.25-7.35,0.33-.1,1.06,3.46,3.58-1.1-0.83-2.72,0.33-.1,0.83,2.72,3.13-1-1-3.14,0.33-.1,2.07,6.73-0.33.1-1-3.24-3.13,1,0.88,2.87-0.33.1L664,517.68l-3.58,1.1Zm7.16-10.39a10.83,10.83,0,0,1-3.4-1.79,1.23,1.23,0,0,0,.18-0.31,9.31,9.31,0,0,0,3.23,1.72v0.38Zm-0.7,4.56a10.62,10.62,0,0,0,1.64-1.69l0.23,0.27a11,11,0,0,1-1.6,1.7Z"/><path d="M670,524a11.25,11.25,0,0,1-2.16-.59l-6.24,1.91-0.1-.33,5.81-1.78a12.12,12.12,0,0,1-1.77-.93,2.08,2.08,0,0,0,.17-0.35,10.73,10.73,0,0,0,4.29,1.72V524Zm-5,6.49c-0.81-1.7-1.62-3.43-2.19-4.63l0.33-.16,1,2.16,2.21-.68-0.59-1.94,0.33-.1,0.59,1.94,1.69-.52,0.1,0.33-1.69.52,0.59,1.94-0.33.1-0.59-1.94-2.16.66c0.33,0.71.67,1.46,1,2.22Zm5.51,1.65-0.39-1.28-5.61,1.72a0.44,0.44,0,0,1-.62-0.19,9.77,9.77,0,0,1-.58-1.65,3.3,3.3,0,0,0,.31-0.26c0.22,0.81.41,1.42,0.48,1.6s0.14,0.22.3,0.17l5.62-1.72L669.52,529l0.33-.1,1,3.14Zm0.44-6.38L670.38,524l0.33-.1,0.54,1.75,1.64-.5,0.1,0.33-1.64.5,0.54,1.77-0.33.1L671,526.05l-2,.61,0.62,2-0.33.1L668,524.41l0.33-.1,0.62,2Zm1.16-2.81a10.16,10.16,0,0,1-3.24-1.48c0.05-.08.13-0.23,0.18-0.32a8.56,8.56,0,0,0,3.07,1.41v0.39Zm1.45,8.12-0.89-2.89L673,528l0.89,2.89Z"/><path d="M163.21,170.68c0,0.1-.06.22-0.1,0.32a12.78,12.78,0,0,0,6.37,1.61,1.47,1.47,0,0,0-.13.36,13.35,13.35,0,0,1-6.33-1.68,17.32,17.32,0,0,1-3.51,5.65,1.7,1.7,0,0,0-.34-0.14,16,16,0,0,0,3.71-6.14Zm2,5.64,4.46-1.71,0.13,0.32-4.46,1.71,1.36,3.56a0.45,0.45,0,0,1-.15.64,9.46,9.46,0,0,1-1.69.71,1.17,1.17,0,0,0-.27-0.26c0.83-.29,1.46-0.55,1.64-0.63s0.22-.15.16-0.33L165,176.77l-4.56,1.75-0.12-.32,4.56-1.75-0.7-1.84-2.83,1.09-0.12-.33,5.88-2.25,0.13,0.32-2.72,1Zm-1.62,2.28a12.15,12.15,0,0,1-1.65,3.52,1.93,1.93,0,0,0-.36-0.1,10.7,10.7,0,0,0,1.65-3.41h0.36Zm4-1.71a17.66,17.66,0,0,1,3.45,1.43l-0.17.33a17,17,0,0,0-3.46-1.48Z"/><path d="M174.83,172.95c-0.36-.31-1.44-1.12-2.07-1.56l2.37,6.19-0.33.12-2.44-6.36a15.68,15.68,0,0,1-.19,4.83,1.14,1.14,0,0,0-.33-0.17,15.67,15.67,0,0,0,.12-5.45l-1.79.69-0.12-.33,1.88-.72-1-2.55,0.32-.12,1,2.55,1.32-.51,0.13,0.33-1.32.51,0.21,0.55c0.45,0.27,2,1.35,2.36,1.64Zm5.07-5.88-6.08,2.33-0.12-.32,6.08-2.33Zm-3.55.67a14.09,14.09,0,0,0-1.62-1.42l0.2-.24a14.26,14.26,0,0,1,1.63,1.39Zm5.5,6.85a0.83,0.83,0,0,0,.35-0.22,0.63,0.63,0,0,0,0-.47c-0.06-.26-0.26-0.82-0.53-1.56a1,1,0,0,0,.37.05,13.82,13.82,0,0,1,.54,1.6,0.63,0.63,0,0,1-.09.56,1.2,1.2,0,0,1-.5.32l-0.58.22a1.11,1.11,0,0,1-.59.07c-0.18,0-.28-0.15-0.56-0.89l-1.81-4.73-2.67,1,0.68,1.77a5.2,5.2,0,0,1-.37,5,1.05,1.05,0,0,0-.31-0.18,4.81,4.81,0,0,0,.35-4.71l-0.8-2.09,3.32-1.27,2,5.19a0.89,0.89,0,0,0,.34.56,0.69,0.69,0,0,0,.32-0.06Z"/><path d="M186.27,170l-2.82,2.57-0.25-.29c0.39-.33.88-0.76,1.41-1.24l-1.67-4.37-1.56.6-0.12-.32,1.56-.6-1-2.69,0.32-.12,1,2.69,1.48-.57,0.13,0.33-1.48.57,1.62,4.23,1.21-1.08ZM185,164.21l0.94,2.45c0.67,1.74,1.42,4.22.87,6.43a1,1,0,0,0-.34-0.11c0.52-2.15-.21-4.49-0.86-6.2L184.53,164l2.95-1.13a7.84,7.84,0,0,0-1.21-1l0.21-.22a7.6,7.6,0,0,1,1.29,1l-0.08.11,3-1.16,0.12,0.32Zm4.7,3.17,0.41,1.08,2.09-.8,1.14,3-0.33.12-0.17-.44L189,171.78l0.18,0.46-0.32.12-1.15-3,2-.78-0.41-1.08-2,.79-0.12-.33,2-.79-0.42-1.11-2.42.93-0.12-.33,2.42-.93-0.41-1.08-2,.77-0.12-.32,2-.77-0.37-1,0.35-.13,0.37,1,2-.78,0.54,1.4,0.84-.32,0.13,0.33-0.84.32,0.55,1.43ZM192,168.1l-3.82,1.46,0.73,1.89L192.7,170Zm-3-2.48,1.71-.66-0.41-1.08-1.71.66Zm0.55,1.43,1.71-.66-0.42-1.11-1.71.66Z"/><path d="M192.14,159.74c0.86,0.09,2,.26,2.61.39l-0.08.35c-0.61-.12-1.75-0.32-2.63-0.43Zm3,4a24.29,24.29,0,0,0-2.51-.45l0.11-.31c0.81,0.1,1.9.27,2.48,0.41ZM202,157l-0.93.36,3.17,8.26a0.57,0.57,0,0,1-.23.82,18.93,18.93,0,0,1-2.28,1,2.23,2.23,0,0,0-.3-0.29c1.09-.39,2-0.76,2.28-0.87a0.31,0.31,0,0,0,.2-0.48l-3.17-8.27-6,2.32-0.12-.33,7.3-2.8Zm-6.57,12.39a35.07,35.07,0,0,0,.72-4.52l0.33,0.13c-0.14,1.4-.41,3.25-0.68,4.5Zm2.72-4.15,0.32,0.83-0.33.12-1.84-4.79,3.34-1.28,1.52,4Zm-1.39-3.64,1.27,3.32,2.69-1-1.27-3.32Z"/><path d="M380.41,81.29A17.66,17.66,0,0,1,377,79.88l0.17-.33A17.08,17.08,0,0,0,380.58,81Zm2.34,0.56-4.45,1.73-0.13-.32,4.45-1.73L381.24,78a0.45,0.45,0,0,1,.15-0.64,9.5,9.5,0,0,1,1.69-.72,1.16,1.16,0,0,0,.27.26c-0.83.29-1.46,0.55-1.63,0.63s-0.22.15-.16,0.33l1.38,3.57,4.55-1.77L387.62,80l-4.55,1.77,0.71,1.83,2.83-1.1,0.13,0.32-5.87,2.28-0.13-.32,2.72-1.05Zm2,5.63c0-.1.06-0.22,0.09-0.32a12.79,12.79,0,0,0-6.37-1.58,1.47,1.47,0,0,0,.13-0.36A13.35,13.35,0,0,1,385,86.88a17.33,17.33,0,0,1,3.49-5.66,1.74,1.74,0,0,0,.34.14,16,16,0,0,0-3.69,6.15Zm-0.42-7.92A12.14,12.14,0,0,1,386,76a2,2,0,0,0,.36.1,10.7,10.7,0,0,0-1.63,3.41h-0.36Z"/><path d="M366.12,83.67a0.83,0.83,0,0,0-.35.23,0.62,0.62,0,0,0,0,.47c0.06,0.26.27,0.82,0.54,1.55a1,1,0,0,0-.37-0.05,13.78,13.78,0,0,1-.54-1.6,0.63,0.63,0,0,1,.09-0.56,1.2,1.2,0,0,1,.49-0.32l0.58-.23a1.11,1.11,0,0,1,.59-0.07c0.18,0,.28.15,0.56,0.89l1.83,4.72,2.66-1-0.68-1.77a5.2,5.2,0,0,1,.35-5,1,1,0,0,0,.31.18,4.81,4.81,0,0,0-.33,4.71l0.81,2.09-3.31,1.28-2-5.18A0.89,0.89,0,0,0,367,83.4a0.68,0.68,0,0,0-.32.06Zm2,7.5,6.07-2.35,0.13,0.32-6.07,2.35Zm3.54-.68a14.08,14.08,0,0,0,1.63,1.41l-0.2.24a14.23,14.23,0,0,1-1.63-1.39Zm1.5-5.22c0.36,0.31,1.45,1.11,2.08,1.55l-2.4-6.18,0.32-.13,2.46,6.35a15.62,15.62,0,0,1,.17-4.83,1.12,1.12,0,0,0,.33.17,15.65,15.65,0,0,0-.1,5.45l1.79-.69,0.13,0.32-1.88.73,1,2.55-0.32.13-1-2.55-1.32.51-0.12-.32,1.32-.51-0.21-.55c-0.45-.26-2-1.34-2.37-1.63Z"/><path d="M358.33,90.9l-0.42-1.07-2.09.81-1.15-3,0.32-.13L355.16,88,359,86.49,358.8,86l0.32-.13,1.16,3-2,.79,0.42,1.07,2-.79,0.13,0.32-2,.79,0.43,1.11,2.42-.94,0.13,0.32-2.42.94,0.42,1.07,2-.78,0.13,0.32-2,.78,0.38,1-0.35.13-0.38-1-2,.79L357,93.44l-0.84.33L356,93.44l0.84-.33-0.56-1.43ZM356,90.19l3.81-1.48-0.73-1.89-3.81,1.48Zm2.43,1-1.71.66L357.17,93l1.71-.66ZM363,94.05l-1-2.45c-0.67-1.73-1.44-4.21-.9-6.43a1,1,0,0,0,.34.11c-0.51,2.16.22,4.49,0.88,6.19l1.08,2.77-2.94,1.14a7.82,7.82,0,0,0,1.21,1l-0.21.22a7.56,7.56,0,0,1-1.29-1l0.07-.11-3,1.17-0.13-.32Zm-4-1.4-1.71.66,0.42,1.07,1.71-.66Zm2.71-4.36,2.81-2.58L364.78,86c-0.39.33-.87,0.76-1.41,1.24l1.69,4.36,1.55-.6,0.13,0.32-1.55.6,1,2.68-0.32.13-1-2.68-1.48.57-0.13-.32,1.48-.57-1.64-4.23-1.2,1.08Z"/><path d="M346.08,101.29l0.93-.36-3.2-8.25a0.56,0.56,0,0,1,.22-0.82,18.79,18.79,0,0,1,2.28-1,2.25,2.25,0,0,0,.31.29c-1.09.4-2,.77-2.28,0.88a0.31,0.31,0,0,0-.2.48l3.2,8.25,6-2.34,0.13,0.32-7.29,2.83ZM349.89,93l-0.32-.83,0.33-.13,1.86,4.79-3.33,1.29-1.54-4Zm1.41,3.63L350,93.36l-2.68,1,1.28,3.31Zm1.3-7.8a35.18,35.18,0,0,0-.71,4.52l-0.33-.13c0.14-1.4.4-3.25,0.66-4.5Zm0.26,5.69a24.44,24.44,0,0,0,2.51.44l-0.11.31c-0.81-.1-1.9-0.27-2.48-0.4Zm3,4c-0.86-.09-2-0.25-2.61-0.37l0.08-.35c0.61,0.12,1.75.31,2.63,0.42Z"/></g><circle class="j" cx="146.3" cy="348.15" r="40"/></svg>