<svg xmlns="http://www.w3.org/2000/svg" viewBox="0 0 64 64"><defs><style>.a{fill:none;stroke:#000;stroke-miterlimit:10;}.b{fill:#000;}</style></defs><title>menuOnGear</title><path class="a" d="M37.69,11.78a20.87,20.87,0,0,1,4.58,1.9h0l5.63-3.25,5.66,5.66-3.25,5.63h0a20.87,20.87,0,0,1,1.9,4.6h0L58.5,28v8l-6.28,1.68h0a20.87,20.87,0,0,1-1.91,4.6h0l3.25,5.63-5.66,5.66-5.63-3.25h0a20.87,20.87,0,0,1-4.6,1.91h0L36,58.5H28l-1.68-6.27h0a20.87,20.87,0,0,1-4.6-1.91h0l-5.63,3.25-5.66-5.66,3.25-5.63a20.83,20.83,0,0,1-1.91-4.6h0L5.5,36V28l6.28-1.68h0a20.87,20.87,0,0,1,1.91-4.6h0l-3.25-5.63,5.66-5.66,5.64,3.25h0a20.87,20.87,0,0,1,4.59-1.9h0L28,5.5h8l1.68,6.29"/><path class="b" d="M32,22.5A9.5,9.5,0,1,1,22.5,32,9.51,9.51,0,0,1,32,22.5m0,18A8.5,8.5,0,1,0,23.5,32,8.51,8.51,0,0,0,32,40.5m0-19A10.5,10.5,0,1,0,42.5,32,10.5,10.5,0,0,0,32,21.5h0Zm0,18A7.5,7.5,0,1,1,39.5,32,7.5,7.5,0,0,1,32,39.5h0Z"/></svg>