<svg xmlns="http://www.w3.org/2000/svg" xmlns:xlink="http://www.w3.org/1999/xlink" viewBox="0 0 736 736"><defs><style>.a{fill:url(#a);}.b{fill:#fff;opacity:0.2;}.c{fill:url(#b);}.d{fill:url(#c);}.e{fill:url(#d);}.f{fill:url(#e);}.g{fill:#2e7d32;}</style><linearGradient id="a" x1="313.8" y1="816" x2="313.8" y2="235.74" gradientUnits="userSpaceOnUse"><stop offset="0" stop-color="#eee"/><stop offset="0.39" stop-color="#eee" stop-opacity="0.99"/><stop offset="0.54" stop-color="#edeeef" stop-opacity="0.96"/><stop offset="0.64" stop-color="#edeff0" stop-opacity="0.92"/><stop offset="0.72" stop-color="#ebeff1" stop-opacity="0.84"/><stop offset="0.79" stop-color="#eaf0f3" stop-opacity="0.75"/><stop offset="0.85" stop-color="#e8f1f5" stop-opacity="0.64"/><stop offset="0.91" stop-color="#e6f2f8" stop-opacity="0.51"/><stop offset="0.96" stop-color="#e4f4fb" stop-opacity="0.36"/><stop offset="1" stop-color="#e1f5fe" stop-opacity="0.2"/></linearGradient><linearGradient id="b" x1="371.07" y1="816" x2="371.07" y2="248.33" gradientUnits="userSpaceOnUse"><stop offset="0" stop-color="#43a047"/><stop offset="0.28" stop-color="#409f49"/><stop offset="0.51" stop-color="#369b51"/><stop offset="0.72" stop-color="#25965e"/><stop offset="0.91" stop-color="#0d8e71"/><stop offset="1" stop-color="#00897b"/></linearGradient><linearGradient id="c" x1="349.61" y1="341.26" x2="349.61" y2="411.26" gradientUnits="userSpaceOnUse"><stop offset="0" stop-color="#eee"/><stop offset="0.65" stop-color="#eceff0"/><stop offset="0.88" stop-color="#e7f2f7"/><stop offset="1" stop-color="#e1f5fe"/></linearGradient><linearGradient id="d" x1="78.45" y1="256.73" x2="78.45" y2="466.41" xlink:href="#c"/><linearGradient id="e" x1="555" y1="248.33" x2="555" y2="399.31" xlink:href="#c"/></defs><title>mt</title><polygon class="a" points="952.92 814.04 -325.31 816 -85.01 448.18 -27.86 525.92 38.67 330.23 66.06 436.12 185.82 235.74 221.83 353.02 286.8 304.77 340.03 388.3 411.26 326.21 451.96 365.59 487.18 295.57 568.72 393.09 616.62 295.57 667.4 433.53 712.61 370.44 952.92 814.04"/><polygon class="b" points="667.4 433.53 638.64 473.65 616.62 295.57 667.4 433.53"/><polygon class="b" points="712.61 370.44 832.37 816 952.92 814.04 712.61 370.44"/><polygon class="b" points="66.06 436.12 54.72 455.11 38.67 330.23 66.06 436.12"/><polygon class="b" points="221.83 353.02 198.37 370.44 185.82 235.74 221.83 353.02"/><polygon class="b" points="340.03 388.3 307.21 416.89 286.8 304.77 340.03 388.3"/><polygon class="b" points="451.96 365.59 431.24 406.77 411.26 326.21 451.96 365.59"/><polygon class="b" points="568.72 393.09 555.75 410.81 487.18 295.57 568.72 393.09"/><polygon class="c" points="901.55 816 -159.41 816 75.09 256.73 240.25 494 344.69 341.26 461.7 400.79 566.84 248.33 901.55 816"/><polygon class="d" points="344.69 341.26 296.82 411.26 309.77 405.57 320.76 411.26 340.03 406.77 351.88 411.11 364.23 399 375.71 399 381.53 385 397.31 385 402.39 370.64 344.69 341.26"/><polygon class="e" points="75.09 256.73 -12.83 466.41 18.7 437.8 38.68 444.9 57.03 426.26 86.48 441.17 104.29 421.26 133.06 445.24 146.07 422 161 422 169.73 392.74 75.09 256.73"/><polygon class="b" points="240.25 493.78 216.55 528.41 75.09 256.73 240.25 493.78"/><polygon class="b" points="344.69 341.26 398.53 501.26 461.7 400.79 344.69 341.26"/><polygon class="f" points="566.84 248.33 478.62 376.26 510.45 368.25 537.16 399.31 557.71 372.37 580.32 386.48 603.8 366.5 621.41 372.37 631.39 357.8 566.84 248.33"/><polygon class="b" points="566.84 248.33 744.36 816 901.55 816 566.84 248.33"/><polygon class="g" points="357.71 740 445.39 595.07 524.41 687.23 575.45 643.27 667.3 740 357.71 740"/><polygon class="b" points="575.26 643.28 610.32 740 666.93 740 575.26 643.28"/><polygon class="b" points="524.41 687.23 494.46 713.04 445.39 595.05 524.41 687.23"/></svg>