<svg xmlns="http://www.w3.org/2000/svg" viewBox="0 0 262.59 99.13"><defs><style>.a{fill:#fff;}</style></defs><title>Clerk</title><path class="a" d="M468.76,203c-2.46,2.27-4.45,4.09-6.43,5.94q-6.49,6.05-13,12.11c-4.57,4.26-9.08,8.58-13.75,12.73-5.32,4.73-10.77,9.34-16.22,13.92a8.44,8.44,0,0,1-3.18,1.62c-3.52.94-6-.72-6-4.34-0.07-4.27.29-8.54,0.49-12.81,0-1,.21-2.06.37-3.63-2.78,1.8-5,3.27-7.3,4.72-3.92,2.51-8.34,3.3-12.88,3.43-4,.11-5.34-1.09-6-5-0.24-1.47-.38-3-0.6-4.77-2.22,1.22-3.57,3.66-6.25,2.94-2.1-.57-4.18-1.19-6.63-1.89-0.22.63-.57,1.5-0.84,2.39-1.4,4.61-2.76,9.24-4.17,13.85a13.53,13.53,0,0,1-1,2.42c-2.2,4.1-5.33,4.9-9.28,2.38a41.49,41.49,0,0,1-4.63-3.12,49.07,49.07,0,0,1-3.91-4.17c-0.6,3.09-1.09,5.93-1.72,8.74a18.07,18.07,0,0,1-1.27,3.37c-1.13,2.52-2.64,4.63-5.82,4.5-3.41-.14-6.59-0.83-8.47-4.08-0.76-1.32-1.27-2.78-2.12-4.67a23.22,23.22,0,0,0-1.78,2.33,22.47,22.47,0,0,1-9,8.88,10.77,10.77,0,0,0-3.73,3.58c-3.42,5.33-13.33,5.85-17.91.67-3.94-4.45-6.63-9.49-9.32-14.64-0.39-.75-0.76-1.5-1.44-2.83a12.93,12.93,0,0,0-.67,2.22,51.76,51.76,0,0,1-8,25.09c-3.07,4.74-6.57,9.33-11.6,12.39-4.54,2.76-9.23,3.38-14.14,1.29-2.94-1.25-4.92-3.67-6.56-6.28-5.43-8.63-8.05-17.93-6.48-28.21,1.37-8.93,4.36-17,10.4-24,5.4-6.23,12-7.07,19.43-5.32a9,9,0,0,1,3.61,2.19,2.54,2.54,0,0,1,.49,2.27c-0.41,1.08-1.52,1.07-2.54.66a2.81,2.81,0,0,1-.56-0.34c-3.88-2.75-8.15-2.33-12.3-1.14-3.19.91-5.12,3.73-7,6.26a42.34,42.34,0,0,0-7.58,20.37,38.06,38.06,0,0,0,.22,10.46,32.37,32.37,0,0,0,8.82,18.33,9,9,0,0,0,11.44.9c4.92-3.19,8.26-7.76,11.46-12.51,2.64-3.91,3.66-8.4,5.15-12.76,2.06-6,2-12.31,2.57-18.49a30.65,30.65,0,0,0-1-9.76c-1.47-6.21-.81-12.44-0.8-18.67,0-1.35.52-2.44,2-2.48s1.89,1.31,2,2.51c0.16,1.85.07,3.72,0.25,5.57,0.58,5.89,1.1,11.79,1.89,17.65,0.66,4.94,2.67,9.48,5,13.85,2,3.77,3.81,7.65,6.62,10.93,0.78,0.91,1.65,1.74,2.47,2.62,2.8,3,8.15,2.51,10.54-.82a15.33,15.33,0,0,0-1.36-1.21c-5.41-3.79-5.92-16.95,3.6-20.39a12.56,12.56,0,0,1,5.17-.39c2.13,0.18,2.93,1,3.19,3.11a35.7,35.7,0,0,1,.1,5.56,23.22,23.22,0,0,0-.13,3.91c2.4-4.22,6.76-7.18,7.3-12.48a7.48,7.48,0,0,1,1.1-3.39,3.11,3.11,0,0,1,2.44-1c1.16,0.1,1.33,1.16,1.23,2.28-0.22,2.51-.43,5-0.44,7.54a13,13,0,0,0,.63,4.52,7.31,7.31,0,0,0,2.42,3.34c2.87,2,4.55,1.42,5.8-1.83,2.34-6.11,2.36-12.42,1.43-18.79-0.35-2.38-.89-4.75-1.09-7.14-0.16-1.91.61-2.79,2-2.82,1.54,0,2.06,1,2.3,2.3a23.48,23.48,0,0,1,.56,3.57,13.43,13.43,0,0,0,2.5,7c2.31,3.59,4.55,7.26,8.55,9.32,0.95,0.49,1.88,1,3.13,1.68a25.57,25.57,0,0,0,2-3.93q2.88-9.44,5.53-18.94a8.25,8.25,0,0,0-.63-5.41c-2.78-7-5.38-14.11-8-21.21a12.71,12.71,0,0,1-.68-3.54c-0.16-2.63,2-4.1,4.34-2.95a8.79,8.79,0,0,1,2.58,2,21.61,21.61,0,0,1,5.69,12c0.57,4.68,1.11,9.38,1.3,14.08,0.11,2.73,1.53,4.54,3.21,6.22s3.09,1.3,4.53-.34a35.72,35.72,0,0,0,6.37-9.52c1-2.26,2.71-4.2,4.2-6.22a3.8,3.8,0,0,1,1.78-1.39,3.08,3.08,0,0,1,2.4.13,2.59,2.59,0,0,1,.62,2.27,12.2,12.2,0,0,1-1.72,3.52c-2.64,3.89-3.53,8.48-5.21,12.75a3,3,0,0,0-.16,1c-0.23,6,.73,5.73,5.41,5.27,6.64-.65,11.39-4.73,16-9a11,11,0,0,1,2.73-2.3,3.88,3.88,0,0,1,3,.06c0.53,0.29.7,1.74,0.57,2.59-0.52,3.25-1.34,6.44-1.83,9.69a36.8,36.8,0,0,0-.06,12.22,15.15,15.15,0,0,0,2.49-1.28q14.53-11.86,28-24.93c6.13-6,12.53-11.64,18.79-17.46,1.53-1.42,3-2.94,4.51-4.32,0.95-.84,1.88-2.08,3.41-1.45s1.13,2.17,1.24,3.44c0.21,2.51.33,5,.68,7.51,0.57,4,2.56,7.39,5.05,10.55,2,2.57,3.78,5.37,6.86,6.93,0.9,0.46,1.76,1.42.94,2.38a2.8,2.8,0,0,1-2.54.7,14.72,14.72,0,0,1-4.87-3.19,69,69,0,0,1-6.64-9A25.61,25.61,0,0,1,470,209.6C469.45,207.73,469.25,205.75,468.76,203ZM316.43,244.16c-2.88-.27-3.56-0.06-4.93,1.4a9.71,9.71,0,0,0-1.66,10.58,3.92,3.92,0,0,0,2.39,1.81,2.48,2.48,0,0,0,2.78-1.82C316.33,252.32,317.38,248.46,316.43,244.16Zm48.65-45.32-0.81.45a30.76,30.76,0,0,0,2.5,6.05l0.64-.28Z" transform="translate(-237.05 -190.72)"/><path class="a" d="M499.62,228.12a4.63,4.63,0,0,1-1.2,1.07c-1,.45-3.73-0.64-4.29-1.77a2.12,2.12,0,0,1,0-1.78c0.74-1.12,1.84-.85,2.92-0.4C498.89,226,499.76,226.83,499.62,228.12Z" transform="translate(-237.05 -190.72)"/></svg>