<svg xmlns="http://www.w3.org/2000/svg" viewBox="0 0 276.25 85.48"><defs><style>.a{fill:#fff;}</style></defs><title>Fuchen</title><path class="a" d="M506.69,200a10.72,10.72,0,0,1-1.66.7c-2.86.64-5.74,1.16-8.58,1.87-6.69,1.67-13.36,3.41-20,5.16q-6.63,1.74-13.23,3.6c-2.74.77-5.44,1.68-8.18,2.47-2.15.62-4.35,1.11-6.5,1.72-5.41,1.52-10.84,3-16.21,4.65-4.64,1.43-9.21,3.1-13.82,4.66L405.9,229c-7.38,2.48-14.78,4.9-22.13,7.45-4.32,1.5-8.55,3.24-12.83,4.84-1.26.47-2.58,0.81-3.84,1.28-4.56,1.72-9.07,3.55-13.66,5.18s-9.4,3.08-14.09,4.66c-5.33,1.8-10.63,3.68-16,5.46a35.65,35.65,0,0,1-3.94.88,7.36,7.36,0,0,0-1.76.35c-2.55,1.29-5.15.27-7.73,0.23a2.27,2.27,0,0,1-.87-0.5,1.35,1.35,0,0,1,.28-0.5c2.48-.49,5-0.86,7.43-1.46,3.2-.79,6.39-1.66,9.51-2.7,5.26-1.76,10.46-3.71,15.69-5.54,1.63-.57,3.32-0.95,4.94-1.53q10.9-3.92,21.78-7.91c6.06-2.22,12.1-4.5,18.16-6.7,1.19-.43,2.48-0.6,3.68-1q11.65-3.82,23.28-7.69c7.55-2.49,15.06-5.11,22.66-7.43,5.52-1.69,11.16-3,16.73-4.5,3.47-.94,6.91-2,10.38-2.95,2.74-.75,5.52-1.4,8.26-2.14,1.59-.43,3.14-1,4.75-1.39,6.8-1.56,13.61-3,20.41-4.58,2.27-.51,4.52-1.1,6.78-1.63A2.52,2.52,0,0,1,506.69,200Z" transform="translate(-230.44 -196.82)"/><path class="a" d="M295.93,223.94c0.51-2.19-.37-4.52.65-7.07,2,2,1.27,4.66,2.7,6.6,2.5,0,5.12,0,7.73,0a7.48,7.48,0,0,1,2,.18c1.12,0.33,1.37,1.25.73,2.26a2.83,2.83,0,0,0-.71,1.31c0.15,1.52-.75,1.88-1.94,2.25-2.5.78-4.95,1.7-7.48,2.58,0,2.14,0,4.14,0,6.14a1.81,1.81,0,0,0,1.67,1.83c1.77,0.32,3.52.71,5.3,0.94,2.45,0.32,4.92.51,7.37,0.77a2.13,2.13,0,0,1,1.08.21,2.19,2.19,0,0,1,.91,1.32,1.67,1.67,0,0,1-1.15,1.07,8.09,8.09,0,0,1-2.21-.2l-12.52-1.42c-0.34,1.59-.55,2.9-0.9,4.18-0.62,2.3-2.35,3-4.46,1.9s-4.33-2.39-5.43-4.85c-0.91-2-.39-3.41,1.79-3.87a25,25,0,0,1,3.77-.26c0.51,0,1,0,1.69,0,0.61-2.26-.18-4.35-0.08-6.79-1.08.23-1.85,0.36-2.61,0.55-1.6.4-3.18,0.87-4.79,1.2a3.46,3.46,0,0,1-1.76-.15,2.15,2.15,0,0,1-1.32-1,1.42,1.42,0,0,1,1.11-1.72c1.07-.33,2.17-0.56,3.26-0.81,1.31-.3,2.64-0.56,3.95-0.87,1.85-.43,2-0.76,1.69-3.09-1.66.12-3.37,0.11-5,.38-2.22.36-4.41,0.88-6.6,1.41-4.36,1.06-8.72,2.14-13.07,3.29a65.21,65.21,0,0,0-6.42,2c-1.73.65-3.4,0.34-5.11,0.15a1.08,1.08,0,0,1-.8-0.61,1.64,1.64,0,0,1,.35-1.19,2.38,2.38,0,0,1,1.19-.56q10.4-2.42,20.81-4.8C286.14,226.14,291,225.07,295.93,223.94Zm0.53,18.86-5.35-.38a19.6,19.6,0,0,0,1.68,2.68c0.83,0.91,1.78,2.32,3.14,1.57S296.87,244.35,296.46,242.8Zm8.31-16.55a7.12,7.12,0,0,0-4.63-.16c-0.93.17-1,1-.86,1.78a1.18,1.18,0,0,0,1.51.94A6,6,0,0,0,304.77,226.25Z" transform="translate(-230.44 -196.82)"/><path class="a" d="M356.58,227.14a3,3,0,0,1,.79-0.42c2.26,0.26,3.78-1.14,5.36-2.4,1.28-1,2.56-2,3.81-3.08a2.73,2.73,0,0,0,.43-0.78,2.05,2.05,0,0,0-.73-0.25c-5,.92-10,1.94-14.67,4.07a1.39,1.39,0,0,0-.89,1.79c0.44,2.27.8,4.56,1.2,6.84a2.73,2.73,0,0,1,.2,1.09,2.37,2.37,0,0,1-.85,1.34,1,1,0,0,1-1.34-.8c-0.4-1.52-.71-3.07-1.09-4.59-0.33-1.3-.71-2.59-1.11-4.07a17.83,17.83,0,0,0-2.05.47c-1.32.48-1.49,0.84-1.15,2.2,0.09,0.36.24,0.71,0.34,1.07,0.19,0.72.17,1.4-.69,1.63a1.29,1.29,0,0,1-1.65-.82c-0.27-.68-0.42-1.41-0.64-2.2-2.23-.19-4.38,1.64-6.64.09a2.48,2.48,0,0,1,2.28-1.7c1.56-.28,1.6-0.36,1.32-1.92a4.08,4.08,0,0,1,.38-2.81,5.29,5.29,0,0,0,.39-2.12,2.62,2.62,0,0,1,1.22-2.55l1.84,3c1.2-.41,2.67-0.44,3.19-2a1.66,1.66,0,0,0-1.16-2.26c1.17-2,2-2.41,3.58-1.92,1.79,0.56,2.57,2,1.64,3.65s-0.7,2.81.52,4.34c1.45-.47,3-1.06,4.54-1.47q5.55-1.43,11.14-2.7a9.81,9.81,0,0,1,2.47,0,1.75,1.75,0,0,1,1.06,3.25c-2.1,1.89-4.13,3.86-6.25,5.72a6.25,6.25,0,0,1-5.5,1.31A4.45,4.45,0,0,1,356.58,227.14Zm-13.44-5.33a2.34,2.34,0,0,0,.82,2.74c0.6,0.41,2.32-.13,2.79-0.85,0.64-1,.24-1.8-0.53-2.63Z" transform="translate(-230.44 -196.82)"/><path class="a" d="M233.65,242c0.26,1.15.52,2.29,0.77,3.44s0.46,2.2.69,3.3c0.69,3.38,1.34,6.76,2.06,10.13,0.31,1.46.89,2.87,1.11,4.34a66.78,66.78,0,0,0,3,10.55c0.64,2,1.09,4,1.61,6.08a3.37,3.37,0,0,1,.14,1.33,1.48,1.48,0,0,1-.59,1.06A1.66,1.66,0,0,1,241,282a4.4,4.4,0,0,1-.9-1.76c-0.94-3.16-1.86-6.33-2.72-9.51q-2.3-8.45-4.51-16.93c-0.28-1.08-.32-2.23-0.5-3.34-0.65-4.13-1.37-8.24-1.93-12.38a8.33,8.33,0,0,1,.36-3.26,1.62,1.62,0,0,1,1.39-.8,1.74,1.74,0,0,1,.95,1.28c0.29,2.22.45,4.46,0.66,6.69Z" transform="translate(-230.44 -196.82)"/><path class="a" d="M327.69,230l-1.3-4-6.77,3a3.6,3.6,0,0,1-1.19.57,2,2,0,0,1-1.34-.55,1.24,1.24,0,0,1,0-1.22,7.69,7.69,0,0,1,2.18-1.83c1.76-.84,3.61-1.48,5.42-2.21,0.48-.19.93-0.44,1.61-0.77-0.12-.81-0.24-1.6-0.34-2.39s-0.23-1.5.62-1.7,1,0.65,1.13,1.3a8.88,8.88,0,0,0,.15.89,1,1,0,0,0,1.39.75c0.92-.31,1.84-0.64,2.73-1a2.61,2.61,0,0,1,2.79,0c0.1,1.24-.67,1.75-1.63,2.1a18.54,18.54,0,0,0-2.12.75,2.78,2.78,0,0,0-1.56,3.73,41.57,41.57,0,0,1,1.41,5.2,18.22,18.22,0,0,1-.05,4.22,1.52,1.52,0,0,1-1.73,1.42,14.82,14.82,0,0,1-8.95-3.18,1.2,1.2,0,0,1,.24-2.08c2.27-1.44,4.54-3,7.37-3-1.19,1-2.35,2.06-3.56,3-1,.82-1.08,1.7.06,2.27a7.89,7.89,0,0,0,2.78.76c1.26,0.11,1.52-.26,1.69-1.54A8.94,8.94,0,0,0,327.69,230Z" transform="translate(-230.44 -196.82)"/><path class="a" d="M389.23,204.07c2.29,0.15,4.63-.92,6.91.05a12.07,12.07,0,0,1-4.61,2.35,40.76,40.76,0,0,0-4.26,1.42,12.27,12.27,0,0,1-5.74.75,2.06,2.06,0,0,1-1.08-.25,2.3,2.3,0,0,1-1.1-1.17,1.75,1.75,0,0,1,1-1.24,14.14,14.14,0,0,1,2.87-.45c2.42-.27,2.95-1.22,1.91-3.47-0.41-.88-0.87-1.73-1.21-2.64a3.53,3.53,0,0,1-.16-1.55c0.11-1.06.91-1.4,1.73-.64a8.88,8.88,0,0,1,1.91,2.42C388.14,201,388.62,202.55,389.23,204.07Z" transform="translate(-230.44 -196.82)"/><path class="a" d="M392.19,226.52c-2.27-1.38-1.77-3.15-1.83-4.71s0-3.27,0-5.27c-2.12,1-4.13,1.85-6.09,2.83-1,.5-2,0.81-2.94.09a1.54,1.54,0,0,1-.65-1.06,1.29,1.29,0,0,1,.81-0.9c4-1,7.32-3.32,10.84-5.28a2.27,2.27,0,0,1,1-.42,2.9,2.9,0,0,1,1.62.38A1.3,1.3,0,0,1,395,214a20.87,20.87,0,0,0-1.41,2.51,16.47,16.47,0,0,0-1.22,7.46A22.5,22.5,0,0,1,392.19,226.52Z" transform="translate(-230.44 -196.82)"/></svg>