<svg xmlns="http://www.w3.org/2000/svg" viewBox="0 0 200.58 99.71"><defs><style>.a{fill:#fff;}</style></defs><title>Miesn</title><path class="a" d="M387.24,222.11c2.81,0.24,2.72,3,4.07,5.07a16.12,16.12,0,0,0,2.93-1.6c2.25-1.92,4.33-4.05,6.58-6,1.68-1.43,3.52-2.67,5.29-4,1.17-.87,1.17-0.86,1.14-3-2.45-.65-4.76.33-7.11,0.73-0.83.14-1.63,0.5-2.45,0.66-1,.19-2,0.07-2.23-1.15s0.77-1.36,1.61-1.55c2.06-.47,4.14-0.88,6.2-1.39,4.79-1.17,5.81-2.7,5.14-7.62-0.13-.94-0.38-1.87-0.48-2.82s0-1.9,1.11-1.87a2,2,0,0,1,1.44,1.3,38.27,38.27,0,0,1,.51,5c0.07,1.12,0,2.26,0,3.39a8.28,8.28,0,0,0,5.55-.74,3.47,3.47,0,0,0,1.45-2.19c0.33-1.21.21-2.54,0.48-3.77a2,2,0,0,1,1.11-1.23,2.86,2.86,0,0,1,1.52,1.27,4.36,4.36,0,0,1,.14,1.87,3.36,3.36,0,0,0,0,1.55c1.69,2.11.16,3.2-1,4.79-1.36,1.82-2.05,4.13-3.12,6.42a8,8,0,0,0,1.35.8c1.51,0.51,1.68,1.45.93,2.7-1.1,1.84-1,3.82-.88,6.42a18.3,18.3,0,0,0,2.64-1.28,7.41,7.41,0,0,1,5.67-1.26,15.92,15.92,0,0,0,6.2-.8c2.15-.63,2.34-2.25.7-3.82-0.6-.58-1.22-1.14-1.82-1.72a0.6,0.6,0,0,1,0-.31c1.36-1.12,2.74-1.27,4,0a7.75,7.75,0,0,1,1.71,3.25c0.31,1.15.72,2.22,1.92,2.07a3.38,3.38,0,0,0,2-1.72,25,25,0,0,1,2.51-4.5l0.7,3.18c4.53-2.8,8.72-5.44,11.76-9.41-0.65-1.52-1.72-1-2.61-1.12a5.6,5.6,0,0,1-5-4.59,1.89,1.89,0,0,1,.58-1.58,2.25,2.25,0,0,1,2.19,1.22c2.18,2.68,3,3,6.23,2a4.08,4.08,0,0,1,1.2-.39c0.89,0,1.78.24,2.67,0.37a7.46,7.46,0,0,1-.7,2.52c-3.12,4.2-6.69,7.92-11.5,10.25a4.49,4.49,0,0,0-.83,1.11L451.9,219a15.8,15.8,0,0,1,2.82.31c2.36,0.69,2.79,2,1.06,3.84-1.26,1.33-1.16,2.42,0,3.56a20.17,20.17,0,0,0,3.13,2.66c2.21,1.45,4.53,2.73,6.78,4.14,0.76,0.47,1.41,1.11,2.63,2.08a23.84,23.84,0,0,1-3.19,1.5c-3.35.94-6.73,1.77-10.1,2.64a3.69,3.69,0,0,0-3,3.29c-1.6,9.28-3.32,18.54-4.94,27.82-1,5.62-1.85,11.26-2.8,16.88a2.6,2.6,0,0,1-.6,1.43,2,2,0,0,1-1.57.63,1.74,1.74,0,0,1-.82-1.47c0.25-1.44.87-2.82,1.12-4.26q1.55-8.91,3-17.85,1.69-10.65,3.28-21.32a25.75,25.75,0,0,0,0-3.28c-1.82.43-3.21,0.71-4.57,1.09-4,1.09-7.91,2.28-11.89,3.31a4.51,4.51,0,0,1-4.82-1,10,10,0,0,1,2-1.77c5.13-2.49,10.33-4.84,15.44-7.37a43,43,0,0,0,4.65-3.08l-0.19-.63a4.71,4.71,0,0,0-1.56-.28,30.59,30.59,0,0,1-4,.85,3.1,3.1,0,0,1-2.34-1.15c-0.66-1,.35-1.75,1.17-2.24,1.82-1.09,3.72-2,5.52-3.14,1.47-.91,3.12-1.69,4-3.82-3.13,0-5.94-.12-8.73.09a2.88,2.88,0,0,0-1.74,1.89c-1.13,4.24-3.23,8-5.22,11.88a9.56,9.56,0,0,1-1.38,2.1c-2,2.17-4.1,1.74-4.9-1.13a11.65,11.65,0,0,1,.35-7.49c0.45-1.15.87-2.32,1.54-4.14l-4.6.85c1.62,3.94-.56,5.7-3.36,7.23-1.86,1-3.61,2.21-5.4,3.34-1.17.74-2.4,1.45-2.37,3.21,0.63,0.63,1.74,1.23,1.91,2a5.53,5.53,0,0,1-.71,3c-1.18,2.71-2.39,5.41-3.77,8a2.5,2.5,0,0,1-2,1c-1.21-.1-1.34-1.21-1.14-2.21,0.26-1.24.62-2.46,1-3.68,0.65-2.15.44-4.31,0.64-6.89a25.37,25.37,0,0,1-3.42,1.12,1.77,1.77,0,0,1-1.54-.55,1.81,1.81,0,0,1,.5-1.6c1.36-1.17,3-2.06,4.25-3.29a6.86,6.86,0,0,0,2-7.31c-2.77-.19-5.05,1-7.41,1.78a1.23,1.23,0,0,0-.73,2,2.07,2.07,0,0,0,1.91.13c0.83-.41,1.43-1.26,2.23-1.76a7.11,7.11,0,0,1,2.14-.37c-1.66,2.92-2.38,5.81-5.49,7.14-1.48.64-2.51,0.69-3.73-.35-3-2.56-6.66-2.24-10.22-2.28-1.14,0-1.62.9-1.71,1.94-0.15,1.79-.26,3.59-0.39,5.38a10.72,10.72,0,0,1-.3,2.82,2.83,2.83,0,0,1-1.55,1.73,2.53,2.53,0,0,1-2-1.1c-1.32-2.05-2.52-4.19-2.16-6.81a20.83,20.83,0,0,0,0-2.65,8.35,8.35,0,0,0-6.23,1.13,2.74,2.74,0,0,1-3.73-.09,3.94,3.94,0,0,0-2.6-.84c-4.62.52-9.22,1.22-13.83,1.84a6.38,6.38,0,0,0-5.13,3.79c-0.81,1.66-.86,1.63-2.89,2-1-1.65,1.11-2.58.93-4.36-2.58-.52-5.08.36-7.47,1.13-1.79.58-2,2.6-2.36,4.24a11.78,11.78,0,0,0-.4,3.5c2.53-1.67,3-5.05,6.05-6.79a16.18,16.18,0,0,1-2.81,5.84c-2.08,3.3-4.22,6.56-6.38,9.8-0.85,1.28-1.64,2.84-4.05,1.67,1.72-5.94,4.86-11.43,5.64-18a30.11,30.11,0,0,0-3.59.23c-9.57,1.81-19.14,3.57-28.68,5.53-5.7,1.17-11.3,2.86-17,4-6.43,1.23-12.93,2.1-19.42,3-1,.15-2.7.78-3-0.81-0.32-1.89,1.51-2,2.83-2.21q12.3-2.38,24.61-4.72c5.62-1.07,11.25-2.09,16.86-3.17a15.81,15.81,0,0,0,8-4.21c4.93-4.64,10.22-8.91,15.08-13.62a118.42,118.42,0,0,0,16.53-19.21c0.82-1.23,1.28-2.68,2.06-3.94a3.81,3.81,0,0,1,1.53-.81,4.23,4.23,0,0,1,.78,1.82,5.63,5.63,0,0,1-1.09,2.26,52.44,52.44,0,0,1-3.57,4.84c-3.61,4.12-7.32,8.16-11,12.23-1,1.15-2.11,2.26-3.16,3.39l0.36,0.55c0.77-.15,1.55-0.26,2.31-0.45,2-.49,3-0.1,3.62,1.9a14.59,14.59,0,0,1,.39,4.06c0,1.88-.17,3.75-0.29,5.91a23.39,23.39,0,0,0,9.55-1.41c2.39-1,3.18-3.65,3.83-5.92a7.61,7.61,0,0,1,2.61-4.15,9.28,9.28,0,0,0,2-2.44c3.6-6,7.14-12,10.73-18,0.81-1.36,1.78-2.63,2.55-4a18.36,18.36,0,0,0,1-2.69l-0.62-.59-8.48,3.61c-1.06-1.09-.39-1.81.35-2.17a70.19,70.19,0,0,1,7.8-3.43c2.81-1,2.87-.77,3.34-3.71a10.92,10.92,0,0,1,.47-2.48A5.54,5.54,0,0,1,380,190.1l0.66,0.23a14.75,14.75,0,0,1,0,2.58c-0.66,3.64-1.35,7.28-2.12,10.91-0.59,2.81-.37,3.78,1.23,4.27,1.37,0.42,2.1-.09,3.19-2.76s1.83-5.16,2.74-7.74c0.17-.48.4-0.94,0.6-1.41,1.4,0.27,1.11,1.29,1,2a22.35,22.35,0,0,1-3.61,9.74,6.59,6.59,0,0,0-1.22,5,14.6,14.6,0,0,1-.2,4.39c-0.78,4.8-1.66,9.58-2.5,14.39,1.09,0.59,2,1.09,2.87,1.56,2.7,1.4,5.56-.25,5.44-3.31a24.35,24.35,0,0,0-1-4.92C386.83,224.12,386,223.17,387.24,222.11Zm-64,19.57a10.21,10.21,0,0,0,2.49.44c4.38-.61,8.75-1.29,13.12-1.95a2.41,2.41,0,0,0,2.32-2.22,41.55,41.55,0,0,0-.12-6.87c-0.17-1.47-1.42-1.82-3-1.07a51.83,51.83,0,0,0-4.73,2.5,23.83,23.83,0,0,0-3.14,2.52c-1.18,1-2.29,2.16-3.42,3.24Zm34.15-6,0.49,0.94c2.48-.24,4.95-0.57,7.43-0.71a3.45,3.45,0,0,0,3.54-2.88c0.56-2,.81-3.87-0.89-5.54s-4.11-1.88-5.46,0C360.62,230.13,359.08,233,357.4,235.72Zm22-20.55c-3.25,4.47-5.72,8.83-6.91,13.81a5,5,0,0,0,1.54,4.64c1,1.08,2.12.85,2.76-.5a5,5,0,0,0,.37-1.21q1.46-7.79,2.88-15.58A4.38,4.38,0,0,0,379.43,215.17Zm26.05,13.31c2.35-.46,4.61-0.82,6.82-1.35,3-.72,3.75-3,2-6.19a30.35,30.35,0,0,0-8.41,4C404.68,225.63,404.77,226.79,405.48,228.48Zm-12.85,3.44a28.07,28.07,0,0,0,7.92-1.41,1.38,1.38,0,0,0,.82-0.88c0.47-2.35.94-4.73-1.2-7A31.49,31.49,0,0,0,392.63,231.92ZM403.25,220c0.3,1.53,1.25,1.72,2.2,1.28a56,56,0,0,0,6.74-3.48c2-1.29,3.15-5.09,2.49-7.14-4.08.67-4.08,0.67-4.29,4.67,0,0.21,0,.42,0,0.63-0.18,2.22-.54,2.45-2.82,1.82-0.4-.11-0.8-0.2-1.31-0.33Zm50,17.49a65.3,65.3,0,0,0,10.45-2.1c-1.39-2.44-3.78-2.53-5.41-3.74s-2.74-.61-3.87.58A5,5,0,0,0,453.21,237.47Zm-13.38-14.24c-5.34,1.54-8.67,8.22-6.35,11.86C436.28,231.65,437.65,227.61,439.83,223.22Zm1.35,17,0.27,0.87c2.28-.69,4.59-1.3,6.84-2.09,1-.35,1.49-1.16.61-2.41C446.14,237.43,443.4,238.29,441.18,240.26Zm-23.6-7.48c2.47-1.11,4.14-2.39,4.64-4.92C418.34,227.51,417.68,228.17,417.58,232.78Zm-51.69-10.44c3.07-.41,3.85-1.78,2.35-4.26Zm6.88-4.83,1-3.82C371.58,215,371.58,215,372.76,217.51Z" transform="translate(-267.71 -190.1)"/></svg>