<svg xmlns="http://www.w3.org/2000/svg" viewBox="0 0 40 40"><defs><style>.a{fill:#009688;}.b{fill:#fff;stroke:#000;stroke-miterlimit:10;}</style></defs><title>Guest3</title><rect class="a" width="40" height="40"/><path class="b" d="M8.93,18.53c1.92-.61,5.61-0.45,6.88-1.56l0.08-.07c0.36-.33,1.52-1.47,1.26-2.53a2,2,0,0,0-.76-1,5.66,5.66,0,0,1-1.75-4.62C15,6.94,17,5.48,19,5.32c3.22-.26,6.12,2.93,5.78,4.8-0.28,1.55-2.73,1.79-2.82,3.41-0.07,1.32,1.5,2.33,1.7,2.47a5.8,5.8,0,0,0,7-1.15c0.9-1.14.77-2.38,1.9-2.85a1.74,1.74,0,0,1,1.85.2c0.7,0.84-.37,3.23-1.8,4.65-2.85,2.82-6,.68-8.27,2.65C20.17,23.16,26.1,35.09,23,36.74a1.86,1.86,0,0,1-1.79-.09c-2-1.35,1.33-7.31-.85-9.14a2.61,2.61,0,0,0-3-.13c-2.05,1.62,1.5,7.52-.58,9.19a2.65,2.65,0,0,1-2.87,0c-1.61-1-.92-4.45.09-9.55,0.87-4.4,1.85-6,1-6.77-1-.89-3.87,0-5.62,1.68-2,1.94-2.1,4.53-3.45,4.59a1.65,1.65,0,0,1-1.4-.9C3.61,23.84,5.75,19.54,8.93,18.53Z"/><path class="b" d="M17.28,11.32A1.86,1.86,0,0,0,20.87,11"/></svg>