<svg xmlns="http://www.w3.org/2000/svg" viewBox="0 0 40 40"><defs><style>.a{fill:#ffeb3b;}.b{fill:#fff;stroke:#000;stroke-miterlimit:10;}</style></defs><title>Guest1</title><rect class="a" width="40" height="40"/><path class="b" d="M35.16,11.75a1.8,1.8,0,0,1,.15,1.51c-0.65,2.58-7.92,2.54-10.93,6.22-4.81,5.88,2,15.73-1.41,17.26a2,2,0,0,1-1.79-.09c-2-1.35,1.33-7.31-.85-9.14a2.61,2.61,0,0,0-3-.13c-2.05,1.62,1.5,7.52-.58,9.19a2.65,2.65,0,0,1-2.87,0c-1.61-1-.92-4.45.09-9.55,0.87-4.4,1.67-6.39,1-6.77-1.24-.74-5.6,6-8,4.93a1.73,1.73,0,0,1-1-1.52c0.1-2.13,6-3,9.77-6.63,0.74-.71,1.57-1.69,1.34-2.6a2,2,0,0,0-.76-1,5.66,5.66,0,0,1-1.75-4.62C15,6.94,17,5.48,19,5.32c3.22-.26,6.12,2.93,5.78,4.8-0.28,1.55-2.73,1.79-2.82,3.41A2.68,2.68,0,0,0,23.69,16c2.52,0.81,5.66-4.1,9.54-4.62A2.22,2.22,0,0,1,35.16,11.75Z"/><path class="b" d="M17.28,11.32A1.86,1.86,0,0,0,20.87,11"/></svg>