<svg xmlns="http://www.w3.org/2000/svg" viewBox="0 0 40 40"><defs><style>.a{fill:#8bc34a;}.b{fill:#fff;stroke:#000;stroke-miterlimit:10;}</style></defs><title>Guest2</title><rect class="a" width="40" height="40"/><path class="b" d="M24.39,19.48C20,25.08,25.86,35.16,23,36.74a1.83,1.83,0,0,1-1.79-.09c-2-1.35,1.33-7.31-.85-9.14a2.61,2.61,0,0,0-3-.13c-2.05,1.62,1.5,7.52-.58,9.19a2.65,2.65,0,0,1-2.87,0c-1.61-1-.92-4.45.09-9.55,0.74-3.75,1.93-5.22,1-6.77-0.66-1.15-1.65-1.08-3.27-2C7.32,15.64,4.87,9.53,6.33,7.74a2.15,2.15,0,0,1,2.2-.6c2.4,0.81.86,6.42,4.35,9,0.34,0.25,1.72,1.29,2.93.79a2.41,2.41,0,0,0,1.34-2.6,2.09,2.09,0,0,0-.76-1,5.66,5.66,0,0,1-1.75-4.62C15,6.94,17,5.48,19,5.32c3.22-.26,6.12,2.93,5.78,4.8-0.28,1.55-2.73,1.79-2.82,3.41A2.52,2.52,0,0,0,23.69,16c1,0.25,2-.65,2.67-1.25,3.26-3.06,1.38-8,3.6-9a2.5,2.5,0,0,1,2.75.6c1.47,1.78-1.11,6.67-4.1,9.79C26.26,18.58,25.67,17.84,24.39,19.48Z"/><path class="b" d="M17.28,11.32A1.86,1.86,0,0,0,20.87,11"/></svg>